<svg width="26" height="26" viewBox="0 0 26 26" fill="none" xmlns="http://www.w3.org/2000/svg">
<g id="fi-rr-bell" clip-path="url(#clip0_1_5797)">
<path id="Vector" d="M23.8842 14.7136L21.9249 7.66415C21.3505 5.59894 20.1024 3.78496 18.3788 2.51056C16.6552 1.23615 14.5551 0.574442 12.4123 0.630623C10.2694 0.686805 8.20685 1.45765 6.5524 2.82062C4.89795 4.1836 3.74657 6.06049 3.28128 8.15295L1.76434 14.9745C1.59678 15.7283 1.60066 16.5101 1.77568 17.2621C1.9507 18.0142 2.2924 18.7173 2.77555 19.3197C3.25869 19.922 3.87096 20.4081 4.56713 20.7421C5.2633 21.0762 6.02561 21.2496 6.79777 21.2495H7.94655C8.18324 22.4151 8.8156 23.4631 9.7365 24.2157C10.6574 24.9684 11.8102 25.3796 12.9996 25.3796C14.1889 25.3796 15.3417 24.9684 16.2626 24.2157C17.1835 23.4631 17.8159 22.4151 18.0526 21.2495H18.9168C19.7116 21.2496 20.4958 21.0659 21.2079 20.7127C21.92 20.3596 22.5409 19.8466 23.0219 19.2138C23.5029 18.581 23.8312 17.8455 23.9809 17.0649C24.1307 16.2842 24.0979 15.4795 23.8852 14.7136H23.8842ZM12.9996 23.312C12.362 23.3094 11.7408 23.1098 11.221 22.7406C10.7012 22.3714 10.3082 21.8507 10.0956 21.2495H15.9035C15.691 21.8507 15.2979 22.3714 14.7781 22.7406C14.2583 23.1098 13.6371 23.3094 12.9996 23.312ZM21.3793 17.9651C21.092 18.3463 20.7197 18.6552 20.292 18.8674C19.8643 19.0795 19.3931 19.189 18.9157 19.1871H6.79777C6.33452 19.187 5.87721 19.0829 5.45958 18.8824C5.04196 18.682 4.67468 18.3903 4.38486 18.0289C4.09504 17.6675 3.89007 17.2457 3.7851 16.7945C3.68012 16.3433 3.67781 15.8743 3.77833 15.4221L5.29424 8.59947C5.65965 6.95591 6.56399 5.48166 7.86349 4.41109C9.163 3.34051 10.7831 2.73506 12.4662 2.69096C14.1493 2.64687 15.7989 3.16667 17.1526 4.16774C18.5064 5.1688 19.4867 6.59368 19.9377 8.21586L21.897 15.2653C22.0265 15.7246 22.0471 16.2077 21.9572 16.6764C21.8674 17.145 21.6695 17.5863 21.3793 17.9651Z" fill="#444444"/>
</g>
<defs>
<clipPath id="clip0_1_5797">
<rect width="24.7495" height="24.7495" fill="white" transform="translate(0.625 0.625)"/>
</clipPath>
</defs>
</svg>
