<svg width="320" height="183" viewBox="0 0 320 183" fill="none" xmlns="http://www.w3.org/2000/svg">
<path d="M145.034 181.596C144.837 179.244 145.276 176.883 146.303 174.758C147.33 172.633 148.908 170.823 150.873 169.516C152.838 168.209 155.118 167.454 157.475 167.329C159.831 167.203 162.179 167.713 164.271 168.803C165.284 166.096 166.323 163.34 168.114 161.074C169.905 158.809 172.613 157.071 175.502 157.178V181.596H145.034Z" fill="#EBEBEB"/>
<path d="M64.7594 86.999L49.1842 118.427L53.8376 118.602L40.6344 143.575H47.5691L36.7539 165.76H97.2103L83.8952 143.575L90.2756 143.298L77.5201 118.336L82.2321 118.059L64.7594 86.999Z" fill="#EBEBEB"/>
<path d="M67.4008 123.453C67.4754 123.453 67.3422 136.779 67.1023 153.175C66.8624 169.571 66.6066 182.897 66.5266 182.891C66.4467 182.886 66.5853 169.566 66.8251 153.17C67.065 136.774 67.3208 123.453 67.4008 123.453Z" fill="#E0E0E0"/>
<path d="M74.8073 130.782C74.5078 131.292 74.1673 131.777 73.7892 132.232C73.1336 133.106 72.1901 134.284 71.1241 135.574L68.4056 138.863C68.0476 139.333 67.6576 139.779 67.2383 140.196C67.5335 139.682 67.8723 139.195 68.251 138.74C68.912 137.872 69.8501 136.688 70.9162 135.398L73.6347 132.109C73.9915 131.638 74.3835 131.194 74.8073 130.782Z" fill="#E0E0E0"/>
<path d="M67.2591 140.195C66.0706 139.44 64.9312 138.61 63.8477 137.711C62.7077 136.88 61.6233 135.976 60.6016 135.003C61.7923 135.758 62.9336 136.587 64.0183 137.487C65.1586 138.316 66.2414 139.22 67.2591 140.195Z" fill="#E0E0E0"/>
<path d="M66.8408 155.605C66.4318 155.342 66.0497 155.038 65.7001 154.699C65.0178 154.118 64.101 153.319 63.0349 152.455C61.9689 151.592 60.9987 150.829 60.2951 150.28C59.8958 150.002 59.5213 149.69 59.1758 149.348C59.6109 149.564 60.0234 149.823 60.4071 150.121C61.148 150.654 62.1448 151.373 63.2108 152.253C64.2769 153.132 65.199 153.948 65.8493 154.566C66.2125 154.88 66.5445 155.228 66.8408 155.605Z" fill="#E0E0E0"/>
<path d="M75.4497 146.08C75.373 146.233 75.2782 146.376 75.1672 146.507C74.9753 146.768 74.6822 147.135 74.309 147.573C73.5575 148.463 72.4701 149.646 71.2388 150.931C70.0075 152.215 68.9041 153.367 68.1205 154.225C67.7174 154.704 67.2886 155.162 66.8359 155.595C66.9055 155.441 66.999 155.298 67.1131 155.174C67.305 154.907 67.5982 154.539 67.9713 154.108C68.7229 153.212 69.8103 152.029 71.0416 150.749C72.2729 149.47 73.3762 148.308 74.1598 147.45C74.5637 146.969 74.9943 146.512 75.4497 146.08Z" fill="#E0E0E0"/>
<path d="M191.57 122.76H254.735L266.536 106.002L278.908 123.235L293.443 123L277.777 101.897L207.348 102.191L191.57 122.76Z" fill="#E0E0E0"/>
<path d="M223.152 123V181.745H286.226V123H278.998L266.53 106.001L254.692 122.744L223.152 123Z" fill="#F5F5F5"/>
<path d="M246.821 156.277H232.066V181.746H246.821V156.277Z" fill="#E0E0E0"/>
<path d="M278.908 155.558H255.668V169.955H278.908V155.558Z" fill="#E0E0E0"/>
<path d="M262.642 155.558H262.109V170.088H262.642V155.558Z" fill="#EBEBEB"/>
<path d="M272.303 155.558H271.77V170.088H272.303V155.558Z" fill="#EBEBEB"/>
<path d="M272.039 162.993H262.375V163.526H272.039V162.993Z" fill="#EBEBEB"/>
<path d="M278.908 126.748H255.668V141.145H278.908V126.748Z" fill="#E0E0E0"/>
<path d="M262.642 126.748H262.109V141.278H262.642V126.748Z" fill="#EBEBEB"/>
<path d="M272.303 126.748H271.77V141.278H272.303V126.748Z" fill="#EBEBEB"/>
<path d="M272.039 134.183H262.375V134.716H272.039V134.183Z" fill="#EBEBEB"/>
<path d="M245.279 126.875H230.621V140.755H245.279V126.875Z" fill="#E0E0E0"/>
<path d="M223.16 123H197.559V181.741H223.16V123Z" fill="#E0E0E0"/>
<path d="M238.221 126.875H237.688V140.755H238.221V126.875Z" fill="#EBEBEB"/>
<path d="M245.279 133.89H230.621V134.423H245.279V133.89Z" fill="#EBEBEB"/>
<path d="M266.502 120.324C268.218 120.324 269.61 118.933 269.61 117.216C269.61 115.5 268.218 114.109 266.502 114.109C264.786 114.109 263.395 115.5 263.395 117.216C263.395 118.933 264.786 120.324 266.502 120.324Z" fill="#E0E0E0"/>
<path d="M244.334 113.406L248.252 108.566V96.9297H240.043V113.496L244.334 113.406Z" fill="#F5F5F5"/>
<path d="M244.332 113.406V96.9297H248.25V108.566L244.332 113.406Z" fill="#EBEBEB"/>
<path d="M248.805 95.2183H239.125V96.9293H248.805V95.2183Z" fill="#EBEBEB"/>
<path d="M223.159 148.697H175.527V181.745H223.159V148.697Z" fill="#F5F5F5"/>
<path d="M205.35 148.697H175.527V181.745H205.35V148.697Z" fill="#E0E0E0"/>
<path d="M200.906 159.353H181.402V181.687H200.906V159.353Z" fill="#F5F5F5"/>
<path d="M220.532 159.263H207.969V162.461H220.532V159.263Z" fill="#EBEBEB"/>
<path d="M191.57 122.76V124.461H254.697V122.744L191.57 122.76Z" fill="#EBEBEB"/>
<path d="M254.695 124.46L266.502 107.888L266.534 106.001L254.733 122.76L254.695 124.46Z" fill="#EBEBEB"/>
<path d="M293.14 123H279.004V124.099H293.14V123Z" fill="#EBEBEB"/>
<path d="M241.789 152.376H236.57V154.359H241.789V152.376Z" fill="#E0E0E0"/>
<path d="M320 181.745C320 181.82 248.361 181.884 160.005 181.884C71.6501 181.884 0 181.82 0 181.745C0 181.671 71.6234 181.596 160 181.596C248.377 181.596 320 181.665 320 181.745Z" fill="#263238"/>
<path d="M196.207 27.1347C184.4 10.8933 167.237 3.32422 149.3 3.32422C149.3 3.32422 105.437 3.32422 92.4472 42.5926C87.6499 57.0644 88.716 72.7782 94.526 86.8715C96.7073 92.2292 99.4556 97.3381 102.724 102.111C114.072 118.475 149.338 163.148 149.338 163.148H157.003C166.842 149.481 191.612 104.083 199.032 89.526C208.334 71.2591 209.762 45.7802 196.207 27.1347ZM156.64 99.7709C149.229 99.7709 141.984 97.5731 135.821 93.4554C129.659 89.3376 124.856 83.485 122.02 76.6375C119.184 69.7901 118.442 62.2554 119.888 54.9864C121.335 47.7174 124.904 41.0405 130.145 35.8001C135.386 30.5598 142.064 26.9913 149.333 25.5461C156.602 24.1008 164.137 24.8436 170.984 27.6806C177.831 30.5176 183.683 35.3213 187.8 41.4843C191.916 47.6473 194.113 54.8926 194.112 62.3041C194.111 72.2414 190.162 81.7712 183.135 88.7975C176.108 95.8237 166.577 99.7709 156.64 99.7709Z" fill="#FF725E"/>
<path opacity="0.4" d="M196.207 27.1347C184.4 10.8933 167.237 3.32422 149.3 3.32422C149.3 3.32422 105.437 3.32422 92.4472 42.5926C87.6499 57.0644 88.716 72.7782 94.526 86.8715C96.7073 92.2292 99.4556 97.3381 102.724 102.111C114.072 118.475 149.338 163.148 149.338 163.148H157.003C166.842 149.481 191.612 104.083 199.032 89.526C208.334 71.2591 209.762 45.7802 196.207 27.1347ZM156.64 99.7709C149.229 99.7709 141.984 97.5731 135.821 93.4554C129.659 89.3376 124.856 83.485 122.02 76.6375C119.184 69.7901 118.442 62.2554 119.888 54.9864C121.335 47.7174 124.904 41.0405 130.145 35.8001C135.386 30.5598 142.064 26.9913 149.333 25.5461C156.602 24.1008 164.137 24.8436 170.984 27.6806C177.831 30.5176 183.683 35.3213 187.8 41.4843C191.916 47.6473 194.113 54.8926 194.112 62.3041C194.111 72.2414 190.162 81.7712 183.135 88.7975C176.108 95.8237 166.577 99.7709 156.64 99.7709Z" fill="black"/>
<path d="M203.921 27.438C192.115 11.2019 174.951 3.63281 157.015 3.63281C157.015 3.63281 113.152 3.63282 100.162 42.9012C95.3643 57.373 96.4304 73.0868 102.246 87.1801C104.424 92.5381 107.171 97.6471 110.438 102.42C121.787 118.778 157.036 163.473 157.036 163.473C157.036 163.473 197.765 107.446 206.731 89.856C216.048 71.557 217.482 46.0888 203.921 27.438ZM156.69 100.08C149.278 100.08 142.033 97.8818 135.871 93.7643C129.709 89.6468 124.906 83.7945 122.07 76.9473C119.234 70.1002 118.492 62.5658 119.937 55.297C121.383 48.0281 124.952 41.3512 130.193 36.1106C135.433 30.8701 142.11 27.3012 149.379 25.8553C156.648 24.4094 164.182 25.1515 171.03 27.9877C177.877 30.8239 183.729 35.6268 187.846 41.789C191.964 47.9513 194.162 55.1961 194.162 62.6074C194.199 67.5386 193.255 72.4279 191.384 76.9909C189.514 81.5539 186.756 85.6994 183.269 89.1864C179.782 92.6734 175.636 95.4322 171.073 97.3022C166.51 99.1723 161.621 100.116 156.69 100.08Z" fill="#FF725E"/>
<path d="M156.643 24.8325C148.899 24.8325 141.346 27.2314 135.021 31.6994C128.697 36.1675 123.912 42.4852 121.324 49.7837C124.215 43.394 129.119 38.1267 135.287 34.7871C141.454 31.4475 148.545 30.2193 155.476 31.2902C162.407 32.3611 168.797 35.6722 173.669 40.7173C178.54 45.7625 181.626 52.2641 182.454 59.2285C183.282 66.1928 181.806 73.2367 178.253 79.2834C174.7 85.33 169.265 90.0468 162.778 92.7128C156.291 95.3787 149.109 95.8472 142.331 94.0464C135.553 92.2457 129.551 88.2749 125.242 82.741C128.784 88.1814 133.679 92.6082 139.446 95.5875C145.214 98.5667 151.657 99.9963 158.143 99.7359C164.63 99.4756 170.938 97.5343 176.448 94.1024C181.958 90.6705 186.483 85.8657 189.577 80.1589C192.672 74.4522 194.23 68.0393 194.1 61.5488C193.97 55.0584 192.156 48.7131 188.835 43.1348C185.515 37.5566 180.802 32.9369 175.158 29.7284C169.515 26.5199 163.135 24.8329 156.643 24.8325Z" fill="#FF725E"/>
<path opacity="0.4" d="M156.643 24.8325C148.899 24.8325 141.346 27.2314 135.021 31.6994C128.697 36.1675 123.912 42.4852 121.324 49.7837C124.215 43.394 129.119 38.1267 135.287 34.7871C141.454 31.4475 148.545 30.2193 155.476 31.2902C162.407 32.3611 168.797 35.6722 173.669 40.7173C178.54 45.7625 181.626 52.2641 182.454 59.2285C183.282 66.1928 181.806 73.2367 178.253 79.2834C174.7 85.33 169.265 90.0468 162.778 92.7128C156.291 95.3787 149.109 95.8472 142.331 94.0464C135.553 92.2457 129.551 88.2749 125.242 82.741C128.784 88.1814 133.679 92.6082 139.446 95.5875C145.214 98.5667 151.657 99.9963 158.143 99.7359C164.63 99.4756 170.938 97.5343 176.448 94.1024C181.958 90.6705 186.483 85.8657 189.577 80.1589C192.672 74.4522 194.23 68.0393 194.1 61.5488C193.97 55.0584 192.156 48.7131 188.835 43.1348C185.515 37.5566 180.802 32.9369 175.158 29.7284C169.515 26.5199 163.135 24.8329 156.643 24.8325Z" fill="black"/>
<path d="M231.354 79.4834C229.846 78.4477 228.017 77.988 226.199 78.1882C223.129 78.54 218.678 78.993 218.678 78.993V79.137L197.181 80.4589L190.598 67.1064L180.625 73.6787C180.625 73.6787 181.936 75.7789 187.528 86.1037C188.619 88.1189 190.303 89.7506 192.352 90.7782C194.4 91.8058 196.715 92.1798 198.983 91.8498L224.296 88.1185V88.0706C226.913 87.9266 229.744 87.6815 230.16 87.303C230.948 86.5887 231.663 83.9769 231.663 83.9769C231.663 83.9769 236.172 86.642 237.041 86.7167C237.91 86.7913 238.07 86.0504 238.608 85.2828C238.992 84.8084 234.344 81.5196 231.354 79.4834Z" fill="#FFBE9D"/>
<path d="M191.941 66.2544C191.941 66.2544 187.762 58.211 183.946 50.6153C179.245 41.2926 168.877 39.4216 168.877 39.4216L153.856 37.4494C153.856 37.4494 141.287 31.7726 129.614 45.8713L120.02 56.5905L122.061 58.4295L131.576 66.958L133.457 68.653L137.764 64.2182L135.765 75.4492L132.231 91.1096L139.87 90.1875L145.035 58.6054L174.16 60.9241L171.836 80.8541C172.305 80.7848 175.828 80.0919 176.974 75.3053C177.342 73.7778 177.342 72.1847 176.974 70.6572L178.658 74.9695L191.941 66.2544Z" fill="#455A64"/>
<path d="M144.999 58.6211L139.834 90.2032L132.195 91.1253C137.297 95.5274 143.494 98.4701 150.129 99.6428C156.765 100.816 163.595 100.175 169.897 97.7882L171.837 80.8538L174.124 60.9398L144.999 58.6211Z" fill="#263238"/>
<path d="M146.723 35.8815L146.094 61.5363L150.934 62.3039L151.584 36.3026C151.584 36.3026 149.894 35.503 146.723 35.8815Z" fill="#263238"/>
<path d="M167.281 61.6649L171.284 39.6294C171.514 39.3842 174.797 40.5622 175.788 41.6815L172.196 62.1233L167.281 61.6649Z" fill="#263238"/>
<path d="M151.13 58.5302C151.181 58.6701 151.207 58.8182 151.205 58.9673C151.241 59.3716 151.241 59.7783 151.205 60.1826C151.167 60.8028 150.959 61.4006 150.602 61.9096C150.383 62.2136 150.092 62.4589 149.755 62.6239C149.382 62.7918 148.968 62.8421 148.566 62.7678C148.19 62.6882 147.834 62.5322 147.52 62.3094C147.207 62.0866 146.942 61.8017 146.743 61.4725C146.435 60.9399 146.252 60.3436 146.21 59.7295C146.175 59.3252 146.175 58.9185 146.21 58.5142C146.207 58.3629 146.235 58.2126 146.29 58.0718C146.338 58.0718 146.29 58.7114 146.402 59.7082C146.476 60.2741 146.667 60.8185 146.962 61.3073C147.146 61.6015 147.388 61.8556 147.673 62.0544C147.958 62.2531 148.28 62.3924 148.619 62.464C148.956 62.5235 149.303 62.4859 149.619 62.3556C149.935 62.2254 150.208 62.0078 150.405 61.7284C150.745 61.2579 150.957 60.7066 151.018 60.1293C151.135 59.1698 151.077 58.5302 151.13 58.5302Z" fill="#455A64"/>
<path d="M148.274 60.7953C148 60.6864 147.781 60.4734 147.665 60.203C147.548 59.9326 147.544 59.627 147.653 59.3534C147.762 59.0799 147.975 58.8608 148.245 58.7443C148.516 58.6279 148.821 58.6236 149.095 58.7325C149.23 58.7864 149.354 58.8664 149.458 58.968C149.563 59.0697 149.646 59.1909 149.704 59.3248C149.761 59.4587 149.792 59.6026 149.794 59.7484C149.796 59.8941 149.77 60.0389 149.716 60.1743C149.662 60.3098 149.582 60.4333 149.48 60.5378C149.379 60.6423 149.257 60.7258 149.123 60.7834C148.99 60.8411 148.846 60.8718 148.7 60.8739C148.554 60.8759 148.409 60.8492 148.274 60.7953Z" fill="#455A64"/>
<path d="M171.041 60.9339C171.042 61.1545 170.977 61.3704 170.855 61.5543C170.734 61.7382 170.56 61.8818 170.357 61.9669C170.153 62.0521 169.929 62.0749 169.712 62.0325C169.496 61.9901 169.297 61.8844 169.141 61.7289C168.984 61.5733 168.878 61.3748 168.834 61.1585C168.791 60.9423 168.813 60.718 168.897 60.5141C168.981 60.3103 169.124 60.136 169.307 60.0133C169.49 59.8907 169.706 59.8252 169.927 59.8252C170.221 59.8252 170.504 59.9418 170.712 60.1496C170.921 60.3574 171.039 60.6394 171.041 60.9339Z" fill="#455A64"/>
<path d="M172.531 60.1667C172.523 60.6096 172.438 61.0477 172.281 61.4619C172.131 61.933 171.878 62.3646 171.54 62.7252C171.324 62.9488 171.06 63.1206 170.769 63.2277C170.477 63.3347 170.165 63.3744 169.856 63.3435C169.238 63.2767 168.668 62.9821 168.256 62.5173C167.936 62.1378 167.723 61.6796 167.638 61.1901C167.576 60.8686 167.565 60.5394 167.606 60.2146C167.613 60.0936 167.645 59.9753 167.702 59.8682C167.709 60.2992 167.752 60.7288 167.83 61.1528C167.934 61.5959 168.146 62.0063 168.448 62.3468C168.824 62.7515 169.333 63.0071 169.882 63.0664C170.153 63.0947 170.427 63.0615 170.684 62.9692C170.941 62.8769 171.173 62.7279 171.364 62.5333C171.686 62.2088 171.937 61.8202 172.1 61.3926C172.377 60.6517 172.483 60.1507 172.531 60.1667Z" fill="#455A64"/>
<path d="M148.179 70.7256C148.141 70.7256 148.125 70.5124 148.136 70.1926C148.136 70.0274 148.136 69.8248 148.163 69.6063C148.163 69.489 148.163 69.3717 148.189 69.2598V69.0786V68.9826V68.892L148.344 68.7534C148.97 68.7747 149.59 68.8878 150.183 69.0892C149.559 69.159 148.929 69.1375 148.312 69.0253C148.28 69.0572 148.605 68.7641 148.467 68.892V68.972V69.0679V69.2545C148.467 69.3717 148.44 69.4837 148.424 69.6063C148.424 69.8301 148.365 70.0274 148.339 70.1979C148.269 70.5018 148.216 70.7256 148.179 70.7256Z" fill="#455A64"/>
<path d="M147.404 78.05C147.334 77.4339 147.354 76.8108 147.463 76.2004C147.483 75.5798 147.594 74.9655 147.794 74.3774C147.87 74.9931 147.852 75.6169 147.74 76.2271C147.716 76.8476 147.603 77.4615 147.404 78.05Z" fill="#455A64"/>
<path d="M148.485 84.4087C147.876 84.2586 147.292 84.0198 146.753 83.6998C146.753 83.7318 146.609 83.4386 146.673 83.5612V83.4813V83.3853V83.1987L146.721 82.8523C146.753 82.6337 146.785 82.4312 146.811 82.2659C146.875 81.9355 146.928 81.7329 146.966 81.7329C147.003 81.7329 147.019 81.9515 147.008 82.2659C147.008 82.4365 146.998 82.6337 146.976 82.8576C146.976 82.9802 146.976 83.0921 146.944 83.2094V83.3906V83.4866V83.5719C147.014 83.6945 146.854 83.4013 146.87 83.4333C147.453 83.6775 147.997 84.0062 148.485 84.4087Z" fill="#455A64"/>
<path d="M153.411 86.855C152.514 86.6228 151.673 86.2132 150.938 85.6504C151.396 85.7258 151.835 85.8926 152.227 86.1408C152.665 86.2981 153.068 86.5409 153.411 86.855Z" fill="#455A64"/>
<path d="M159.274 88.2042C158.758 88.5623 158.192 88.8425 157.595 89.0357H157.462H157.419L157.334 88.9931L157.168 88.9078L156.859 88.7479L156.326 88.4547C156.038 88.2841 155.868 88.1615 155.884 88.1242C155.9 88.0869 156.102 88.1242 156.417 88.2788C156.571 88.3428 156.758 88.4227 156.95 88.5187L157.264 88.6679L157.435 88.7479L157.52 88.7852H157.563H157.472C158.041 88.5032 158.648 88.3074 159.274 88.2042Z" fill="#455A64"/>
<path d="M163.251 86.5887C163.278 86.6633 162.857 86.8978 162.308 87.1217C161.759 87.3456 161.29 87.4682 161.242 87.3989C161.194 87.3296 161.636 87.0897 162.185 86.8659C162.734 86.642 163.219 86.5194 163.251 86.5887Z" fill="#455A64"/>
<path d="M167.164 83.2256C167.234 83.8486 167.216 84.4785 167.111 85.0965L167.02 85.2138H166.977L166.887 85.2511L166.716 85.3204L166.391 85.443C166.178 85.5176 165.991 85.5869 165.826 85.6349C165.506 85.7415 165.293 85.7895 165.293 85.7522C165.293 85.7148 165.464 85.6082 165.762 85.4537L166.295 85.2031L166.62 85.0645L166.791 84.9953L166.876 84.9579H166.924L166.839 85.0752C166.854 84.4459 166.963 83.8223 167.164 83.2256Z" fill="#455A64"/>
<path d="M167.877 76.3174C167.947 77.4805 167.826 78.6473 167.519 79.7714C167.445 79.1934 167.459 78.6074 167.562 78.0337C167.577 77.4487 167.683 76.8696 167.877 76.3174Z" fill="#455A64"/>
<path d="M166.57 70.811C167.194 70.7412 167.824 70.7628 168.441 70.875L168.564 71.0242V71.1095V71.2055V71.3867C168.564 71.504 168.537 71.6159 168.521 71.7332C168.489 71.957 168.463 72.1543 168.431 72.3248C168.372 72.6553 168.313 72.8579 168.276 72.8579C168.239 72.8579 168.228 72.6393 168.233 72.3248C168.233 72.1543 168.233 71.9517 168.265 71.7278L168.292 71.3814V71.1948V71.0189L168.415 71.1682C167.786 71.1405 167.164 71.0202 166.57 70.811Z" fill="#455A64"/>
<path d="M160.031 70.1077C161.134 70.0391 162.241 70.1581 163.304 70.4595C162.755 70.5372 162.197 70.5246 161.652 70.4222C161.098 70.4041 160.551 70.2979 160.031 70.1077Z" fill="#455A64"/>
<path d="M153.49 69.3983C154.039 69.3206 154.597 69.3332 155.142 69.4356C155.689 69.456 156.228 69.5621 156.742 69.7501C155.639 69.8187 154.532 69.6997 153.469 69.3983H153.49Z" fill="#455A64"/>
<path d="M119.225 60.3694C119.188 61.009 119.172 61.654 119.172 62.3043C119.17 64.836 119.425 67.3613 119.934 69.8414V69.916C119.998 70.2251 120.073 70.529 120.147 70.8328C120.435 72.0374 120.782 73.2261 121.165 74.3988C121.213 74.5427 121.261 74.6919 121.315 74.8359C122.69 74.5267 126.677 71.0727 131.266 66.7604L121.757 58.2319C120.441 59.5325 119.657 60.2201 119.225 60.3694Z" fill="#FFBE9D"/>
<path d="M179.247 5.00879C179.578 8.69204 183.773 11.7943 187.472 11.6823C189.508 11.6184 191.571 10.7122 193.527 11.2772C196.811 12.2314 198.138 16.8101 201.523 17.4231C204.038 17.8815 206.357 15.824 208.91 15.7067C210.787 15.6055 212.556 16.5436 214.113 17.599C215.669 18.6544 217.151 19.875 218.91 20.4774C220.669 21.0797 222.321 20.0136 224.118 19.4646C224.56 20.6053 224.853 22.0125 225.424 23.1958C225.994 24.3792 226.687 26.5699 225.674 27.039C225.674 27.039 222.844 28.5048 221.207 28.4249C221.868 29.0913 222.694 29.5714 223.6 29.8167C224.506 30.0619 225.46 30.0635 226.367 29.8214C226.82 32.5612 227.161 35.7221 225.301 37.7849C224.432 38.6791 223.32 39.2998 222.103 39.5705C216.165 41.1057 209.955 36.9534 203.927 38.0834C201.453 38.5524 199.188 39.885 196.688 40.2155C195.455 40.3683 194.204 40.273 193.009 39.9352C191.813 39.5975 190.697 39.024 189.727 38.2486C187.349 36.3244 185.713 33.1049 182.696 32.5985C181.358 32.3799 180.004 32.7637 178.693 33.1315C177.382 33.4993 176.028 33.8511 174.69 33.5686C173.352 33.2861 172.115 32.1561 172.174 30.8022" fill="#263238"/>
<path d="M167.457 40.781C168.123 37.0498 168.89 33.1747 168.89 33.1747C168.89 33.1747 173.816 33.2226 175.91 27.1514C177.904 21.3627 179.343 7.42924 179.343 7.42924C176.184 5.46262 172.498 4.51058 168.782 4.70116C165.065 4.89175 161.496 6.21582 158.555 8.4953L153.646 38.7448C153.075 42.2575 155.639 45.541 159.403 46.122C163.192 46.7403 166.801 44.3203 167.457 40.781Z" fill="#FFBE9D"/>
<path d="M175.66 17.8654C175.626 18.0742 175.511 18.2614 175.341 18.3869C175.171 18.5124 174.958 18.5663 174.748 18.5371C174.644 18.5278 174.543 18.4978 174.451 18.4488C174.359 18.3997 174.278 18.3327 174.213 18.2517C174.147 18.1706 174.098 18.0772 174.069 17.977C174.041 17.8767 174.032 17.7718 174.045 17.6682C174.08 17.459 174.196 17.2718 174.367 17.1464C174.538 17.021 174.751 16.9673 174.962 16.9966C175.065 17.0065 175.165 17.037 175.257 17.0863C175.348 17.1357 175.429 17.2028 175.494 17.2838C175.559 17.3647 175.607 17.4579 175.636 17.5578C175.664 17.6577 175.672 17.7623 175.66 17.8654Z" fill="#263238"/>
<path d="M177.117 17.1993C177 17.2846 176.472 16.7302 175.608 16.581C174.745 16.4317 174.041 16.7462 173.967 16.629C173.892 16.5117 174.063 16.3998 174.372 16.2505C174.791 16.0557 175.26 15.9961 175.715 16.0799C176.161 16.1611 176.571 16.3791 176.888 16.7036C177.117 16.9541 177.175 17.1567 177.117 17.1993Z" fill="#263238"/>
<path d="M166.816 16.4636C166.781 16.6728 166.665 16.86 166.494 16.9854C166.323 17.1108 166.109 17.1645 165.899 17.1352C165.796 17.1253 165.696 17.0948 165.604 17.0455C165.513 16.9961 165.432 16.929 165.367 16.848C165.302 16.7671 165.254 16.6739 165.225 16.574C165.197 16.4741 165.188 16.3695 165.201 16.2664C165.236 16.0571 165.352 15.87 165.523 15.7446C165.694 15.6192 165.908 15.5654 166.118 15.5947C166.221 15.6047 166.322 15.6352 166.413 15.6845C166.504 15.7338 166.585 15.8009 166.65 15.8819C166.715 15.9629 166.763 16.0561 166.792 16.156C166.82 16.2559 166.829 16.3605 166.816 16.4636Z" fill="#263238"/>
<path d="M168.077 15.9247C167.96 16.01 167.432 15.4556 166.569 15.3064C165.705 15.1571 165.002 15.4769 164.922 15.3543C164.842 15.2317 165.017 15.1305 165.332 14.9759C165.751 14.7857 166.218 14.728 166.67 14.8106C167.119 14.8873 167.532 15.1059 167.848 15.4343C168.077 15.6848 168.136 15.8874 168.077 15.9247Z" fill="#263238"/>
<path d="M170.074 22.8705C170.554 22.8092 171.039 22.8092 171.519 22.8705C171.743 22.8705 171.961 22.8705 172.025 22.7373C172.082 22.5135 172.071 22.2777 171.993 22.0603C171.881 21.49 171.764 20.893 171.636 20.2693C171.151 17.7268 170.847 15.648 170.948 15.6266C171.05 15.6053 171.524 17.6575 172.014 20.2054C172.126 20.829 172.238 21.426 172.34 21.9964C172.433 22.2863 172.42 22.6002 172.302 22.8812C172.257 22.9529 172.196 23.0136 172.124 23.0588C172.052 23.104 171.971 23.1325 171.887 23.1424C171.759 23.1566 171.63 23.1566 171.503 23.1424C171.017 23.1111 170.537 23.0197 170.074 22.8705Z" fill="#263238"/>
<path d="M168.875 33.1736C165.924 32.6927 163.165 31.4009 160.906 29.4424C160.906 29.4424 162.18 34.0904 168.534 34.6021L168.875 33.1736Z" fill="#EB996E"/>
<path d="M169.344 24.8853C169.215 24.6516 169.029 24.4541 168.804 24.3107C168.579 24.1673 168.321 24.0826 168.054 24.0644C167.862 24.0495 167.669 24.073 167.486 24.1334C167.303 24.1937 167.134 24.2899 166.988 24.4162C166.848 24.5401 166.749 24.7043 166.705 24.8865C166.661 25.0687 166.674 25.26 166.743 25.4343C166.854 25.6104 167.014 25.7501 167.204 25.8363C167.393 25.9225 167.604 25.9514 167.809 25.9193C168.24 25.844 168.653 25.6866 169.025 25.4556C169.135 25.4033 169.234 25.331 169.318 25.2424C169.358 25.2006 169.384 25.1478 169.394 25.0907C169.403 25.0337 169.395 24.9751 169.371 24.9226" fill="#EB996E"/>
<path d="M167.463 23.0195C167.607 23.0195 167.463 23.9683 168.124 24.7732C168.785 25.578 169.824 25.6527 169.808 25.7859C169.792 25.9192 169.552 25.9245 169.131 25.8659C168.582 25.777 168.082 25.4977 167.718 25.077C167.367 24.6724 167.189 24.1459 167.223 23.6112C167.228 23.2167 167.372 22.9982 167.463 23.0195Z" fill="#263238"/>
<path d="M162.785 4.02776C164.454 7.71101 169.858 12.1885 174.037 13.7769C173.654 13.02 171.308 10.8825 170.93 10.1256C172.614 11.9539 175.05 14.4379 177.625 15.0615C177.921 15.1597 178.24 15.169 178.542 15.0882C178.708 15.0032 178.853 14.8812 178.965 14.7314C179.076 14.5817 179.152 14.4083 179.187 14.2246C179.686 12.3681 179.983 10.463 180.071 8.54253C180.159 6.92295 179.625 5.33094 178.579 4.09172C177.156 2.49263 174.848 1.72506 172.598 1.24533C170.747 0.767608 168.82 0.658937 166.927 0.925517C165.077 1.27732 163.35 2.34338 162.796 3.91582" fill="#263238"/>
<path d="M152.825 17.892C152.794 16.4687 152.847 15.0448 152.985 13.6278C153.406 10.3763 154.424 -1.44102 165.33 1.59726L164.168 4.63021C164.168 4.63021 165.005 12.2366 159.408 16.3196C159.408 16.3196 159.434 23.9153 155.554 26.6551C155.554 26.6551 152.852 21.506 152.825 17.9134" fill="#263238"/>
<path d="M159.637 15.7866C158.992 15.5252 158.288 15.4459 157.601 15.5574C156.915 15.6763 156.303 16.0589 155.895 16.6234C155.525 17.2177 155.394 17.9298 155.527 18.617C155.665 19.2989 155.953 19.9416 156.37 20.4986C156.64 20.9173 157.005 21.2662 157.436 21.5167C157.655 21.6347 157.901 21.6965 158.15 21.6965C158.399 21.6965 158.645 21.6347 158.864 21.5167" fill="#FFBE9D"/>
<path d="M158.555 19.7687C158.624 19.806 158.262 20.1578 157.681 19.886C157.528 19.8028 157.394 19.6903 157.285 19.5549C157.176 19.4195 157.095 19.2639 157.047 19.0971C156.923 18.7211 156.876 18.3242 156.908 17.9297C156.93 17.5079 157.105 17.1084 157.399 16.8051C157.521 16.6748 157.671 16.5744 157.839 16.5116C158.006 16.4487 158.185 16.4251 158.363 16.4426C158.998 16.5385 159.115 17.0076 159.04 17.0076C158.966 17.0076 158.779 16.7784 158.347 16.8051C158.08 16.8581 157.84 17.0048 157.671 17.2188C157.502 17.4327 157.415 17.6999 157.425 17.9724C157.377 18.676 157.532 19.3529 157.868 19.5715C158.203 19.79 158.523 19.7047 158.555 19.7687Z" fill="#EB996E"/>
<path d="M222.79 16.2979C222.717 16.4588 222.618 16.6064 222.496 16.735C222.147 17.1053 221.697 17.3648 221.201 17.4812C220.415 17.6782 219.586 17.6203 218.835 17.316C217.869 16.8906 216.972 16.3268 216.169 15.6422C215.253 14.9493 214.229 14.1284 212.918 13.8459C212.24 13.7178 211.541 13.7469 210.876 13.9312C210.167 14.1379 209.479 14.4147 208.824 14.7574C208.142 15.1039 207.449 15.4877 206.692 15.8235C205.939 16.1926 205.12 16.41 204.283 16.4631C203.399 16.4923 202.53 16.2403 201.799 15.7435C201.076 15.2184 200.446 14.5771 199.933 13.8459C198.867 12.4281 198.004 10.8876 196.703 9.88017C196.072 9.38424 195.319 9.06753 194.523 8.96335C193.753 8.87657 192.974 8.91075 192.215 9.06463C190.722 9.34181 189.326 9.8162 187.951 9.9921C186.675 10.1462 185.38 10.0336 184.15 9.66163C182.365 9.13031 180.769 8.10025 179.55 6.69264C179.102 6.1848 178.729 5.61587 178.441 5.00293C178.473 5.03411 178.5 5.07008 178.521 5.10954C178.575 5.20015 178.644 5.30676 178.729 5.44002C179.999 7.40836 181.947 8.84227 184.203 9.46974C185.413 9.82481 186.684 9.92464 187.935 9.7629C189.278 9.58167 190.664 9.10194 192.199 8.8141C192.984 8.64787 193.79 8.61007 194.587 8.70217C195.428 8.80992 196.225 9.14124 196.895 9.66163C198.26 10.7277 199.128 12.2841 200.184 13.6807C200.676 14.3877 201.283 15.0074 201.98 15.5143C202.662 15.9802 203.474 16.2173 204.299 16.1913C205.103 16.1415 205.889 15.9331 206.612 15.5783C207.342 15.2585 208.03 14.88 208.718 14.5122C209.389 14.1609 210.095 13.8788 210.823 13.67C211.519 13.4824 212.248 13.455 212.955 13.5901C214.189 13.9583 215.326 14.5975 216.281 15.461C217.064 16.1431 217.94 16.7103 218.882 17.1454C219.603 17.448 220.4 17.5206 221.164 17.3533C221.646 17.2455 222.089 17.0098 222.448 16.671C222.694 16.4524 222.779 16.2925 222.79 16.2979Z" fill="#263238"/>
<path d="M100.024 122.185L90.355 141.688L93.2387 141.795L85.046 157.295H89.3529L82.6367 171.064H120.157L111.895 157.295L115.855 157.119L107.94 141.63L110.866 141.459L100.024 122.185Z" fill="#455A64"/>
<path d="M101.654 144.817C101.734 144.817 101.654 153.079 101.526 163.265C101.398 173.451 101.19 181.708 101.116 181.708C101.041 181.708 101.116 173.446 101.249 163.26C101.382 153.074 101.579 144.817 101.654 144.817Z" fill="#263238"/>
<path d="M106.254 149.822C106.106 150.135 105.91 150.423 105.673 150.675C105.146 151.315 104.584 151.926 103.989 152.503C103.306 153.191 102.688 153.804 102.256 154.267C102.039 154.534 101.797 154.779 101.531 154.998C101.677 154.683 101.872 154.394 102.107 154.139C102.636 153.501 103.199 152.891 103.791 152.311C104.479 151.623 105.097 151.01 105.529 150.547C105.743 150.279 105.986 150.036 106.254 149.822Z" fill="#263238"/>
<path d="M101.564 155.195C100.804 154.77 100.09 154.268 99.4321 153.697C98.7132 153.194 98.0486 152.617 97.4492 151.976C98.2094 152.4 98.9239 152.902 99.5813 153.473C100.301 153.976 100.966 154.553 101.564 155.195Z" fill="#263238"/>
<path d="M101.312 164.763C100.475 164.171 99.6727 163.532 98.9082 162.85C98.0839 162.238 97.2955 161.58 96.5469 160.877C97.4602 161.358 98.3122 161.946 99.0841 162.631C99.9121 163.247 100.66 163.963 101.312 164.763Z" fill="#263238"/>
<path d="M106.658 158.847C106.727 158.9 105.629 160.328 104.083 161.901L102.138 163.937C101.892 164.24 101.615 164.517 101.312 164.763C101.242 164.71 102.34 163.281 103.886 161.709L105.832 159.678C106.079 159.374 106.356 159.096 106.658 158.847Z" fill="#263238"/>
</svg>
