<svg width="26" height="25" viewBox="0 0 26 25" fill="none" xmlns="http://www.w3.org/2000/svg">
<path d="M12.9941 24.219H3.26057C2.68844 24.2176 2.12671 24.0663 1.63152 23.7803C1.13633 23.4944 0.725021 23.0837 0.438716 22.5894C0.152411 22.0951 0.00113268 21.5345 6.33603e-06 20.9636C-0.00112001 20.3926 0.147943 19.8314 0.432295 19.336L5.30201 10.9197L10.1698 2.50334C10.4569 2.00818 10.8694 1.59707 11.366 1.31126C11.8626 1.02545 12.4258 0.875 12.999 0.875C13.5723 0.875 14.1355 1.02545 14.6321 1.31126C15.1287 1.59707 15.5412 2.00818 15.8283 2.50334L20.698 10.9197L25.5677 19.336C25.8521 19.8315 26.0012 20.3929 26 20.964C25.9988 21.5351 25.8473 22.0959 25.5608 22.5903C25.2743 23.0846 24.8627 23.4953 24.3672 23.7811C23.8717 24.0669 23.3098 24.2179 22.7375 24.219H12.9941Z" fill="#FF725E"/>
<path d="M23.4757 20.3011C23.4757 20.3011 23.5012 20.35 23.5501 20.4515C23.6336 20.655 23.6655 20.8759 23.643 21.0947C23.6205 21.3134 23.5442 21.5232 23.4209 21.7055C23.324 21.8494 23.1996 21.9729 23.0549 22.0688C22.8866 22.1757 22.6941 22.2388 22.4951 22.2524C20.8353 22.2699 18.4396 22.266 15.4763 22.2739L5.06747 22.2856H3.57994C3.3146 22.2827 3.05669 22.1977 2.84179 22.0424C2.62689 21.8871 2.46559 21.669 2.38012 21.4184C2.2894 21.1679 2.27242 20.8968 2.33119 20.6371C2.34685 20.5726 2.36838 20.5082 2.38991 20.4418C2.41144 20.3753 2.44667 20.3187 2.47603 20.2601L2.67176 19.9183C2.92229 19.4593 3.17673 18.9983 3.43118 18.5315L6.58632 12.752L9.76103 6.97643C10.2712 6.0428 10.7736 5.12675 11.2681 4.22828C11.3934 4.00562 11.5089 3.781 11.642 3.56029C11.7742 3.33481 11.9631 3.14766 12.19 3.0173C12.4124 2.8902 12.6619 2.81788 12.9179 2.80633C13.1739 2.79478 13.4289 2.84434 13.6619 2.9509C13.893 3.05524 14.0947 3.21492 14.2491 3.41576C14.3827 3.61837 14.5037 3.82907 14.6112 4.04664C14.8402 4.46462 15.0672 4.87675 15.2884 5.28301C15.7347 6.09554 16.1659 6.88398 16.5822 7.64833C17.4179 9.17378 18.195 10.5957 18.9035 11.8926C20.3206 14.4884 21.4656 16.5901 22.2583 18.0452L23.1665 19.7191C23.2682 19.9144 23.3465 20.055 23.3994 20.1566C23.4522 20.2582 23.4777 20.307 23.4777 20.307C23.4777 20.307 23.4463 20.2582 23.3915 20.1605L23.1488 19.7288L22.223 18.0628C21.4245 16.6115 20.2658 14.5177 18.8409 11.9278L16.5097 7.6874L15.2101 5.32598C14.987 4.91972 14.7619 4.50759 14.5309 4.08961C14.4232 3.87861 14.3036 3.67385 14.1727 3.47631C14.0283 3.28877 13.8402 3.13926 13.6247 3.04074C13.4054 2.94029 13.1653 2.89355 12.9242 2.90442C12.6832 2.91529 12.4483 2.98346 12.2389 3.10324C12.0268 3.22704 11.8502 3.40328 11.7261 3.61498C11.597 3.82788 11.4795 4.0564 11.3562 4.27907L9.84911 7.02722C8.82741 8.89447 7.76656 10.8262 6.68222 12.8067L3.51338 18.5823C3.25698 19.0491 3.00449 19.512 2.752 19.9691C2.61442 20.1844 2.50584 20.4169 2.42905 20.6605C2.3732 20.9039 2.38882 21.1582 2.47407 21.393C2.55142 21.6256 2.69991 21.8281 2.89863 21.9721C3.09735 22.1161 3.33631 22.1943 3.58189 22.1957H5.06943L15.4782 22.2055L22.4951 22.2153C22.6874 22.2041 22.8738 22.145 23.0373 22.0434C23.1799 21.951 23.3029 21.8315 23.3994 21.6918C23.5501 21.4706 23.6305 21.2093 23.6303 20.9418C23.628 20.7193 23.5751 20.5003 23.4757 20.3011Z" fill="#263238"/>
<path d="M11.418 18.5003C11.418 17.639 12.1069 16.9964 13.0875 16.9964C14.0681 16.9964 14.7414 17.639 14.7414 18.5003C14.7414 19.3617 14.0681 20.0336 13.0875 20.0336C12.1069 20.0336 11.418 19.35 11.418 18.5003ZM11.4336 9.67773H14.7414L14.1856 16.178H11.9758L11.4336 9.67773Z" fill="white"/>
<path d="M13.4619 1.53101C13.2617 1.4635 13.054 1.42023 12.8435 1.4021C12.3317 1.39111 11.832 1.55823 11.4303 1.87477C11.0381 2.20113 10.7221 2.6091 10.5045 3.07013C10.3264 3.4217 10.2422 3.65608 10.2266 3.64632C10.2319 3.58861 10.2457 3.532 10.2677 3.47834C10.3166 3.32868 10.3741 3.18194 10.4399 3.03887C10.6468 2.555 10.967 2.12768 11.3735 1.79274C11.7923 1.46108 12.3198 1.29677 12.8532 1.33178C13.0131 1.34371 13.1698 1.38198 13.3171 1.44507C13.413 1.48999 13.4659 1.52515 13.4619 1.53101Z" fill="white"/>
<path d="M9.39062 5.10133C9.43085 4.93283 9.50328 4.77367 9.60397 4.63257C9.74685 4.39233 9.88191 4.20872 9.90735 4.2224C9.86601 4.38845 9.7929 4.54497 9.69205 4.68335C9.61947 4.84074 9.51712 4.98267 9.39062 5.10133Z" fill="white"/>
</svg>
