<svg width="292" height="265" viewBox="0 0 292 265" fill="none" xmlns="http://www.w3.org/2000/svg">
<g clip-path="url(#clip0_1_88472)">
<path d="M279.063 264.647L278.674 264.498C278.589 264.465 270.085 261.121 266.102 253.539C262.118 245.956 264.069 236.827 264.089 236.736L264.181 236.32L264.569 236.47C264.655 236.503 273.158 239.847 277.142 247.429C281.126 255.011 279.175 264.14 279.155 264.231L279.063 264.647ZM266.74 253.186C270.108 259.596 276.827 262.883 278.53 263.633C278.854 261.76 279.869 254.186 276.504 247.782C273.14 241.378 266.417 238.087 264.714 237.335C264.39 239.209 263.375 246.782 266.74 253.186Z" fill="#455A64"/>
<path d="M269.149 250.88C276.308 255.3 279.065 264.08 279.065 264.08C279.065 264.08 270.216 265.693 263.057 261.273C255.898 256.853 253.141 248.072 253.141 248.072C253.141 248.072 261.99 246.459 269.149 250.88Z" fill="#1A1D1F"/>
<path d="M153.896 142.022C154.243 141.471 154.699 141.002 155.235 140.645C155.771 140.288 156.375 140.051 157.006 139.95C157.637 139.849 158.282 139.886 158.899 140.059C159.515 140.232 160.089 140.536 160.583 140.952C160.739 141.085 160.885 141.228 161.022 141.382L178.85 138.718L179.842 124.959C179.918 123.903 180.4 122.922 181.181 122.23C181.962 121.539 182.978 121.195 184.007 121.273C185.035 121.351 185.991 121.845 186.665 122.646C187.338 123.448 187.674 124.491 187.598 125.547C187.596 125.571 187.594 125.596 187.592 125.62L185.854 144.927L185.846 144.97C185.62 145.712 185.166 146.359 184.553 146.816C183.94 147.273 183.2 147.515 182.442 147.506L161.472 147.134C161.391 147.262 161.303 147.385 161.209 147.503C160.804 148.01 160.298 148.423 159.726 148.715C159.154 149.007 158.528 149.172 157.89 149.199C157.251 149.226 156.615 149.114 156.021 148.871C155.428 148.627 154.891 148.258 154.446 147.787C154.356 147.692 154.271 147.594 154.19 147.493C153.585 146.729 153.232 145.789 153.179 144.806C153.126 143.824 153.377 142.849 153.896 142.022Z" fill="#FFBF9D"/>
<path d="M189.84 259.336L184.755 259.335L182.336 239.206L189.841 239.206L189.84 259.336Z" fill="#FFBF9D"/>
<path d="M191.134 264.395L174.738 264.394V264.181C174.738 262.444 175.411 260.778 176.608 259.55C177.804 258.322 179.427 257.632 181.12 257.632H181.12L191.134 257.632L191.134 264.395Z" fill="#455A64"/>
<path d="M225.368 254.604L220.555 256.289L211.934 238.039L219.037 235.553L225.368 254.604Z" fill="#FFBF9D"/>
<path d="M228.188 258.963L212.67 264.395L212.603 264.194C212.057 262.55 212.169 260.75 212.916 259.191C213.662 257.632 214.981 256.441 216.583 255.88L216.583 255.88L226.061 252.562L228.188 258.963Z" fill="#455A64"/>
<path d="M195.438 83.3346C195.438 83.3346 190.377 81.6192 187.123 88.4809C183.87 95.3426 178.809 102.891 178.809 102.891L181.701 103.577C181.701 103.577 182.424 98.7735 184.231 98.0873L183.508 104.263C183.508 104.263 205.198 111.468 214.959 103.577L214.597 101.175C214.597 101.175 216.044 101.518 216.044 103.577L217.128 102.547C217.128 102.547 216.044 100.489 212.79 97.7442C210.654 95.9428 209.921 92.5154 209.668 90.3726C209.468 88.5585 208.71 86.8569 207.504 85.5148C205.342 83.1366 201.403 80.609 195.438 83.3346Z" fill="#263238"/>
<path d="M197.302 107.308C202.407 107.308 206.546 103.061 206.546 97.821C206.546 92.5815 202.407 88.334 197.302 88.334C192.197 88.334 188.059 92.5815 188.059 97.821C188.059 103.061 192.197 107.308 197.302 107.308Z" fill="#FFBF9D"/>
<path d="M184.977 115.12L183.297 114.545C183.297 114.545 179.935 115.982 179.935 118.57C179.935 121.157 179.375 131.507 179.375 131.507L186.938 132.369L184.977 115.12Z" fill="#263238"/>
<path d="M215.061 171.668C214.364 170.866 213.97 169.834 213.952 168.76C213.933 167.685 214.291 166.64 214.961 165.814L210.243 125.261C210.196 124.304 210.522 123.368 211.147 122.658C211.773 121.948 212.647 121.521 213.579 121.472C214.511 121.422 215.423 121.754 216.117 122.395C216.81 123.036 217.228 123.932 217.277 124.889C217.278 124.902 217.279 124.915 217.279 124.928L221.5 165.524C221.653 165.682 221.794 165.852 221.922 166.031C222.26 166.512 222.504 167.056 222.637 167.633C222.771 168.21 222.792 168.808 222.701 169.394C222.609 169.979 222.406 170.54 222.103 171.045C221.8 171.55 221.403 171.989 220.935 172.336C220.886 172.372 220.837 172.407 220.787 172.441C220.245 172.809 219.631 173.05 218.987 173.145C218.344 173.241 217.688 173.189 217.067 172.993C216.291 172.752 215.596 172.293 215.061 171.668Z" fill="#FFBF9D"/>
<path d="M210.738 131.507L218.301 130.644C218.301 130.644 217.741 120.295 217.741 117.707C217.741 115.12 214.38 113.683 214.38 113.683L212.699 114.258L210.738 131.507Z" fill="#263238"/>
<path d="M186.1 145.866C186.1 145.866 179.658 157.956 179.658 172.617C179.658 187.279 179.098 254.551 179.098 254.551C179.098 254.551 187.501 258.576 192.543 253.688L197.025 179.229L214.672 252.251C214.672 252.251 223.075 253.976 226.997 251.101L219.434 200.216C219.434 200.216 216.353 152.493 207.949 149.043C199.546 145.594 186.1 145.866 186.1 145.866Z" fill="#455A64"/>
<path d="M187.314 97.8807C190.586 95.4501 193.235 92.6505 194.988 89.3204C194.988 89.3204 200.993 96.1686 204.663 96.511C208.333 96.8534 204.997 88.2931 204.997 88.2931L198.324 86.5811L191.985 87.2659L186.98 90.69L187.314 97.8807Z" fill="#263238"/>
<path d="M206.546 111.957C206.546 111.957 206.813 111.81 190.861 112.407L184.184 114.294L183.297 114.545C183.297 114.545 184.137 131.794 186.378 134.956C188.619 138.119 188.059 139.844 187.499 140.131C186.938 140.419 185.538 139.844 186.378 141.281C187.218 142.718 188.339 141.856 187.218 142.718C186.098 143.581 185.538 146.743 185.538 146.743L210.188 150.193C210.188 150.193 211.028 138.981 213.269 133.231C215.51 127.482 216.07 125.182 216.07 125.182L214.389 113.682L206.546 111.957Z" fill="#263238"/>
<path d="M159.681 62.9205H158.263V23.0665C158.263 16.9489 155.896 11.0818 151.681 6.75602C147.466 2.43022 141.749 9.86133e-06 135.789 0L53.5179 0C47.5572 -1.67641e-05 41.8406 2.43017 37.6257 6.75596C33.4109 11.0817 31.043 16.9488 31.043 23.0664V241.709C31.043 247.826 33.4108 253.693 37.6257 258.019C41.8405 262.345 47.5571 264.775 53.5178 264.775H135.788C138.74 264.775 141.662 264.179 144.389 263.02C147.116 261.86 149.594 260.161 151.681 258.019C153.768 255.877 155.423 253.335 156.553 250.536C157.682 247.738 158.263 244.738 158.263 241.709V91.2893H159.681L159.681 62.9205Z" fill="#455A64"/>
<path d="M153.481 23.2283V241.549C153.483 243.809 153.051 246.048 152.21 248.137C151.369 250.226 150.136 252.124 148.58 253.724C147.024 255.323 145.176 256.593 143.143 257.46C141.109 258.326 138.929 258.774 136.726 258.776H54.0307C49.5823 258.779 45.3148 256.968 42.1671 253.742C39.0194 250.516 37.2492 246.139 37.2461 241.574V23.2283C37.2445 20.9677 37.6768 18.7289 38.5183 16.6398C39.3598 14.5507 40.594 12.6521 42.1504 11.0525C43.7068 9.45286 45.5549 8.18353 47.5893 7.31696C49.6236 6.45039 51.8044 6.00355 54.007 6.00196H64.0587C63.5648 7.24458 63.3763 8.5928 63.5098 9.92781C63.6433 11.2628 64.0946 12.5436 64.8241 13.6574C65.5535 14.7712 66.5387 15.6838 67.6927 16.3147C68.8468 16.9457 70.1344 17.2756 71.442 17.2755H118.575C119.883 17.2756 121.17 16.9457 122.324 16.3147C123.478 15.6838 124.463 14.7712 125.193 13.6574C125.922 12.5436 126.374 11.2628 126.507 9.92781C126.641 8.5928 126.452 7.24458 125.958 6.00196H136.696C141.144 5.99787 145.411 7.80723 148.559 11.032C151.706 14.2568 153.477 18.6328 153.481 23.1974L153.481 23.2283Z" fill="white"/>
<path d="M153.481 55.5283V48.0919H142.515V7.06541C140.652 6.35943 138.682 5.99934 136.696 6.00197H135.269V48.0919H97.2292V17.2756H89.9835V48.0919H58.1026V6.00201H54.0307C52.9656 6.0003 51.9028 6.10364 50.857 6.31061V48.0919H37.2461V55.5283H50.857V72.7288L37.2463 80.7935V89.3825L50.857 81.3179V132.495H37.2461V139.931H50.857V213.923H37.2461V221.359H50.857V258.467C51.9028 258.674 52.9656 258.777 54.0307 258.776H58.1027V221.359H89.9835V258.776H97.2292V221.359H135.269V258.776H136.696C138.682 258.778 140.652 258.418 142.515 257.712V221.359H153.481V213.923H142.515V181.575H153.383V174.139H142.515V139.931H153.481V132.495H142.515V87.1329H153.481V79.6965H142.515V55.5283L153.481 55.5283ZM79.887 55.5283L58.1028 68.4379L58.1026 55.5283H79.887ZM58.1026 77.0233L89.9835 58.1312V132.495H58.1026V77.0233ZM58.1026 213.923V139.931H89.9835V213.923H58.1026ZM135.269 213.923H97.2292V181.575H135.269V213.923ZM135.269 174.138H97.2292V139.931H135.269V174.138ZM135.269 132.495H97.2292V87.1329H135.269V132.495ZM135.269 79.6965H97.2292V55.5283H135.269V79.6965Z" fill="#EBEBEB"/>
<path d="M159.544 79.8344C159.544 103.45 117.881 156.057 117.881 156.057C117.881 156.057 76.2188 103.45 76.2188 79.8344C76.2188 68.4939 80.6082 57.618 88.4214 49.5991C96.2347 41.5802 106.832 37.0752 117.881 37.0752C128.931 37.0752 139.528 41.5802 147.341 49.5991C155.154 57.618 159.544 68.4939 159.544 79.8344Z" fill="#1A1D1F"/>
<path d="M142.517 77.9751C142.517 82.9757 141.072 87.8641 138.365 92.0219C135.658 96.1798 131.81 99.4205 127.309 101.334C122.807 103.248 117.854 103.749 113.075 102.773C108.296 101.797 103.907 99.3893 100.462 95.8533C97.0163 92.3174 94.67 87.8122 93.7195 82.9077C92.7689 78.0031 93.2568 72.9194 95.1213 68.2994C96.9859 63.6795 100.143 59.7307 104.195 56.9525C108.246 54.1743 113.009 52.6914 117.881 52.6914C121.115 52.6899 124.317 53.3421 127.305 54.6107C130.293 55.8793 133.009 57.7396 135.296 60.0852C137.584 62.4309 139.399 65.216 140.638 68.2815C141.877 71.3471 142.515 74.6331 142.517 77.9519V77.9751Z" fill="#EBEBEB"/>
<path d="M117.795 87.956C122.864 87.956 126.973 83.7388 126.973 78.5366C126.973 73.3344 122.864 69.1172 117.795 69.1172C112.726 69.1172 108.617 73.3344 108.617 78.5366C108.617 83.7388 112.726 87.956 117.795 87.956Z" fill="#1A1D1F"/>
<path d="M131.113 100.05C127.156 102.632 122.565 104.003 117.876 104.003C113.188 104.002 108.596 102.63 104.641 100.046C105.463 97.095 107.2 94.4989 109.589 92.6508C111.977 90.8027 114.887 89.8033 117.878 89.8037C120.869 89.8041 123.779 90.8044 126.167 92.6531C128.554 94.5019 130.291 97.0985 131.113 100.05Z" fill="#1A1D1F"/>
<path d="M117.879 186.918C124.082 186.918 129.11 181.757 129.11 175.392C129.11 169.026 124.082 163.865 117.879 163.865C111.677 163.865 106.648 169.026 106.648 175.392C106.648 181.757 111.677 186.918 117.879 186.918Z" fill="#1A1D1F"/>
<path d="M291.638 264.999H0.362283C0.266199 264.999 0.174051 264.96 0.10611 264.891C0.038169 264.821 0 264.726 0 264.628C0 264.529 0.038169 264.434 0.10611 264.365C0.174051 264.295 0.266199 264.256 0.362283 264.256H291.638C291.734 264.256 291.826 264.295 291.894 264.365C291.962 264.434 292 264.529 292 264.628C292 264.726 291.962 264.821 291.894 264.891C291.826 264.96 291.734 264.999 291.638 264.999Z" fill="#1A1D1F"/>
</g>
<defs>
<clipPath id="clip0_1_88472">
<rect width="292" height="265" fill="white"/>
</clipPath>
</defs>
</svg>
