<svg width="300" height="300" viewBox="0 0 300 300" fill="none" xmlns="http://www.w3.org/2000/svg">
<path d="M258.599 74.4659C249.197 64.3019 236.771 56.3999 223.031 54.7259C209.291 53.0519 194.297 58.4399 186.599 69.9539C180.419 79.2119 179.477 91.0139 174.533 100.992C165.419 119.388 143.669 128.802 123.137 128.898C101.537 129 78.9049 120.744 59.0329 129.198C41.5549 136.632 31.2409 155.688 29.0689 174.552C27.1129 191.478 30.9169 209.352 41.2129 222.93C51.5089 236.508 71.2489 250.332 95.4049 252.036L139.925 253.182C160.695 253.727 181.366 250.152 200.747 242.664C212.589 238.085 223.771 231.953 233.999 224.43C256.949 207.402 274.379 182.346 279.833 154.296C285.287 126.246 277.973 95.4419 258.599 74.4659Z" fill="#EBEBEB"/>
<path d="M195.936 25.0087L178.296 24.9247C177.72 24.9364 177.152 25.0615 176.624 25.2928C176.097 25.524 175.62 25.857 175.221 26.2727C174.822 26.6884 174.509 27.1785 174.299 27.7153C174.09 28.252 173.988 28.8247 174 29.4007V32.5987C174.01 33.1739 173.907 33.7455 173.697 34.2809C173.486 34.8163 173.172 35.3049 172.772 35.7189C172.373 36.1328 171.896 36.4641 171.368 36.6936C170.841 36.9232 170.273 37.0465 169.698 37.0567L135.312 36.9007C134.15 36.8693 133.047 36.3776 132.247 35.5338C131.447 34.69 131.015 33.563 131.046 32.4007V29.2027C131.077 28.0404 130.644 26.9134 129.844 26.0696C129.045 25.2258 127.942 24.7341 126.78 24.7027H120.576L105.132 24.6007C101.455 24.5863 97.9234 26.0314 95.3113 28.6188C92.6993 31.2061 91.2206 34.7242 91.1999 38.4007L90.2579 261.049C90.242 264.727 91.6862 268.261 94.2735 270.875C96.8608 273.49 100.38 274.97 104.058 274.993L194.862 275.407C198.541 275.423 202.075 273.977 204.689 271.389C207.302 268.8 208.781 265.279 208.8 261.601L209.742 38.9527C209.751 37.1305 209.402 35.3243 208.713 33.6372C208.024 31.9502 207.01 30.4154 205.728 29.1205C204.446 27.8255 202.921 26.7959 201.241 26.0904C199.561 25.3849 197.758 25.0173 195.936 25.0087Z" fill="white"/>
<path d="M195.937 25.0082C195.937 25.0082 196.099 25.0082 196.411 25.0082C196.883 25.0127 197.354 25.0508 197.821 25.1222C199.661 25.3455 201.433 25.9592 203.017 26.9222C204.193 27.6133 205.255 28.4815 206.167 29.4962C207.29 30.727 208.182 32.1497 208.801 33.6962C209.512 35.4877 209.856 37.4034 209.815 39.3302C209.815 41.3762 209.815 43.5302 209.815 45.8702C209.749 64.3682 209.653 91.1282 209.533 124.188C209.413 157.248 209.251 196.626 209.077 240.348C209.053 245.816 209.031 251.346 209.011 256.938C209.011 258.342 209.011 259.74 209.011 261.138C209.028 262.557 208.844 263.971 208.465 265.338C208.068 266.721 207.461 268.034 206.665 269.232C205.859 270.427 204.885 271.5 203.773 272.418C201.49 274.254 198.688 275.329 195.763 275.49C195.031 275.538 194.311 275.526 193.585 275.52H191.401H187.033L169.357 275.436L133.075 275.274L114.517 275.19L105.145 275.142C101.949 275.31 98.7866 274.423 96.145 272.616C93.5189 270.775 91.5959 268.097 90.691 265.02C90.2583 263.496 90.0699 261.912 90.133 260.328V255.648C90.157 249.42 90.183 243.234 90.211 237.09C90.263 224.802 90.315 212.704 90.367 200.796C90.469 177.006 90.571 154.056 90.667 132.192C90.763 110.328 90.859 89.5562 90.943 70.1162C90.987 60.3962 91.029 51.0182 91.069 41.9822C91.069 40.8542 91.069 39.7322 91.069 38.6162C91.069 38.0582 91.123 37.4942 91.153 36.9362C91.183 36.3782 91.297 35.8202 91.441 35.2862C91.9379 33.1534 92.9294 31.1672 94.3354 29.4881C95.7414 27.809 97.5225 26.4841 99.535 25.6202C101.48 24.7925 103.584 24.4033 105.697 24.4802L117.799 24.5402L123.601 24.6002H126.451C127.417 24.5536 128.372 24.8255 129.169 25.3742C129.946 25.9213 130.534 26.6974 130.849 27.5942C131.106 28.482 131.195 29.4098 131.113 30.3302C131.113 30.7802 131.113 31.2302 131.113 31.6802C131.097 32.1227 131.111 32.5657 131.155 33.0062C131.261 33.871 131.62 34.6851 132.187 35.3462C132.739 36.0038 133.484 36.4701 134.317 36.6782C134.727 36.7796 135.149 36.8241 135.571 36.8102H136.849H141.859L160.165 36.9122L168.235 36.9542C168.871 36.9542 169.519 36.9902 170.125 36.9542C170.733 36.8852 171.317 36.6801 171.835 36.3542C172.332 36.0423 172.761 35.6343 173.098 35.1542C173.435 34.6741 173.673 34.1315 173.797 33.5582C173.898 33.0002 173.936 32.4327 173.911 31.8662C173.911 31.3082 173.911 30.7502 173.911 30.2102C173.889 29.669 173.915 29.1269 173.989 28.5902C174.08 28.0701 174.259 27.5691 174.517 27.1082C175.01 26.2253 175.792 25.5388 176.731 25.1642C177.643 24.7742 178.609 24.9002 179.485 24.8822L188.485 24.9422L194.023 24.9782C195.271 24.9782 195.907 24.9782 195.907 24.9782H194.023H188.485H179.485C178.571 24.8873 177.648 24.9832 176.773 25.2602C175.853 25.6227 175.089 26.2956 174.613 27.1622C174.36 27.6114 174.185 28.1004 174.097 28.6082C174.027 29.1392 174.003 29.6752 174.025 30.2102C174.025 30.7562 174.025 31.3082 174.025 31.8662C174.049 32.4407 174.011 33.0161 173.911 33.5822C173.784 34.1724 173.54 34.7312 173.194 35.2258C172.848 35.7204 172.406 36.1408 171.895 36.4622C171.361 36.791 170.76 36.996 170.137 37.0622C169.495 37.1162 168.871 37.0622 168.229 37.0622L160.201 37.0682L141.895 36.9962H136.885H135.601C135.163 37.0119 134.725 36.9675 134.299 36.8642C133.43 36.6463 132.652 36.1616 132.073 35.4782C131.481 34.7877 131.106 33.9385 130.993 33.0362C130.952 32.5875 130.938 32.1367 130.951 31.6862C130.951 31.2362 130.951 30.7862 130.951 30.3362C131.032 29.4379 130.945 28.5324 130.693 27.6662C130.389 26.8094 129.827 26.0676 129.085 25.5422C128.321 25.0178 127.406 24.7604 126.481 24.8102H123.631H117.805L105.709 24.7562C103.602 24.6678 101.502 25.0625 99.5713 25.9101C97.6401 26.7576 95.9284 28.0356 94.567 29.6462C93.1689 31.3163 92.1824 33.2913 91.687 35.4122C91.543 35.9402 91.501 36.4922 91.399 37.0322C91.297 37.5722 91.327 38.1302 91.321 38.6882C91.321 39.8042 91.321 40.9262 91.321 42.0542C91.289 51.0782 91.253 60.4562 91.213 70.1882C91.135 89.6282 91.051 110.388 90.967 132.27C90.883 154.152 90.781 177.078 90.685 200.874C90.637 212.766 90.587 224.862 90.535 237.162C90.511 243.306 90.485 249.494 90.457 255.726C90.457 257.278 90.457 258.838 90.457 260.406C90.3973 261.957 90.5816 263.508 91.003 265.002C91.8847 267.992 93.7465 270.597 96.289 272.4C98.883 274.168 101.986 275.035 105.121 274.866L114.493 274.914L133.045 274.998L169.327 275.166L187.009 275.25H191.377H193.549C194.275 275.25 195.001 275.25 195.709 275.22C198.571 275.065 201.311 274.016 203.545 272.22C204.637 271.323 205.593 270.272 206.383 269.1C207.158 267.928 207.747 266.643 208.129 265.29C208.506 263.943 208.688 262.549 208.669 261.15V256.95C208.693 251.35 208.717 245.82 208.741 240.36C208.939 196.638 209.119 157.266 209.263 124.2C209.407 91.1342 209.557 64.3802 209.647 45.8822C209.647 43.5722 209.647 41.3882 209.683 39.3422C209.73 37.4264 209.391 35.5207 208.687 33.7382C208.073 32.2184 207.196 30.819 206.095 29.6042C203.927 27.2231 201.001 25.6668 197.815 25.2002C197.35 25.1279 196.881 25.0838 196.411 25.0682L195.937 25.0082Z" fill="#263238"/>
<path d="M179.633 95.1065L178.271 93.4925L182.327 91.3145L163.481 84.9365L169.859 103.201L172.181 100.159C172.181 100.159 184.373 121.615 172.181 134.659C160.073 147.613 145.781 144.805 145.781 144.805L148.535 153.805C148.535 153.805 170.999 155.401 183.053 135.097C195.107 114.793 179.633 95.1065 179.633 95.1065Z" fill="#1A1D1F"/>
<path d="M123.126 140.13L124.488 141.744L120.426 143.922L139.272 150.3L132.894 132.036L130.578 135.078C130.578 135.078 118.38 113.622 130.578 100.578C142.686 87.6238 156.978 90.4318 156.978 90.4318L154.224 81.4318C154.224 81.4318 131.754 79.8358 119.724 100.128C107.694 120.42 123.126 140.13 123.126 140.13Z" fill="#1A1D1F"/>
<path d="M179.633 95.1065L178.271 93.4925L182.327 91.3145L163.481 84.9365L169.859 103.201L172.181 100.159C172.181 100.159 184.373 121.615 172.181 134.659C160.073 147.613 145.781 144.805 145.781 144.805L148.535 153.805C148.535 153.805 170.999 155.401 183.053 135.097C195.107 114.793 179.633 95.1065 179.633 95.1065Z" fill="#1A1D1F"/>
<path d="M123.126 140.13L124.488 141.744L120.426 143.922L139.272 150.3L132.894 132.036L130.578 135.078C130.578 135.078 118.38 113.622 130.578 100.578C142.686 87.6238 156.978 90.4318 156.978 90.4318L154.224 81.4318C154.224 81.4318 131.754 79.8358 119.724 100.128C107.694 120.42 123.126 140.13 123.126 140.13Z" fill="#1A1D1F"/>
<g opacity="0.8">
<path d="M179.633 95.1065L178.271 93.4925L182.327 91.3145L163.481 84.9365L169.859 103.201L172.181 100.159C172.181 100.159 184.373 121.615 172.181 134.659C160.073 147.613 145.781 144.805 145.781 144.805L148.535 153.805C148.535 153.805 170.999 155.401 183.053 135.097C195.107 114.793 179.633 95.1065 179.633 95.1065Z" fill="white"/>
</g>
<g opacity="0.8">
<path d="M123.126 140.13L124.488 141.744L120.426 143.922L139.272 150.3L132.894 132.036L130.578 135.078C130.578 135.078 118.38 113.622 130.578 100.578C142.686 87.6238 156.978 90.4318 156.978 90.4318L154.224 81.4318C154.224 81.4318 131.754 79.8358 119.724 100.128C107.694 120.42 123.126 140.13 123.126 140.13Z" fill="white"/>
</g>
<path fill-rule="evenodd" clip-rule="evenodd" d="M162.127 106.962C163.02 107.918 163.781 108.99 164.389 110.148H167.989L169.333 115.986L166.075 117.564C166.031 118.871 165.814 120.166 165.427 121.416L168.001 123.966L164.821 129.042L161.401 127.842C160.449 128.738 159.379 129.501 158.221 130.11V133.71L152.401 135.066L150.829 131.802C149.531 131.758 148.243 131.542 147.001 131.16L144.451 133.728L139.369 130.554L140.569 127.134C139.676 126.18 138.915 125.111 138.307 123.954H134.707L133.363 118.116L136.621 116.544C136.665 115.237 136.883 113.941 137.269 112.692L134.701 110.142L137.875 105.06L141.295 106.26C142.249 105.365 143.319 104.603 144.475 103.992V100.392L150.313 99.042L151.885 102.306C153.193 102.347 154.488 102.565 155.737 102.954L158.287 100.38L163.369 103.56L162.169 106.974L162.127 106.962ZM154.981 111.762C153.904 111.086 152.65 110.745 151.379 110.782C150.107 110.819 148.875 111.232 147.839 111.97C146.803 112.707 146.009 113.736 145.557 114.925C145.106 116.114 145.018 117.411 145.304 118.65C145.59 119.89 146.238 121.016 147.164 121.887C148.091 122.758 149.256 123.335 150.511 123.544C151.765 123.753 153.054 123.584 154.213 123.06C155.372 122.536 156.349 121.68 157.021 120.6C157.469 119.885 157.771 119.088 157.911 118.256C158.05 117.423 158.025 116.572 157.835 115.749C157.646 114.927 157.296 114.15 156.807 113.463C156.317 112.776 155.697 112.192 154.981 111.744V111.762Z" fill="#1A1D1F"/>
<g opacity="0.6">
<path fill-rule="evenodd" clip-rule="evenodd" d="M154.982 111.745C153.905 111.071 152.652 110.731 151.381 110.77C150.111 110.808 148.88 111.222 147.845 111.959C146.81 112.697 146.017 113.725 145.566 114.913C145.116 116.101 145.027 117.397 145.312 118.635C145.598 119.874 146.244 121 147.169 121.871C148.094 122.742 149.257 123.32 150.511 123.53C151.764 123.74 153.052 123.574 154.211 123.053C155.37 122.532 156.348 121.678 157.022 120.601C157.47 119.885 157.772 119.089 157.912 118.256C158.051 117.424 158.026 116.572 157.836 115.75C157.647 114.928 157.297 114.151 156.808 113.464C156.318 112.776 155.698 112.192 154.982 111.745Z" fill="white"/>
</g>
<path d="M131.816 176.874V173.028H132.524V176.844C132.524 178.44 133.274 179.166 134.576 179.166C135.878 179.166 136.64 178.44 136.64 176.844V173.028H137.33V176.874C137.33 178.806 136.298 179.802 134.576 179.802C132.854 179.802 131.816 178.8 131.816 176.874Z" fill="#263238"/>
<path d="M144.721 175.332C144.721 176.76 143.689 177.624 141.979 177.624H140.179V179.742H139.465V173.028H141.979C143.689 173.028 144.721 173.892 144.721 175.332ZM144.013 175.332C144.013 174.258 143.305 173.64 141.961 173.64H140.161V177H141.961C143.305 177 144.001 176.4 144.001 175.332H144.013Z" fill="#263238"/>
<path d="M146.258 173.028H148.988C151.136 173.028 152.588 174.408 152.588 176.388C152.588 178.368 151.136 179.742 148.988 179.742H146.258V173.028ZM148.952 179.13C150.752 179.13 151.886 177.996 151.886 176.388C151.886 174.78 150.734 173.64 148.952 173.64H146.966V179.13H148.952Z" fill="#263238"/>
<path d="M158.286 177.948H154.548L153.738 179.748H153L156.072 173.034H156.774L159.84 179.748H159.096L158.286 177.948ZM158.028 177.348L156.42 173.748L154.806 177.348H158.028Z" fill="#263238"/>
<path d="M161.923 173.64H159.559V173.04H165.001V173.64H162.643V179.742H161.935L161.923 173.64Z" fill="#263238"/>
<path d="M170.867 179.13V179.73H166.121V173.028H170.723V173.628H166.829V176.028H170.303V176.628H166.829V179.124L170.867 179.13Z" fill="#263238"/>
<path d="M201.197 46.6085C201.197 46.6685 198.767 46.7405 195.767 46.7645C192.767 46.7885 190.367 46.7645 190.367 46.6985C190.367 46.6325 192.767 46.5605 195.767 46.5365C198.767 46.5125 201.197 46.5425 201.197 46.6085Z" fill="#263238"/>
<path d="M201.223 49.3858C201.223 49.4518 198.793 49.5238 195.793 49.5478C192.793 49.5718 190.363 49.5478 190.363 49.4758C190.363 49.4038 192.793 49.3438 195.793 49.3198C198.793 49.2958 201.223 49.3258 201.223 49.3858Z" fill="#263238"/>
<path d="M201.249 52.1641C201.249 52.2301 198.819 52.3021 195.819 52.3261C192.819 52.3501 190.383 52.3261 190.383 52.2541C190.383 52.1821 192.813 52.1221 195.819 52.0981C198.825 52.0741 201.249 52.1041 201.249 52.1641Z" fill="#263238"/>
<path d="M102.389 55.3383H102.611H103.211L105.533 55.2843L105.467 55.3503C105.467 54.8343 105.467 54.2763 105.467 53.6703C105.467 53.3523 105.467 53.0703 105.467 52.6983C105.505 52.5118 105.6 52.342 105.741 52.2136C105.881 52.0852 106.058 52.0049 106.247 51.9843C106.619 51.9843 106.949 51.9843 107.357 51.9843C107.569 52.0198 107.761 52.1291 107.899 52.2928C108.038 52.4565 108.114 52.6639 108.113 52.8783C108.113 53.6643 108.113 54.4863 108.143 55.3323L108.035 55.2303H110.963L110.849 55.3383C110.849 54.1383 110.849 52.9383 110.849 51.6963C110.849 51.3843 110.849 51.0963 110.849 50.7663C110.837 50.6282 110.794 50.4945 110.724 50.3751C110.653 50.2557 110.557 50.1536 110.441 50.0763L109.163 48.8163L107.927 47.6163L107.327 47.0163C107.123 46.8183 106.961 46.6143 106.727 46.5663C106.613 46.5366 106.493 46.5325 106.377 46.5543C106.261 46.5761 106.151 46.6232 106.055 46.6923C105.875 46.8423 105.689 47.0583 105.509 47.2323L104.399 48.2043C103.739 48.8883 103.049 49.5183 102.551 50.1123C102.405 50.4565 102.354 50.8334 102.401 51.2043V52.2363C102.401 52.8363 102.401 53.4363 102.401 53.8923C102.401 54.3483 102.401 54.6663 102.401 54.9543C102.401 55.2423 102.401 55.3323 102.401 55.3383C102.394 55.2224 102.394 55.1062 102.401 54.9903C102.401 54.7023 102.401 54.3603 102.401 53.9403C102.401 53.5203 102.401 52.9023 102.359 52.2663C102.359 51.9363 102.359 51.5883 102.359 51.2163C102.359 51.0303 102.359 50.8383 102.359 50.6163C102.358 50.4061 102.412 50.1992 102.515 50.0163C103.061 49.3503 103.715 48.7683 104.369 48.0603L105.413 46.9923C105.599 46.8063 105.755 46.6263 105.977 46.4343C106.097 46.3443 106.235 46.2824 106.381 46.2533C106.528 46.2242 106.679 46.2287 106.823 46.2663C107.102 46.3647 107.347 46.5394 107.531 46.7703L108.131 47.3703L109.367 48.5703L110.651 49.8303C110.771 49.9372 110.88 50.0558 110.975 50.1843C111.072 50.3309 111.126 50.5011 111.131 50.6763C111.131 50.9823 111.131 51.2763 111.131 51.6063C111.131 52.8603 111.131 54.0783 111.131 55.2543V55.3683H110.999H108.071H107.969V55.2663C107.969 54.4143 107.969 53.5923 107.969 52.8123C107.973 52.6408 107.914 52.4739 107.804 52.3426C107.693 52.2112 107.539 52.1244 107.369 52.0983C107.033 52.0983 106.631 52.0983 106.307 52.0983C106.156 52.112 106.012 52.1743 105.899 52.2759C105.785 52.3775 105.708 52.513 105.677 52.6623C105.677 52.9563 105.677 53.3043 105.677 53.5983V55.3803H105.611H103.253H102.653C102.564 55.3762 102.476 55.3621 102.389 55.3383Z" fill="#263238"/>
<path d="M174.3 52.9685C174.3 53.0525 165.156 53.1245 153.9 53.1245C142.644 53.1245 133.5 53.0525 133.5 52.9685C133.5 52.8845 142.644 52.8125 153.9 52.8125C165.156 52.8125 174.3 52.8845 174.3 52.9685Z" fill="#263238"/>
<path d="M173.237 242.599H130.367C127.738 242.599 125.216 241.554 123.356 239.696C121.496 237.837 120.451 235.316 120.449 232.687C120.449 230.056 121.494 227.533 123.354 225.673C125.214 223.813 127.737 222.769 130.367 222.769H173.237C175.868 222.769 178.39 223.813 180.25 225.673C182.11 227.533 183.155 230.056 183.155 232.687C183.154 235.316 182.108 237.837 180.248 239.696C178.388 241.554 175.867 242.599 173.237 242.599Z" fill="#1A1D1F"/>
<path d="M143.621 234.132L143.981 233.34C144.422 233.646 144.945 233.811 145.481 233.814C146.081 233.814 146.363 233.61 146.363 233.328C146.363 232.476 143.711 233.058 143.711 231.366C143.711 230.592 144.311 229.95 145.631 229.95C146.186 229.937 146.734 230.076 147.215 230.352L146.891 231.15C146.506 230.926 146.07 230.804 145.625 230.796C145.025 230.796 144.761 231.03 144.761 231.318C144.761 232.158 147.407 231.576 147.407 233.25C147.407 234.012 146.777 234.66 145.475 234.66C144.818 234.676 144.172 234.491 143.621 234.132Z" fill="white"/>
<path d="M150.318 234.414C150.071 234.57 149.782 234.647 149.49 234.636C149.32 234.657 149.148 234.64 148.986 234.586C148.823 234.533 148.675 234.443 148.551 234.325C148.428 234.206 148.332 234.062 148.272 233.902C148.211 233.742 148.186 233.571 148.2 233.4V231.96H147.66V231.174H148.2V230.322H149.214V231.174H150.09V231.96H149.214V233.382C149.206 233.443 149.211 233.504 149.23 233.563C149.249 233.621 149.28 233.674 149.322 233.718C149.364 233.763 149.416 233.797 149.473 233.819C149.53 233.841 149.591 233.849 149.652 233.844C149.798 233.848 149.941 233.804 150.06 233.718L150.318 234.414Z" fill="white"/>
<path d="M153.99 232.585V234.601H153.036V234.169C152.918 234.338 152.757 234.473 152.569 234.559C152.381 234.644 152.173 234.677 151.968 234.655C151.146 234.655 150.66 234.199 150.66 233.593C150.66 232.987 151.098 232.543 152.166 232.543H153C153 232.111 152.742 231.853 152.196 231.853C151.833 231.85 151.479 231.965 151.188 232.183L150.822 231.469C151.274 231.183 151.8 231.036 152.334 231.049C153.366 231.031 153.99 231.523 153.99 232.585ZM152.97 233.479V233.119H152.274C151.8 233.119 151.674 233.293 151.674 233.527C151.674 233.761 151.89 233.953 152.244 233.953C152.404 233.966 152.565 233.927 152.701 233.841C152.837 233.756 152.942 233.629 153 233.479H152.97Z" fill="white"/>
<path d="M157.074 231.03V231.966H156.852C156.723 231.954 156.592 231.971 156.47 232.017C156.348 232.062 156.238 232.135 156.148 232.229C156.058 232.323 155.99 232.436 155.95 232.56C155.91 232.684 155.899 232.815 155.916 232.944V234.6H154.902V231.102H155.874V231.564C156.015 231.383 156.198 231.24 156.408 231.147C156.617 231.054 156.846 231.014 157.074 231.03Z" fill="white"/>
<path d="M160.063 234.415C159.815 234.57 159.527 234.647 159.235 234.637C159.062 234.66 158.887 234.644 158.721 234.59C158.555 234.536 158.404 234.446 158.278 234.325C158.153 234.204 158.056 234.057 157.995 233.894C157.934 233.731 157.911 233.556 157.927 233.383V231.943H157.387V231.157H157.927V230.305H158.947V231.157H159.817V231.943H158.947V233.365C158.939 233.425 158.944 233.486 158.962 233.543C158.981 233.601 159.012 233.654 159.053 233.698C159.094 233.743 159.145 233.777 159.201 233.799C159.258 233.821 159.318 233.831 159.379 233.827C159.527 233.829 159.671 233.785 159.793 233.701L160.063 234.415Z" fill="white"/>
<path d="M192.545 195.558C192.545 195.642 174.113 195.714 151.379 195.714C128.645 195.714 110.207 195.642 110.207 195.558C110.207 195.474 128.639 195.402 151.379 195.402C174.119 195.402 192.545 195.468 192.545 195.558Z" fill="#263238"/>
<path d="M176.143 200.604C176.143 200.688 165.055 200.76 151.381 200.76C137.707 200.76 126.613 200.688 126.613 200.604C126.613 200.52 137.701 200.448 151.381 200.448C165.061 200.448 176.143 200.514 176.143 200.604Z" fill="#263238"/>
<path d="M62.2183 274.943L58.5703 288.425L70.4203 289.505L72.9103 276.671L62.2183 274.943Z" fill="#455A64"/>
<path d="M70.7654 288.408C70.1869 288.445 69.6061 288.425 69.0314 288.348C67.9634 288.264 66.4934 288.102 64.8734 287.892L60.7334 287.334C60.1554 287.291 59.5829 287.192 59.0234 287.04C59.6022 287.004 60.1831 287.026 60.7574 287.106C61.8254 287.19 63.2954 287.358 64.9154 287.562L69.0554 288.114C69.6329 288.162 70.205 288.261 70.7654 288.408Z" fill="#263238"/>
<g opacity="0.6">
<path d="M58.5703 288.425L70.4203 289.505L70.6123 288.515L58.9123 287.027L58.5823 288.287" fill="white"/>
</g>
<path d="M64.457 287.826C64.7444 286.085 65.1209 284.361 65.585 282.66C65.9592 280.936 66.4259 279.233 66.983 277.56C66.6956 279.3 66.3191 281.024 65.855 282.726C65.4775 284.449 65.0109 286.151 64.457 287.826Z" fill="#263238"/>
<path d="M70.111 288.318C70.2985 287.494 70.2985 286.639 70.111 285.816C69.9038 284.929 69.4553 284.117 68.815 283.47C68.0178 282.693 66.9776 282.214 65.869 282.114C64.7605 281.996 63.6441 282.249 62.695 282.834C61.9276 283.324 61.2945 283.999 60.853 284.796C60.4586 285.543 60.2044 286.357 60.103 287.196C60.103 287.196 60.103 287.13 60.103 287.016C60.0907 286.844 60.0907 286.671 60.103 286.5C60.1825 285.871 60.3734 285.261 60.667 284.7C61.1104 283.844 61.7703 283.12 62.581 282.6C63.5736 281.972 64.7489 281.697 65.917 281.82C66.9816 281.903 67.9895 282.333 68.7861 283.044C69.5827 283.755 70.124 284.707 70.327 285.756C70.4549 286.379 70.4549 287.022 70.327 287.646C70.2911 287.813 70.243 287.977 70.183 288.138C70.147 288.264 70.117 288.324 70.111 288.318Z" fill="#263238"/>
<path d="M111.133 271.326L110.341 283.326C110.341 283.326 122.257 287.28 122.341 289.512L99.0547 289.68L99.5227 270.972L111.133 271.326Z" fill="#455A64"/>
<g opacity="0.6">
<path d="M103.201 282.078C102.976 282.139 102.78 282.281 102.653 282.477C102.526 282.673 102.475 282.909 102.511 283.14C102.563 283.369 102.701 283.569 102.897 283.698C103.092 283.828 103.33 283.877 103.561 283.836C103.801 283.771 104.008 283.618 104.141 283.408C104.275 283.199 104.325 282.947 104.281 282.702C104.202 282.47 104.035 282.278 103.817 282.166C103.599 282.054 103.346 282.031 103.111 282.102" fill="white"/>
</g>
<g opacity="0.6">
<path d="M99.043 289.656L99.091 287.766L121.579 288.366C121.818 288.488 122.022 288.667 122.174 288.889C122.326 289.11 122.421 289.365 122.449 289.632L99.043 289.656Z" fill="white"/>
</g>
<path d="M110.724 283.2C110.724 283.314 110.124 283.35 109.572 283.698C109.02 284.046 108.69 284.514 108.588 284.466C108.486 284.418 108.672 283.77 109.374 283.356C110.076 282.942 110.748 283.092 110.724 283.2Z" fill="#263238"/>
<path d="M113.129 284.28C113.129 284.388 112.655 284.568 112.253 285.036C111.851 285.504 111.725 286.014 111.617 286.002C111.509 285.99 111.449 285.348 111.959 284.802C112.469 284.256 113.129 284.172 113.129 284.28Z" fill="#263238"/>
<path d="M114.43 287.243C114.322 287.243 114.184 286.691 114.496 286.079C114.808 285.467 115.342 285.233 115.39 285.329C115.438 285.425 115.096 285.749 114.85 286.253C114.604 286.757 114.544 287.237 114.43 287.243Z" fill="#263238"/>
<path d="M110.599 280.445C110.551 280.547 110.035 280.379 109.399 280.403C108.763 280.427 108.253 280.613 108.199 280.511C108.145 280.409 108.637 280.025 109.399 280.007C110.161 279.989 110.659 280.361 110.599 280.445Z" fill="#263238"/>
<path d="M110.71 278.028C110.325 278.119 109.923 278.105 109.546 277.986C109.131 277.899 108.728 277.762 108.346 277.578C108.119 277.464 107.899 277.338 107.686 277.2C107.559 277.123 107.443 277.028 107.344 276.918C107.272 276.836 107.23 276.733 107.224 276.624C107.217 276.515 107.247 276.408 107.308 276.318C107.366 276.238 107.443 276.174 107.532 276.131C107.621 276.088 107.719 276.068 107.818 276.072C107.965 276.075 108.11 276.099 108.25 276.144C108.497 276.212 108.738 276.302 108.97 276.414C109.356 276.604 109.71 276.853 110.02 277.152C110.548 277.668 110.716 278.1 110.68 278.118C110.644 278.136 110.374 277.794 109.834 277.362C109.52 277.12 109.178 276.918 108.814 276.762C108.601 276.667 108.38 276.593 108.154 276.54C107.908 276.468 107.698 276.456 107.632 276.54C107.566 276.624 107.632 276.6 107.632 276.672C107.708 276.753 107.795 276.824 107.89 276.882C108.082 277.017 108.282 277.139 108.49 277.248C108.846 277.439 109.22 277.596 109.606 277.716C109.981 277.792 110.35 277.897 110.71 278.028Z" fill="#263238"/>
<path d="M110.562 278.19C110.353 277.848 110.257 277.449 110.286 277.05C110.274 276.359 110.453 275.678 110.802 275.082C110.87 274.93 110.976 274.798 111.11 274.7C111.243 274.601 111.4 274.538 111.564 274.518C111.669 274.521 111.769 274.554 111.855 274.614C111.94 274.674 112.006 274.757 112.044 274.854C112.099 274.992 112.136 275.137 112.152 275.286C112.189 275.546 112.189 275.811 112.152 276.072C112.075 276.509 111.892 276.921 111.618 277.272C111.144 277.872 110.664 277.986 110.658 277.944C110.652 277.902 111.024 277.68 111.39 277.11C111.6 276.78 111.737 276.41 111.792 276.024C111.822 275.801 111.822 275.575 111.792 275.352C111.762 275.106 111.672 274.902 111.582 274.926C111.492 274.95 111.264 275.1 111.162 275.292C111.042 275.481 110.939 275.682 110.856 275.892C110.714 276.263 110.625 276.653 110.592 277.05C110.514 277.74 110.622 278.172 110.562 278.19Z" fill="#263238"/>
<path d="M111.132 167.298L75.6537 167.034L58.5117 279.642L73.2357 281.508L92.1057 188.916L97.7517 281.838L97.7697 282.114L113.694 281.838L111.132 167.298Z" fill="#455A64"/>
<path d="M94.9995 176.4C95.2424 176.37 95.4868 176.354 95.7315 176.352L97.8675 176.274L105.535 176.058H105.679V176.208C105.679 178.434 105.679 180.918 105.679 183.564V183.63L105.625 183.678L104.293 184.878L100.357 188.478L100.249 188.574L100.147 188.484L94.8975 183.804L94.8555 183.768V183.708C94.8555 181.476 94.9035 179.634 94.9215 178.308C94.9215 177.708 94.9215 177.222 94.9515 176.856C94.9477 176.691 94.9577 176.526 94.9815 176.364C94.9907 176.544 94.9907 176.724 94.9815 176.904C94.9815 177.276 94.9815 177.774 95.0175 178.386C95.0175 179.688 95.0535 181.5 95.0835 183.702L95.0415 183.612L100.327 188.244H100.117L104.047 184.644L105.385 183.444L105.331 183.564C105.331 180.918 105.331 178.434 105.331 176.208L105.481 176.352L97.8975 176.424H95.1495C95.0989 176.42 95.0487 176.412 94.9995 176.4Z" fill="#455A64"/>
<path d="M78.3007 175.938C78.5184 175.923 78.7369 175.923 78.9547 175.938L80.8627 176.094L87.7627 176.694H87.9067V176.838C87.6487 179.016 87.3487 181.494 87.0367 184.14V184.206L86.9887 184.248L85.4587 185.448L81.6847 188.448L81.5587 188.544L81.4627 188.424L77.3407 183.204L77.3047 183.162V183.108C77.6047 180.9 77.8507 179.082 78.0247 177.768C78.1147 177.168 78.1807 176.694 78.2347 176.322C78.2468 176.159 78.277 175.998 78.3247 175.842C78.321 176.022 78.307 176.203 78.2827 176.382C78.2467 176.758 78.1987 177.25 78.1387 177.858L77.5387 183.144V183.048C78.7387 184.554 80.1667 186.312 81.7087 188.226H81.4867L85.2547 185.226L86.7847 184.026L86.7247 184.128C87.0547 181.488 87.3667 179.01 87.6367 176.832L87.7627 176.988L80.9647 176.232L79.0327 175.998C78.7877 175.993 78.5432 175.973 78.3007 175.938Z" fill="#455A64"/>
<path d="M100.01 193.026C99.4517 192.814 98.9136 192.553 98.4016 192.246C97.4236 191.736 96.0736 191.046 94.5676 190.284C93.0616 189.522 91.6936 188.88 90.6976 188.406C90.1442 188.178 89.6105 187.905 89.1016 187.59C89.6824 187.732 90.2473 187.933 90.7876 188.19C91.8136 188.61 93.1876 189.234 94.7176 189.99C96.2476 190.746 97.5616 191.484 98.5096 192.048C99.0392 192.326 99.5414 192.653 100.01 193.026Z" fill="#455A64"/>
<path d="M99.5525 195.761C99.1281 195.684 98.7215 195.529 98.3525 195.305C96.4783 194.345 94.9435 192.833 93.9545 190.973C93.7247 190.606 93.564 190.199 93.4805 189.773C94.1948 191.032 95.0569 192.2 96.0485 193.253C97.1157 194.222 98.2915 195.064 99.5525 195.761Z" fill="#455A64"/>
<path d="M109.566 228.299C109.544 228.507 109.49 228.709 109.404 228.899C109.211 229.422 108.964 229.922 108.666 230.393C107.684 231.971 106.237 233.205 104.524 233.927C102.812 234.649 100.918 234.823 99.1024 234.425C98.5582 234.31 98.0274 234.139 97.5184 233.915C97.3267 233.845 97.1466 233.746 96.9844 233.621C97.6939 233.857 98.4148 234.058 99.1444 234.221C100.913 234.548 102.739 234.351 104.397 233.652C106.055 232.954 107.473 231.786 108.474 230.291C109.248 229.115 109.506 228.275 109.566 228.299Z" fill="#455A64"/>
<path d="M107.23 227.34C106.817 227.618 106.358 227.821 105.874 227.94C104.731 228.3 103.544 228.502 102.346 228.54C101.154 228.584 99.9605 228.514 98.7819 228.33C98.288 228.281 97.8023 228.17 97.3359 228C97.3359 227.886 99.5799 228.318 102.334 228.216C103.508 228.18 104.674 228.019 105.814 227.736C106.684 227.502 107.212 227.292 107.23 227.34Z" fill="#455A64"/>
<path d="M80.8563 228C80.5001 228.429 80.0838 228.805 79.6203 229.116C78.5387 229.919 77.3489 230.566 76.0863 231.036C74.8229 231.506 73.5001 231.796 72.1563 231.9C71.6012 231.967 71.0393 231.953 70.4883 231.858C70.4883 231.804 71.1243 231.798 72.1323 231.672C74.7644 231.343 77.2833 230.404 79.4883 228.93C79.9277 228.596 80.3843 228.286 80.8563 228Z" fill="#455A64"/>
<path d="M77.7424 227.874C76.6893 228.191 75.5813 228.283 74.4904 228.144C73.3901 228.104 72.3098 227.839 71.3164 227.364C71.3164 227.268 72.7444 227.682 74.5144 227.82C76.2844 227.958 77.7304 227.778 77.7424 227.874Z" fill="#455A64"/>
<path d="M91.8975 189.695C91.3962 189.998 90.8604 190.24 90.3015 190.415C88.9743 190.898 87.6041 191.254 86.2095 191.477C84.8214 191.702 83.4149 191.792 82.0095 191.747C81.4242 191.755 80.8401 191.692 80.2695 191.561C80.8479 191.508 81.4292 191.494 82.0095 191.519C84.807 191.482 87.5841 191.037 90.2535 190.199C90.79 189.996 91.3392 189.827 91.8975 189.695Z" fill="#455A64"/>
<path d="M90.9238 186.06C91.0138 186.06 91.0918 186.336 91.0978 186.66C91.1038 186.984 91.0318 187.26 90.9418 187.26C90.8518 187.26 90.7798 186.984 90.7738 186.66C90.7678 186.336 90.8338 186.06 90.9238 186.06Z" fill="#455A64"/>
<path d="M90.9297 183.563C91.0197 183.563 91.0917 183.845 91.0857 184.163C91.0797 184.481 91.0137 184.763 90.9237 184.763C90.8337 184.763 90.7617 184.481 90.7617 184.163C90.7617 183.845 90.8397 183.563 90.9297 183.563Z" fill="#455A64"/>
<path d="M90.9762 181.073C91.0662 181.073 91.1322 181.355 91.1262 181.673C91.1202 181.991 91.0362 182.273 90.9462 182.273C90.8562 182.273 90.7902 181.991 90.8022 181.673C90.8142 181.355 90.8922 181.067 90.9762 181.073Z" fill="#455A64"/>
<path d="M91.0802 178.578C91.1702 178.578 91.2302 178.866 91.2122 179.208C91.1942 179.55 91.1163 179.808 91.0263 179.808C90.9363 179.808 90.8762 179.52 90.8882 179.208C90.9002 178.896 90.9902 178.572 91.0802 178.578Z" fill="#455A64"/>
<path d="M91.2292 176.088C91.3192 176.088 91.3732 176.376 91.3492 176.724C91.3252 177.072 91.2352 177.324 91.1452 177.324C91.0552 177.324 91.0012 177.03 91.0252 176.688C91.0492 176.346 91.1392 176.082 91.2292 176.088Z" fill="#455A64"/>
<path d="M91.422 173.604C91.512 173.604 91.5601 173.892 91.5361 174.234C91.5121 174.576 91.41 174.834 91.32 174.834C91.23 174.834 91.1821 174.54 91.2121 174.198C91.2421 173.856 91.338 173.592 91.422 173.604Z" fill="#455A64"/>
<path d="M91.6178 171.564C91.7078 171.564 91.7618 171.762 91.7378 171.978C91.7138 172.194 91.6298 172.368 91.5398 172.362C91.4498 172.356 91.3958 172.164 91.4198 171.948C91.4438 171.732 91.5278 171.558 91.6178 171.564Z" fill="#455A64"/>
<path d="M71.5622 279.036C71.6522 279.036 71.6702 279.342 71.5982 279.684C71.5262 280.026 71.4062 280.284 71.3162 280.284C71.2262 280.284 71.2142 279.978 71.2802 279.642C71.3462 279.306 71.4782 279 71.5622 279.036Z" fill="#455A64"/>
<path d="M72.0544 276.6C72.1384 276.6 72.1564 276.906 72.0904 277.242C72.0244 277.578 71.8984 277.842 71.8084 277.842C71.7184 277.842 71.7064 277.536 71.7724 277.194C71.8384 276.852 71.9644 276.6 72.0544 276.6Z" fill="#455A64"/>
<path d="M72.5387 274.145C72.6287 274.145 72.6467 274.451 72.5747 274.787C72.5027 275.123 72.3827 275.387 72.2987 275.387C72.2147 275.387 72.1907 275.081 72.2567 274.745C72.3227 274.409 72.4547 274.127 72.5387 274.145Z" fill="#455A64"/>
<path d="M73.0309 271.698C73.1209 271.698 73.1329 272.004 73.0669 272.346C73.0009 272.688 72.8749 272.946 72.7849 272.946C72.6949 272.946 72.6829 272.64 72.7489 272.304C72.8149 271.968 72.9409 271.686 73.0309 271.698Z" fill="#455A64"/>
<path d="M73.5179 269.256C73.6079 269.256 73.6259 269.562 73.5599 269.898C73.4939 270.234 73.3619 270.498 73.2779 270.498C73.1939 270.498 73.1699 270.192 73.2419 269.85C73.3139 269.508 73.4339 269.238 73.5179 269.256Z" fill="#455A64"/>
<path d="M74.0114 266.807C74.1014 266.807 74.1134 267.113 74.0474 267.449C73.9814 267.785 73.8554 268.049 73.7654 268.049C73.6754 268.049 73.6634 267.743 73.7294 267.407C73.7954 267.071 73.9214 266.789 74.0114 266.807Z" fill="#455A64"/>
<path d="M74.5004 264.366C74.5844 264.366 74.6024 264.666 74.5364 265.008C74.4704 265.35 74.3384 265.608 74.2544 265.608C74.1704 265.608 74.1464 265.302 74.2184 264.966C74.2904 264.63 74.3984 264.348 74.5004 264.366Z" fill="#455A64"/>
<path d="M74.9997 261.918C75.0897 261.918 75.1017 262.224 75.0357 262.56C74.9697 262.896 74.8437 263.16 74.7537 263.16C74.6637 263.16 74.6517 262.854 74.7177 262.512C74.7837 262.17 74.8977 261.9 74.9997 261.918Z" fill="#455A64"/>
<path d="M75.4788 259.47C75.5628 259.47 75.5808 259.776 75.5148 260.112C75.4488 260.448 75.3228 260.712 75.2328 260.712C75.1428 260.712 75.1248 260.406 75.1968 260.07C75.2688 259.734 75.3888 259.452 75.4788 259.47Z" fill="#455A64"/>
<path d="M75.9645 257.028C76.0545 257.028 76.0725 257.328 76.0005 257.67C75.9285 258.012 75.8085 258.27 75.7185 258.27C75.6285 258.27 75.6165 257.964 75.6825 257.628C75.7485 257.292 75.8805 257.01 75.9645 257.028Z" fill="#455A64"/>
<path d="M76.4567 254.58C76.5407 254.58 76.5587 254.886 76.4927 255.222C76.4267 255.558 76.3007 255.822 76.2107 255.822C76.1207 255.822 76.1087 255.516 76.1747 255.174C76.2407 254.832 76.3667 254.562 76.4567 254.58Z" fill="#455A64"/>
<path d="M76.9449 252.132C77.0349 252.132 77.0529 252.438 76.9809 252.774C76.9089 253.11 76.7889 253.374 76.7049 253.374C76.6209 253.374 76.5969 253.068 76.6629 252.732C76.7289 252.396 76.8609 252.114 76.9449 252.132Z" fill="#455A64"/>
<path d="M77.4372 249.69C77.5212 249.69 77.5392 249.996 77.4732 250.332C77.4072 250.668 77.2812 250.932 77.1912 250.932C77.1012 250.932 77.0892 250.626 77.1552 250.29C77.2212 249.954 77.3472 249.672 77.4372 249.69Z" fill="#455A64"/>
<path d="M77.9215 247.242C78.0115 247.242 78.0295 247.548 77.9635 247.884C77.8975 248.22 77.7655 248.484 77.6815 248.484C77.5975 248.484 77.5735 248.178 77.6395 247.842C77.7055 247.506 77.8375 247.2 77.9215 247.242Z" fill="#455A64"/>
<path d="M78.4137 244.8C78.5037 244.8 78.5157 245.106 78.4497 245.448C78.3837 245.79 78.2577 246.048 78.1677 246.048C78.0777 246.048 78.0657 245.742 78.1317 245.406C78.1977 245.07 78.3237 244.8 78.4137 244.8Z" fill="#455A64"/>
<path d="M78.9007 242.351C78.9907 242.351 79.0087 242.657 78.9427 242.993C78.8767 243.329 78.7447 243.593 78.6607 243.593C78.5767 243.593 78.5527 243.293 78.6247 242.951C78.6967 242.609 78.8167 242.333 78.9007 242.351Z" fill="#455A64"/>
<path d="M79.3903 239.904C79.4803 239.904 79.4923 240.21 79.4263 240.546C79.3603 240.882 79.2343 241.146 79.1443 241.146C79.0543 241.146 79.0423 240.84 79.1083 240.504C79.1743 240.168 79.3003 239.886 79.3903 239.904Z" fill="#455A64"/>
<path d="M79.8832 237.456C79.9672 237.456 79.9852 237.762 79.9192 238.104C79.8532 238.446 79.7212 238.704 79.6372 238.704C79.5532 238.704 79.5292 238.398 79.6012 238.062C79.6732 237.726 79.7992 237.438 79.8832 237.456Z" fill="#455A64"/>
<path d="M80.3981 235.014C80.4881 235.014 80.5061 235.32 80.4341 235.656C80.3621 235.992 80.2421 236.256 80.1521 236.256C80.0621 236.256 80.0501 235.95 80.1161 235.608C80.1821 235.266 80.2781 234.996 80.3981 235.014Z" fill="#455A64"/>
<path d="M80.8616 232.566C80.9456 232.566 80.9636 232.872 80.8976 233.208C80.8316 233.544 80.7056 233.808 80.6156 233.808C80.5256 233.808 80.5076 233.502 80.5796 233.166C80.6516 232.83 80.7716 232.548 80.8616 232.566Z" fill="#455A64"/>
<path d="M81.3473 230.118C81.4373 230.118 81.4553 230.424 81.3833 230.766C81.3113 231.108 81.1913 231.366 81.1013 231.366C81.0113 231.366 80.9993 231.06 81.0653 230.724C81.1313 230.388 81.2633 230.1 81.3473 230.118Z" fill="#455A64"/>
<path d="M81.8395 227.676C81.9235 227.676 81.9415 227.982 81.8755 228.318C81.8095 228.654 81.6835 228.918 81.5935 228.918C81.5035 228.918 81.4915 228.612 81.5575 228.27C81.6235 227.928 81.7495 227.658 81.8395 227.676Z" fill="#455A64"/>
<path d="M82.3238 225.227C82.4138 225.227 82.4318 225.533 82.3598 225.869C82.2878 226.205 82.1678 226.469 82.0838 226.469C81.9998 226.469 81.9758 226.163 82.0418 225.827C82.1078 225.491 82.2398 225.209 82.3238 225.227Z" fill="#455A64"/>
<path d="M82.8004 222.78C82.8904 222.78 82.9024 223.086 82.8364 223.428C82.7704 223.77 82.6444 224.028 82.5544 224.028C82.4644 224.028 82.4524 223.722 82.5184 223.386C82.5844 223.05 82.7284 222.762 82.8004 222.78Z" fill="#455A64"/>
<path d="M83.3043 220.338C83.3943 220.338 83.4123 220.644 83.3463 220.98C83.2803 221.316 83.1483 221.58 83.0643 221.58C82.9803 221.58 82.9563 221.274 83.0223 220.932C83.0883 220.59 83.2203 220.32 83.3043 220.338Z" fill="#455A64"/>
<path d="M83.7965 217.889C83.8865 217.889 83.8985 218.195 83.8325 218.531C83.7665 218.867 83.6405 219.131 83.5505 219.131C83.4605 219.131 83.4485 218.825 83.5145 218.489C83.5805 218.153 83.7065 217.871 83.7965 217.889Z" fill="#455A64"/>
<path d="M84.2895 215.442C84.3735 215.442 84.3915 215.748 84.3255 216.09C84.2595 216.432 84.1275 216.69 84.0435 216.69C83.9595 216.69 83.9355 216.384 84.0075 216.048C84.0795 215.712 84.1995 215.43 84.2895 215.442Z" fill="#455A64"/>
<path d="M84.7731 213C84.8631 213 84.8751 213.306 84.8091 213.642C84.7431 213.978 84.6171 214.242 84.5271 214.242C84.4371 214.242 84.4251 213.936 84.4911 213.594C84.5571 213.252 84.6831 213 84.7731 213Z" fill="#455A64"/>
<path d="M85.266 210.552C85.35 210.552 85.368 210.858 85.302 211.194C85.236 211.53 85.104 211.794 85.02 211.794C84.936 211.794 84.912 211.488 84.984 211.152C85.056 210.816 85.2 210.534 85.266 210.552Z" fill="#455A64"/>
<path d="M85.7536 208.11C85.8436 208.11 85.8616 208.41 85.7896 208.752C85.7176 209.094 85.5976 209.352 85.5076 209.352C85.4176 209.352 85.4056 209.046 85.4716 208.71C85.5376 208.374 85.6696 208.092 85.7536 208.11Z" fill="#455A64"/>
<path d="M86.2419 205.662C86.3259 205.662 86.3439 205.968 86.2779 206.304C86.2119 206.64 86.0859 206.904 85.9959 206.904C85.9059 206.904 85.8939 206.598 85.9599 206.256C86.0259 205.914 86.1519 205.644 86.2419 205.662Z" fill="#455A64"/>
<path d="M86.7301 203.214C86.8201 203.214 86.8381 203.52 86.7661 203.856C86.6941 204.192 86.5741 204.456 86.4841 204.456C86.3941 204.456 86.3821 204.15 86.4481 203.814C86.5141 203.478 86.6461 203.196 86.7301 203.214Z" fill="#455A64"/>
<path d="M87.2223 200.771C87.3063 200.771 87.3243 201.077 87.2583 201.413C87.1923 201.749 87.0663 202.013 86.9763 202.013C86.8863 202.013 86.8743 201.707 86.9403 201.371C87.0063 201.035 87.1323 200.753 87.2223 200.771Z" fill="#455A64"/>
<path d="M87.7066 198.324C87.7966 198.324 87.8147 198.63 87.7487 198.966C87.6827 199.302 87.5506 199.566 87.4666 199.566C87.3826 199.566 87.3587 199.26 87.4247 198.924C87.4907 198.588 87.5986 198.306 87.7066 198.324Z" fill="#455A64"/>
<path d="M88.1989 195.876C88.2889 195.876 88.3009 196.182 88.2349 196.518C88.1689 196.854 88.0429 197.118 87.9529 197.118C87.8629 197.118 87.8509 196.812 87.9169 196.476C87.9829 196.14 88.1089 195.858 88.1989 195.876Z" fill="#455A64"/>
<path d="M88.6858 193.433C88.7758 193.433 88.7938 193.739 88.7278 194.075C88.6618 194.411 88.5298 194.675 88.4458 194.675C88.3618 194.675 88.3378 194.375 88.4098 194.033C88.4818 193.691 88.6018 193.415 88.6858 193.433Z" fill="#455A64"/>
<path d="M89.1794 190.986C89.2694 190.986 89.2814 191.292 89.2154 191.628C89.1494 191.964 89.0234 192.228 88.9334 192.228C88.8434 192.228 88.8314 191.922 88.8974 191.586C88.9634 191.25 89.0894 190.968 89.1794 190.986Z" fill="#455A64"/>
<path d="M138.082 115.554C138.082 115.554 142.234 109.332 142.348 109.278C142.348 109.278 146.092 102.966 147.34 102.966C148.588 102.966 148.138 104.244 146.848 106.506C146.23 107.49 145.808 108.584 145.606 109.728L148.684 111.582C148.684 111.582 150.742 110.79 150.826 112.704C150.796 113.582 150.677 114.454 150.472 115.308C150.346 115.992 150.04 116.718 149.392 116.46C149.231 116.406 149.092 116.303 148.994 116.165C148.895 116.027 148.844 115.861 148.846 115.692C148.804 114.558 149.014 114.138 148.846 114.138C148.678 114.138 146.632 120.084 146.632 120.084L138.082 115.554Z" fill="#FFBE9D"/>
<path d="M146.465 110.67C146.774 110.438 147.106 110.237 147.455 110.07C147.805 109.906 148.194 109.846 148.577 109.896C148.721 109.909 148.86 109.956 148.982 110.034C149.105 110.112 149.206 110.218 149.279 110.343C149.352 110.468 149.394 110.609 149.401 110.753C149.408 110.898 149.381 111.042 149.321 111.174C149.198 111.482 149.026 111.768 148.811 112.02" fill="#FFBE9D"/>
<path d="M145.062 109.415C145.357 109.201 145.67 109.014 145.998 108.857C146.33 108.703 146.698 108.647 147.061 108.695C147.293 108.72 147.507 108.832 147.661 109.007C147.751 109.135 147.809 109.282 147.829 109.437C147.849 109.592 147.83 109.75 147.774 109.895C147.495 110.337 147.173 110.751 146.814 111.131" fill="#FFBE9D"/>
<path d="M139.535 112.044L133.535 124.872L140.135 131.634L143.579 122.07C143.579 122.07 145.427 122.436 146.183 121.212C147.023 119.844 148.127 115.896 148.127 115.896L139.535 112.044Z" fill="#FFBE9D"/>
<path d="M143.82 111.689C143.869 111.031 144.116 110.404 144.528 109.889C144.802 109.514 145.154 109.202 145.56 108.977C145.866 108.815 146.076 108.755 146.094 108.791C146.112 108.827 145.374 109.271 144.792 110.081C144.21 110.891 143.922 111.731 143.82 111.689Z" fill="#EB996E"/>
<path d="M150.473 111.744C150.473 111.786 150.239 111.672 149.873 111.612C149.427 111.53 148.966 111.602 148.565 111.816C148.175 112.07 147.846 112.406 147.599 112.8C147.389 113.1 147.245 113.286 147.203 113.262C147.161 113.238 147.233 113.022 147.407 112.662C147.627 112.193 147.979 111.799 148.421 111.528C148.653 111.403 148.907 111.327 149.169 111.303C149.431 111.279 149.695 111.309 149.945 111.39C150.329 111.522 150.497 111.714 150.473 111.744Z" fill="#EB996E"/>
<path d="M148.24 109.931C147.745 110.162 147.273 110.439 146.83 110.759C146.158 111.359 145.828 112.049 145.738 112.007C145.824 111.416 146.138 110.881 146.614 110.519C146.926 110.23 147.306 110.024 147.718 109.919C148.036 109.871 148.234 109.895 148.24 109.931Z" fill="#EB996E"/>
<path d="M149.717 112.703C149.801 112.673 149.957 113.171 149.639 113.663C149.321 114.155 148.811 114.263 148.805 114.149C148.799 114.035 149.129 113.885 149.369 113.495C149.609 113.105 149.621 112.715 149.717 112.703Z" fill="#EB996E"/>
<path d="M138.103 115.308C138.103 115.308 137.893 111.48 138.817 110.61C139.741 109.74 142.417 110.646 142.417 110.646" fill="#FFBE9D"/>
<path d="M142.799 108.822C142.433 109.603 141.972 110.334 141.425 111C140.965 111.729 140.417 112.398 139.793 112.992C140.612 111.48 141.62 110.079 142.793 108.822H142.799Z" fill="#EB996E"/>
<path d="M89.6564 79.7994L89.5664 109.673L102.382 110.273L102.754 103.007C102.754 103.007 107.308 103.913 108.478 99.6834C109.234 96.9834 109.042 76.1094 109.042 76.1094L89.6564 79.7994Z" fill="#FFBE9D"/>
<path d="M110.728 78.216C108.712 78.816 108.274 82.098 108.274 82.098L105.106 89.088C103.492 87.828 101.326 87.888 100.906 90.738C100.606 92.784 103.156 93.198 103.156 93.198C101.674 95.724 100.666 97.764 98.5064 100.164C96.1724 102.762 94.8644 103.02 92.3264 103.062H89.5364C89.5364 103.062 88.1684 98.622 85.6364 87.522C82.8224 75.204 97.3904 76.788 100.09 73.644C104.5 68.526 117.094 76.398 110.728 78.216Z" fill="#263238"/>
<path d="M85.9154 88.6798C83.5514 87.0958 83.3414 82.6798 84.7154 79.9978C85.4217 78.6701 86.4662 77.5525 87.7431 76.758C89.0201 75.9636 90.4842 75.5206 91.9874 75.4738C92.392 75.5007 92.7982 75.456 93.1874 75.3418C93.7121 75.0642 94.1517 74.6495 94.4594 74.1418C96.5714 71.3998 98.6594 68.7058 102.577 68.7058C103.442 68.6625 104.301 68.8709 105.049 69.3058C105.747 69.7812 106.27 70.4726 106.537 71.2738C107.258 70.8843 108.032 70.6052 108.835 70.4458C109.238 70.3667 109.653 70.3756 110.051 70.472C110.45 70.5683 110.823 70.7497 111.145 71.0038C111.457 71.2711 111.664 71.6399 111.73 72.045C111.796 72.4502 111.716 72.8656 111.505 73.2178C112.171 73.2084 112.818 73.4372 113.33 73.863C113.841 74.2889 114.184 74.8836 114.295 75.5398C114.505 76.8538 112.627 77.7778 112.429 77.8798C112.429 77.8798 113.461 80.0398 111.001 81.3358C110.011 81.8518 108.721 81.2278 108.601 81.1498" fill="#263238"/>
<path d="M95.2718 91.5537C95.4449 92.3032 95.4201 93.0848 95.1998 93.8217C95.0797 94.5814 94.7679 95.298 94.2938 95.9037C94.2038 95.8617 94.6178 94.9437 94.8938 93.7497C95.1698 92.5557 95.1758 91.5537 95.2718 91.5537Z" fill="#455A64"/>
<path d="M96.8232 90.0898C96.9354 90.8183 96.8946 91.5621 96.7032 92.2738C96.6171 93.005 96.3889 93.7123 96.0312 94.3558C96.0805 93.6322 96.199 92.9149 96.3852 92.2138C96.4674 91.4942 96.614 90.7833 96.8232 90.0898Z" fill="#455A64"/>
<path d="M101.261 85.1582C101.261 85.2002 100.931 85.4642 100.469 86.0042C99.8741 86.7189 99.4072 87.5308 99.0887 88.4042C98.7691 89.2788 98.5125 90.175 98.3207 91.0862C98.2657 91.4767 98.1587 91.8581 98.0027 92.2202C97.9739 91.818 98.0043 91.4137 98.0927 91.0202C98.2221 90.0779 98.4535 89.1525 98.7827 88.2602C99.1192 87.3648 99.6358 86.5479 100.301 85.8602C100.557 85.5494 100.887 85.308 101.261 85.1582Z" fill="#455A64"/>
<path d="M103.056 81.7979C103.204 82.0439 103.29 82.3216 103.308 82.6078C103.495 83.9833 103.145 85.3778 102.33 86.5018C102.018 86.9218 101.73 87.1018 101.73 87.1018C102.218 86.3111 102.605 85.4625 102.882 84.5759C103.057 83.6608 103.115 82.7275 103.056 81.7979Z" fill="#455A64"/>
<path d="M87.7609 89.2615C87.7129 89.3395 87.3229 89.2015 86.8789 88.9555C86.4349 88.7095 86.1169 88.4515 86.1649 88.3555C86.2129 88.2595 86.597 88.4095 87.041 88.6555C87.485 88.9015 87.8029 89.1835 87.7609 89.2615Z" fill="#455A64"/>
<path d="M93.9526 86.0698C94.0045 86.5348 93.8732 87.0018 93.5866 87.3718C93.1906 88.0318 92.6566 88.3678 92.6026 88.3018C92.5486 88.2358 92.9446 87.8098 93.3046 87.2038C93.6646 86.5978 93.8566 86.0518 93.9526 86.0698Z" fill="#455A64"/>
<path d="M95.8559 85.0498C95.8422 85.6164 95.6419 86.1627 95.2859 86.6038C94.7699 87.3838 94.1279 87.8038 94.0859 87.7318C94.3744 87.278 94.689 86.8412 95.0279 86.4238C95.2752 85.9491 95.5517 85.4902 95.8559 85.0498Z" fill="#455A64"/>
<path d="M105.322 72.5397C105.322 72.5397 105.076 72.3537 104.614 72.0897C103.951 71.7405 103.216 71.5515 102.466 71.5377C101.357 71.5092 100.263 71.8031 99.3164 72.3837C98.1754 73.1319 97.2506 74.1663 96.6344 75.3837C96.1687 76.2748 95.8025 77.2144 95.5424 78.1856L95.4944 78.3716L95.3204 78.2817C94.4384 77.8184 93.4604 77.5677 92.4644 77.5497C91.6736 77.5306 90.8857 77.6504 90.1364 77.9036C89.4702 78.1505 88.8325 78.4683 88.2344 78.8517C88.3575 78.7059 88.501 78.5786 88.6604 78.4736C89.0945 78.1598 89.5687 77.9056 90.0704 77.7177C90.837 77.4273 91.6506 77.2809 92.4704 77.2856C93.5134 77.2839 94.5418 77.5307 95.4704 78.0056L95.2424 78.1076C95.499 77.1086 95.8694 76.1423 96.3464 75.2276C96.9949 73.9652 97.9683 72.8986 99.1664 72.1377C100.164 71.5409 101.317 71.2548 102.478 71.3157C103.258 71.3523 104.015 71.5856 104.68 71.9936C104.857 72.1074 105.021 72.238 105.172 72.3837C105.28 72.4737 105.328 72.5277 105.322 72.5397Z" fill="#455A64"/>
<path d="M112.063 74.1661C112.063 74.1661 112.417 74.0701 112.801 74.4961C113.017 74.7582 113.122 75.0938 113.095 75.4321C113.061 75.6545 112.976 75.8661 112.847 76.0504C112.718 76.2346 112.548 76.3865 112.351 76.4941C111.878 76.7639 111.319 76.8413 110.791 76.7101C110.208 76.5618 109.66 76.2964 109.183 75.9301C108.681 75.5407 108.156 75.182 107.611 74.8561C107.02 74.5358 106.382 74.311 105.721 74.1901C104.431 73.961 103.104 74.0516 101.857 74.4541C100.837 74.7902 99.8735 75.2798 99.0008 75.9061C98.2047 76.5086 97.4416 77.1535 96.7148 77.8381C96.8575 77.6056 97.0288 77.3919 97.2248 77.2021C97.726 76.6607 98.2742 76.1648 98.8628 75.7201C99.7385 75.0504 100.717 74.5275 101.761 74.1721C103.054 73.7329 104.437 73.6296 105.781 73.8721C106.476 73.9997 107.146 74.2366 107.767 74.5741C108.321 74.9108 108.852 75.2836 109.357 75.6901C109.801 76.0366 110.309 76.2934 110.851 76.4461C111.315 76.5764 111.811 76.5227 112.237 76.2961C112.41 76.2095 112.561 76.0844 112.679 75.9305C112.796 75.7766 112.877 75.598 112.915 75.4081C112.953 75.1127 112.875 74.814 112.699 74.5741C112.541 74.3683 112.316 74.224 112.063 74.1661Z" fill="#455A64"/>
<path d="M76.0151 112.8L64.5671 132C63.2831 134.244 62.1011 136.632 60.9671 139.11C60.5355 140.353 60.4193 141.685 60.6287 142.984C60.8381 144.284 61.3667 145.511 62.1671 146.556L61.8431 146.088C62.4704 146.863 63.2631 147.489 64.1631 147.918C65.0631 148.348 66.0477 148.571 67.0451 148.572H67.3451C68.6467 148.571 69.9198 148.19 71.008 147.476C72.0962 146.762 72.9523 145.746 73.4711 144.552L77.1491 138.972L76.0151 112.8Z" fill="#263238"/>
<path d="M110.555 109.128C107.483 107.556 104.447 107.202 101.135 107.106C97.2835 106.992 91.8475 106.452 87.6895 106.896C87.6895 106.896 75.8575 107.772 75.0355 115.896L76.6495 153.996L73.9375 170.136L111.875 171.282L111.599 152.226C112.067 142.32 111.071 128.286 111.071 128.286C111.671 122.958 114.569 120.564 114.983 117.096C115.349 114.036 113.297 110.526 110.555 109.128Z" fill="#263238"/>
<path d="M99.8648 154.53C99.7019 154.728 99.5144 154.906 99.3068 155.058C98.7662 155.506 98.188 155.908 97.5788 156.258C95.5581 157.419 93.2762 158.049 90.9459 158.09C88.6157 158.131 86.3131 157.581 84.2528 156.492C83.6323 156.168 83.0401 155.793 82.4828 155.37C82.263 155.224 82.0616 155.053 81.8828 154.86C81.9188 154.806 82.7588 155.52 84.3308 156.288C86.376 157.298 88.6334 157.804 90.9142 157.763C93.1951 157.723 95.433 157.136 97.4408 156.054C99.0008 155.22 99.8228 154.482 99.8648 154.53Z" fill="#263238"/>
<path d="M74.9988 116.315C75.0263 116.438 75.0404 116.562 75.0408 116.687C75.0408 116.969 75.0828 117.317 75.1068 117.755C75.1488 118.721 75.2148 120.047 75.2868 121.667C75.4308 125.015 75.6168 129.569 75.8268 134.597C76.0368 139.625 76.2648 144.197 76.4268 147.521C76.5108 149.141 76.5768 150.467 76.6248 151.433C76.6248 151.871 76.6608 152.219 76.6728 152.501C76.6871 152.625 76.6871 152.75 76.6728 152.873C76.6393 152.754 76.6192 152.631 76.6128 152.507C76.5828 152.225 76.5468 151.877 76.5048 151.445C76.4148 150.521 76.3188 149.183 76.2048 147.533C75.9768 144.227 75.7368 139.661 75.5208 134.609C75.3048 129.557 75.1608 125.009 75.0768 121.679C75.0768 120.053 75.0168 118.727 74.9988 117.755C74.9988 117.323 74.9988 116.969 74.9988 116.693C74.9848 116.568 74.9848 116.441 74.9988 116.315Z" fill="#263238"/>
<path d="M72.5994 118.338C72.5704 118.442 72.5259 118.541 72.4674 118.632L72.0414 119.454C71.6574 120.162 71.0874 121.176 70.3554 122.412C68.9154 124.902 66.7554 128.238 64.5654 132.012C63.4674 133.908 62.5434 135.78 61.7394 137.49C60.9809 138.974 60.6016 140.623 60.6354 142.29C60.693 143.413 60.9939 144.51 61.5174 145.506C61.8894 146.208 62.2014 146.532 62.1714 146.556C62.0877 146.488 62.0113 146.411 61.9434 146.328C61.7433 146.088 61.5627 145.834 61.4034 145.566C60.8236 144.569 60.4827 143.452 60.4074 142.302C60.3353 140.591 60.6987 138.89 61.4634 137.358C62.2614 135.624 63.1794 133.758 64.2834 131.838C66.4794 128.034 68.6694 124.728 70.1574 122.238C70.8894 121.038 71.4894 120.066 71.9274 119.334C72.1254 119.022 72.2814 118.734 72.4134 118.548C72.5454 118.362 72.5994 118.332 72.5994 118.338Z" fill="#263238"/>
<path d="M142.381 128.796L133.603 123.054L128.059 132.654C128.059 132.654 120.379 121.98 116.893 115.728C113.677 109.968 109.525 108.42 107.521 108C107.383 107.971 107.241 107.976 107.105 108.013C106.97 108.051 106.845 108.12 106.742 108.214C106.638 108.309 106.558 108.427 106.509 108.559C106.46 108.691 106.443 108.832 106.459 108.972L109.459 129.732C109.843 130.812 116.179 139.998 119.719 144.618C125.629 152.334 134.335 147.396 136.723 141.996C138.649 137.706 141.601 131.196 142.381 128.796Z" fill="#263238"/>
<path d="M130.584 141.312C130.475 140.864 130.418 140.405 130.416 139.944C130.343 138.846 130.201 137.754 129.99 136.674C129.773 135.601 129.395 134.567 128.868 133.608C128.46 132.882 128.106 132.486 128.148 132.45C128.525 132.727 128.838 133.08 129.066 133.488C129.667 134.444 130.088 135.501 130.308 136.608C130.527 137.703 130.639 138.816 130.644 139.932C130.682 140.393 130.662 140.857 130.584 141.312Z" fill="#263238"/>
<path d="M133.151 137.022C133.097 137.022 133.055 136.578 132.839 135.9C132.553 135.021 132.073 134.217 131.435 133.548C130.845 132.844 130.011 132.388 129.101 132.27C128.723 132.273 128.348 132.337 127.991 132.462C127.955 132.462 128.321 132.066 129.107 132.042C129.598 132.068 130.08 132.196 130.52 132.415C130.961 132.635 131.352 132.943 131.669 133.32C132.345 134.021 132.825 134.888 133.061 135.834C133.185 136.217 133.215 136.624 133.151 137.022Z" fill="#263238"/>
<path d="M106.95 110.562C106.888 110.65 106.815 110.731 106.734 110.802L106.464 111.078C106.368 111.204 106.254 111.336 106.128 111.486C105.435 112.362 104.919 113.365 104.61 114.438C104.148 116.027 104.036 117.697 104.28 119.334C104.403 120.299 104.655 121.244 105.03 122.142C105.456 123.105 105.93 124.047 106.452 124.962C108.6 128.736 110.814 132 112.41 134.358C113.202 135.498 113.856 136.434 114.342 137.124C114.591 137.454 114.823 137.796 115.038 138.15C115.038 138.15 114.954 138.078 114.816 137.916C114.678 137.754 114.48 137.52 114.216 137.202C113.718 136.602 113.016 135.648 112.2 134.49C110.045 131.468 108.042 128.34 106.2 125.118C105.671 124.195 105.192 123.243 104.766 122.268C104.377 121.351 104.113 120.387 103.98 119.4C103.747 117.72 103.889 116.009 104.394 114.39C104.728 113.299 105.286 112.289 106.032 111.426L106.398 111.036L106.692 110.778C106.854 110.616 106.938 110.55 106.95 110.562Z" fill="#263238"/>
<path d="M106.966 165.714C106.884 165.765 106.795 165.803 106.702 165.828L105.91 166.104C105.568 166.224 105.148 166.356 104.65 166.488C104.152 166.62 103.588 166.8 102.958 166.932C101.48 167.286 99.9839 167.56 98.4763 167.754C94.7788 168.238 91.0348 168.25 87.3343 167.79C85.8277 167.6 84.3318 167.334 82.8523 166.992C82.2163 166.86 81.6523 166.692 81.1543 166.554C80.6563 166.416 80.2363 166.296 79.8883 166.176L79.1023 165.906C78.9223 165.846 78.8263 165.804 78.8323 165.792C78.9298 165.801 79.0262 165.819 79.1203 165.846L79.9243 166.056C80.2723 166.152 80.6983 166.266 81.2023 166.38C81.7063 166.494 82.2643 166.65 82.9003 166.764C84.1603 167.04 85.6783 167.286 87.3703 167.49C89.2094 167.692 91.0581 167.794 92.9083 167.796C94.7569 167.782 96.6036 167.67 98.4403 167.46C100.132 167.25 101.644 166.992 102.904 166.71C103.54 166.59 104.104 166.434 104.602 166.314C105.1 166.194 105.526 166.08 105.874 165.984L106.678 165.768C106.771 165.734 106.868 165.716 106.966 165.714Z" fill="#263238"/>
<g opacity="0.3">
<path d="M74.293 143.346L76.003 140.688L75.109 119.754L74.293 143.346Z" fill="black"/>
</g>
<g opacity="0.3">
<path d="M103.879 118.338C103.879 118.338 103.933 125.964 105.679 128.988C107.425 132.012 111.601 138.54 111.601 138.15C111.601 137.76 111.367 132.75 111.367 132.75C111.367 132.75 103.915 122.604 103.879 118.338Z" fill="black"/>
</g>
<path d="M72.7732 144C72.6057 144.094 72.419 144.149 72.2272 144.162C71.7023 144.219 71.1714 144.149 70.6792 143.958C69.9518 143.681 69.2972 143.242 68.7652 142.674C68.1353 141.975 67.5969 141.199 67.1632 140.364C66.7401 139.536 66.2672 138.734 65.7472 137.964C65.3162 137.356 64.787 136.825 64.1812 136.392C63.6081 136.013 62.9624 135.757 62.2852 135.642C62.4831 135.601 62.6872 135.601 62.8852 135.642C63.4023 135.726 63.8965 135.916 64.3372 136.2C64.9824 136.627 65.5487 137.163 66.0112 137.784C66.5484 138.55 67.0335 139.352 67.4632 140.184C67.8853 140.997 68.4008 141.758 68.9992 142.452C69.5018 143 70.1154 143.436 70.7992 143.73C71.4225 143.99 72.1029 144.083 72.7732 144Z" fill="white"/>
<path d="M75.0955 130.836C75.0415 130.836 74.9095 130.38 74.5435 129.708C74.0643 128.832 73.4047 128.068 72.6083 127.466C71.8119 126.864 70.8968 126.438 69.9235 126.216C69.1735 126.048 68.6875 126.048 68.6875 125.994C69.1066 125.903 69.5404 125.903 69.9595 125.994C70.9903 126.163 71.9651 126.579 72.8008 127.206C73.6365 127.832 74.3085 128.652 74.7595 129.594C74.96 129.979 75.0746 130.403 75.0955 130.836Z" fill="white"/>
<path d="M104.017 119.598C104.017 119.598 103.603 119.52 102.859 119.46C101.807 119.387 100.75 119.482 99.7274 119.742C98.2089 120.139 96.7457 120.724 95.3714 121.482C93.7994 122.304 92.1374 123.348 90.2534 124.212C88.4818 125.039 86.5706 125.525 84.6194 125.646C83.0283 125.738 81.4324 125.591 79.8854 125.208C78.8465 124.956 77.8399 124.585 76.8854 124.104C76.5434 123.942 76.2854 123.78 76.1234 123.684C75.9614 123.588 75.8654 123.522 75.8714 123.51C75.8774 123.498 76.2554 123.69 76.9394 123.99C77.9032 124.424 78.9083 124.759 79.9394 124.992C81.4676 125.338 83.0378 125.461 84.6014 125.358C86.5147 125.22 88.3871 124.737 90.1274 123.93C91.9814 123.078 93.6494 122.046 95.2394 121.23C96.6346 120.468 98.126 119.897 99.6734 119.532C100.72 119.282 101.802 119.217 102.871 119.34C103.161 119.373 103.448 119.428 103.729 119.502C103.83 119.519 103.927 119.552 104.017 119.598Z" fill="white"/>
<path d="M111.389 140.358C111.28 140.41 111.165 140.448 111.047 140.472C110.712 140.575 110.372 140.66 110.027 140.724C108.766 140.977 107.479 141.079 106.193 141.03C104.288 140.95 102.395 140.685 100.541 140.238C98.441 139.758 96.185 139.068 93.815 138.372C91.5962 137.699 89.3297 137.196 87.035 136.866C85.1655 136.597 83.2683 136.583 81.395 136.824C80.132 136.987 78.898 137.326 77.729 137.832C76.907 138.192 76.469 138.432 76.457 138.432C76.5478 138.351 76.6486 138.282 76.757 138.228C76.973 138.12 77.261 137.91 77.681 137.73C78.8475 137.178 80.0888 136.802 81.365 136.614C83.2579 136.35 85.1781 136.35 87.071 136.614C89.3832 136.929 91.6665 137.428 93.899 138.108C96.299 138.804 98.525 139.5 100.607 139.992C102.44 140.452 104.312 140.738 106.199 140.844C107.473 140.911 108.75 140.843 110.009 140.64C110.897 140.454 111.383 140.328 111.389 140.358Z" fill="white"/>
<path d="M111.599 152.226C110.016 151.517 108.332 151.063 106.607 150.882C104.734 150.732 102.85 150.796 100.991 151.074C98.885 151.362 96.593 151.842 94.175 152.274C91.757 152.706 89.441 153.126 87.305 153.312C85.4172 153.503 83.5142 153.491 81.629 153.276C80.3563 153.125 79.1057 152.825 77.903 152.382C77.477 152.238 77.165 152.064 76.949 151.974C76.8346 151.931 76.7259 151.875 76.625 151.806C76.625 151.776 77.093 151.98 77.945 152.268C79.1501 152.659 80.3929 152.922 81.653 153.054C83.524 153.248 85.41 153.248 87.281 153.054C89.393 152.856 91.703 152.454 94.121 151.998C96.539 151.542 98.831 151.068 100.955 150.798C102.835 150.525 104.741 150.481 106.631 150.666C107.906 150.804 109.157 151.119 110.345 151.602C110.668 151.732 110.983 151.883 111.287 152.052C111.397 152.099 111.502 152.157 111.599 152.226Z" fill="white"/>
<path d="M92.0997 167.525C91.8859 167.423 91.6846 167.296 91.4997 167.147C91.1277 166.883 90.5877 166.511 89.9097 166.067C88.1515 164.904 86.3196 163.856 84.4257 162.929C82.5252 162.005 80.5671 161.203 78.5637 160.529C77.7957 160.271 77.1717 160.079 76.7637 159.929C76.5323 159.878 76.3085 159.798 76.0977 159.689C76.3332 159.705 76.5665 159.745 76.7937 159.809C77.2437 159.905 77.8797 160.073 78.6597 160.301C82.7357 161.52 86.5861 163.395 90.0597 165.851C90.7257 166.319 91.2597 166.721 91.5957 167.015C91.7834 167.165 91.9526 167.336 92.0997 167.525Z" fill="white"/>
<path d="M110.566 167.322C110.188 167.607 109.761 167.82 109.306 167.952C107.128 168.726 104.738 168.654 102.61 167.748C102.173 167.582 101.767 167.343 101.41 167.04C101.852 167.186 102.287 167.354 102.712 167.544C103.762 167.907 104.86 168.109 105.97 168.144C107.082 168.173 108.191 168.03 109.258 167.718C110.056 167.502 110.542 167.274 110.566 167.322Z" fill="white"/>
<path d="M123.701 127.71C123.714 127.891 123.689 128.073 123.629 128.244C123.487 128.718 123.248 129.157 122.927 129.534C122.453 130.088 121.881 130.552 121.241 130.902C120.467 131.316 119.665 131.677 118.841 131.982C118.034 132.285 117.268 132.688 116.561 133.182C115.999 133.594 115.535 134.127 115.205 134.742C114.91 135.315 114.777 135.959 114.821 136.602C114.736 136.442 114.694 136.262 114.701 136.08C114.682 135.582 114.787 135.087 115.007 134.64C115.327 133.978 115.797 133.4 116.381 132.954C117.101 132.431 117.888 132.009 118.721 131.7C119.54 131.396 120.341 131.048 121.121 130.656C121.738 130.329 122.298 129.903 122.777 129.396C123.198 128.903 123.512 128.329 123.701 127.71Z" fill="white"/>
<path d="M116.328 114.978C116.322 115.164 116.288 115.348 116.226 115.524C116.18 115.728 116.118 115.929 116.04 116.124C115.954 116.398 115.852 116.666 115.734 116.928C115.437 117.616 115.075 118.275 114.654 118.896C114.126 119.651 113.523 120.35 112.854 120.984C112.181 121.61 111.445 122.165 110.658 122.64C110.014 123.023 109.335 123.345 108.63 123.6C108.361 123.701 108.087 123.787 107.808 123.858C107.612 123.92 107.411 123.968 107.208 124.002C107.028 124.05 106.843 124.075 106.656 124.074C106.656 124.014 107.418 123.864 108.582 123.39C109.254 123.113 109.902 122.782 110.52 122.4C112.05 121.45 113.374 120.203 114.414 118.734C114.84 118.137 115.213 117.505 115.53 116.844C116.076 115.722 116.268 114.96 116.328 114.978Z" fill="white"/>
<path d="M104.777 107.105C104.497 107.258 104.207 107.389 103.907 107.495C103.343 107.735 102.503 108.035 101.453 108.365C100.403 108.695 99.1368 109.019 97.7088 109.313C94.6091 109.93 91.4452 110.162 88.2887 110.003C87.0009 109.94 85.7172 109.81 84.4428 109.613C83.3568 109.439 82.4867 109.265 81.8867 109.109C81.5735 109.052 81.2662 108.965 80.9688 108.851C81.2882 108.873 81.6052 108.922 81.9168 108.995C82.5168 109.109 83.3927 109.253 84.4727 109.391C85.5527 109.529 86.8728 109.655 88.3008 109.715C89.867 109.772 91.4352 109.746 92.9988 109.637C94.5601 109.518 96.1141 109.318 97.6547 109.037C99.0707 108.761 100.343 108.437 101.393 108.155C102.443 107.873 103.289 107.591 103.865 107.387C104.161 107.269 104.466 107.174 104.777 107.105Z" fill="white"/>
<path d="M128.35 133.2C128.453 133.388 128.526 133.59 128.566 133.8C128.71 134.368 128.796 134.949 128.824 135.534C128.846 137.465 128.645 139.392 128.224 141.276C128.06 142.33 127.787 143.363 127.408 144.36C127.09 145.181 126.618 145.932 126.016 146.574C125.612 147.009 125.127 147.361 124.588 147.612C124.403 147.714 124.199 147.779 123.988 147.804C124.696 147.468 125.334 146.999 125.866 146.424C126.424 145.784 126.861 145.048 127.156 144.252C127.509 143.267 127.769 142.25 127.93 141.216C128.339 139.353 128.566 137.454 128.608 135.546C128.567 134.76 128.481 133.977 128.35 133.2Z" fill="white"/>
<path d="M140.402 134.759C140.348 134.759 140.066 134.159 139.442 133.235C138.614 132.051 137.586 131.02 136.406 130.187C135.219 129.363 133.897 128.754 132.5 128.387C131.426 128.111 130.7 128.063 130.736 128.009C130.898 127.979 131.065 127.979 131.228 128.009C131.672 128.032 132.114 128.092 132.548 128.189C133.199 128.329 133.836 128.53 134.45 128.789C135.958 129.413 137.312 130.359 138.416 131.561C138.862 132.05 139.264 132.578 139.616 133.139C139.851 133.521 140.052 133.922 140.216 134.339C140.299 134.469 140.361 134.611 140.402 134.759Z" fill="white"/>
<g opacity="0.3">
<path d="M105.125 166.2C105.269 166.129 105.396 166.028 105.497 165.904C105.598 165.78 105.671 165.635 105.711 165.48C105.75 165.325 105.756 165.164 105.728 165.006C105.699 164.849 105.637 164.699 105.545 164.568C105.322 164.344 105.05 164.173 104.75 164.069C104.451 163.965 104.132 163.931 103.817 163.968C100.715 164.028 98.0094 166.104 94.9614 166.662C92.6454 167.082 90.2514 166.608 87.9954 165.924C85.7394 165.24 83.5374 164.346 81.2214 163.908C80.7424 163.785 80.2418 163.773 79.7574 163.872C79.5154 163.925 79.294 164.048 79.1204 164.224C78.9468 164.401 78.8283 164.625 78.7794 164.868C78.7194 165.354 78.8334 165.72 79.5654 165.966C79.5654 165.966 87.2394 168.102 92.7654 168.018C96.9382 167.852 101.082 167.242 105.125 166.2Z" fill="black"/>
</g>
<path d="M265.012 254.262H223.156V260.016H265.012V254.262Z" fill="#263238"/>
<path d="M265.086 260.088H223.086V254.19H265.086V260.088ZM223.23 259.944H264.942V254.334H223.23V259.944Z" fill="#263238"/>
<path d="M227.039 258.103L233.063 287.821H255.359L261.179 260.017L227.039 258.103Z" fill="#263238"/>
<path d="M227.039 285.012L230.255 289.428H257.351L261.179 285.012H227.039Z" fill="#455A64"/>
<path d="M242.511 258.966C242.433 258.966 242.325 245.196 242.277 228.216C242.229 211.236 242.277 197.46 242.343 197.46C242.409 197.46 242.529 211.224 242.577 228.216C242.625 245.208 242.595 258.966 242.511 258.966Z" fill="#263238"/>
<path d="M251.836 224.508C251.813 224.618 251.777 224.725 251.728 224.826C251.626 225.06 251.506 225.36 251.35 225.72L251.08 226.362C250.99 226.602 250.9 226.866 250.798 227.142C250.696 227.418 250.594 227.742 250.48 228.042C250.366 228.342 250.276 228.702 250.168 229.062C249.67 230.743 249.28 232.455 248.998 234.186C248.67 236.311 248.454 238.452 248.35 240.6C248.195 244.505 248.305 248.416 248.68 252.306C248.812 253.8 248.95 255.012 249.052 255.846C249.094 256.236 249.13 256.554 249.154 256.806C249.17 256.917 249.17 257.03 249.154 257.142C249.113 257.036 249.087 256.925 249.076 256.812L248.914 255.858C248.782 255.03 248.614 253.824 248.452 252.33C248.014 248.432 247.873 244.507 248.032 240.588C248.136 238.431 248.363 236.281 248.71 234.15C249.003 232.409 249.416 230.691 249.946 229.008C250.066 228.648 250.162 228.3 250.282 227.982L250.624 227.088L250.93 226.314C251.032 226.08 251.14 225.87 251.23 225.678L251.656 224.808C251.704 224.701 251.764 224.6 251.836 224.508Z" fill="#263238"/>
<path d="M250.8 213.372C250.771 213.528 250.726 213.681 250.668 213.828C250.56 214.146 250.416 214.572 250.23 215.106L249.912 216.03C249.804 216.372 249.696 216.744 249.576 217.14C249.33 217.938 249.048 218.844 248.796 219.864C248.658 220.368 248.52 220.902 248.376 221.454C248.232 222.006 248.118 222.594 247.98 223.194C247.686 224.394 247.476 225.696 247.206 227.058C246.744 229.788 246.342 232.812 246.06 236.004C245.778 239.196 245.682 242.244 245.64 245.004C245.598 247.764 245.64 250.278 245.784 252.378C245.82 253.428 245.886 254.376 245.94 255.204C245.994 256.032 246.042 256.752 246.09 257.34C246.138 257.928 246.168 258.354 246.198 258.69C246.212 258.846 246.212 259.002 246.198 259.158C246.158 259.007 246.134 258.852 246.126 258.696C246.084 258.36 246.03 257.91 245.964 257.352C245.898 256.794 245.826 256.05 245.76 255.216C245.694 254.382 245.61 253.416 245.556 252.39C245.418 250.29 245.358 247.788 245.352 245.004C245.346 242.22 245.484 239.166 245.754 235.968C246.024 232.77 246.45 229.734 246.924 226.998C247.206 225.63 247.422 224.328 247.728 223.128C247.872 222.528 248.004 221.928 248.136 221.388C248.268 220.848 248.436 220.302 248.58 219.792C248.844 218.778 249.144 217.872 249.402 217.08C249.534 216.684 249.654 216.312 249.762 215.97C249.87 215.628 250.002 215.334 250.11 215.058L250.596 213.792C250.652 213.646 250.72 213.506 250.8 213.372Z" fill="#263238"/>
<path d="M239.868 261.402C239.862 261.349 239.862 261.294 239.868 261.24C239.868 261.12 239.868 260.964 239.832 260.766L239.706 258.966C239.604 257.358 239.466 255.072 239.286 252.258C238.926 246.594 238.398 238.77 237.444 230.166C236.958 225.87 236.394 221.766 235.806 218.082C235.494 216.228 235.206 214.482 234.888 212.832C234.57 211.182 234.288 209.676 233.988 208.284C233.688 206.892 233.388 205.65 233.16 204.552C232.932 203.454 232.68 202.506 232.488 201.738L232.05 199.938C232.008 199.752 231.972 199.596 231.948 199.476C231.931 199.424 231.92 199.37 231.918 199.314C231.942 199.364 231.961 199.416 231.972 199.47C232.008 199.59 232.056 199.74 232.11 199.926C232.224 200.346 232.392 200.94 232.596 201.684C232.8 202.428 233.064 203.388 233.322 204.486C233.58 205.584 233.922 206.826 234.192 208.218C234.462 209.61 234.828 211.122 235.134 212.766C235.44 214.41 235.734 216.162 236.076 218.01C236.676 221.718 237.276 225.81 237.744 230.112C238.698 238.722 239.19 246.552 239.496 252.222C239.652 255.054 239.76 257.346 239.82 258.936C239.82 259.71 239.874 260.322 239.892 260.736C239.892 260.928 239.892 261.084 239.892 261.21C239.893 261.275 239.885 261.34 239.868 261.402Z" fill="#263238"/>
<path d="M242.171 204.078C241.991 202.128 240.023 200.658 238.061 200.64C236.099 200.622 234.275 201.792 233.081 203.34C231.953 204.949 231.139 206.757 230.681 208.668C229.361 213.264 228.641 218.094 229.205 222.84C229.769 227.586 231.695 232.26 235.097 235.62C235.655 236.166 236.369 236.706 237.131 236.544C237.542 236.423 237.913 236.196 238.205 235.884C241.54 232.829 244.184 229.096 245.958 224.936C247.733 220.777 248.598 216.285 248.495 211.764C248.441 209.964 248.207 208.08 247.205 206.58C246.203 205.08 243.875 203.478 242.171 204.078Z" fill="#263238"/>
<path d="M227.543 188.454L224.783 193.452C224.723 193.566 224.633 193.698 224.501 193.71C224.369 193.722 224.249 193.584 224.171 193.464L216.875 182.268L218.555 181.314L227.543 188.454Z" fill="#263238"/>
<g opacity="0.2">
<path d="M227.543 188.454L224.783 193.452C224.723 193.566 224.633 193.698 224.501 193.71C224.369 193.722 224.249 193.584 224.171 193.464L216.875 182.268L218.555 181.314L227.543 188.454Z" fill="#263238"/>
</g>
<path d="M242.343 197.46L217.455 182.778C217.188 182.658 216.975 182.444 216.855 182.178C216.84 181.987 216.873 181.796 216.951 181.621C217.028 181.446 217.148 181.293 217.299 181.176C219.01 179.401 221.083 178.017 223.378 177.116C225.672 176.215 228.134 175.819 230.595 175.956C233.051 176.136 235.427 176.911 237.518 178.213C239.608 179.515 241.351 181.307 242.595 183.432C244.995 187.722 245.079 193.398 242.325 197.472" fill="#263238"/>
<path d="M221.043 178.086C221.149 178.063 221.258 178.05 221.367 178.05C221.583 178.05 221.901 177.996 222.309 178.002C223.465 177.989 224.62 178.081 225.759 178.278C227.456 178.564 229.11 179.066 230.679 179.772C233.392 180.994 235.802 182.8 237.737 185.061C239.671 187.322 241.082 189.982 241.869 192.852C242.172 193.968 242.373 195.108 242.469 196.26C242.511 196.668 242.505 196.986 242.517 197.202C242.534 197.31 242.534 197.419 242.517 197.526C242.517 197.526 242.463 197.076 242.361 196.272C241.869 191.911 239.985 187.825 236.986 184.62C233.988 181.415 230.036 179.263 225.717 178.482C224.59 178.27 223.449 178.147 222.303 178.116C221.493 178.098 221.043 178.116 221.043 178.086Z" fill="#263238"/>
<path d="M238.974 187.326C238.579 187.575 238.156 187.777 237.714 187.926C236.922 188.238 235.818 188.64 234.576 189.03C233.334 189.42 232.176 189.738 231.372 189.942C230.931 190.08 230.476 190.166 230.016 190.2C230.432 190.001 230.869 189.846 231.318 189.738L234.486 188.748L237.648 187.728C238.074 187.546 238.518 187.411 238.974 187.326Z" fill="#263238"/>
<path d="M235.055 176.796C235.275 177.705 235.374 178.639 235.349 179.574C235.421 180.506 235.37 181.444 235.199 182.364C235.071 181.442 235.02 180.51 235.049 179.58C234.977 178.653 234.979 177.722 235.055 176.796Z" fill="#263238"/>
<path d="M217.242 182.496C217.823 182.234 218.425 182.021 219.042 181.86C220.176 181.512 221.748 181.068 223.5 180.66C225.252 180.252 226.86 179.91 228.024 179.706C228.649 179.565 229.286 179.481 229.926 179.454C229.318 179.651 228.696 179.805 228.066 179.916C226.914 180.174 225.324 180.516 223.572 180.948C221.82 181.38 220.242 181.782 219.102 182.076C218.493 182.26 217.871 182.4 217.242 182.496Z" fill="#263238"/>
<path d="M230.867 199.464C228.725 197.838 226.463 197.52 223.781 197.628C221.085 197.803 218.445 198.481 215.999 199.626C211.799 201.468 207.857 204.174 205.355 208.026C202.853 211.878 201.971 216.936 203.849 221.112C203.994 221.55 204.298 221.918 204.701 222.144C205.166 222.279 205.665 222.241 206.105 222.036C210.875 220.482 215.705 218.91 220.073 216.474C224.441 214.038 228.473 210.642 230.807 206.208C231.412 205.163 231.798 204.006 231.941 202.806C232.007 202.206 231.944 201.598 231.754 201.025C231.565 200.451 231.254 199.925 230.843 199.482" fill="#263238"/>
<path d="M230.91 198.96C230.8 199.015 230.685 199.061 230.568 199.098L229.566 199.44L228.846 199.686C228.582 199.776 228.3 199.896 228 200.016C227.4 200.256 226.692 200.502 225.954 200.862L224.784 201.39C224.376 201.582 223.974 201.81 223.542 202.032C222.678 202.452 221.802 202.998 220.872 203.55C218.882 204.802 216.992 206.206 215.22 207.75C213.468 209.315 211.837 211.009 210.342 212.82C209.682 213.678 209.028 214.476 208.5 215.28C208.224 215.676 207.948 216.048 207.708 216.426L207.03 217.524C206.58 218.208 206.25 218.874 205.932 219.438L205.494 220.236L205.164 220.926L204.696 221.874C204.648 221.986 204.587 222.093 204.516 222.192C204.542 222.073 204.584 221.958 204.642 221.85L205.062 220.872C205.152 220.662 205.26 220.428 205.368 220.176C205.476 219.924 205.632 219.654 205.782 219.36C206.088 218.76 206.382 218.112 206.85 217.416L207.516 216.306C207.75 215.922 208.026 215.544 208.296 215.136C208.818 214.326 209.466 213.516 210.132 212.652C213.094 208.951 216.68 205.795 220.728 203.328C221.67 202.776 222.558 202.242 223.428 201.822C223.866 201.606 224.274 201.378 224.688 201.222L225.888 200.7C226.638 200.352 227.346 200.1 227.958 199.89L228.816 199.584L229.548 199.368L230.568 199.074C230.677 199.024 230.792 198.985 230.91 198.96Z" fill="#263238"/>
<path d="M214.197 208.014C212.495 208.665 210.758 209.224 208.995 209.688C207.258 210.249 205.492 210.714 203.703 211.08C205.408 210.428 207.146 209.87 208.911 209.406C210.646 208.845 212.411 208.38 214.197 208.014Z" fill="#263238"/>
<path d="M213.975 219.505C213.881 218.968 213.843 218.423 213.861 217.879C213.831 216.877 213.825 215.479 213.861 213.961C213.897 212.443 213.987 211.045 214.071 210.043C214.089 209.501 214.157 208.963 214.275 208.435C214.323 208.974 214.323 209.516 214.275 210.055C214.275 211.159 214.203 212.491 214.155 213.967C214.107 215.443 214.083 216.781 214.059 217.879C214.075 218.422 214.047 218.966 213.975 219.505Z" fill="#263238"/>
<path d="M223.798 214.488C223.714 214.488 223.456 211.674 223.198 208.194C222.94 204.714 222.826 201.888 222.91 201.882C222.994 201.876 223.252 204.696 223.51 208.176C223.768 211.656 223.9 214.482 223.798 214.488Z" fill="#263238"/>
<path d="M211.566 201.6C212.12 201.531 212.678 201.513 213.234 201.546C214.266 201.546 215.688 201.588 217.254 201.636C218.82 201.684 220.254 201.75 221.268 201.816C221.826 201.819 222.382 201.871 222.93 201.972C222.377 202.042 221.819 202.06 221.262 202.026C220.236 202.026 218.814 201.99 217.242 201.936C215.67 201.882 214.242 201.822 213.228 201.756C212.671 201.754 212.115 201.701 211.566 201.6Z" fill="#263238"/>
<path d="M236.164 236.958C236.144 236.845 236.132 236.731 236.128 236.616C236.128 236.364 236.128 236.016 236.086 235.638C236.05 234.792 236.038 233.562 236.086 232.038C236.134 230.514 236.212 228.714 236.392 226.71C236.572 224.706 236.866 222.51 237.268 220.23C237.67 217.95 238.174 215.784 238.684 213.84C239.194 211.896 239.74 210.168 240.238 208.734C240.736 207.3 241.162 206.142 241.492 205.356L241.87 204.456C241.91 204.35 241.96 204.247 242.02 204.15C242.003 204.263 241.973 204.374 241.93 204.48C241.84 204.72 241.732 205.026 241.6 205.398C241.306 206.196 240.904 207.354 240.436 208.8C239.968 210.246 239.458 211.974 238.948 213.912C238.438 215.85 237.97 218.004 237.562 220.278C237.154 222.552 236.872 224.742 236.668 226.734C236.464 228.726 236.35 230.532 236.296 232.05C236.242 233.568 236.212 234.792 236.212 235.65C236.212 236.046 236.212 236.37 236.212 236.628C236.21 236.74 236.193 236.851 236.164 236.958Z" fill="#263238"/>
<path d="M237.479 219.979C237.191 220.378 236.859 220.745 236.489 221.071C235.841 221.713 234.929 222.571 233.885 223.471C232.841 224.371 231.869 225.181 231.149 225.733C230.78 226.054 230.377 226.335 229.949 226.573C230.269 226.217 230.621 225.892 230.999 225.601L233.669 223.273L236.327 220.927C236.68 220.574 237.066 220.257 237.479 219.979Z" fill="#263238"/>
<path d="M245.356 226.326C244.968 225.865 244.615 225.375 244.3 224.862L241.84 221.262L239.326 217.71C238.954 217.237 238.619 216.735 238.324 216.21C238.764 216.631 239.166 217.091 239.524 217.584C240.214 218.46 241.138 219.696 242.11 221.094C243.082 222.492 243.91 223.788 244.51 224.742C244.84 225.243 245.124 225.773 245.356 226.326Z" fill="#263238"/>
<path d="M241.227 206.4C241.275 206.466 238.659 208.23 235.383 210.336C232.107 212.442 229.425 214.086 229.383 214.014C229.341 213.942 231.957 212.184 235.227 210.084C238.497 207.984 241.197 206.298 241.227 206.4Z" fill="#263238"/>
<path d="M248.608 214.332C247.222 213.188 245.9 211.968 244.648 210.678C243.328 209.455 242.077 208.161 240.898 206.802C242.283 207.95 243.604 209.172 244.858 210.462C246.179 211.681 247.431 212.973 248.608 214.332Z" fill="#263238"/>
<path d="M250.462 214.2L252.705 214.014C254.3 213.885 255.847 213.413 257.241 212.628C257.923 212.228 258.631 211.873 259.359 211.566C262.137 210.45 265.234 210.648 268.222 210.498C273.115 210.253 277.909 209.029 282.322 206.898C282.573 206.777 282.782 206.582 282.922 206.34C283.384 205.5 282.526 204.75 281.788 204.294C278.002 201.96 274.149 199.602 269.859 198.444C265.569 197.286 260.698 197.484 257.038 200.004C252.736 202.962 251.17 209.004 250.438 214.2" fill="#263238"/>
<path d="M282.988 206.034C282.857 205.985 282.73 205.925 282.61 205.854L281.542 205.296C280.618 204.81 279.292 204.096 277.612 203.292C275.656 202.33 273.618 201.544 271.522 200.946C268.963 200.209 266.282 199.99 263.638 200.304C260.985 200.598 258.479 201.674 256.438 203.394C254.845 204.873 253.571 206.661 252.694 208.65C252.082 209.988 251.537 211.355 251.062 212.748C250.9 213.216 250.762 213.594 250.666 213.882C250.625 214.017 250.571 214.148 250.504 214.272C250.53 214.134 250.564 213.998 250.606 213.864L250.954 212.712C251.384 211.299 251.901 209.915 252.502 208.566C253.363 206.523 254.642 204.684 256.258 203.166C258.33 201.399 260.884 200.294 263.59 199.992C266.276 199.676 268.997 199.902 271.594 200.658C273.697 201.268 275.74 202.072 277.696 203.058C279.37 203.892 280.696 204.636 281.596 205.152L282.634 205.752C282.763 205.831 282.882 205.926 282.988 206.034Z" fill="#263238"/>
<path d="M277.595 208.932C277.547 208.998 274.595 207.096 271.037 204.684C267.479 202.272 264.593 200.262 264.641 200.196C264.689 200.13 267.641 201.996 271.199 204.438C274.757 206.88 277.643 208.86 277.595 208.932Z" fill="#263238"/>
<path d="M274.8 199.914C274.067 200.193 273.292 200.347 272.508 200.37C271.732 200.492 270.941 200.482 270.168 200.34C270.929 200.187 271.702 200.099 272.478 200.076C273.246 199.956 274.023 199.902 274.8 199.914Z" fill="#263238"/>
<path d="M261.6 197.55C261.362 198.233 261.038 198.882 260.634 199.482C260.317 200.134 259.914 200.739 259.434 201.282C259.671 200.599 259.995 199.949 260.4 199.35C260.718 198.699 261.121 198.094 261.6 197.55Z" fill="#263238"/>
<path d="M264.232 210.66C263.737 210.454 263.264 210.197 262.822 209.892C261.97 209.376 260.824 208.626 259.6 207.732C258.376 206.838 257.29 206.004 256.516 205.386C256.087 205.073 255.686 204.724 255.316 204.342C255.792 204.589 256.243 204.882 256.66 205.218L259.792 207.492C260.992 208.38 262.138 209.16 262.954 209.718C263.406 209.995 263.834 210.31 264.232 210.66Z" fill="#263238"/>
<path d="M253.799 223.716C251.657 223.152 249.107 225.234 248.663 227.406C248.219 229.578 249.035 231.798 249.989 233.796C252.018 238.282 255.038 242.25 258.821 245.4C262.655 248.46 267.461 250.416 272.363 250.386C271.457 246.186 272.603 241.788 272.099 237.516C271.657 233.75 269.949 230.245 267.254 227.576C264.56 224.908 261.038 223.234 257.267 222.828C255.899 222.678 254.315 222.462 253.769 223.728" fill="#263238"/>
<path d="M272.364 250.374C272.258 250.342 272.157 250.295 272.064 250.236C271.78 250.08 271.511 249.899 271.26 249.696C270.36 248.915 269.638 247.952 269.142 246.87C268.8 246.204 268.422 245.484 268.05 244.686C267.678 243.888 267.3 243.036 266.898 242.136C266.48 241.202 266.007 240.295 265.482 239.418C264.9 238.485 264.248 237.599 263.532 236.766C262.062 235.044 260.49 233.55 259.128 232.128C257.893 230.884 256.768 229.535 255.768 228.096C255.096 227.121 254.545 226.07 254.124 224.964C254.013 224.663 253.919 224.357 253.842 224.046C253.809 223.938 253.785 223.827 253.77 223.716C253.8 223.716 253.92 224.154 254.232 224.916C254.69 225.992 255.264 227.016 255.942 227.97C256.958 229.379 258.088 230.704 259.32 231.93C260.694 233.34 262.278 234.828 263.76 236.568C264.484 237.412 265.142 238.31 265.728 239.256C266.258 240.146 266.731 241.07 267.144 242.022L268.272 244.578C268.632 245.37 269.004 246.096 269.334 246.762C269.8 247.834 270.48 248.799 271.332 249.6C271.962 250.146 272.4 250.35 272.364 250.374Z" fill="#263238"/>
<path d="M261.285 246.882C261.295 246.394 261.361 245.909 261.483 245.436C261.651 244.554 261.927 243.342 262.293 242.028C262.659 240.714 263.067 239.526 263.385 238.686C263.533 238.221 263.734 237.774 263.985 237.354C263.902 237.834 263.774 238.304 263.601 238.758C263.337 239.61 262.971 240.793 262.599 242.107C262.227 243.421 261.927 244.615 261.705 245.485C261.608 245.962 261.467 246.43 261.285 246.882Z" fill="#263238"/>
<path d="M271.959 236.556C271.446 236.483 270.941 236.367 270.448 236.208C269.524 235.968 268.252 235.638 266.848 235.314C265.444 234.99 264.136 234.75 263.2 234.57C262.687 234.504 262.181 234.394 261.688 234.24C262.206 234.224 262.725 234.264 263.236 234.36C264.184 234.486 265.491 234.702 266.913 235.026C268.335 235.35 269.613 235.71 270.513 236.004C271.015 236.133 271.5 236.318 271.959 236.556Z" fill="#263238"/>
<path d="M253.336 239.556C253.356 238.993 253.435 238.435 253.57 237.888C253.756 236.862 254.056 235.458 254.458 233.922C254.86 232.386 255.286 231.012 255.616 230.028C255.762 229.485 255.963 228.958 256.216 228.456C256.119 229.01 255.98 229.555 255.802 230.088C255.52 231.09 255.124 232.488 254.728 233.994C254.332 235.5 253.996 236.922 253.756 237.93C253.66 238.483 253.52 239.026 253.336 239.556Z" fill="#263238"/>
<path d="M267.045 227.556C267.045 227.64 264.357 227.418 261.045 227.07C259.054 226.911 257.071 226.651 255.105 226.29C255.105 226.212 257.787 226.428 261.075 226.776C263.077 226.935 265.07 227.196 267.045 227.556Z" fill="#263238"/>
<path d="M265.086 259.992C265.086 260.07 255.684 260.136 244.086 260.136C232.488 260.136 223.086 260.07 223.086 259.992C223.086 259.914 232.482 259.842 244.086 259.842C255.69 259.842 265.086 259.908 265.086 259.992Z" fill="#455A64"/>
<path d="M258.546 272.088C258.546 272.172 252.21 272.238 244.398 272.238C236.586 272.238 230.25 272.172 230.25 272.088C230.25 272.004 236.58 271.938 244.398 271.938C252.216 271.938 258.546 272.004 258.546 272.088Z" fill="#455A64"/>
<path d="M258.792 273.816C258.792 273.9 252.456 273.966 244.644 273.966C236.832 273.966 230.496 273.9 230.496 273.816C230.496 273.732 236.832 273.666 244.644 273.666C252.456 273.666 258.792 273.738 258.792 273.816Z" fill="#455A64"/>
<path d="M258.791 270.66C258.791 270.744 252.239 270.81 244.157 270.81C236.075 270.81 229.523 270.744 229.523 270.66C229.523 270.576 236.075 270.516 244.157 270.516C252.239 270.516 258.791 270.6 258.791 270.66Z" fill="#455A64"/>
<path d="M276.738 289.428C276.738 289.518 219.99 289.584 150.006 289.584C80.0217 289.584 23.2617 289.518 23.2617 289.428C23.2617 289.338 79.9977 289.272 150.006 289.272C220.014 289.272 276.738 289.344 276.738 289.428Z" fill="#263238"/>
</svg>
