<svg width="25" height="25" viewBox="0 0 25 25" fill="none" xmlns="http://www.w3.org/2000/svg">
<path d="M19.2901 13.3116L20.0329 13.415L20.0329 13.415L19.2901 13.3116ZM19.0168 15.2752L19.7596 15.3786L19.7596 15.3786L19.0168 15.2752ZM5.98582 15.2752L6.72866 15.1718L6.72866 15.1718L5.98582 15.2752ZM5.71255 13.3117L4.96971 13.415L4.96971 13.415L5.71255 13.3117ZM9.5676 22.6422L9.27601 23.3332L9.27601 23.3332L9.5676 22.6422ZM6.74618 19.3333L7.45017 19.0747L7.45017 19.0747L6.74618 19.3333ZM18.2564 19.3333L18.9604 19.592L18.9604 19.592L18.2564 19.3333ZM15.435 22.6422L15.1434 21.9512L15.1434 21.9512L15.435 22.6422ZM5.95627 9.30373C5.91709 8.89138 5.55105 8.58886 5.1387 8.62804C4.72634 8.66722 4.42382 9.03326 4.463 9.44561L5.95627 9.30373ZM20.5396 9.44562C20.5788 9.03326 20.2763 8.66722 19.8639 8.62804C19.4516 8.58886 19.0855 8.89138 19.0463 9.30373L20.5396 9.44562ZM20.8346 8.04134C21.2488 8.04134 21.5846 7.70555 21.5846 7.29134C21.5846 6.87713 21.2488 6.54134 20.8346 6.54134V8.04134ZM4.16797 6.54134C3.75376 6.54134 3.41797 6.87713 3.41797 7.29134C3.41797 7.70555 3.75376 8.04134 4.16797 8.04134V6.54134ZM9.66797 18.7497C9.66797 19.1639 10.0038 19.4997 10.418 19.4997C10.8322 19.4997 11.168 19.1639 11.168 18.7497H9.66797ZM11.168 10.4163C11.168 10.0021 10.8322 9.66634 10.418 9.66634C10.0038 9.66634 9.66797 10.0021 9.66797 10.4163H11.168ZM13.8346 18.7497C13.8346 19.1639 14.1704 19.4997 14.5846 19.4997C14.9988 19.4997 15.3346 19.1639 15.3346 18.7497H13.8346ZM15.3346 10.4163C15.3346 10.0021 14.9988 9.66634 14.5846 9.66634C14.1704 9.66634 13.8346 10.0021 13.8346 10.4163H15.3346ZM16.668 7.29134V8.04134H17.418V7.29134H16.668ZM8.33464 7.29134H7.58464V8.04134H8.33464V7.29134ZM18.5472 13.2083L18.2739 15.1718L19.7596 15.3786L20.0329 13.415L18.5472 13.2083ZM6.72866 15.1718L6.45539 13.2083L4.96971 13.415L5.24298 15.3786L6.72866 15.1718ZM12.5013 22.1663C10.9112 22.1663 10.3354 22.1522 9.85919 21.9512L9.27601 23.3332C10.0991 23.6805 11.046 23.6663 12.5013 23.6663V22.1663ZM5.24298 15.3786C5.53456 17.4738 5.69257 18.6404 6.04219 19.592L7.45017 19.0747C7.17006 18.3123 7.03107 17.3448 6.72866 15.1718L5.24298 15.3786ZM9.85919 21.9512C8.88816 21.5414 7.98961 20.5429 7.45017 19.0747L6.04219 19.592C6.68035 21.3289 7.81741 22.7177 9.27601 23.3332L9.85919 21.9512ZM18.2739 15.1718C17.9715 17.3448 17.8325 18.3123 17.5524 19.0747L18.9604 19.592C19.31 18.6404 19.468 17.4738 19.7596 15.3786L18.2739 15.1718ZM12.5013 23.6663C13.9566 23.6663 14.9035 23.6805 15.7266 23.3332L15.1434 21.9512C14.6672 22.1522 14.0914 22.1663 12.5013 22.1663V23.6663ZM17.5524 19.0747C17.013 20.5429 16.1144 21.5414 15.1434 21.9512L15.7266 23.3332C17.1852 22.7177 18.3223 21.3289 18.9604 19.592L17.5524 19.0747ZM6.45539 13.2083C6.22405 11.5459 6.05116 10.3024 5.95627 9.30373L4.463 9.44561C4.5617 10.4844 4.74015 11.7655 4.96971 13.415L6.45539 13.2083ZM20.0329 13.415C20.2625 11.7655 20.4409 10.4844 20.5396 9.44562L19.0463 9.30373C18.9514 10.3024 18.7786 11.5459 18.5472 13.2083L20.0329 13.415ZM20.8346 6.54134H4.16797V8.04134H20.8346V6.54134ZM11.168 18.7497V10.4163H9.66797V18.7497H11.168ZM15.3346 18.7497V10.4163H13.8346V18.7497H15.3346ZM15.918 6.24967V7.29134H17.418V6.24967H15.918ZM16.668 6.54134H8.33464V8.04134H16.668V6.54134ZM9.08464 7.29134V6.24967H7.58464V7.29134H9.08464ZM12.5013 2.83301C14.3883 2.83301 15.918 4.3627 15.918 6.24967H17.418C17.418 3.53427 15.2167 1.33301 12.5013 1.33301V2.83301ZM12.5013 1.33301C9.7859 1.33301 7.58464 3.53427 7.58464 6.24967H9.08464C9.08464 4.3627 10.6143 2.83301 12.5013 2.83301V1.33301Z" fill="#A8A8A8"/>
</svg>
