<svg width="20" height="20" viewBox="0 0 20 20" fill="none" xmlns="http://www.w3.org/2000/svg">
<path d="M15.4336 10.6489L16.1764 10.7523L15.4336 10.6489ZM15.215 12.2198L15.9578 12.3232L15.215 12.2198ZM4.79022 12.2198L5.53306 12.1164L4.79022 12.2198ZM4.57161 10.6489L3.82876 10.7523L4.57161 10.6489ZM7.65564 18.1134L7.36405 18.8044L7.65564 18.1134ZM5.39851 15.4663L6.10249 15.2076L5.39851 15.4663ZM14.6067 15.4663L15.3107 15.7249H15.3107L14.6067 15.4663ZM12.3496 18.1134L12.058 17.4224L12.3496 18.1134ZM4.91591 7.42841C4.87673 7.01605 4.51069 6.71353 4.09833 6.75271C3.68597 6.79189 3.38345 7.15793 3.42263 7.57029L4.91591 7.42841ZM16.5826 7.57029C16.6218 7.15793 16.3192 6.79189 15.9069 6.75271C15.4945 6.71353 15.1285 7.01605 15.0893 7.42841L16.5826 7.57029ZM16.6693 6.58268C17.0835 6.58268 17.4193 6.2469 17.4193 5.83268C17.4193 5.41847 17.0835 5.08268 16.6693 5.08268V6.58268ZM3.33594 5.08268C2.92172 5.08268 2.58594 5.41847 2.58594 5.83268C2.58594 6.2469 2.92172 6.58268 3.33594 6.58268V5.08268ZM7.58594 14.9993C7.58594 15.4136 7.92172 15.7493 8.33594 15.7493C8.75015 15.7493 9.08594 15.4136 9.08594 14.9993H7.58594ZM9.08594 8.33268C9.08594 7.91847 8.75015 7.58268 8.33594 7.58268C7.92172 7.58268 7.58594 7.91847 7.58594 8.33268H9.08594ZM10.9193 14.9993C10.9193 15.4136 11.2551 15.7493 11.6693 15.7493C12.0835 15.7493 12.4193 15.4136 12.4193 14.9993H10.9193ZM12.4193 8.33268C12.4193 7.91847 12.0835 7.58268 11.6693 7.58268C11.2551 7.58268 10.9193 7.91847 10.9193 8.33268H12.4193ZM13.3359 5.83268V6.58268H14.0859V5.83268H13.3359ZM6.66927 5.83268H5.91927V6.58268H6.66927V5.83268ZM14.6908 10.5455L14.4721 12.1164L15.9578 12.3232L16.1764 10.7523L14.6908 10.5455ZM5.53306 12.1164L5.31445 10.5456L3.82876 10.7523L4.04738 12.3232L5.53306 12.1164ZM10.0026 17.5827C8.71707 17.5827 8.29349 17.5685 7.94723 17.4224L7.36405 18.8044C8.0572 19.0969 8.85181 19.0827 10.0026 19.0827V17.5827ZM4.04738 12.3232C4.27956 13.9915 4.40787 14.9447 4.69452 15.7249L6.10249 15.2076C5.88536 14.6166 5.77607 13.8626 5.53306 12.1164L4.04738 12.3232ZM7.94723 17.4224C7.21916 17.1151 6.52418 16.3554 6.10249 15.2076L4.69452 15.7249C5.21492 17.1413 6.14842 18.2914 7.36405 18.8044L7.94723 17.4224ZM14.4721 12.1164C14.2291 13.8626 14.1198 14.6166 13.9027 15.2076L15.3107 15.7249C15.5973 14.9447 15.7256 13.9915 15.9578 12.3232L14.4721 12.1164ZM10.0026 19.0827C11.1534 19.0827 11.948 19.0969 12.6412 18.8044L12.058 17.4224C11.7117 17.5685 11.2881 17.5827 10.0026 17.5827V19.0827ZM13.9027 15.2076C13.481 16.3554 12.786 17.1151 12.058 17.4224L12.6412 18.8044C13.8568 18.2914 14.7903 17.1413 15.3107 15.7249L13.9027 15.2076ZM5.31445 10.5456C5.12919 9.21441 4.99144 8.22337 4.91591 7.42841L3.42263 7.57029C3.50197 8.40532 3.64529 9.43393 3.82876 10.7523L5.31445 10.5456ZM16.1764 10.7523C16.3599 9.43393 16.5032 8.40531 16.5826 7.57029L15.0893 7.42841C15.0138 8.22337 14.876 9.21441 14.6908 10.5455L16.1764 10.7523ZM16.6693 5.08268H3.33594V6.58268H16.6693V5.08268ZM9.08594 14.9993V8.33268H7.58594V14.9993H9.08594ZM12.4193 14.9993V8.33268H10.9193V14.9993H12.4193ZM12.5859 4.99935V5.83268H14.0859V4.99935H12.5859ZM13.3359 5.08268H6.66927V6.58268H13.3359V5.08268ZM7.41927 5.83268V4.99935H5.91927V5.83268H7.41927ZM10.0026 2.41602C11.4293 2.41602 12.5859 3.57261 12.5859 4.99935H14.0859C14.0859 2.74419 12.2578 0.916016 10.0026 0.916016V2.41602ZM10.0026 0.916016C7.74744 0.916016 5.91927 2.74419 5.91927 4.99935H7.41927C7.41927 3.57261 8.57587 2.41602 10.0026 2.41602V0.916016Z" fill="#D3424A"/>
</svg>
