<svg width="325" height="325" viewBox="0 0 325 325" fill="none" xmlns="http://www.w3.org/2000/svg">
<path d="M317.389 316.739H8.69059L8.18359 7.74805H317.967L317.389 316.739Z" fill="#EEEEEE"/>
<path d="M8.18359 7.74805L8.39159 132.015H30.4071V136.188H34.8271V175.032H48.4186V129.779H52.4356V91.4291H57.5706V82.8166H77.4996V91.442H82.6346V129.792H86.6581V140.569H96.2001V70.447H149.052V135.85H155.129V113.607H187.363V149.091H204.542V109.766L207.513 106.789V96.1286L210.516 93.119V82.6281L216.912 76.2255H225.466L231.855 82.6281V93.119L234.865 96.1286V106.789L237.835 109.766V149.091H254.995V124.885H282.705V84.0711L317.805 83.8566L317.948 7.74805H8.18359Z" fill="white"/>
<path d="M317.825 55.3994L8.69141 212.862V238.264L317.825 83.8564V55.3994Z" fill="#FAFAFA"/>
<path d="M317.389 112.82L8.69141 270.068V286.357L317.389 126.152V112.82Z" fill="#FAFAFA"/>
<path d="M317.372 255.145C317.372 255.236 307.694 255.314 295.753 255.314C283.813 255.314 274.141 255.236 274.141 255.145C274.141 255.054 283.813 254.976 295.753 254.976C307.694 254.976 317.372 255.047 317.372 255.145Z" fill="white"/>
<path d="M53.1378 28.5998C53.0468 28.5998 52.9688 23.9588 52.9688 18.1998C52.9688 12.4408 53.0468 7.7998 53.1378 7.7998C53.2288 7.7998 53.3068 12.4408 53.3068 18.1998C53.3068 23.9588 53.2353 28.5998 53.1378 28.5998Z" fill="white"/>
<path d="M317.966 31.2002C317.966 31.2912 308.158 31.3692 296.055 31.3692C283.952 31.3692 274.137 31.2912 274.137 31.2002C274.137 31.1092 283.945 31.0312 296.055 31.0312C308.164 31.0312 317.966 31.1222 317.966 31.2002Z" fill="white"/>
<path d="M273.876 8.4502C273.967 8.4502 274.045 13.2472 274.045 19.1687C274.045 25.0902 273.967 29.9002 273.876 29.9002C273.785 29.9002 273.707 25.1032 273.707 19.1817C273.707 13.2602 273.785 8.4502 273.876 8.4502Z" fill="white"/>
<path d="M53.0518 316.764C52.9543 316.764 52.8828 297.505 52.8828 286.357C52.8828 275.21 52.9543 266.175 53.0518 266.175C53.1493 266.175 53.2143 275.21 53.2143 286.357C53.2143 297.505 53.1428 316.764 53.0518 316.764Z" fill="white"/>
<path d="M274.329 316.764C274.232 316.764 274.16 297.505 274.16 286.357C274.16 275.21 274.232 266.175 274.329 266.175C274.427 266.175 274.492 275.21 274.492 286.357C274.492 297.505 274.42 316.764 274.329 316.764Z" fill="white"/>
<path d="M38.511 31.2842C38.511 31.3752 32.2255 31.4532 24.4775 31.4532C16.7295 31.4532 10.4375 31.3752 10.4375 31.2842C10.4375 31.1932 16.723 31.1152 24.4775 31.1152C32.232 31.1152 38.511 31.1997 38.511 31.2842Z" fill="white"/>
<g opacity="0.2">
<path d="M239.513 206.472V199.433H232.539V99.4496C233.16 99.1987 233.719 98.8149 234.177 98.3251C235.516 96.9016 235.912 94.8801 236.27 93.0211C236.725 90.8221 236.971 88.5847 237.004 86.3391C237.004 84.5256 236.731 82.4391 234.632 82.1531C234.554 82.1461 234.475 82.1461 234.398 82.1531L231.733 82.1921V9.59362C231.713 9.36975 231.611 9.16119 231.445 9.00922C231.28 8.85724 231.063 8.77291 230.839 8.77291C230.614 8.77291 230.398 8.85724 230.232 9.00922C230.067 9.16119 229.964 9.36975 229.945 9.59362V82.1726H229.198C228.125 82.1726 227.085 82.3871 226.442 83.3621C226.07 84.0353 225.859 84.7848 225.824 85.5526C225.705 86.5035 225.644 87.4608 225.642 88.4191C225.612 90.5163 225.861 92.6082 226.383 94.6396C226.851 96.4401 227.579 98.3836 229.328 99.3001C229.769 99.5319 230.254 99.6691 230.751 99.7031V199.433H187.637C187.936 196.001 188.163 193.407 188.287 192.367C188.872 187.115 189.385 176.546 176.515 178.36C173.496 178.792 170.537 179.578 167.701 180.7C167.366 180.466 166.953 180.372 166.551 180.44L166.284 177.872C166.299 176.937 166.203 176.003 165.998 175.09L165.758 172.757L166.271 153.257L167.188 153.835C168.735 154.804 170.139 155.662 171.172 156.273C171.71 156.635 172.282 156.942 172.882 157.189L173.239 156.63C178.231 159.776 183.035 162.61 184.458 162.818C189.086 163.468 196.867 142.701 198.537 138.079C200.669 138.281 203.672 138.521 204.387 138.346C205.486 138.06 205.232 135.661 205.232 135.661L205.941 135.083C206.252 134.662 206.448 134.167 206.511 133.648C206.573 133.128 206.5 132.601 206.298 132.119C207.475 130.5 205.739 129.408 205.739 129.408C205.88 128.548 205.763 127.666 205.401 126.873C205.135 126.295 203.984 126.119 202.801 126.1L205.031 120.048C205.96 119.248 207.088 118.713 208.296 118.499C209.504 118.285 210.747 118.4 211.895 118.833L223.315 122.856L224.264 120.289L224.641 119.255L186.239 105.722L185.856 106.749L184.913 109.349L196.223 113.34C196.223 113.34 201.995 116.012 201.813 118.943L200.065 123.682C199.48 123.266 197.068 124.403 196.236 125.17C195.404 125.937 194.429 129.155 194.429 129.155L193.422 131.436L182.853 146.25L180.701 144.911L182.203 142.571L166.941 131.339C166.733 131.178 166.516 131.03 166.291 130.897C166.291 130.747 166.245 130.663 166.245 130.663L165.121 130.364C164.984 130.318 164.848 130.286 164.718 130.253L162.768 129.72C162.103 129.065 161.28 128.594 160.379 128.352C159.478 128.11 158.529 128.107 157.626 128.342L154.428 127.491H153.778L153.707 126.314L153.661 124.8C154.168 124.683 159.914 123.214 159.641 117.253C159.505 114.244 158.705 108.062 157.919 102.479C157.674 100.789 157.057 99.1747 156.112 97.7531C156.741 98.554 157.197 99.4771 157.451 100.464C159.002 100.099 160.484 99.4843 161.838 98.6436C163.444 97.7336 166.356 95.1921 166.089 93.5541C165.93 92.9118 165.593 92.3272 165.117 91.8673C164.641 91.4075 164.046 91.091 163.398 90.9541C161.374 90.6089 159.305 90.6265 157.288 91.0061C156.142 91.1946 155.008 91.4441 153.889 91.7536C149.215 87.9966 142.917 89.8036 142.917 89.8036C135.026 91.5066 133.648 98.9036 133.537 100.204C133.484 101.656 133.606 103.109 133.901 104.533L134.018 104.461C134.018 104.728 134.018 105.001 134.064 105.293C134.265 107.945 134.857 109.343 135.468 110.116C134.317 110.324 133.115 111.078 133.329 113.405C133.713 117.656 137.996 116.395 137.99 116.278L138.718 127.933H138.308L133.609 129.272L133.42 128.726C133.42 128.726 130.385 127.738 128.825 130.494L128.877 130.624L127.98 130.877C127.98 130.877 122.903 132.697 120.758 137.676C120.258 138.833 112.568 152.626 112.568 152.626L113.316 153.101L109.201 160.153C109.201 160.153 108.096 164.008 109.032 165.665C109.968 167.323 113.537 170.345 117.833 166.27L122.923 159.25L123.781 159.802L125.822 156.643C125.945 157.534 126.049 158.294 126.134 158.86L126.433 175.11V175.474C126.033 176.894 126.004 178.394 126.348 179.829C126.039 179.874 125.753 180.021 125.536 180.245C123.046 180.609 116.254 182.195 116.254 189.111L116.962 194.07H116.871C116.871 194.304 117.021 194.941 117.222 195.877L117.573 198.341L117.749 198.289C117.831 198.666 117.922 199.062 118.022 199.478H103.663C103.668 199.28 103.65 199.081 103.611 198.887C103.567 199.081 103.547 199.279 103.553 199.478H90.741V146.731C91.3638 146.482 91.9234 146.098 92.379 145.606C93.718 144.183 94.1145 142.161 94.472 140.302C94.9341 138.104 95.1801 135.866 95.2065 133.62C95.2065 131.807 94.9335 129.72 92.834 129.434C92.7562 129.427 92.6779 129.427 92.6 129.434L89.935 129.473V9.59362C89.935 9.35745 89.8412 9.13095 89.6742 8.96395C89.5072 8.79694 89.2807 8.70313 89.0445 8.70312C88.8084 8.70313 88.5819 8.79694 88.4149 8.96395C88.2479 9.13095 88.154 9.35745 88.154 9.59362V129.473H87.4C86.3275 129.473 85.2875 129.688 84.644 130.663C84.279 131.338 84.0681 132.086 84.0265 132.853C83.9105 133.804 83.8497 134.761 83.8445 135.72C83.8179 137.817 84.067 139.908 84.5855 141.94C85.0535 143.741 85.7815 145.684 87.53 146.607C87.9749 146.835 88.4614 146.97 88.96 147.004V199.426H80.874C80.8832 199.227 80.8635 199.028 80.8155 198.835C80.7765 199.029 80.759 199.228 80.7635 199.426H75.9795V206.466H80.6465C80.6465 207.961 80.6465 209.605 80.6465 211.328C80.6465 217.217 80.705 222.137 80.7895 223.463H74.582V225.504H76.116V225.667L76.5515 228.722L76.8245 230.639L80.51 256.308H88.96V316.55C88.96 316.786 89.0539 317.012 89.2209 317.179C89.3879 317.346 89.6144 317.44 89.8505 317.44C90.0867 317.44 90.3132 317.346 90.4802 317.179C90.6472 317.012 90.741 316.786 90.741 316.55V256.327H103.904L106.725 230.639C106.794 230.648 106.864 230.648 106.933 230.639C106.867 230.618 106.799 230.607 106.731 230.607L106.933 228.806L107.271 225.699C107.677 225.709 108.084 225.685 108.486 225.628C108.087 225.579 107.685 225.557 107.284 225.563H108.733V223.47H103.644C103.728 222.17 103.787 217.223 103.787 211.334C103.787 209.612 103.787 207.967 103.787 206.472H119.653C122.494 218.608 126.491 235.176 126.491 235.176L141.987 233.759L137.996 206.459H170.951L170.438 233.759L184.692 235.189C184.692 235.189 185.992 219.056 187.019 206.485H230.751V206.68H228.223V209.709H230.751V316.55C230.77 316.773 230.873 316.982 231.038 317.134C231.204 317.286 231.42 317.37 231.645 317.37C231.869 317.37 232.086 317.286 232.251 317.134C232.417 316.982 232.519 316.773 232.539 316.55V209.696H235.067V206.7H232.539V206.505L239.513 206.472ZM166.265 152.6L169.593 154.888C168.943 154.453 168.163 153.978 167.37 153.478L166.265 152.782V152.6ZM126.062 156.234V156.201V156.487C126.101 156.403 126.101 156.318 126.062 156.234ZM88.96 206.7H86.88V209.729H88.96V223.47H80.861C80.9455 222.17 81.004 217.223 81.004 211.334C81.004 209.612 81.004 207.967 81.004 206.472H88.973L88.96 206.7ZM88.96 144.644V145.223C88.4578 145.135 87.9997 144.881 87.66 144.501C86.594 143.364 86.269 141.498 85.9895 140.023C85.7059 138.397 85.597 136.745 85.6645 135.096C85.6747 134.444 85.7202 133.793 85.801 133.146C85.8725 132.574 85.8985 131.67 86.503 131.391C86.9868 131.267 87.4893 131.234 87.985 131.293L92.6195 131.228C93.7895 131.293 93.458 133.906 93.419 134.686C93.3293 136.327 93.1317 137.96 92.8275 139.574C92.548 141.076 92.314 142.824 91.378 144.124C91.1946 144.372 90.9755 144.591 90.728 144.774V144.709C90.7165 144.49 90.6243 144.283 90.4692 144.127C90.3141 143.972 90.1071 143.879 89.8878 143.867C89.6685 143.855 89.4525 143.924 89.2813 144.062C89.11 144.199 88.9956 144.395 88.96 144.612V144.644ZM90.741 223.47V209.696H93.7245V206.7H90.741V206.505H103.436C103.436 208 103.436 209.644 103.436 211.367C103.436 217.256 103.494 222.176 103.579 223.502L90.741 223.47ZM162.124 199.355L161.981 199.433H161.89L162.417 199.199L162.124 199.355ZM162.579 199.433L162.807 199.322L163.008 199.387L171.107 199.433H162.579ZM230.751 97.3111V97.8896C230.251 97.7969 229.794 97.5436 229.451 97.1681C228.392 96.0306 228.067 94.1651 227.787 92.6896C227.501 91.0638 227.39 89.4121 227.456 87.7626C227.456 87.1126 227.514 86.4626 227.599 85.8126C227.683 85.1626 227.696 84.3371 228.301 84.0576C228.784 83.9339 229.287 83.9008 229.783 83.9601L234.417 83.8951C235.587 83.9601 235.249 86.5731 235.217 87.3531C235.127 88.9937 234.929 90.6265 234.625 92.2411C234.346 93.7426 234.105 95.4911 233.176 96.7586C233 97.0023 232.792 97.221 232.558 97.4086V97.3436C232.562 97.104 232.471 96.8725 232.305 96.7C232.139 96.5275 231.91 96.4282 231.671 96.4239C231.431 96.4196 231.2 96.5106 231.027 96.677C230.855 96.8434 230.755 97.0715 230.751 97.3111Z" fill="black"/>
</g>
<path d="M190.452 225.583L188.21 239.571C188.21 239.571 201.463 246.539 201.294 249.158L174.43 245.817L177.03 223.873L190.452 225.583Z" fill="#263238"/>
<path d="M180.051 237.354C179.782 237.405 179.54 237.553 179.372 237.769C179.203 237.986 179.119 238.256 179.135 238.53C179.167 238.802 179.304 239.051 179.516 239.224C179.728 239.397 179.999 239.482 180.272 239.46C180.559 239.407 180.815 239.251 180.993 239.02C181.171 238.79 181.257 238.502 181.234 238.212C181.172 237.929 181 237.682 180.756 237.526C180.513 237.37 180.217 237.318 179.934 237.38" fill="#E0E0E0"/>
<path d="M174.41 245.817L174.761 243.613L200.384 247.643C200.384 247.643 201.515 248.293 201.275 249.158L174.41 245.817Z" fill="#455A64"/>
<path d="M188.645 239.485C188.645 239.622 187.962 239.596 187.26 239.947C186.558 240.298 186.149 240.811 186.038 240.746C185.928 240.681 186.214 239.934 187.065 239.524C187.917 239.115 188.69 239.368 188.645 239.485Z" fill="white"/>
<path d="M191.314 241.02C191.314 241.156 190.729 241.312 190.216 241.819C189.702 242.326 189.501 242.905 189.371 242.885C189.241 242.866 189.247 242.099 189.904 241.481C190.56 240.864 191.327 240.896 191.314 241.02Z" fill="white"/>
<path d="M192.493 244.647C192.369 244.647 192.272 243.997 192.694 243.282C193.117 242.567 193.773 242.385 193.812 242.502C193.851 242.619 193.429 242.963 193.084 243.529C192.74 244.094 192.623 244.647 192.493 244.647Z" fill="white"/>
<path d="M188.808 236.242C188.736 236.359 188.158 236.099 187.41 236.06C186.663 236.021 186.058 236.183 186 236.06C185.941 235.936 186.565 235.533 187.443 235.592C188.32 235.65 188.886 236.144 188.808 236.242Z" fill="white"/>
<path d="M175.996 234.298C175.996 234.207 179.448 234.331 183.699 234.584C187.95 234.838 191.388 235.111 191.382 235.234C191.375 235.358 187.924 235.202 183.679 234.955C179.435 234.708 175.99 234.396 175.996 234.298Z" fill="#455A64"/>
<path d="M144.893 226.024L148.455 242.034L154.61 254.15C155.039 255.151 154.331 258.082 153.31 258.446C153.031 258.544 152.732 258.573 152.439 258.531C152.147 258.489 151.868 258.378 151.627 258.206C148.494 255.957 137.015 247.624 136.917 246.285C136.482 243.679 136.453 241.021 136.833 238.407L133.355 228.865L144.893 226.024Z" fill="#263238"/>
<path d="M154.955 255.671C154.335 254.255 153.339 253.037 152.075 252.148L145.66 246.35L144.067 244.666C143.422 243.961 142.598 243.444 141.682 243.17C140.766 242.896 139.793 242.877 138.867 243.113C137.275 243.548 136.709 244.523 136.833 245.843C136.933 246.506 137.262 247.113 137.762 247.559C139.101 248.742 142.878 251.933 151.562 258.225C151.809 258.406 152.097 258.521 152.4 258.562C152.703 258.603 153.011 258.568 153.297 258.459C153.618 258.443 153.929 258.347 154.204 258.181C154.478 258.015 154.708 257.784 154.872 257.508C155.036 257.233 155.129 256.921 155.144 256.6C155.158 256.28 155.093 255.96 154.955 255.671Z" fill="#455A64"/>
<path d="M123.676 194.024C123.91 196.293 133.289 235.176 133.289 235.176L148.779 233.759L143 194.024H123.676Z" fill="#263238"/>
<path d="M148.779 233.759C148.034 233.918 147.277 234.018 146.517 234.058L141.044 234.565L135.564 235.039C134.81 235.139 134.05 235.184 133.289 235.176C133.481 235.103 133.682 235.057 133.887 235.039C134.277 234.974 134.843 234.896 135.538 234.805C136.936 234.623 138.873 234.422 141.011 234.233C143.15 234.045 145.093 233.902 146.497 233.817C147.255 233.742 148.018 233.723 148.779 233.759Z" fill="#455A64"/>
<path d="M168.721 183.612C168.721 183.612 174.246 179.634 183.313 178.36C196.177 176.547 195.663 187.116 195.085 192.368C194.552 197.165 191.516 235.177 191.516 235.177L176.254 233.643L177.912 199.433L169.813 199.388L160.258 196.3L168.721 183.612Z" fill="#263238"/>
<path d="M129.349 196.774C129.349 196.774 133.503 201.103 143.363 201.103C150.149 201.103 162.623 202.071 167.355 200.017C177.267 195.727 177.267 194.473 177.267 194.473V180.244C177.267 180.244 153.698 184.365 149.642 182.987C145.586 181.609 133.249 180.095 133.249 180.095C133.249 180.095 123.07 180.647 123.07 189.065L124.37 198.295L129.349 196.774Z" fill="#263238"/>
<path d="M179.11 193.622C178.608 194.071 178.066 194.474 177.491 194.825C176.464 195.52 175.008 196.43 173.357 197.366C171.706 198.302 170.166 199.063 169.035 199.583C168.44 199.894 167.818 200.148 167.176 200.343C167.734 199.973 168.321 199.647 168.931 199.368C170.029 198.796 171.531 197.997 173.188 197.067C174.846 196.138 176.302 195.26 177.361 194.623C177.917 194.245 178.502 193.91 179.11 193.622Z" fill="#455A64"/>
<path d="M136.82 200.61C136.285 200.523 135.765 200.363 135.273 200.135C134.063 199.65 132.904 199.044 131.815 198.328C130.725 197.611 129.708 196.788 128.78 195.871C128.373 195.512 128.019 195.099 127.727 194.643C128.157 194.964 128.563 195.316 128.942 195.696C129.904 196.548 130.925 197.332 131.997 198.042C133.076 198.745 134.203 199.371 135.371 199.914C135.869 200.113 136.353 200.346 136.82 200.61Z" fill="#455A64"/>
<path d="M164.717 102.465C164.271 99.54 162.745 96.8885 160.439 95.034C158.133 93.1796 155.216 92.2571 152.263 92.4487L151.652 92.4877C145.048 93.2352 142.006 99.1372 142.955 105.579L144.788 116.239L145.835 132.963L160.752 130.298L160.408 124.799C160.408 124.799 166.726 123.499 166.44 117.24C166.303 114.23 165.504 108.049 164.717 102.465Z" fill="#FFBF9D"/>
<path d="M160.459 124.8C157.504 124.96 154.565 124.284 151.977 122.85C151.977 122.85 154.2 127.224 160.524 126.308L160.459 124.8Z" fill="#FF9A6C"/>
<path d="M163.379 108.549C163.394 108.784 163.315 109.015 163.161 109.193C163.006 109.37 162.788 109.48 162.554 109.498C162.44 109.515 162.324 109.508 162.213 109.48C162.102 109.451 161.998 109.4 161.906 109.331C161.815 109.261 161.738 109.174 161.681 109.074C161.624 108.975 161.587 108.865 161.572 108.751C161.556 108.517 161.633 108.286 161.787 108.108C161.94 107.93 162.157 107.82 162.391 107.802C162.506 107.784 162.622 107.79 162.734 107.819C162.846 107.847 162.951 107.897 163.043 107.967C163.135 108.037 163.212 108.124 163.27 108.224C163.328 108.324 163.365 108.435 163.379 108.549Z" fill="#263238"/>
<path d="M163.523 105.592C163.419 105.716 162.704 105.254 161.723 105.313C160.741 105.371 160.052 105.885 159.942 105.774C159.831 105.664 159.987 105.514 160.293 105.274C160.698 104.962 161.189 104.78 161.699 104.753C162.21 104.727 162.717 104.856 163.153 105.124C163.465 105.332 163.575 105.54 163.523 105.592Z" fill="#263238"/>
<path d="M154.738 109.2C154.751 109.433 154.673 109.662 154.52 109.839C154.367 110.016 154.152 110.127 153.919 110.149C153.805 110.164 153.689 110.157 153.577 110.128C153.465 110.098 153.361 110.047 153.269 109.977C153.177 109.907 153.1 109.819 153.042 109.719C152.984 109.619 152.947 109.509 152.931 109.395C152.917 109.161 152.996 108.93 153.15 108.754C153.305 108.577 153.523 108.469 153.757 108.452C153.871 108.435 153.987 108.441 154.098 108.469C154.21 108.497 154.315 108.548 154.406 108.618C154.498 108.688 154.574 108.775 154.631 108.875C154.688 108.975 154.725 109.085 154.738 109.2Z" fill="#263238"/>
<path d="M153.914 106.307C153.81 106.431 153.088 105.969 152.113 106.028C151.138 106.086 150.443 106.6 150.332 106.489C150.222 106.379 150.378 106.229 150.677 105.989C151.086 105.675 151.58 105.494 152.094 105.469C152.602 105.441 153.106 105.57 153.537 105.839C153.849 106.047 153.966 106.255 153.914 106.307Z" fill="#263238"/>
<path d="M157.878 113.21C158.386 113.026 158.914 112.902 159.451 112.84C159.698 112.801 159.932 112.742 159.965 112.573C159.973 112.319 159.9 112.068 159.757 111.858L158.912 110.038C157.729 107.438 156.858 105.306 156.962 105.261C157.066 105.215 158.112 107.276 159.289 109.869L160.108 111.702C160.282 111.988 160.349 112.327 160.296 112.658C160.265 112.746 160.213 112.827 160.146 112.892C160.078 112.958 159.996 113.006 159.906 113.034C159.769 113.081 159.627 113.109 159.484 113.119C158.954 113.212 158.415 113.243 157.878 113.21Z" fill="#263238"/>
<path d="M155.037 114.035C155.193 114.035 155.258 115.056 156.207 115.738C157.156 116.421 158.287 116.252 158.3 116.388C158.313 116.525 158.06 116.603 157.585 116.642C156.965 116.689 156.349 116.516 155.843 116.154C155.603 115.988 155.398 115.775 155.241 115.528C155.083 115.282 154.977 115.006 154.927 114.718C154.862 114.295 154.966 114.029 155.037 114.035Z" fill="#263238"/>
<path d="M153.948 102.544C153.87 102.804 152.882 102.739 151.744 102.941C150.607 103.142 149.69 103.493 149.528 103.272C149.45 103.162 149.599 102.908 149.957 102.622C150.44 102.28 150.996 102.057 151.582 101.972C152.165 101.871 152.764 101.907 153.33 102.076C153.759 102.226 153.987 102.414 153.948 102.544Z" fill="#263238"/>
<path d="M163.495 102.837C163.333 103.064 162.65 102.876 161.838 102.915C161.025 102.954 160.349 103.142 160.174 102.915C160.102 102.811 160.174 102.583 160.486 102.362C160.877 102.094 161.338 101.945 161.812 101.933C162.286 101.922 162.754 102.048 163.157 102.297C163.456 102.512 163.567 102.7 163.495 102.837Z" fill="#263238"/>
<path d="M164.001 99.2547C164.001 99.2547 162.09 95.4457 160.101 94.6462C157.709 93.6712 156.851 96.2257 154.602 95.7448C152.353 95.2637 150.052 94.3277 147.894 96.1282C145.515 98.0782 146.757 99.3327 146.763 102.102C146.796 113.347 144.885 116.629 143.981 111.384C143.884 110.812 141.31 111.423 140.848 105.254C140.614 102.076 140.985 101.023 141.576 98.7542C142.077 96.8042 143.104 95.4523 145.002 93.8988C147.992 91.4418 152.288 91.1558 155.22 91.2988C158.151 91.4418 163.982 94.3537 164.001 99.2547Z" fill="#263238"/>
<path d="M144.332 111.585C144.307 111.355 144.237 111.133 144.125 110.931C144.012 110.73 143.861 110.552 143.679 110.41C143.498 110.268 143.289 110.163 143.066 110.102C142.844 110.042 142.611 110.027 142.382 110.057C141.199 110.233 139.919 110.967 140.133 113.366C140.523 117.617 144.807 116.362 144.8 116.239C144.794 116.115 144.508 113.359 144.332 111.585Z" fill="#FFBF9D"/>
<path d="M143.698 114.718C143.698 114.718 143.633 114.777 143.51 114.848C143.336 114.938 143.134 114.959 142.944 114.907C142.65 114.761 142.4 114.538 142.22 114.263C142.041 113.987 141.939 113.669 141.924 113.34C141.881 112.976 141.921 112.608 142.041 112.261C142.065 112.118 142.126 111.983 142.217 111.869C142.308 111.755 142.426 111.667 142.561 111.611C142.645 111.58 142.737 111.58 142.821 111.609C142.905 111.639 142.976 111.697 143.022 111.774C143.094 111.884 143.074 111.975 143.1 111.982C143.126 111.988 143.185 111.897 143.1 111.728C143.067 111.623 142.998 111.534 142.905 111.475C142.777 111.397 142.623 111.371 142.476 111.403C142.303 111.453 142.146 111.546 142.019 111.673C141.891 111.801 141.798 111.958 141.748 112.131C141.596 112.515 141.542 112.931 141.592 113.34C141.612 113.727 141.746 114.099 141.977 114.409C142.209 114.719 142.527 114.954 142.892 115.082C143.007 115.102 143.124 115.096 143.237 115.066C143.349 115.035 143.453 114.981 143.542 114.907C143.705 114.822 143.718 114.725 143.698 114.718Z" fill="#FF9A6C"/>
<path d="M148.715 91.6501C148.715 91.6501 148.832 91.6501 149.027 91.7411C149.311 91.8398 149.559 92.0236 149.735 92.2676L149.794 92.3456L149.852 92.2611C150.358 91.5052 151.05 90.892 151.861 90.4801C152.387 90.2115 152.962 90.0523 153.551 90.0121C154.201 89.9813 154.847 90.1249 155.423 90.4281C155.872 90.6605 156.267 90.9863 156.58 91.3836C156.865 91.752 157.055 92.1852 157.132 92.6446V92.7746L157.262 92.7356C157.861 92.5396 158.512 92.5792 159.082 92.8461C159.528 93.0577 159.896 93.4031 160.135 93.8341C160.332 94.2208 160.449 94.6429 160.48 95.0756C160.502 94.9597 160.502 94.8405 160.48 94.7246C160.463 94.3918 160.377 94.0663 160.226 93.7691C159.99 93.2969 159.607 92.9139 159.134 92.6771C158.528 92.3792 157.831 92.3234 157.184 92.5211L157.34 92.6121C157.261 92.1139 157.06 91.643 156.755 91.2406C156.421 90.8125 155.997 90.4621 155.514 90.2136C154.899 89.8877 154.206 89.737 153.512 89.7781C152.888 89.8183 152.28 89.9935 151.731 90.2916C150.897 90.7314 150.198 91.3897 149.709 92.1961H149.82C149.619 91.9423 149.341 91.7618 149.027 91.6826C148.927 91.6486 148.82 91.6375 148.715 91.6501Z" fill="#455A64"/>
<path d="M144.341 101.92C144.555 102.462 144.955 102.911 145.468 103.188C145.982 103.465 146.577 103.551 147.148 103.432C147.719 103.313 148.23 102.997 148.59 102.538C148.95 102.08 149.138 101.508 149.118 100.925C149.513 101.094 149.946 101.154 150.371 101.097C150.797 101.04 151.199 100.87 151.536 100.604C151.873 100.338 152.131 99.9853 152.285 99.5844C152.438 99.1834 152.48 98.7485 152.407 98.3255C152.664 98.5045 152.958 98.6243 153.267 98.6762C153.576 98.7281 153.892 98.7109 154.194 98.6257C154.495 98.5405 154.774 98.3896 155.01 98.1837C155.247 97.9778 155.434 97.7221 155.56 97.435C155.949 97.6807 156.392 97.8281 156.85 97.8644C157.309 97.9006 157.769 97.8246 158.192 97.643C158.392 97.538 158.568 97.3934 158.71 97.218C158.852 97.0426 158.956 96.8401 159.017 96.6228C159.078 96.4056 159.094 96.1782 159.064 95.9546C159.034 95.731 158.958 95.5159 158.842 95.3225C158.423 94.8715 157.845 94.6011 157.23 94.5685C154.517 94.1421 151.74 94.6396 149.343 95.981C146.947 97.3224 145.071 99.43 144.016 101.965" fill="#263238"/>
<path d="M164.88 98.7995C163.713 97.516 162.159 96.6487 160.454 96.3295C155.293 95.452 148.234 95.725 141.714 103.889L140.7 104.5C140.406 103.077 140.283 101.623 140.336 100.171C140.447 98.91 141.825 91.5 149.716 89.771C149.716 89.7905 161.682 86.339 164.88 98.7995Z" fill="#1A1D1F"/>
<g opacity="0.3">
<path d="M164.88 98.7995C163.713 97.516 162.159 96.6487 160.454 96.3295C155.293 95.452 148.234 95.725 141.714 103.889L140.7 104.5C140.406 103.077 140.283 101.623 140.336 100.171C140.447 98.91 141.825 91.5 149.716 89.771C149.716 89.7905 161.682 86.339 164.88 98.7995Z" fill="black"/>
</g>
<path d="M142.132 103.2C144.764 99.5214 148.437 97.1424 152.356 95.1339C156.276 93.1254 159.74 91.7019 164.089 90.9869C166.106 90.6073 168.175 90.5897 170.199 90.9349C170.846 91.0718 171.442 91.3883 171.918 91.8482C172.394 92.308 172.73 92.8926 172.89 93.5349C173.156 95.1729 170.244 97.7144 168.639 98.6244C167.284 99.4651 165.803 100.08 164.251 100.444C164.251 100.444 163.445 96.7979 160.351 96.0959C153.988 94.6334 141.924 103.35 142.132 103.2Z" fill="#1A1D1F"/>
<path d="M206.72 133.712L203.496 132.574L208.54 118.872L211.764 120.003L206.72 133.712Z" fill="#455A64"/>
<path d="M230.049 122.811L191.641 109.278L192.59 106.704L230.998 120.244L230.049 122.811Z" fill="#455A64"/>
<path d="M230.998 120.243L192.59 106.704L192.973 105.677L231.375 119.21L230.998 120.243Z" fill="#263238"/>
<path d="M202.957 113.269C202.957 113.269 208.729 115.94 208.541 118.872L211.791 120.003C212.72 119.202 213.848 118.667 215.056 118.453C216.264 118.239 217.507 118.354 218.655 118.787L219.766 115.7L204.166 110.194L202.957 113.269Z" fill="#263238"/>
<path d="M205.655 137.149C205.655 137.149 196.451 163.559 191.244 162.805C187.955 162.324 166.648 147.855 166.648 147.855L170.405 134.263L189.658 146.249L200.13 131.345L205.655 137.149Z" fill="#FFBF9D"/>
<path d="M201.165 129.083C201.165 129.083 202.081 125.904 202.972 125.098C203.862 124.292 206.514 123.057 206.872 123.701L206.384 126.268C206.384 126.268 211.545 125.514 212.15 126.827C212.511 127.62 212.629 128.502 212.488 129.362C212.488 129.362 214.223 130.454 213.047 132.073C213.249 132.555 213.322 133.082 213.259 133.602C213.197 134.122 213 134.616 212.689 135.037L211.981 135.615C211.981 135.615 212.234 138.014 211.136 138.3C210.037 138.586 203.108 137.806 203.108 137.806L199.91 131.891L201.165 129.083Z" fill="#FFBF9D"/>
<path d="M145.105 127.906L161.225 127.49L173.075 130.649C173.634 134.138 173.791 137.68 173.543 141.205L173.133 150.149L172.542 172.724L173.335 180.407C174.505 180.29 174.953 180.959 175.155 181.902C175.74 182.812 163.786 193.602 156.916 194.479C140.302 195.623 132.866 190.43 131.988 181.343C132.021 180.335 132.365 179.88 133.321 179.744L132.768 149.805L134.77 130.844L145.105 127.906Z" fill="#1A1D1F"/>
<path d="M124.62 166.27C120.323 170.345 116.748 167.323 115.819 165.665C114.889 164.008 115.988 160.153 115.988 160.153L121.838 150.156L132.452 155.493L124.62 166.27Z" fill="#FFBF9D"/>
<path d="M134.779 130.845C134.779 130.845 129.702 132.665 127.551 137.644C127.057 138.801 119.367 152.594 119.367 152.594L127.551 157.826L130.586 159.776L134.779 153.276V130.845Z" fill="#1A1D1F"/>
<path d="M189.029 142.57L173.767 131.338C170.237 128.608 166.747 130.864 164.4 134.653C160.968 140.36 164.595 144.793 166.077 147.77L179.669 157.143L189.029 142.57Z" fill="#1A1D1F"/>
<path d="M130.808 139.834C130.899 139.834 131.504 144.332 132.154 149.909C132.804 155.486 133.259 160.016 133.168 160.029C133.077 160.042 132.472 155.525 131.822 149.948C131.172 144.371 130.717 139.84 130.808 139.834Z" fill="#263238"/>
<path d="M133.25 180.095C133.25 180.095 136.292 187.245 149.045 187.895C161.798 188.545 173.349 180.4 173.349 180.4L172.868 175.733C172.868 175.733 164.255 183.644 149.169 183.579C136.045 183.527 133.25 175.051 133.25 175.051V180.095Z" fill="#263238"/>
<path d="M135.625 130.468L147.325 158.814L150.172 157.144L140.221 128.7C140.221 128.7 137.185 127.712 135.625 130.468Z" fill="#263238"/>
<path d="M164.257 128.374C158.733 137.448 154.013 146.987 150.152 156.883L153.701 158.307C153.701 158.307 163.399 132.599 169.652 129.791C169.652 129.791 167.839 127.562 164.257 128.374Z" fill="#263238"/>
<path d="M146.049 160.55C146.049 160.55 133.582 174.271 133.251 175.428C132.823 176.955 132.823 178.569 133.251 180.095L135.636 179.738L147.687 164.001L146.049 160.55Z" fill="#263238"/>
<path d="M150.152 162.785C150.152 162.785 171.654 180.985 172.213 180.426C173.721 178.97 172.772 175.064 172.772 175.064L151.803 160.029L150.152 162.785Z" fill="#263238"/>
<path d="M168.48 150.149C169.075 150.408 169.645 150.719 170.183 151.079C171.21 151.69 172.621 152.554 174.168 153.523C175.715 154.491 177.099 155.388 178.068 156.051C178.625 156.378 179.151 156.755 179.641 157.176C179.047 156.917 178.477 156.606 177.938 156.246C176.904 155.635 175.5 154.777 173.953 153.809C172.406 152.84 171.028 151.943 170.053 151.28C169.496 150.952 168.969 150.573 168.48 150.149Z" fill="#263238"/>
<path d="M148.784 166.627C147.869 166.299 147.114 165.631 146.678 164.762C145.742 162.929 143.955 158.028 144.338 157.066C145.456 154.284 152.496 154.069 154.225 156.416C155.954 158.762 153.087 164.352 152.041 165.633C151.689 166.14 151.176 166.514 150.585 166.695C149.994 166.875 149.36 166.851 148.784 166.627Z" fill="#263238"/>
<path d="M148.788 166.627C149.237 166.734 149.7 166.769 150.159 166.731C150.688 166.646 151.178 166.401 151.563 166.029C152.06 165.516 152.471 164.925 152.779 164.281C153.189 163.511 153.548 162.714 153.851 161.895C154.206 160.964 154.444 159.992 154.56 159.003C154.621 158.476 154.596 157.943 154.488 157.423C154.363 156.901 154.071 156.433 153.656 156.091C152.695 155.435 151.569 155.061 150.406 155.012C149.228 154.914 148.041 155.029 146.903 155.35C146.373 155.503 145.87 155.74 145.414 156.052C144.987 156.33 144.659 156.738 144.478 157.215C144.445 157.71 144.497 158.207 144.634 158.684C144.745 159.172 144.875 159.64 145.018 160.095C145.291 160.992 145.583 161.824 145.869 162.578C146.454 164.073 146.929 165.308 147.637 165.873C147.991 166.171 148.38 166.424 148.794 166.627C148.674 166.607 148.556 166.572 148.443 166.523C148.119 166.387 147.819 166.201 147.553 165.971C147.124 165.615 146.776 165.172 146.532 164.671C146.24 164.099 145.947 163.429 145.648 162.675C145.349 161.921 145.037 161.096 144.745 160.186C144.602 159.731 144.465 159.263 144.348 158.762C144.191 158.243 144.132 157.698 144.173 157.157C144.365 156.602 144.735 156.127 145.226 155.805C145.709 155.469 146.242 155.212 146.805 155.044C147.981 154.707 149.208 154.588 150.426 154.693C151.662 154.738 152.858 155.14 153.871 155.85C154.341 156.238 154.67 156.771 154.807 157.365C154.921 157.916 154.946 158.483 154.878 159.042C154.752 160.058 154.497 161.054 154.118 162.006C153.799 162.832 153.423 163.636 152.993 164.411C152.661 165.07 152.222 165.67 151.693 166.185C151.269 166.565 150.738 166.806 150.172 166.874C149.821 166.906 149.466 166.873 149.126 166.777C149.007 166.742 148.893 166.692 148.788 166.627Z" fill="#455A64"/>
<path d="M238.454 82.5494V9.59342C238.436 9.39131 238.343 9.2033 238.193 9.06637C238.044 8.92945 237.848 8.85352 237.645 8.85352C237.442 8.85352 237.247 8.92945 237.097 9.06637C236.947 9.2033 236.854 9.39131 236.836 9.59342V82.5494C236.854 82.7515 236.947 82.9395 237.097 83.0765C237.247 83.2134 237.442 83.2893 237.645 83.2893C237.848 83.2893 238.044 83.2134 238.193 83.0765C238.343 82.9395 238.436 82.7515 238.454 82.5494Z" fill="#263238"/>
<path d="M237.641 103.882V316.627C237.659 316.83 237.752 317.018 237.902 317.155C238.051 317.291 238.247 317.367 238.45 317.367C238.653 317.367 238.848 317.291 238.998 317.155C239.148 317.018 239.241 316.83 239.259 316.627V103.882C239.241 103.68 239.148 103.492 238.998 103.355C238.848 103.219 238.653 103.143 238.45 103.143C238.247 103.143 238.051 103.219 237.902 103.355C237.752 103.492 237.659 103.68 237.641 103.882Z" fill="#263238"/>
<path d="M237.641 97.3112V104.955C237.659 105.157 237.752 105.345 237.902 105.482C238.051 105.619 238.247 105.695 238.45 105.695C238.653 105.695 238.848 105.619 238.998 105.482C239.148 105.345 239.241 105.157 239.259 104.955V97.3112C239.241 97.1091 239.148 96.9211 238.998 96.7842C238.848 96.6472 238.653 96.5713 238.45 96.5713C238.247 96.5713 238.051 96.6472 237.902 96.7842C237.752 96.9211 237.659 97.1091 237.641 97.3112Z" fill="#E0E0E0"/>
<path d="M241.202 83.8108C242.457 83.8758 242.119 86.5018 242.08 87.3468C241.99 88.9938 241.793 90.6331 241.488 92.2543C241.202 93.7688 240.962 95.5043 240.026 96.8043C239.09 98.1043 237.367 98.4943 236.184 97.2268C235.105 96.0828 234.774 94.2043 234.494 92.7158C234.206 91.0838 234.094 89.4253 234.163 87.7693C234.163 87.1193 234.215 86.4693 234.299 85.8193C234.384 85.1693 234.41 84.2918 235.047 83.9993C235.54 83.8651 236.054 83.8275 236.561 83.8888L241.202 83.8238C241.418 83.8238 241.625 83.7382 241.777 83.5858C241.929 83.4334 242.015 83.2268 242.015 83.0113C242.015 82.7958 241.929 82.5891 241.777 82.4368C241.625 82.2844 241.418 82.1988 241.202 82.1988L236.002 82.2768C234.956 82.2768 233.948 82.4718 233.318 83.4208C232.953 84.082 232.744 84.8179 232.707 85.5723C232.591 86.5235 232.53 87.4806 232.525 88.4388C232.501 90.5271 232.75 92.6095 233.266 94.6333C233.727 96.4143 234.442 98.3448 236.171 99.2548C236.962 99.633 237.856 99.7412 238.714 99.5627C239.572 99.3842 240.348 98.929 240.923 98.2668C242.223 96.8498 242.639 94.8348 242.996 92.9953C243.463 90.7997 243.715 88.5641 243.75 86.3198C243.75 84.4933 243.49 82.3093 241.228 82.1858C240.162 82.1338 240.162 83.7523 241.202 83.8108Z" fill="#E0E0E0"/>
<path d="M96.6576 129.876V9.62564C96.6394 9.42353 96.5463 9.23552 96.3966 9.0986C96.2468 8.96167 96.0512 8.88574 95.8483 8.88574C95.6454 8.88574 95.4498 8.96167 95.3001 9.0986C95.1503 9.23552 95.0572 9.42353 95.0391 9.62564V129.876C95.0572 130.078 95.1503 130.266 95.3001 130.403C95.4498 130.54 95.6454 130.616 95.8483 130.616C96.0512 130.616 96.2468 130.54 96.3966 130.403C96.5463 130.266 96.6394 130.078 96.6576 129.876Z" fill="#263238"/>
<path d="M95.8438 151.183V316.628C95.8619 316.83 95.955 317.018 96.1047 317.155C96.2545 317.292 96.4501 317.368 96.653 317.368C96.8559 317.368 97.0515 317.292 97.2013 317.155C97.351 317.018 97.4441 316.83 97.4623 316.628V151.183C97.4441 150.981 97.351 150.793 97.2013 150.656C97.0515 150.519 96.8559 150.443 96.653 150.443C96.4501 150.443 96.2545 150.519 96.1047 150.656C95.955 150.793 95.8619 150.981 95.8438 151.183Z" fill="#263238"/>
<path d="M95.8438 144.612V152.256C95.8619 152.458 95.955 152.646 96.1047 152.783C96.2545 152.92 96.4501 152.996 96.653 152.996C96.8559 152.996 97.0515 152.92 97.2013 152.783C97.351 152.646 97.4441 152.458 97.4623 152.256V144.612C97.4441 144.41 97.351 144.222 97.2013 144.085C97.0515 143.948 96.8559 143.872 96.653 143.872C96.4501 143.872 96.2545 143.948 96.1047 144.085C95.955 144.222 95.8619 144.41 95.8438 144.612Z" fill="#E0E0E0"/>
<path d="M99.4038 131.111C100.658 131.176 100.32 133.802 100.281 134.647C100.195 136.294 99.9972 137.934 99.6898 139.554C99.4103 141.075 99.1633 142.804 98.2273 144.104C97.2913 145.404 95.5688 145.788 94.3858 144.52C93.3068 143.376 92.9753 141.498 92.6958 140.009C92.4068 138.377 92.2957 136.719 92.3643 135.063C92.3643 134.413 92.4163 133.763 92.5008 133.113C92.5853 132.463 92.6113 131.585 93.2483 131.293C93.7435 131.159 94.2599 131.121 94.7693 131.182L99.4038 131.117C99.6059 131.099 99.7939 131.006 99.9308 130.856C100.068 130.707 100.144 130.511 100.144 130.308C100.144 130.105 100.068 129.91 99.9308 129.76C99.7939 129.61 99.6059 129.517 99.4038 129.499L94.2038 129.57C93.1573 129.57 92.1498 129.765 91.5193 130.714C91.1563 131.376 90.9495 132.112 90.9148 132.866C90.7923 133.817 90.7315 134.774 90.7328 135.732C90.7035 137.821 90.9505 139.904 91.4673 141.927C91.9288 143.708 92.6438 145.638 94.3728 146.548C95.1637 146.927 96.0569 147.035 96.9153 146.856C97.7736 146.678 98.5497 146.223 99.1243 145.56C100.424 144.143 100.84 142.128 101.198 140.289C101.655 138.097 101.898 135.866 101.926 133.626C101.926 131.8 101.672 129.616 99.4038 129.499C98.3638 129.434 98.3638 131.052 99.4038 131.111Z" fill="#E0E0E0"/>
<path d="M246.312 199.433H82.7852V206.472H246.312V199.433Z" fill="#AE7461"/>
<path d="M241.878 206.667H235.027V209.696H241.878V206.667Z" fill="#263238"/>
<path d="M100.531 206.667H93.6797V209.696H100.531V206.667Z" fill="#263238"/>
<path d="M84.0898 224.555L88.9778 258.647H113.242L116.967 224.672L84.0898 224.555Z" fill="#455A64"/>
<path d="M118.256 224.555H82.8047V226.674H118.256V224.555Z" fill="#455A64"/>
<path d="M117.996 226.771C117.996 226.869 110.111 226.921 100.4 226.895C90.6892 226.869 82.8047 226.765 82.8047 226.674C82.8047 226.583 90.6827 226.524 100.4 226.557C110.118 226.589 117.996 226.68 117.996 226.771Z" fill="#263238"/>
<path d="M116.352 230.1C116.352 230.197 109.339 230.269 100.681 230.269C92.0226 230.269 85.0156 230.197 85.0156 230.1C85.0156 230.002 92.0291 229.931 100.681 229.931C109.332 229.931 116.352 229.976 116.352 230.1Z" fill="#263238"/>
<path d="M116.352 231.965C116.352 232.062 109.365 232.134 100.752 232.134C92.1398 232.134 85.1523 232.062 85.1523 231.965C85.1523 231.867 92.1398 231.796 100.752 231.796C109.365 231.796 116.352 231.874 116.352 231.965Z" fill="#263238"/>
<path d="M89.2862 199.004C89.3837 199.004 89.4552 204.808 89.4552 211.965C89.4552 219.121 89.3837 224.932 89.2862 224.932C89.1887 224.932 89.1172 219.128 89.1172 211.965C89.1172 204.802 89.1952 199.004 89.2862 199.004Z" fill="#263238"/>
<path d="M112.931 199.004C113.022 199.004 113.1 204.808 113.1 211.965C113.1 219.121 113.022 224.932 112.931 224.932C112.84 224.932 112.762 219.128 112.762 211.965C112.762 204.802 112.84 199.004 112.931 199.004Z" fill="#263238"/>
</svg>
