<svg width="325" height="325" viewBox="0 0 325 325" fill="none" xmlns="http://www.w3.org/2000/svg">
<path d="M49.0669 202.631C49.0669 202.631 49.9249 191.308 47.5914 180.453C45.2579 169.598 39.5899 161.239 32.6414 157.976C25.6929 154.713 17.3664 159.159 23.3659 166.589C29.3654 174.018 41.8064 187.265 41.7349 206.629L49.0669 202.631Z" fill="#E0E0E0"/>
<path d="M45.4972 202.235H45.5816C45.6908 202.231 45.7943 202.185 45.8697 202.106C45.9451 202.027 45.9864 201.921 45.9847 201.812C45.3347 178.1 37.4307 166.225 28.3047 160.212C28.2141 160.153 28.1037 160.132 27.9978 160.154C27.8918 160.176 27.7988 160.239 27.7392 160.329C27.7087 160.373 27.6874 160.423 27.6764 160.476C27.6655 160.528 27.6652 160.582 27.6754 160.635C27.6857 160.688 27.7065 160.738 27.7364 160.782C27.7663 160.827 27.8048 160.865 27.8497 160.895C36.8522 166.855 44.5157 178.484 45.1592 201.845C45.1622 201.939 45.1974 202.029 45.259 202.1C45.3205 202.171 45.4046 202.218 45.4972 202.235Z" fill="white"/>
<path d="M13.7524 181.351C13.8824 182.651 14.9419 183.665 15.9559 184.516C16.9699 185.368 18.0684 186.278 18.3414 187.565C18.9004 190.165 15.8129 192.57 16.4824 195.144C16.6601 195.674 16.9443 196.163 17.3176 196.58C17.6909 196.997 18.1455 197.333 18.6534 197.568C19.4849 197.977 20.3376 198.342 21.2079 198.66C21.635 198.789 22.0691 198.893 22.5079 198.972C23.8088 199.089 25.0352 199.631 25.9984 200.513C27.4154 202.053 27.2399 204.413 27.7404 206.467C28.3514 208.904 29.8009 210.367 33.1224 211.498L44.4974 205.05C47.3314 202.164 48.3324 197.25 45.7194 193.863C44.1529 191.848 41.2214 191.595 39.7394 189.573C38.4394 187.766 39.1804 185.153 38.3679 183.073C37.5554 180.993 35.3909 180.265 33.3499 179.908C31.3089 179.55 29.1379 180.395 27.1489 179.667C25.1599 178.939 23.3074 177.763 21.2404 177.249C20.2374 176.951 19.1794 176.886 18.1475 177.06C17.1155 177.233 16.1369 177.64 15.2864 178.25C14.7932 178.599 14.3946 179.065 14.1268 179.606C13.859 180.147 13.7303 180.747 13.7524 181.351Z" fill="#EBEBEB"/>
<path d="M34.9547 191.587C34.934 191.542 34.9028 191.502 34.8637 191.47C29.5207 183.891 21.1357 180.29 18.3082 179.66C18.2682 179.645 18.2256 179.639 18.1832 179.642C18.1407 179.646 18.0995 179.658 18.0621 179.678C18.0248 179.698 17.9922 179.727 17.9666 179.761C17.9409 179.794 17.9229 179.834 17.9135 179.875C17.9042 179.917 17.9038 179.96 17.9125 180.001C17.9211 180.043 17.9385 180.082 17.9636 180.117C17.9886 180.151 18.0207 180.18 18.0577 180.201C18.0947 180.222 18.1358 180.235 18.1782 180.238C20.8627 180.836 28.6432 184.138 33.8822 191.119C31.7471 190.399 29.4862 190.128 27.2413 190.322C24.9964 190.517 22.8159 191.173 20.8367 192.25C20.7708 192.293 20.7243 192.36 20.7073 192.436C20.6903 192.513 20.7041 192.593 20.7457 192.66C20.7729 192.699 20.8087 192.732 20.8503 192.756C20.892 192.779 20.9384 192.793 20.9862 192.796C21.0467 192.798 21.1062 192.78 21.1552 192.744C23.1836 191.648 25.4274 191.008 27.7292 190.87C30.031 190.732 32.3351 191.099 34.4802 191.945C37.602 196.414 39.1666 201.786 38.9327 207.233C38.9289 207.307 38.9537 207.38 39.002 207.437C39.0504 207.494 39.1186 207.53 39.1927 207.538C39.2709 207.54 39.3467 207.511 39.4038 207.458C39.4609 207.404 39.4948 207.331 39.4982 207.252C39.7468 201.673 38.15 196.168 34.9547 191.587Z" fill="white"/>
<path d="M282.483 210.255C282.372 201.805 282.528 194.005 286.818 182.006C290.413 171.925 299.656 161.759 305.896 162.188C311.713 162.591 313 169.734 307.768 176.091C302.535 182.448 291.141 194.61 290.439 203.391L288.209 213.356L282.483 210.255Z" fill="#E0E0E0"/>
<path d="M285.064 208.123C285.142 208.102 285.212 208.057 285.264 207.994C285.315 207.931 285.345 207.853 285.35 207.772C286.26 188.116 297.238 171.736 306.397 166.698C306.483 166.65 306.546 166.57 306.573 166.475C306.6 166.38 306.588 166.278 306.54 166.191C306.491 166.105 306.411 166.042 306.316 166.015C306.221 165.988 306.119 166 306.033 166.048C296.725 171.164 285.525 187.81 284.583 207.739C284.58 207.788 284.587 207.837 284.603 207.883C284.619 207.929 284.645 207.971 284.677 208.007C284.71 208.044 284.749 208.073 284.793 208.094C284.837 208.115 284.885 208.127 284.934 208.129L285.064 208.123Z" fill="white"/>
<path d="M290.355 214.545C290.712 211.581 293.429 206.349 298.408 201.584C303.92 196.319 311.447 193.102 312.708 189.481C314.242 185.139 310.4 182.819 304.05 184.177C296.412 185.809 287.949 194.545 286.5 212.394L290.355 214.545Z" fill="#EBEBEB"/>
<path d="M288.645 211.77C288.715 211.753 288.779 211.717 288.829 211.665C288.878 211.613 288.912 211.548 288.925 211.477C291.843 195.877 302.269 188.903 307.378 187.388C307.472 187.36 307.551 187.295 307.597 187.209C307.644 187.122 307.654 187.021 307.625 186.927C307.613 186.879 307.591 186.835 307.56 186.796C307.53 186.757 307.492 186.725 307.449 186.701C307.406 186.678 307.358 186.663 307.309 186.658C307.26 186.653 307.211 186.658 307.164 186.673C301.522 188.344 291.174 195.416 288.19 211.334C288.181 211.382 288.181 211.432 288.191 211.48C288.201 211.528 288.221 211.574 288.249 211.615C288.276 211.655 288.312 211.69 288.353 211.716C288.395 211.743 288.441 211.761 288.489 211.77C288.541 211.783 288.594 211.783 288.645 211.77Z" fill="white"/>
<path d="M60.9102 296.907C5.66016 265.011 5.66016 213.291 60.9102 181.389C116.16 149.487 205.743 149.493 260.993 181.389C316.243 213.284 316.243 265.011 260.993 296.907C205.743 328.802 116.16 328.809 60.9102 296.907Z" fill="#FAFAFA"/>
<path d="M169.648 273.377L184.773 264.641C184.871 264.608 184.956 264.545 185.016 264.461C185.077 264.377 185.109 264.276 185.109 264.173C185.109 264.07 185.077 263.969 185.016 263.885C184.956 263.801 184.871 263.738 184.773 263.705L181.068 261.566C180.817 261.438 180.538 261.371 180.256 261.371C179.973 261.371 179.695 261.438 179.443 261.566L164.318 270.302C164.22 270.336 164.135 270.398 164.074 270.482C164.014 270.566 163.982 270.667 163.982 270.77C163.982 270.874 164.014 270.974 164.074 271.058C164.135 271.142 164.22 271.205 164.318 271.238L166.17 272.304L147.177 283.27C146.729 283.53 146.917 283.614 147.125 283.738C147.333 283.861 147.489 283.965 147.938 283.738L166.924 272.779L168.016 273.429C168.273 273.55 168.554 273.609 168.838 273.6C169.122 273.591 169.399 273.514 169.648 273.377Z" fill="#E0E0E0"/>
<path d="M163.935 256.613C162.754 256.637 161.587 256.355 160.548 255.794L160.243 255.599L159.684 255.202L164.448 254.507L164.877 253.61L163.577 252.856L159.027 253.506L159.177 253.077C159.449 252.428 159.945 251.897 160.574 251.582C161.598 251.039 162.744 250.766 163.902 250.789C164.415 250.787 164.927 250.835 165.43 250.932L180.952 241.975C180.764 241.584 180.718 241.141 180.822 240.72C180.937 240.359 181.124 240.026 181.372 239.74C181.62 239.454 181.924 239.221 182.265 239.056C183.292 238.515 184.439 238.243 185.599 238.263C186.781 238.238 187.948 238.523 188.986 239.089C189.091 239.148 189.193 239.214 189.291 239.284L189.85 239.674L185.086 240.369L184.657 241.273L185.957 242.027L190.507 241.377L190.357 241.799C190.085 242.45 189.59 242.983 188.96 243.301C187.935 243.841 186.79 244.114 185.632 244.094C185.119 244.094 184.607 244.044 184.104 243.944L168.582 252.908C168.77 253.296 168.816 253.737 168.712 254.156C168.598 254.517 168.411 254.851 168.163 255.137C167.915 255.423 167.611 255.656 167.269 255.82C166.243 256.364 165.096 256.637 163.935 256.613Z" fill="#E0E0E0"/>
<path d="M98.526 290.433C125.913 290.433 148.114 277.614 148.114 261.8C148.114 245.987 125.913 233.168 98.526 233.168C71.139 233.168 48.9375 245.987 48.9375 261.8C48.9375 277.614 71.139 290.433 98.526 290.433Z" fill="#E0E0E0"/>
<path d="M179.68 263.445L245.486 225.452L282.25 246.675L216.444 284.667L179.68 263.445Z" fill="#E0E0E0"/>
<path d="M162.702 241.306L137.033 226.486C136.104 225.953 136.104 225.075 137.033 224.536L178.542 200.577C179.066 200.311 179.645 200.172 180.232 200.172C180.819 200.172 181.398 200.311 181.922 200.577L207.591 215.39C208.52 215.93 208.52 216.807 207.591 217.34L166.082 241.306C165.558 241.572 164.979 241.71 164.392 241.71C163.804 241.71 163.225 241.572 162.702 241.306Z" fill="#E0E0E0"/>
<path d="M164.391 238.837V217.497L137.988 202.248L140.627 225.115L164.391 238.837Z" fill="#263238"/>
<path d="M164.391 238.837L203.995 215.97L206.634 193.103L164.391 217.497V238.837Z" fill="#37474F"/>
<path d="M136.336 197.678C136.355 197.469 136.43 197.268 136.552 197.097C136.674 196.926 136.84 196.79 137.031 196.703L178.54 172.738C179.064 172.472 179.643 172.333 180.23 172.333C180.818 172.333 181.397 172.472 181.92 172.738L207.589 187.558C207.781 187.644 207.947 187.779 208.069 187.951C208.191 188.122 208.266 188.323 208.284 188.533V194.63C208.267 194.841 208.193 195.043 208.071 195.215C207.948 195.388 207.782 195.525 207.589 195.611L166.08 219.57C165.556 219.836 164.977 219.975 164.39 219.975C163.803 219.975 163.224 219.836 162.7 219.57L137.031 204.75C136.84 204.663 136.675 204.527 136.553 204.356C136.431 204.185 136.356 203.985 136.336 203.775V197.678Z" fill="#1A1D1F"/>
<path opacity="0.2" d="M137.031 196.703L164.39 180.908V219.98C163.801 219.991 163.219 219.85 162.7 219.57L137.031 204.75C136.84 204.663 136.675 204.527 136.553 204.356C136.431 204.185 136.356 203.985 136.336 203.775V197.672C136.356 197.463 136.431 197.264 136.554 197.094C136.676 196.924 136.841 196.789 137.031 196.703Z" fill="black"/>
<path opacity="0.1" d="M164.391 180.908L178.541 172.738C179.065 172.472 179.644 172.333 180.231 172.333C180.818 172.333 181.397 172.472 181.921 172.738L207.59 187.558C207.782 187.644 207.948 187.779 208.07 187.951C208.192 188.122 208.266 188.323 208.285 188.533V194.63C208.268 194.841 208.194 195.043 208.071 195.215C207.949 195.388 207.783 195.525 207.59 195.611L166.081 219.57C165.562 219.85 164.98 219.991 164.391 219.98V180.908Z" fill="black"/>
<path d="M162.702 213.473L137.033 198.653C136.104 198.114 136.104 197.243 137.033 196.703L178.542 172.738C179.066 172.472 179.645 172.333 180.232 172.333C180.819 172.333 181.398 172.472 181.922 172.738L207.591 187.558C208.52 188.097 208.52 188.968 207.591 189.508L166.082 213.473C165.558 213.739 164.979 213.878 164.392 213.878C163.804 213.878 163.225 213.739 162.702 213.473Z" fill="#1A1D1F"/>
<path opacity="0.2" d="M200.037 189.293C200.765 189.716 200.726 190.418 199.946 190.866L171.079 207.539C170.66 207.761 170.194 207.88 169.72 207.888C169.245 207.896 168.776 207.792 168.349 207.584C167.621 207.168 167.66 206.46 168.44 206.011L197.307 189.345C197.726 189.123 198.191 189.002 198.665 188.993C199.14 188.984 199.61 189.087 200.037 189.293Z" fill="black"/>
<path opacity="0.2" d="M171.08 207.538C170.661 207.76 170.195 207.88 169.72 207.888C169.246 207.896 168.777 207.792 168.35 207.584L168.207 207.486C168.28 207.426 168.358 207.371 168.441 207.324L197.308 190.658C197.726 190.435 198.192 190.314 198.666 190.305C199.141 190.296 199.61 190.399 200.038 190.606L200.181 190.71C200.107 190.769 200.029 190.821 199.947 190.866L171.08 207.538Z" fill="black"/>
<path opacity="0.2" d="M178.914 177.099C179.648 177.515 179.609 178.224 178.829 178.672L149.956 195.338C149.538 195.561 149.074 195.682 148.601 195.691C148.127 195.7 147.659 195.597 147.233 195.39C146.505 194.968 146.544 194.266 147.317 193.817L176.19 177.145C176.608 176.923 177.073 176.803 177.546 176.795C178.02 176.787 178.488 176.892 178.914 177.099Z" fill="black"/>
<path opacity="0.2" d="M149.956 195.338C149.539 195.561 149.074 195.681 148.601 195.69C148.128 195.7 147.659 195.597 147.233 195.39C147.182 195.361 147.134 195.326 147.09 195.286C147.162 195.229 147.238 195.177 147.317 195.13L176.19 178.464C176.608 178.24 177.072 178.118 177.546 178.109C178.019 178.1 178.488 178.204 178.914 178.412C178.964 178.441 179.011 178.474 179.057 178.509C178.986 178.57 178.91 178.625 178.829 178.672L149.956 195.338Z" fill="black"/>
<path opacity="0.2" d="M152.502 196.951C151.774 197.373 151.813 198.075 152.593 198.524L162.993 204.517C163.41 204.739 163.875 204.86 164.348 204.869C164.821 204.878 165.29 204.775 165.716 204.569C166.444 204.146 166.405 203.444 165.632 202.996L155.232 197.003C154.813 196.78 154.347 196.659 153.873 196.65C153.398 196.641 152.929 196.744 152.502 196.951Z" fill="black"/>
<path opacity="0.2" d="M162.987 204.484C163.405 204.707 163.869 204.827 164.342 204.836C164.816 204.845 165.284 204.742 165.71 204.536C165.76 204.506 165.808 204.474 165.853 204.438C165.783 204.378 165.706 204.323 165.626 204.276L155.226 198.283C154.807 198.06 154.341 197.939 153.867 197.93C153.393 197.921 152.923 198.024 152.496 198.231C152.448 198.262 152.402 198.297 152.359 198.335C152.429 198.395 152.506 198.447 152.587 198.491L162.987 204.484Z" fill="black"/>
<path opacity="0.2" d="M147.233 199.966C146.505 200.382 146.544 201.091 147.317 201.539L157.717 207.532C158.136 207.755 158.602 207.876 159.076 207.885C159.55 207.894 160.02 207.791 160.447 207.584C161.175 207.162 161.136 206.453 160.356 206.005L149.956 200.012C149.538 199.79 149.073 199.67 148.6 199.663C148.127 199.655 147.658 199.759 147.233 199.966Z" fill="black"/>
<path opacity="0.2" d="M157.71 207.532C158.128 207.755 158.594 207.875 159.068 207.884C159.543 207.893 160.012 207.79 160.44 207.584C160.492 207.551 160.531 207.512 160.576 207.48C160.505 207.419 160.429 207.365 160.349 207.317L149.949 201.324C149.53 201.103 149.066 200.983 148.592 200.975C148.119 200.967 147.65 201.071 147.225 201.279C147.174 201.306 147.126 201.339 147.082 201.376C147.153 201.437 147.229 201.492 147.31 201.539L157.71 207.532Z" fill="black"/>
<path opacity="0.2" d="M184.192 178.626C183.464 179.049 183.497 179.751 184.277 180.199L194.677 186.192C195.094 186.415 195.559 186.536 196.032 186.545C196.505 186.554 196.974 186.451 197.4 186.244C198.135 185.822 198.096 185.12 197.316 184.671L186.916 178.678C186.498 178.456 186.033 178.335 185.56 178.326C185.087 178.317 184.618 178.42 184.192 178.626Z" fill="black"/>
<path opacity="0.2" d="M194.67 186.193C195.089 186.416 195.555 186.536 196.029 186.545C196.504 186.554 196.973 186.451 197.4 186.245C197.449 186.214 197.494 186.179 197.537 186.141C197.466 186.082 197.39 186.03 197.309 185.985L186.909 179.992C186.492 179.769 186.027 179.648 185.554 179.639C185.081 179.63 184.612 179.733 184.186 179.94C184.136 179.969 184.089 180.002 184.043 180.037C184.114 180.098 184.19 180.153 184.27 180.2L194.67 186.193Z" fill="black"/>
<path opacity="0.2" d="M178.912 181.669C178.184 182.091 178.223 182.8 178.997 183.248L189.397 189.241C189.816 189.462 190.282 189.581 190.756 189.591C191.23 189.6 191.699 189.498 192.127 189.293C192.855 188.871 192.816 188.162 192.036 187.714L181.636 181.721C181.217 181.501 180.753 181.382 180.28 181.373C179.808 181.364 179.339 181.465 178.912 181.669Z" fill="black"/>
<path opacity="0.2" d="M189.392 189.241C189.811 189.462 190.277 189.582 190.751 189.591C191.225 189.6 191.694 189.498 192.122 189.293L192.265 189.189C192.192 189.128 192.113 189.074 192.031 189.027L181.631 183.034C181.211 182.813 180.746 182.693 180.272 182.684C179.798 182.675 179.328 182.777 178.901 182.982L178.758 183.086C178.83 183.145 178.906 183.199 178.985 183.248L189.392 189.241Z" fill="black"/>
<path d="M161.754 191.783V197.678L164.393 199.206L167.032 197.678V193.206C167.059 192.718 167.2 192.244 167.444 191.82C167.687 191.397 168.027 191.037 168.436 190.769L174.936 187.005L176.171 186.297C176.944 185.848 177.575 186.212 177.575 187.109V191.581L180.214 190.054V184.158C180.221 184.041 180.221 183.924 180.214 183.807C180.208 183.718 180.195 183.628 180.175 183.541C180.157 183.439 180.131 183.339 180.097 183.242C180.071 183.164 180.04 183.088 180.006 183.014C179.97 182.94 179.929 182.868 179.882 182.8C179.84 182.733 179.792 182.67 179.739 182.611C179.69 182.554 179.636 182.502 179.577 182.455C179.52 182.41 179.459 182.371 179.395 182.338L179.31 182.293L176.769 180.824C176.451 180.675 176.1 180.615 175.751 180.649C175.402 180.683 175.069 180.811 174.786 181.019L164.575 186.914C163.754 187.446 163.071 188.164 162.581 189.011C162.091 189.857 161.807 190.806 161.754 191.783Z" fill="#455A64"/>
<path d="M174.949 187.006V190.048L177.588 191.575V187.103C177.588 186.206 176.938 185.842 176.184 186.291L174.949 187.006Z" fill="#263238"/>
<path d="M164.391 193.304V199.206L167.03 197.678V193.206C167.056 192.718 167.197 192.244 167.441 191.82C167.685 191.397 168.025 191.037 168.434 190.769L174.934 187.012L176.169 186.303C176.942 185.855 177.573 186.219 177.573 187.116V191.588L180.212 190.067V184.165C180.218 184.048 180.218 183.931 180.212 183.814C180.206 183.724 180.193 183.635 180.173 183.547C180.154 183.446 180.128 183.346 180.095 183.248C180.068 183.171 180.038 183.095 180.004 183.021C179.968 182.946 179.926 182.875 179.88 182.806C179.838 182.739 179.79 182.676 179.737 182.618C179.688 182.561 179.633 182.509 179.575 182.462C179.518 182.417 179.457 182.377 179.393 182.345L179.308 182.299C178.998 182.183 178.663 182.145 178.335 182.188C178.006 182.231 177.693 182.354 177.423 182.546L167.212 188.442C166.393 188.975 165.712 189.692 165.222 190.537C164.732 191.381 164.447 192.329 164.391 193.304Z" fill="#37474F"/>
<path d="M177.593 219.018L176.618 218.459L173.973 219.98L174.954 220.545L177.593 219.018Z" fill="#455A64"/>
<path d="M174.954 220.545L173.979 233.304L173.973 219.979L174.954 220.545Z" fill="#263238"/>
<path d="M177.592 219.018L176.617 231.777L176.936 231.628L177.592 219.018Z" fill="#37474F"/>
<path d="M155.492 221.507L156.467 220.941L159.106 222.462L158.131 223.028L155.492 221.507Z" fill="#455A64"/>
<path d="M155.492 221.507L156.467 234.26L156.149 234.11L155.492 221.507Z" fill="black"/>
<path d="M144.93 215.404L145.911 214.845L148.55 216.366L147.569 216.931L144.93 215.404Z" fill="#455A64"/>
<path d="M159.108 235.788L158.133 223.028L159.108 222.463V235.788Z" fill="#37474F"/>
<path d="M148.552 216.365V229.69L147.57 216.931L148.552 216.365Z" fill="#37474F"/>
<path d="M144.93 215.403L145.905 228.163L145.586 228.013L144.93 215.403Z" fill="black"/>
<path d="M196.071 208.352L195.096 207.786L192.457 209.307L193.432 209.873L196.071 208.352Z" fill="#455A64"/>
<path d="M193.432 209.872L192.457 222.632V209.307L193.432 209.872Z" fill="#263238"/>
<path d="M196.073 208.352L195.098 221.111L195.423 220.955L196.073 208.352Z" fill="#37474F"/>
<path d="M172.555 216.853L172.561 213.804L177.839 210.756L178.723 211.263L178.717 214.311L173.432 217.36L172.555 216.853Z" fill="#37474F"/>
<path d="M178.725 211.264L178.718 214.312L173.434 217.361L173.447 214.312L178.725 211.264Z" fill="#455A64"/>
<path d="M173.445 214.312L172.561 213.805L172.555 216.853L173.432 217.36L173.445 214.312Z" fill="#263238"/>
<path d="M191.18 206.109L191.193 203.06L196.471 200.012L197.355 200.519L197.342 203.567L192.064 206.616L191.18 206.109Z" fill="#37474F"/>
<path d="M197.353 200.519L197.34 203.567L192.062 206.616L192.069 203.567L197.353 200.519Z" fill="#455A64"/>
<path d="M192.07 203.568L191.193 203.061L191.18 206.109L192.064 206.616L192.07 203.568Z" fill="#263238"/>
<path d="M160.804 251.394C160.447 251.596 159.777 251.589 159.562 251.83V252.707L163.644 252.116L165.185 253.019L164.6 254.248L160.479 253.968V254.846C160.566 254.911 160.658 254.972 160.752 255.028C161.727 255.521 162.805 255.778 163.898 255.778C164.991 255.778 166.069 255.521 167.044 255.028C167.403 254.866 167.713 254.612 167.942 254.291C168.17 253.97 168.309 253.594 168.344 253.201V252.324L168.103 252.363C168.101 252.347 168.101 252.332 168.103 252.317L183.548 243.399C185.118 243.747 186.76 243.541 188.195 242.814C188.75 242.542 189.19 242.081 189.437 241.514V240.63L185.355 242.106L183.814 241.202L184.399 239.974L188.52 239.376V238.492C188.52 238.492 183.704 238.173 181.949 239.142C181.504 239.375 181.129 239.723 180.863 240.149L180.629 240.065V240.936C180.626 241.261 180.719 241.579 180.895 241.852L165.451 250.77C163.877 250.434 162.234 250.654 160.804 251.394Z" fill="#37474F"/>
<path d="M183.546 243.425V242.548L168.102 251.466V252.343L183.546 243.425Z" fill="#37474F"/>
<path d="M180.895 241.014L165.451 249.932C163.882 249.584 162.24 249.789 160.804 250.51C160.249 250.782 159.809 251.243 159.562 251.81L163.644 251.219L165.185 252.122L164.6 253.344L160.479 253.949C160.566 254.015 160.658 254.076 160.752 254.131C161.727 254.624 162.805 254.881 163.898 254.881C164.991 254.881 166.069 254.624 167.044 254.131C168.344 253.403 168.682 252.337 168.103 251.42L183.548 242.502C185.118 242.847 186.759 242.641 188.195 241.917C188.75 241.645 189.19 241.185 189.437 240.617L185.355 241.215L183.814 240.312L184.399 239.083L188.52 238.479L188.247 238.303C187.272 237.81 186.194 237.553 185.101 237.553C184.008 237.553 182.93 237.81 181.955 238.303C180.7 239.031 180.317 240.097 180.895 241.014Z" fill="#455A64"/>
<path d="M184.137 240.526L183.812 240.338L184.397 239.109L188.518 238.505V239.389L184.397 239.987L184.137 240.526Z" fill="#263238"/>
<path d="M164.86 252.824L165.185 252.141L163.644 251.231L159.562 251.829V252.713L163.644 252.115L164.86 252.824Z" fill="#263238"/>
<path d="M170.254 264.368L173.504 269.958L184.398 263.673C184.65 263.516 184.852 263.292 184.981 263.024C185.11 262.757 185.16 262.459 185.126 262.165C185.083 261.371 184.854 260.599 184.456 259.911C184.059 259.223 183.504 258.639 182.838 258.206C182.608 258.038 182.337 257.935 182.053 257.908C181.77 257.88 181.484 257.929 181.226 258.05L170.254 264.368Z" fill="#1A1D1F"/>
<path d="M169.603 265.525C169.558 266.376 168.355 266.558 168.355 266.558L170.637 270.517C170.637 270.517 171.397 269.581 172.158 269.951C173.282 270.439 174.16 269.834 174.16 268.489C174.116 267.697 173.886 266.926 173.489 266.239C173.091 265.552 172.537 264.969 171.872 264.537C170.702 263.854 169.74 264.309 169.603 265.525Z" fill="#1A1D1F"/>
<path opacity="0.05" d="M169.603 265.525C169.558 266.376 168.355 266.558 168.355 266.558L170.637 270.517C170.637 270.517 171.397 269.581 172.158 269.951C173.282 270.439 174.16 269.834 174.16 268.489C174.116 267.697 173.886 266.926 173.489 266.239C173.091 265.552 172.537 264.969 171.872 264.537C170.702 263.854 169.74 264.309 169.603 265.525Z" fill="black"/>
<path opacity="0.05" d="M168.898 266.39C168.723 266.468 168.54 266.525 168.352 266.559L170.633 270.517C170.759 270.374 170.901 270.245 171.056 270.134C170.99 269.39 170.764 268.67 170.391 268.023C170.018 267.376 169.508 266.819 168.898 266.39Z" fill="black"/>
<path d="M165.973 266.838L166.161 267.169C166.096 267.4 166.063 267.638 166.064 267.878C166.107 268.671 166.337 269.443 166.735 270.13C167.132 270.818 167.686 271.403 168.352 271.836C168.554 271.958 168.773 272.048 169.002 272.103L169.19 272.434L169.951 271.999C170.181 271.832 170.362 271.606 170.476 271.346C170.59 271.085 170.633 270.799 170.601 270.517C170.558 269.724 170.33 268.953 169.933 268.265C169.537 267.577 168.984 266.992 168.319 266.558C168.088 266.391 167.816 266.288 167.531 266.26C167.247 266.233 166.96 266.282 166.701 266.402L165.973 266.838Z" fill="#1A1D1F"/>
<path d="M169.87 270.959C169.828 270.166 169.599 269.395 169.203 268.707C168.806 268.019 168.253 267.435 167.589 267.001C166.328 266.273 165.301 266.864 165.301 268.301C165.345 269.093 165.576 269.865 165.973 270.552C166.371 271.24 166.924 271.824 167.589 272.259C168.85 273 169.87 272.415 169.87 270.959Z" fill="#1A1D1F"/>
<path opacity="0.15" d="M169.87 270.959C169.828 270.166 169.599 269.395 169.203 268.707C168.806 268.019 168.253 267.435 167.589 267.001C166.328 266.273 165.301 266.864 165.301 268.301C165.345 269.093 165.576 269.865 165.973 270.552C166.371 271.24 166.924 271.824 167.589 272.259C168.85 273 169.87 272.415 169.87 270.959Z" fill="black"/>
<path opacity="0.15" d="M166.699 271.551C166.868 271.74 167.058 271.91 167.265 272.058L167.798 270.537L167.148 270.062L166.699 271.551Z" fill="black"/>
<path opacity="0.2" d="M183.244 260.598C183.321 260.744 183.34 260.914 183.296 261.074C183.253 261.233 183.15 261.37 183.01 261.456L175.21 265.948C175.064 266.028 174.893 266.049 174.732 266.006C174.571 265.964 174.433 265.862 174.345 265.72C174.268 265.574 174.249 265.404 174.292 265.245C174.336 265.086 174.438 264.949 174.579 264.862L182.379 260.371C182.525 260.291 182.696 260.27 182.857 260.312C183.018 260.355 183.156 260.457 183.244 260.598Z" fill="black"/>
<path opacity="0.2" d="M181.84 258.927C181.9 258.958 181.95 259.004 181.986 259.061C182.021 259.119 182.04 259.185 182.04 259.252C182.04 259.32 182.021 259.386 181.986 259.443C181.95 259.5 181.9 259.547 181.84 259.577L173.91 264.127C173.763 264.198 173.598 264.226 173.436 264.208C173.274 264.189 173.12 264.125 172.993 264.023C172.933 263.993 172.882 263.946 172.847 263.889C172.812 263.832 172.793 263.766 172.793 263.698C172.793 263.631 172.812 263.565 172.847 263.507C172.882 263.45 172.933 263.404 172.993 263.373L180.917 258.823C181.064 258.751 181.23 258.722 181.393 258.741C181.557 258.759 181.712 258.824 181.84 258.927Z" fill="black"/>
<path opacity="0.2" d="M183.991 262.652C183.989 262.586 183.969 262.522 183.935 262.467C183.9 262.411 183.851 262.366 183.792 262.335C183.734 262.305 183.669 262.29 183.603 262.293C183.538 262.296 183.474 262.317 183.419 262.353L175.489 266.903C175.354 266.995 175.248 267.123 175.183 267.272C175.117 267.421 175.095 267.586 175.119 267.748C175.121 267.813 175.14 267.877 175.175 267.933C175.21 267.988 175.259 268.034 175.317 268.064C175.375 268.095 175.441 268.109 175.506 268.106C175.572 268.103 175.635 268.082 175.691 268.047L183.621 263.497C183.755 263.404 183.86 263.276 183.926 263.127C183.991 262.978 184.014 262.813 183.991 262.652Z" fill="black"/>
<path d="M147.551 280.183V281.704L151.36 280.469C151.736 279.758 152.253 279.132 152.881 278.629L167.35 270.277L167.792 269.009L167.35 268.756L152.881 277.108C152.642 277.229 152.376 277.285 152.109 277.27C151.842 277.255 151.583 277.17 151.36 277.024L147.551 280.183Z" fill="#455A64"/>
<path d="M148 280.442V281.963L151.809 280.728C152.183 280.017 152.701 279.39 153.33 278.889L167.799 270.536V269.009L153.33 277.361C153.092 277.484 152.826 277.541 152.559 277.527C152.292 277.514 152.033 277.429 151.809 277.283L148 280.442Z" fill="#37474F"/>
<path d="M148.001 281.964L147.559 281.704V280.183L148.001 280.443V281.964Z" fill="#263238"/>
<path d="M147.559 280.182L148.001 280.442L151.81 277.283L151.368 277.023L147.559 280.182Z" fill="#455A64"/>
<path d="M201.778 84.4613H168.277C168.147 84.4613 168.023 84.41 167.932 84.3185C167.84 84.2271 167.789 84.1031 167.789 83.9738C167.789 83.8445 167.84 83.7205 167.932 83.6291C168.023 83.5377 168.147 83.4863 168.277 83.4863H201.778C201.907 83.4863 202.031 83.5377 202.122 83.6291C202.214 83.7205 202.265 83.8445 202.265 83.9738C202.265 84.1031 202.214 84.2271 202.122 84.3185C202.031 84.41 201.907 84.4613 201.778 84.4613Z" fill="#37474F"/>
<path d="M124.798 106.126C121.58 99.9831 116.387 86.7101 116.387 86.7101L116.497 68.8936C116.367 68.8936 118.902 69.6606 119.676 69.8426C124.694 71.6951 126.078 72.5791 128.23 76.9926C129.939 80.5091 135.698 96.5446 137.746 101.972L149.998 93.2556C153.086 90.6556 153.807 86.9506 155.692 84.6431C157.577 82.3356 159.716 81.6986 161.848 79.7421C163.98 77.7856 164.786 76.3296 165.605 77.8961C166.424 79.4626 164.097 82.3421 163.694 83.0376C163.414 83.5316 162.706 83.8956 162.543 84.4481C162.277 85.3971 163.687 85.2476 164.292 85.0981C167.282 84.4481 169.999 81.9261 171.845 79.6186C172.566 78.7151 175.199 75.2051 175.868 78.0391C176.414 80.3466 174.516 81.8221 174.38 83.9476C174.314 85.125 174.004 86.276 173.47 87.3276C173.021 88.2896 173.229 89.4076 172.911 90.4151C171.929 93.5481 169.44 94.6206 166.547 95.6151C163.655 96.6096 160.528 97.2921 158.13 99.1381C155.218 101.387 148.178 108.966 143.895 113.523C138.454 119.314 134.866 120.673 131.681 117.26C128.496 113.848 126.013 108.401 124.798 106.126Z" fill="#FFA8A7"/>
<path d="M175.888 78.0718C175.238 75.2378 172.586 78.7218 171.865 79.6513C170.019 81.9588 167.315 84.4808 164.312 85.1308C163.707 85.2608 162.297 85.4103 162.563 84.4808C162.726 83.9283 163.434 83.5643 163.714 83.0703C164.117 82.3748 166.444 79.4888 165.625 77.9288C164.806 76.3688 164.006 77.8118 161.868 79.7748C159.729 81.7378 157.597 82.3748 155.712 84.6758C153.827 86.9768 153.112 90.6948 150.018 93.2883L149.18 93.8863C149.687 97.3118 151.78 100.666 154.815 102.206C156.154 100.906 157.324 99.8208 158.15 99.1773C160.548 97.3313 163.753 96.5773 166.567 95.6543C169.382 94.7313 171.949 93.6003 172.931 90.4543C173.249 89.4468 173.041 88.3288 173.49 87.3668C174.024 86.3152 174.334 85.1643 174.4 83.9868C174.536 81.8548 176.434 80.3793 175.888 78.0718Z" fill="#455A64"/>
<path d="M150.65 92.6899C150.591 93.8209 151.222 96.8369 152.658 98.4424C153.635 99.4769 154.815 100.3 156.123 100.86L156.643 100.457C156.643 100.457 157.137 100.509 155.811 101.842C154.485 103.174 154.173 103.668 153.432 103.558C152.691 103.447 150.598 102.258 149.181 100.054C148.15 98.5035 147.539 96.7119 147.406 94.8544C147.445 94.2044 148.355 93.7364 149.181 93.1384C150.006 92.5404 150.864 91.5459 151.326 91.9424L150.65 92.6899Z" fill="#1A1D1F"/>
<path opacity="0.2" d="M150.65 92.6899C150.591 93.8209 151.222 96.8369 152.658 98.4424C153.635 99.4769 154.815 100.3 156.123 100.86L156.643 100.457C156.643 100.457 157.137 100.509 155.811 101.842C154.485 103.174 154.173 103.668 153.432 103.558C152.691 103.447 150.598 102.258 149.181 100.054C148.15 98.5035 147.539 96.7119 147.406 94.8544C147.445 94.2044 148.355 93.7364 149.181 93.1384C150.006 92.5404 150.864 91.5459 151.326 91.9424L150.65 92.6899Z" fill="black"/>
<path d="M118.078 69.1865C121.36 69.947 123.927 71.1885 125.487 72.5145C127.892 74.5945 128.991 77.838 130.629 82.2645C132.267 86.691 136.479 97.4745 136.479 97.4745C131.604 99.0263 127.45 102.282 124.779 106.646L113.625 83.4345L118.078 69.1865Z" fill="#E0E0E0"/>
<path d="M137.799 101.985C135.636 103.075 133.883 104.835 132.801 107.003C132.801 107.003 132.801 103.421 137.351 100.743L137.799 101.985Z" fill="#F28F8F"/>
<path d="M80.3525 71.0579C80.3525 71.0579 76.537 74.4119 75.562 78.0389C75.0875 79.8199 74.6455 81.2889 76.1535 91.1949C77.59 100.639 78.6105 100.639 79.345 107.841L78.292 125.866C83.9405 132.483 110.318 135.85 123.513 126.938C123.513 126.938 124.085 99.5734 123.155 88.3024C122.505 80.6389 119.288 72.7804 118.079 69.1859C114.491 68.5359 111.039 68.1459 111.039 68.1459L97.844 67.3789L80.3525 71.0579Z" fill="#FAFAFA"/>
<path d="M117.254 44.0441C118.983 40.0661 117.286 34.7881 115.213 32.3116C112.216 28.7301 107.556 27.1831 100.523 27.6186C95.1796 27.9501 89.9211 30.1731 88.9201 35.6591C84.6301 36.9591 85.1176 43.9921 86.1836 47.1056C88.3546 53.4236 92.6186 58.9161 92.6836 62.1466L117.254 44.0441Z" fill="#37474F"/>
<path d="M117.246 58.8961C116.401 61.9446 114.646 64.1806 111.819 64.6226C110.338 64.7621 108.847 64.7621 107.366 64.6226L107.477 68.5226C113.327 75.9261 99.6376 77.4276 92.8776 69.3156L92.4746 56.2051C92.4746 56.2051 90.7521 58.1551 87.9246 56.3091C86.7745 55.4606 85.9524 54.2413 85.5972 52.8569C85.2419 51.4726 85.3752 50.0081 85.9746 48.7106C87.3851 45.7401 90.2061 46.9686 91.0771 47.8721C91.9481 48.7756 92.9556 50.4721 93.6771 50.2381C94.0939 50.1085 94.4719 49.8772 94.7771 49.5652C95.0824 49.2532 95.3052 48.8702 95.4256 48.4506C96.0819 46.6012 96.3926 44.6469 96.3421 42.6851C97.1773 42.2583 97.9266 41.681 98.5521 40.9821C99.6939 39.7813 100.383 38.2213 100.502 36.5686C106.593 34.6641 113.6 35.5611 116.102 37.5241C117.558 40.0916 117.617 46.0586 117.857 49.4971C118.124 53.2346 117.955 56.3481 117.246 58.8961Z" fill="#FFA8A7"/>
<path d="M107.366 64.6427C104.246 64.4672 97.974 63.0112 96.3165 61.2757C94.659 59.5402 93.9375 55.9717 93.9375 55.9717C93.9375 55.9717 94.1845 60.4697 95.478 62.4717C96.7715 64.4737 100.028 65.3252 101.978 65.8192C103.771 66.1917 105.583 66.4652 107.406 66.6382L107.366 64.6427Z" fill="#F28F8F"/>
<path d="M105.389 47.5082C105.389 47.8452 105.259 48.1692 105.025 48.4117C104.79 48.6542 104.471 48.7964 104.135 48.8082C103.876 48.8172 103.62 48.7488 103.4 48.6116C103.181 48.4743 103.007 48.2746 102.902 48.038C102.796 47.8014 102.764 47.5387 102.809 47.2836C102.854 47.0285 102.974 46.7926 103.154 46.6063C103.333 46.4199 103.565 46.2915 103.818 46.2375C104.072 46.1835 104.335 46.2065 104.575 46.3034C104.816 46.4003 105.021 46.5668 105.166 46.7814C105.311 46.9961 105.389 47.2492 105.389 47.5082Z" fill="#263238"/>
<path d="M103.629 43.4786L101.075 45.2011C100.85 44.8494 100.77 44.4245 100.851 44.0151C100.932 43.6057 101.169 43.2435 101.51 43.0041C101.679 42.8915 101.869 42.8144 102.069 42.7773C102.268 42.7402 102.473 42.7439 102.671 42.7882C102.869 42.8326 103.056 42.9166 103.221 43.0353C103.386 43.154 103.525 43.3048 103.629 43.4786Z" fill="#263238"/>
<path d="M116.024 44.2846L113.223 42.9456C113.301 42.7589 113.416 42.59 113.561 42.4492C113.707 42.3085 113.879 42.1989 114.068 42.1271C114.258 42.0553 114.459 42.0228 114.662 42.0317C114.864 42.0406 115.062 42.0906 115.244 42.1786C115.618 42.3642 115.907 42.6855 116.052 43.0769C116.197 43.4683 116.187 43.9003 116.024 44.2846Z" fill="#263238"/>
<path d="M115.049 47.0598C115.041 47.3074 114.961 47.5472 114.818 47.7494C114.674 47.9516 114.475 48.1071 114.244 48.1966C114.013 48.2861 113.761 48.3056 113.519 48.2526C113.277 48.1996 113.056 48.0766 112.883 47.8987C112.711 47.7209 112.594 47.4963 112.549 47.2528C112.503 47.0093 112.53 46.7578 112.627 46.5296C112.723 46.3015 112.885 46.1068 113.091 45.9699C113.298 45.833 113.54 45.7599 113.788 45.7598C114.126 45.7699 114.446 45.9113 114.682 46.154C114.917 46.3968 115.049 46.7216 115.049 47.0598Z" fill="#263238"/>
<path d="M108.289 44.7979L109.199 53.8589L114.068 52.3899L108.289 44.7979Z" fill="#F28F8F"/>
<path d="M105.383 55.9717L110.583 57.1287C110.526 57.4782 110.398 57.8124 110.208 58.1108C110.017 58.4092 109.767 58.6655 109.474 58.8639C109.18 59.0623 108.849 59.1987 108.502 59.2647C108.154 59.3307 107.796 59.3249 107.45 59.2477C106.751 59.0715 106.146 58.633 105.761 58.0231C105.377 57.4133 105.241 56.6787 105.383 55.9717Z" fill="#B16668"/>
<path d="M107.471 59.2479C107.578 59.2669 107.687 59.2799 107.796 59.2869C107.782 58.6535 107.52 58.0508 107.067 57.6084C106.614 57.1659 106.005 56.9191 105.371 56.9209C105.444 57.4758 105.684 57.9954 106.059 58.411C106.434 58.8265 106.926 59.1184 107.471 59.2479Z" fill="#F28F8F"/>
<path d="M85.1512 43.479C85.3123 45.0672 85.702 46.6238 86.3082 48.1005C86.6527 47.665 87.0492 47.236 87.4522 46.8005C89.8048 44.4938 92.5466 42.6211 95.5512 41.269C102.5 38.019 111.008 36.927 117.82 38.8185C117.57 37.4686 117.144 36.1574 116.553 34.9185C114.921 31.3692 112.083 28.514 108.544 26.8611C105.004 25.2082 100.993 24.8649 97.2245 25.8924C93.4557 26.9198 90.1737 29.2513 87.9629 32.4718C85.752 35.6922 84.7557 39.5928 85.1512 43.479Z" fill="#1A1D1F"/>
<path d="M92.3 27.0597C93.1255 26.6567 97.279 25.4152 97.617 25.3112C99.7685 24.6612 103.233 24.7002 106.788 27.6252C109.565 29.9425 111.517 33.0961 112.353 36.6147L107.933 37.9992L106.522 38.1357C106.002 34.8857 101.718 27.8852 95.6995 27.6252C95.4182 27.6058 95.1358 27.6058 94.8545 27.6252C94.0572 27.6651 93.2705 27.8251 92.521 28.0997C91.7029 28.6718 90.9234 29.2972 90.1875 29.9717C90.2615 29.3463 90.4945 28.7502 90.8643 28.2404C91.2341 27.7306 91.7284 27.3241 92.3 27.0597Z" fill="#1A1D1F"/>
<path opacity="0.45" d="M92.3 27.0597C93.1255 26.6567 97.279 25.4152 97.617 25.3112C99.7685 24.6612 103.233 24.7002 106.788 27.6252C109.565 29.9425 111.517 33.0961 112.353 36.6147L107.933 37.9992L106.522 38.1357C106.002 34.8857 101.718 27.8852 95.6995 27.6252C95.4182 27.6058 95.1358 27.6058 94.8545 27.6252C94.0572 27.6651 93.2705 27.8251 92.521 28.0997C91.7029 28.6718 90.9234 29.2972 90.1875 29.9717C90.2615 29.3463 90.4945 28.7502 90.8643 28.2404C91.2341 27.7306 91.7284 27.3241 92.3 27.0597Z" fill="white"/>
<path d="M106.536 38.1421C105.886 34.3591 100.153 25.4086 92.5353 28.1061C91.7151 28.6781 90.9334 29.3035 90.1953 29.9781C90.2694 29.3528 90.5017 28.7566 90.8701 28.246C91.2386 27.7353 91.7312 27.327 92.3013 27.0596C94.2838 26.1041 98.2618 25.6361 102.376 29.0096C105.15 31.3252 107.1 34.4767 107.934 37.9926L106.536 38.1421Z" fill="#1A1D1F"/>
<path opacity="0.3" d="M106.536 38.1421C105.886 34.3591 100.153 25.4086 92.5353 28.1061C91.7151 28.6781 90.9334 29.3035 90.1953 29.9781C90.2694 29.3528 90.5017 28.7566 90.8701 28.246C91.2386 27.7353 91.7312 27.327 92.3013 27.0596C94.2838 26.1041 98.2618 25.6361 102.376 29.0096C105.15 31.3252 107.1 34.4767 107.934 37.9926L106.536 38.1421Z" fill="black"/>
<path d="M95.4297 39.9692C95.7482 39.6897 97.2887 36.3747 102.775 33.4692C106.161 31.6622 113.103 31.5712 116.217 31.6232C121.67 31.7142 122.97 32.8712 123.042 33.6772C123.042 33.8657 123.133 34.7497 123.159 34.9447C123.184 35.1264 123.142 35.3111 123.042 35.4647C122.229 36.6997 117.842 38.8447 117.842 38.8447C111.03 36.9532 102.521 38.0452 95.5727 41.2952L95.4297 39.9692Z" fill="#1A1D1F"/>
<path opacity="0.15" d="M95.4297 39.9692C95.7482 39.6897 97.2887 36.3747 102.775 33.4692C106.161 31.6622 113.103 31.5712 116.217 31.6232C121.67 31.7142 122.97 32.8712 123.042 33.6772C123.042 33.8657 123.133 34.7497 123.159 34.9447C123.184 35.1264 123.142 35.3111 123.042 35.4647C122.229 36.6997 117.842 38.8447 117.842 38.8447C111.03 36.9532 102.521 38.0452 95.5727 41.2952L95.4297 39.9692Z" fill="black"/>
<path d="M95.5508 41.2686C102.499 38.0186 111.008 36.9266 117.82 38.8181C117.82 38.8181 122.227 36.6731 123.02 35.4381C123.462 34.7556 123.065 33.0071 116.325 32.8966C113.205 32.8446 106.263 32.9356 102.876 34.7426C97.4098 37.7001 95.8693 40.9891 95.5508 41.2686Z" fill="#1A1D1F"/>
<path opacity="0.3" d="M95.5508 41.2686C102.499 38.0186 111.008 36.9266 117.82 38.8181C117.82 38.8181 122.227 36.6731 123.02 35.4381C123.462 34.7556 123.065 33.0071 116.325 32.8966C113.205 32.8446 106.263 32.9356 102.876 34.7426C97.4098 37.7001 95.8693 40.9891 95.5508 41.2686Z" fill="black"/>
<path d="M116.539 240.461C116.747 237.01 118.599 202.241 118.599 202.241L101.699 214.156C104.644 234.033 105.294 240.026 105.417 243.341C105.347 243.619 105.321 243.906 105.339 244.192C105.43 248.131 110.149 250.185 113.848 252.759C117.001 255.031 120.341 257.032 123.832 258.739C126.503 259.968 131.885 260.007 132.522 258.375C128.024 255.216 122.818 251.771 119.217 248.144C117.52 246.409 116.285 244.595 116.539 240.461Z" fill="#FFA8A7"/>
<path d="M140.189 262.509C140.417 262.509 140.807 264.882 139.585 265.915C138.181 267.105 134.027 269.087 128.483 268.483C122.938 267.878 119.909 266.299 117.66 264.583C115.411 262.867 112.259 260.41 109.743 259.922C107.41 259.467 104.868 258.499 104.108 257.829C103.347 257.16 103.399 254.111 103.399 254.111L140.189 262.509Z" fill="#263238"/>
<path d="M122.903 249.451C122.539 249.113 122.188 248.801 121.843 248.424C120.682 247.159 119.783 245.677 119.198 244.063C118.838 243.292 118.56 242.486 118.366 241.658C118.19 240.702 118.08 239.708 117.917 238.778C117.859 238.421 117.917 237.634 117.475 237.478C116.96 237.42 116.439 237.518 115.98 237.758C114.856 238.239 113.679 238.609 112.522 239.019C111.872 239.246 110.54 239.597 110.345 240.319C110.15 241.04 110.475 241.937 110.345 242.717C110.286 243.023 110.156 243.367 109.799 243.328C109.149 243.328 108.986 242.392 108.817 241.937C108.453 240.982 108.167 240.533 107.134 240.254C106.594 240.104 105.541 240.033 105.184 239.552L105.047 238.252C104.752 238.311 104.474 238.439 104.236 238.624C103.998 238.809 103.806 239.046 103.676 239.318C103.227 240.247 103.526 241.541 103.676 242.529C103.859 243.51 103.942 244.508 103.923 245.506C103.844 246.359 103.707 247.206 103.513 248.041C103.237 249.498 103.1 250.978 103.104 252.461C103.09 253.149 103.143 253.837 103.26 254.515C103.362 255.076 103.673 255.578 104.131 255.919C104.828 256.533 105.632 257.013 106.503 257.336C107.693 257.81 108.921 258.174 110.13 258.597C112.62 259.455 115.519 261.262 118.067 263.192C120.615 265.123 126.198 267.151 129.806 267.151C135.318 267.151 139.166 265.331 140.206 263.433C140.303 262.133 140.381 260.833 139.79 259.91C137.84 256.933 133.569 255.971 130.131 254.333C128.634 253.577 127.188 252.726 125.802 251.785C124.772 251.089 123.802 250.309 122.903 249.451Z" fill="#37474F"/>
<path d="M132.262 255.229C125.509 257.14 123.162 261.697 122.168 265.382C124.59 266.416 127.175 267.015 129.805 267.15C135.317 267.15 139.165 265.33 140.205 263.432C140.303 262.132 140.381 260.832 139.789 259.909C138.262 257.504 135.2 256.412 132.262 255.229Z" fill="#455A64"/>
<path d="M110.111 258.571L110.397 258.681C110.13 253.481 107.985 250.036 103.286 249.341C103.15 250.367 103.083 251.4 103.084 252.435C103.071 253.123 103.123 253.811 103.24 254.489C103.342 255.05 103.654 255.552 104.111 255.893C104.808 256.507 105.612 256.987 106.484 257.31C107.673 257.784 108.902 258.148 110.111 258.571Z" fill="#455A64"/>
<path d="M88.6911 212.479L71.0761 208.65C70.6146 219.551 70.8941 234.299 70.5236 244.53C70.4521 246.48 69.4576 259.48 70.0101 263.471C70.8421 269.484 78.8956 269.094 79.5586 265.558C80.2216 262.022 80.8066 246.903 80.9431 245.336C81.3136 238.784 85.0576 227.786 87.6771 216.086C87.8071 215.547 88.5676 213.038 88.6911 212.479Z" fill="#FFA8A7"/>
<path d="M82.4058 268.209C82.3408 271.713 81.8273 274.059 80.5143 276.152C79.2013 278.245 76.5818 278.999 73.8713 278.499C71.1608 277.998 67.6443 276.549 66.7213 273.533C65.7983 270.517 65.8763 268.476 66.3378 265.213L82.4058 268.209Z" fill="#263238"/>
<path d="M70.6668 238.505C69.5683 238.622 69.3668 248.131 68.9248 252.85C68.4698 257.907 66.8643 260.052 66.4418 264.206C65.9608 268.951 66.3378 271.044 68.3398 273.826C70.3418 276.608 77.1083 279.162 80.1893 274.957C82.6983 271.525 82.6398 267.807 82.1848 263.127C81.7103 258.271 81.6908 250.484 81.7493 246.779C81.8013 243.243 82.8738 239.506 81.8923 239.148C81.6843 240.097 81.5543 240.91 81.4438 241.417C81.2033 242.535 80.9368 243.887 80.5988 243.633C80.5988 243.633 80.6963 242.639 80.7093 242.184C80.7223 241.729 80.8198 241.43 80.5143 241.137C80.2088 240.845 78.8828 240.663 78.4278 240.604C77.3293 240.448 76.2308 240.325 75.1193 240.273C74.5668 240.273 74.0078 240.273 73.4553 240.273C72.9835 240.286 72.5156 240.362 72.0643 240.5C71.9377 240.539 71.8207 240.605 71.721 240.692C71.6213 240.78 71.5412 240.887 71.4858 241.007C71.4499 241.185 71.4499 241.369 71.4858 241.547C71.501 241.872 71.4704 242.198 71.3948 242.515C71.3558 242.658 71.2583 242.834 71.0958 242.808C70.9333 242.782 70.8358 242.691 70.7903 242.372C70.7133 241.725 70.6785 241.074 70.6863 240.422C70.6863 240.117 70.6863 239.694 70.6863 239.389C70.6863 239.083 70.6603 238.804 70.6668 238.505Z" fill="#37474F"/>
<path d="M66.2609 266.949C66.2024 269.887 66.4884 271.883 68.0549 274.06C70.0569 276.842 77.3564 279.384 80.4049 275.178C81.9389 273.085 82.2639 270.667 82.3549 268.21C80.3009 265.136 69.2314 264.154 66.2609 266.949Z" fill="#455A64"/>
<path d="M124.227 96.0576C124.227 96.0576 110.857 99.0671 90.8105 97.6891C90.8105 110.936 92.208 126.133 85.864 126.049L78.2915 125.867C77.869 145.705 74.515 187.064 74.515 187.064C74.216 189.502 70.6865 199.863 70.5565 208.677C70.355 222.502 70.0625 232.98 70.0625 232.98C70.0625 232.98 77.7845 236.035 83.459 233.916C83.459 233.916 90.8365 204.53 92.91 195.358C95.3735 184.432 100.463 164.243 100.463 164.243L101.08 192.992C100.359 198.785 100.28 204.641 100.846 210.451C101.496 216.301 103.869 232.493 103.869 232.493C103.869 232.493 110.974 233.923 117.136 232.096C117.136 232.096 120.847 197.276 121.153 191.913C121.484 186.063 123.33 132.328 123.499 127.316C125.189 102.051 124.227 96.0576 124.227 96.0576Z" fill="#455A64"/>
<path d="M90.8103 97.689C89.8743 85.69 89.9003 75.8295 85.4023 69.999L91.1483 68.79C91.1483 68.79 96.1208 79.801 96.1208 98.0985L90.8103 97.689Z" fill="#455A64"/>
<path d="M118.95 97.3771C118.95 84.3056 116.071 73.0996 111.508 68.2051L118.079 69.1866C118.079 69.1866 124.228 79.0796 124.228 97.3771H118.95Z" fill="#455A64"/>
<path d="M98.0312 100.432C98.0312 100.432 108.594 101.082 117.466 99.3984L117.869 108.388L109.016 113.939L98.0312 110.351V100.432Z" fill="#37474F"/>
<path d="M81.0196 126.522C86.1091 128.635 98.4656 129.902 108.385 129.772C118.304 129.642 123.497 127.309 123.497 127.309L123.335 133.354C123.335 133.354 105.733 140.738 80.2656 132.054L81.0196 126.522Z" fill="#1A1D1F"/>
<path opacity="0.3" d="M81.0196 126.522C86.1091 128.635 98.4656 129.902 108.385 129.772C118.304 129.642 123.497 127.309 123.497 127.309L123.335 133.354C123.335 133.354 105.733 140.738 80.2656 132.054L81.0196 126.522Z" fill="black"/>
<path d="M100.461 164.242L105.18 145.171C105.18 145.171 112.252 145.262 116.88 140.939C116.88 140.939 116.23 145.808 107.825 148.408L103.457 163.559L100.981 192.452L100.461 164.242Z" fill="#37474F"/>
<path d="M92.9475 67.9775L92.9865 69.2775C94.0038 72.162 94.7417 75.1375 95.19 78.163C96.555 86.3985 96.789 97.195 96.789 109.363V142.89C96.789 142.89 81.5465 143.865 76.704 132.23L78.654 107.842C78.654 107.842 75.859 95.232 75.0985 88.0235C74.338 80.815 72.9795 75.7645 79.72 70.2525L92.9475 67.9775Z" fill="#1A1D1F"/>
<path d="M77.25 101.023C78.0105 104.884 78.667 107.842 78.667 107.842L78.5955 108.797C83.308 111.878 90.2955 113.854 96.7955 113.555V106.743C89.6975 107.068 81.8975 104.65 77.25 101.023Z" fill="#F0F0F0"/>
<path d="M96.7844 127.089V120.251C90.1024 120.556 82.8159 118.431 78.1034 115.161L77.6094 121.616C82.2894 125.106 89.8619 127.401 96.7844 127.089Z" fill="#F0F0F0"/>
<path d="M107.715 67.8214C111.979 70.3893 115.063 74.5309 116.301 79.3524C118.355 87.4254 118.661 93.7954 118.947 104.163C119.233 114.53 118.81 143.455 118.81 143.455C118.81 143.455 123.36 141.46 124.361 139.295C124.361 139.295 125.661 102.564 124.225 89.5444C122.788 76.5249 118.076 69.1864 118.076 69.1864C118.076 69.1864 114.709 67.8084 107.715 67.8214Z" fill="#1A1D1F"/>
<path d="M119.06 112.249C121.027 112.192 122.985 111.957 124.91 111.547C124.91 109.272 124.91 106.997 124.91 104.741C122.948 105.153 120.953 105.384 118.949 105.43C119.021 107.393 119.047 109.727 119.06 112.249Z" fill="#F0F0F0"/>
<path d="M124.798 125.112C124.837 123.019 124.883 120.705 124.909 118.274C122.995 118.665 121.05 118.883 119.098 118.924C119.098 121.232 119.098 123.539 119.098 125.743C121.012 125.697 122.92 125.486 124.798 125.112Z" fill="#F0F0F0"/>
<path d="M83.1261 70.3891C79.2261 70.3891 74.6761 70.2201 72.1216 75.8491C71.2896 77.6821 68.7221 88.4591 65.8686 98.3976C60.7596 91.8976 56.3981 85.2351 55.8326 84.0521C54.3181 80.8866 54.2986 78.7481 52.7516 75.4786C51.8607 73.6886 51.1718 71.805 50.6976 69.8626C50.3271 68.5626 49.1701 69.5181 48.7476 70.1031C48.071 71.0903 47.6981 72.2539 47.6751 73.4506C47.6751 74.2956 47.6751 75.1601 47.6101 75.9921C47.5451 76.8241 47.2656 76.7916 46.5896 76.4146C45.1986 75.6346 43.9896 74.2891 42.8586 73.2101C41.7276 72.1311 40.1806 71.1171 38.9586 69.9601C37.7366 68.8031 37.1191 67.6266 36.1246 66.4566C35.3771 65.5791 34.1031 64.4416 33.1216 65.6961C32.5366 66.4566 33.0761 67.3406 33.3361 68.1011C33.6351 68.9656 33.3361 69.6026 33.1736 70.4541C32.8863 71.3793 32.9137 72.3736 33.2516 73.2816C33.7196 74.1981 34.1356 74.7636 34.0121 75.8426C33.9146 76.7331 33.5961 77.5846 33.7261 78.5011C33.8301 79.2551 34.3761 79.8011 34.7531 80.4511C35.4188 81.6053 36.2437 82.66 37.2036 83.5841C38.3348 84.7296 39.5588 85.7797 40.8631 86.7236C43.9896 89.1546 45.1531 89.9151 46.1996 90.7276C47.7661 91.9366 49.3846 95.0371 50.2946 96.7466C52.0691 100.101 55.8976 109.448 61.0066 116.136C63.9641 119.991 67.9876 121.219 71.5366 116.864C73.3956 114.576 74.9751 110.949 76.0021 108.206C79.9476 97.6956 82.8011 89.0506 82.8011 89.0506C82.8011 89.0506 85.9861 79.2291 83.1261 70.3891Z" fill="#FFA8A7"/>
<path d="M57.7241 87.1006C56.7101 85.5666 56.0341 84.4551 55.8326 84.0391C54.3181 80.8736 54.2986 78.7351 52.7516 75.4656C51.8616 73.6797 51.1727 71.8005 50.6976 69.8626C50.3271 68.5626 49.1701 69.5181 48.7476 70.1031C48.071 71.0903 47.6981 72.2539 47.6751 73.4506C47.6751 74.2956 47.6751 75.1601 47.6101 75.9921C47.5451 76.8241 47.2656 76.7916 46.5896 76.4146C45.1986 75.6346 43.9896 74.2891 42.8586 73.2101C41.7276 72.1311 40.1806 71.1171 38.9586 69.9601C37.7366 68.8031 37.1191 67.6266 36.1246 66.4566C35.3771 65.5791 34.1031 64.4416 33.1216 65.6961C32.5366 66.4566 33.0761 67.3406 33.3361 68.1011C33.6351 68.9656 33.3361 69.6026 33.1736 70.4541C32.8863 71.3793 32.9137 72.3736 33.2516 73.2816C33.7196 74.1981 34.1356 74.7636 34.0121 75.8426C33.9146 76.7331 33.5961 77.5846 33.7261 78.5011C33.8301 79.2551 34.3761 79.8011 34.7531 80.4511C35.4188 81.6053 36.2438 82.66 37.2036 83.5841C38.3348 84.7296 39.5588 85.7797 40.8631 86.7236C43.9896 89.1546 45.1531 89.9151 46.1996 90.7276C47.6881 91.8781 49.2221 94.7316 50.1516 96.4736C53.2586 94.4846 56.0731 90.6626 57.7241 87.1006Z" fill="#455A64"/>
<path d="M56.7374 85.5863L56.2499 84.8583C56.2499 84.8583 56.4449 84.0068 57.2379 85.2223C57.951 86.2345 58.5669 87.3118 59.0774 88.4398C59.1749 88.9013 58.3884 92.8793 55.9184 94.8553C53.4484 96.8313 51.2774 97.4228 50.5884 97.3383C49.8994 97.2538 49.7044 96.6298 49.2884 95.8043C48.8724 94.9788 47.9104 93.9648 48.2029 93.2043L48.7619 93.9908C50.9798 93.4218 52.9682 92.1824 54.4559 90.4418C56.6464 87.6533 56.7374 85.5863 56.7374 85.5863Z" fill="#1A1D1F"/>
<path opacity="0.2" d="M56.7374 85.5863L56.2499 84.8583C56.2499 84.8583 56.4449 84.0068 57.2379 85.2223C57.951 86.2345 58.5669 87.3118 59.0774 88.4398C59.1749 88.9013 58.3884 92.8793 55.9184 94.8553C53.4484 96.8313 51.2774 97.4228 50.5884 97.3383C49.8994 97.2538 49.7044 96.6298 49.2884 95.8043C48.8724 94.9788 47.9104 93.9648 48.2029 93.2043L48.7619 93.9908C50.9798 93.4218 52.9682 92.1824 54.4559 90.4418C56.6464 87.6533 56.7374 85.5863 56.7374 85.5863Z" fill="black"/>
<path d="M65.8711 98.3976C67.7409 101.935 68.871 105.817 69.1926 109.805C69.8426 103.884 68.0421 98.4691 66.3781 96.6426L65.8711 98.3976Z" fill="#F28F8F"/>
<path d="M83.7732 69.5508C80.0552 70.1358 79.2622 70.2008 76.8897 71.0198C74.5172 71.8388 72.8142 72.6513 70.6237 79.7948C68.5177 86.6848 66.5547 94.5238 66.5547 94.5238C66.5547 94.5238 68.6347 99.9708 78.9047 101.024L84.3452 85.8528C84.3452 85.8528 86.0222 76.7008 83.7732 69.5508Z" fill="#EBEBEB"/>
<path d="M47.2347 77.917C47.2842 78.3251 47.2117 78.7388 47.0263 79.1058C46.8408 79.4728 46.5508 79.7766 46.1927 79.9788C45.8347 80.181 45.4248 80.2725 45.0148 80.2419C44.6048 80.2112 44.213 80.0597 43.889 79.8066C43.5651 79.5534 43.3234 79.2098 43.1946 78.8194C43.0657 78.4289 43.0555 78.009 43.1652 77.6127C43.2749 77.2165 43.4996 76.8616 43.8109 76.593C44.1222 76.3243 44.5061 76.154 44.9142 76.1035C45.1858 76.0689 45.4616 76.0886 45.7256 76.1612C45.9896 76.2338 46.2366 76.358 46.4523 76.5267C46.6681 76.6953 46.8483 76.9049 46.9826 77.1435C47.1168 77.3822 47.2025 77.645 47.2347 77.917Z" fill="#263238"/>
<path d="M166.217 84.4617H163.916C163.323 84.4617 162.754 84.6973 162.335 85.1166C161.915 85.536 161.68 86.1047 161.68 86.6977V111.021C161.68 113.951 160.515 116.762 158.443 118.834C156.371 120.907 153.56 122.071 150.63 122.071H55.7102C52.7795 122.071 49.9689 120.907 47.8966 118.834C45.8244 116.762 44.6602 113.951 44.6602 111.021V79.3527C44.6602 79.2234 44.7115 79.0994 44.8029 79.008C44.8944 78.9166 45.0184 78.8652 45.1477 78.8652C45.2769 78.8652 45.4009 78.9166 45.4924 79.008C45.5838 79.0994 45.6352 79.2234 45.6352 79.3527V110.793C45.6352 112.143 45.9012 113.48 46.418 114.727C46.9349 115.975 47.6924 117.108 48.6474 118.062C49.6023 119.016 50.736 119.773 51.9835 120.289C53.2311 120.805 54.5681 121.071 55.9182 121.07H150.422C151.772 121.071 153.109 120.805 154.356 120.289C155.604 119.773 156.737 119.016 157.692 118.062C158.647 117.108 159.405 115.975 159.922 114.727C160.439 113.48 160.705 112.143 160.705 110.793V86.6977C160.705 85.8461 161.043 85.0294 161.645 84.4272C162.247 83.825 163.064 83.4867 163.916 83.4867H167.874C167.349 83.8563 166.795 84.1824 166.217 84.4617Z" fill="#37474F"/>
<path d="M42.7031 78.6053C41.2406 77.9553 41.0846 76.7008 42.3586 75.7453C43.079 75.2606 43.9039 74.9531 44.7658 74.8481C45.6278 74.743 46.5023 74.8433 47.3181 75.1408C48.7806 75.7908 48.9366 77.0453 47.6626 78.0008C46.9422 78.4855 46.1173 78.793 45.2554 78.898C44.3934 79.0031 43.5189 78.9028 42.7031 78.6053Z" fill="#37474F"/>
<path d="M42.5347 77.8712C41.0267 77.2212 40.8642 75.9212 42.1772 74.9202C42.9185 74.417 43.7682 74.0959 44.6571 73.9829C45.546 73.87 46.449 73.9684 47.2927 74.2702C48.8007 74.9202 48.9632 76.2202 47.6502 77.2212C46.9088 77.7244 46.0591 78.0455 45.1702 78.1585C44.2813 78.2714 43.3783 78.173 42.5347 77.8712Z" fill="#263238"/>
<path d="M42.3645 77.1101C40.8045 76.4601 40.642 75.0821 41.994 74.0681C42.7591 73.5515 43.6355 73.2234 44.5517 73.1104C45.4679 72.9974 46.3979 73.1029 47.2655 73.4181C48.819 74.0681 48.988 75.4461 47.636 76.4601C46.8709 76.9767 45.9945 77.3049 45.0783 77.4179C44.1621 77.5309 43.2321 77.4254 42.3645 77.1101Z" fill="#37474F"/>
<path d="M42.1909 76.3242C40.5854 75.6742 40.4099 74.2377 41.8074 73.1912C42.5974 72.6641 43.5005 72.3306 44.4435 72.2177C45.3864 72.1048 46.3428 72.2156 47.2349 72.5412C48.8404 73.1912 49.0159 74.6277 47.6184 75.6807C46.8278 76.2067 45.9245 76.5391 44.9815 76.6509C44.0386 76.7627 43.0825 76.6508 42.1909 76.3242Z" fill="#263238"/>
<path d="M42.0325 75.4985C40.3945 74.803 40.219 73.373 41.6425 72.3005C42.4493 71.764 43.3714 71.4254 44.3337 71.3125C45.296 71.1995 46.2714 71.3153 47.1805 71.6505C48.8185 72.346 48.994 73.7825 47.5705 74.8485C46.7642 75.386 45.842 75.7252 44.8795 75.8381C43.917 75.9511 42.9415 75.8347 42.0325 75.4985Z" fill="#37474F"/>
<path d="M41.8647 51.078C39.2523 51.3965 36.8734 52.7396 35.251 54.8117C33.6287 56.8839 32.8957 59.5155 33.2132 62.128C34.1687 69.928 40.7792 70.461 41.1627 73.6135C41.2233 73.9141 41.3631 74.1931 41.5677 74.4217C41.7722 74.6502 42.0341 74.82 42.3262 74.9135C43.1177 75.1993 43.9654 75.2953 44.8008 75.1937C45.6363 75.0921 46.4362 74.7957 47.1362 74.3285C47.3976 74.1708 47.6121 73.946 47.7573 73.6773C47.9025 73.4087 47.973 73.1061 47.9617 72.801C47.5782 69.6485 53.8702 67.562 52.9212 59.7425C52.765 58.4472 52.355 57.1954 51.7147 56.0587C51.0743 54.922 50.2162 53.9227 49.1893 53.118C48.1623 52.3132 46.9869 51.7188 45.73 51.3688C44.4732 51.0188 43.1597 50.9199 41.8647 51.078Z" fill="#1A1D1F"/>
<g opacity="0.6">
<path d="M41.8647 51.078C39.2523 51.3965 36.8734 52.7396 35.251 54.8117C33.6287 56.8839 32.8957 59.5155 33.2132 62.128C34.1687 69.928 40.7792 70.461 41.1627 73.6135C41.2233 73.9141 41.3631 74.1931 41.5677 74.4217C41.7722 74.6502 42.0341 74.82 42.3262 74.9135C43.1177 75.1993 43.9654 75.2953 44.8008 75.1937C45.6363 75.0921 46.4362 74.7957 47.1362 74.3285C47.3976 74.1708 47.6121 73.946 47.7573 73.6773C47.9025 73.4087 47.973 73.1061 47.9617 72.801C47.5782 69.6485 53.8702 67.562 52.9212 59.7425C52.765 58.4472 52.355 57.1954 51.7147 56.0587C51.0743 54.922 50.2162 53.9227 49.1893 53.118C48.1623 52.3132 46.9869 51.7188 45.73 51.3688C44.4732 51.0188 43.1597 50.9199 41.8647 51.078Z" fill="white"/>
</g>
<path d="M42.8971 74.38C41.8311 73.925 41.7141 72.989 42.6436 72.2935C43.1691 71.9414 43.77 71.7179 44.3979 71.6411C45.0257 71.5643 45.6628 71.6364 46.2576 71.8515C47.3236 72.3065 47.4406 73.2425 46.5111 73.938C45.9863 74.2916 45.3853 74.516 44.7572 74.5928C44.1291 74.6696 43.4917 74.5967 42.8971 74.38Z" fill="#1A1D1F"/>
<path d="M45.8349 72.7095C45.7479 72.7206 45.66 72.6967 45.5905 72.6431C45.5211 72.5895 45.4757 72.5105 45.4644 72.4235C45.2344 70.526 45.2344 68.6076 45.4644 66.71C45.5283 66.1624 45.6282 65.6195 45.7634 65.085C45.4482 65.012 45.1412 64.9075 44.8469 64.773C44.3234 64.5328 43.8392 64.2151 43.4104 63.8305C43.0861 64.3053 42.6941 64.7302 42.2469 65.0915C41.9973 65.2928 41.7271 65.4671 41.4409 65.6115C41.7022 66.0982 41.9302 66.602 42.1234 67.1195C42.8018 68.9062 43.2644 70.7676 43.5014 72.664C43.5088 72.7524 43.4819 72.8402 43.4262 72.9092C43.3705 72.9782 43.2903 73.0231 43.2024 73.0345C43.113 73.0418 43.0243 73.014 42.9551 72.957C42.886 72.8999 42.8417 72.8181 42.8319 72.729C42.5984 70.8908 42.1489 69.0865 41.4929 67.3535C41.3028 66.8389 41.0747 66.3392 40.8104 65.8585C40.4839 65.9678 40.1358 65.996 39.796 65.9405C39.4562 65.885 39.1351 65.7475 38.8604 65.54C38.6546 65.3868 38.5101 65.1652 38.4529 64.915C38.3957 64.6648 38.4296 64.4025 38.5484 64.175C38.6306 64.0174 38.7581 63.8879 38.9145 63.8034C39.0708 63.7188 39.249 63.683 39.4259 63.7005C39.9654 63.746 40.5504 64.2205 41.0964 65.0525C41.357 64.9264 41.6015 64.7693 41.8244 64.5845C42.2616 64.2413 42.6393 63.8285 42.9424 63.3625C42.7078 63.1222 42.5236 62.8374 42.4008 62.5248C42.278 62.2123 42.219 61.8783 42.2274 61.5425C42.2608 61.342 42.3582 61.1576 42.5049 61.0169C42.6517 60.8763 42.8401 60.7868 43.0418 60.762C43.2436 60.7371 43.448 60.7782 43.6246 60.879C43.8011 60.9798 43.9403 61.1351 44.0214 61.3215C44.1157 61.6465 44.1418 61.9874 44.0982 62.323C44.0546 62.6585 43.9421 62.9815 43.7679 63.2715C44.1725 63.6539 44.6383 63.9658 45.1459 64.1945C45.4078 64.3174 45.6825 64.4112 45.9649 64.474C46.2964 63.538 46.7449 62.9335 47.2649 62.7645C47.4328 62.7109 47.6127 62.7076 47.7825 62.7549C47.9523 62.8023 48.1045 62.8982 48.2204 63.031C48.3862 63.2261 48.4772 63.4738 48.4772 63.7298C48.4772 63.9858 48.3862 64.2334 48.2204 64.4285C48.0061 64.6928 47.7309 64.9012 47.4185 65.0359C47.1061 65.1706 46.7657 65.2276 46.4264 65.202C46.2797 65.7346 46.1754 66.278 46.1144 66.827C45.9032 68.6648 45.9032 70.5207 46.1144 72.3585C46.1208 72.4025 46.1185 72.4473 46.1076 72.4904C46.0968 72.5334 46.0775 72.574 46.0509 72.6096C46.0243 72.6452 45.991 72.6752 45.9528 72.698C45.9147 72.7207 45.8724 72.7357 45.8284 72.742L45.8349 72.7095ZM39.3284 64.3505C39.2764 64.3505 39.2114 64.3895 39.1529 64.5C39.0164 64.7405 39.2374 64.955 39.3089 65.02C39.4687 65.1345 39.6511 65.2134 39.844 65.2515C40.0368 65.2896 40.2356 65.2861 40.4269 65.241C39.9914 64.63 39.6079 64.3635 39.3804 64.3505H39.3284ZM46.6669 64.4805C46.8638 64.4824 47.0586 64.4394 47.2365 64.355C47.4144 64.2705 47.5708 64.1468 47.6939 63.993C47.7459 63.9215 47.9149 63.655 47.7264 63.4535C47.6982 63.4128 47.6579 63.3821 47.6112 63.3657C47.5645 63.3494 47.5138 63.3482 47.4664 63.3625C47.2519 63.4405 46.9464 63.7915 46.6669 64.487V64.4805ZM43.1244 61.4125C42.9554 61.4125 42.9099 61.51 42.8904 61.6205C42.8903 62.0108 43.0285 62.3884 43.2804 62.6865C43.4526 62.3356 43.4963 61.9354 43.4039 61.5555C43.3847 61.5005 43.3446 61.4553 43.2922 61.4298C43.2399 61.4042 43.1796 61.4003 43.1244 61.419V61.4125Z" fill="white"/>
<path d="M48.2234 47.932C48.1424 47.9006 48.0686 47.8532 48.0062 47.7928C47.9438 47.7323 47.8941 47.6599 47.8602 47.5799C47.8263 47.4999 47.8087 47.4139 47.8086 47.327C47.8085 47.2402 47.8257 47.1541 47.8594 47.074L49.1594 43.902C49.2256 43.744 49.3515 43.6184 49.5097 43.5527C49.668 43.4869 49.8458 43.4863 50.0044 43.551C50.0847 43.5825 50.1578 43.6296 50.2196 43.6896C50.2815 43.7496 50.3308 43.8214 50.3646 43.9006C50.3985 43.9798 50.4163 44.065 50.417 44.1512C50.4176 44.2373 50.4011 44.3228 50.3684 44.4025L49.0684 47.581C49.037 47.662 48.9896 47.7359 48.9292 47.7983C48.8687 47.8607 48.7963 47.9103 48.7163 47.9443C48.6363 47.9782 48.5504 47.9957 48.4635 47.9959C48.3766 47.996 48.2905 47.9787 48.2104 47.945L48.2234 47.932Z" fill="#E0E0E0"/>
<path d="M40.7081 46.9956C40.6016 46.9532 40.5082 46.8833 40.4374 46.7931C40.3667 46.703 40.321 46.5957 40.3051 46.4821L39.8306 43.0891C39.8064 42.9167 39.8518 42.7418 39.9566 42.6029C40.0614 42.4639 40.2172 42.3723 40.3896 42.3481C40.562 42.324 40.7369 42.3693 40.8758 42.4742C41.0148 42.579 41.1064 42.7347 41.1306 42.9071L41.5986 46.3001C41.6114 46.3856 41.607 46.4728 41.5858 46.5566C41.5645 46.6403 41.5267 46.719 41.4747 46.788C41.4226 46.857 41.3573 46.9149 41.2826 46.9584C41.2079 47.0019 41.1253 47.03 41.0396 47.0411C40.927 47.0552 40.8127 47.0395 40.7081 46.9956Z" fill="#E0E0E0"/>
<path d="M33.733 49.9468C33.6282 49.904 33.5363 49.8346 33.4665 49.7453L31.3605 47.0414C31.3076 46.9731 31.2687 46.895 31.2459 46.8117C31.2231 46.7283 31.217 46.6413 31.2279 46.5556C31.2387 46.4699 31.2664 46.3872 31.3092 46.3122C31.3521 46.2371 31.4093 46.1713 31.4775 46.1183C31.5458 46.0654 31.6239 46.0265 31.7072 46.0037C31.7906 45.981 31.8776 45.9748 31.9633 45.9857C32.049 45.9966 32.1317 46.0242 32.2067 46.067C32.2818 46.1099 32.3476 46.1671 32.4005 46.2353L34.5065 48.9328C34.5605 49.0007 34.6003 49.0787 34.6236 49.1622C34.647 49.2457 34.6534 49.333 34.6425 49.419C34.6316 49.505 34.6036 49.588 34.5602 49.663C34.5167 49.738 34.4587 49.8036 34.3895 49.8558C34.2983 49.9285 34.1893 49.9753 34.0738 49.9913C33.9583 50.0073 33.8406 49.992 33.733 49.9468Z" fill="#E0E0E0"/>
<path d="M26.0008 54.6986C25.8396 54.6322 25.7114 54.5045 25.6443 54.3436C25.5773 54.1827 25.5769 54.0018 25.6433 53.8406C25.7096 53.6794 25.8373 53.5512 25.9982 53.4842C26.1591 53.4171 26.3401 53.4167 26.5013 53.4831L29.6733 54.7831C29.7531 54.8155 29.8257 54.8634 29.887 54.9239C29.9484 54.9844 29.9972 55.0564 30.0307 55.1358C30.0642 55.2151 30.0817 55.3003 30.0823 55.3865C30.0828 55.4726 30.0664 55.558 30.034 55.6379C30.0016 55.7177 29.9537 55.7903 29.8932 55.8516C29.8327 55.9129 29.7607 55.9618 29.6813 55.9952C29.602 56.0287 29.5168 56.0463 29.4306 56.0469C29.3445 56.0474 29.2591 56.031 29.1793 55.9986L26.0073 54.6986H26.0008Z" fill="#E0E0E0"/>
<path d="M24.849 63.9668C24.7437 63.9234 24.6517 63.8532 24.5821 63.763C24.5125 63.6729 24.4678 63.5661 24.4525 63.4533C24.4397 63.3678 24.444 63.2806 24.4653 63.1969C24.4866 63.1131 24.5244 63.0344 24.5764 62.9654C24.6285 62.8964 24.6938 62.8385 24.7685 62.795C24.8432 62.7516 24.9258 62.7234 25.0115 62.7123L28.4045 62.2378C28.5769 62.2137 28.7518 62.259 28.8908 62.3638C29.0297 62.4687 29.1214 62.6244 29.1455 62.7968C29.1696 62.9692 29.1243 63.1441 29.0195 63.2831C28.9146 63.422 28.7589 63.5137 28.5865 63.5378L25.1935 64.0123C25.0767 64.0308 24.957 64.015 24.849 63.9668Z" fill="#E0E0E0"/>
<path d="M57.2 59.4623C57.0595 59.4129 56.9403 59.3168 56.8622 59.1901C56.7842 59.0634 56.7519 58.9137 56.771 58.766C56.79 58.6184 56.8591 58.4818 56.9668 58.379C57.0744 58.2762 57.2141 58.2135 57.3625 58.2013L60.7555 57.7268C60.8414 57.714 60.9291 57.7186 61.0132 57.7403C61.0974 57.762 61.1763 57.8003 61.2454 57.853C61.3145 57.9057 61.3723 57.9718 61.4154 58.0472C61.4586 58.1227 61.4861 58.206 61.4965 58.2923C61.5093 58.3778 61.5049 58.4649 61.4837 58.5487C61.4624 58.6325 61.4246 58.7112 61.3726 58.7802C61.3205 58.8492 61.2552 58.9071 61.1805 58.9506C61.1058 58.994 61.0232 59.0222 60.9375 59.0333L57.5445 59.5013C57.4283 59.5218 57.3086 59.5083 57.2 59.4623Z" fill="#E0E0E0"/>
<path d="M54.2605 52.4943C54.1525 52.4507 54.0582 52.3789 53.9875 52.2863C53.9315 52.2181 53.89 52.1392 53.8654 52.0544C53.8409 51.9697 53.8339 51.8808 53.8449 51.7932C53.8558 51.7056 53.8845 51.6212 53.9291 51.545C53.9738 51.4689 54.0334 51.4026 54.1045 51.3503L56.8085 49.2443C56.8768 49.1914 56.9549 49.1525 57.0382 49.1297C57.1215 49.1069 57.2085 49.1008 57.2943 49.1117C57.38 49.1225 57.4627 49.1502 57.5377 49.193C57.6127 49.2358 57.6786 49.293 57.7315 49.3613C57.7844 49.4296 57.8234 49.5077 57.8462 49.591C57.8689 49.6743 57.875 49.7614 57.8642 49.8471C57.8533 49.9328 57.8257 50.0155 57.7828 50.0905C57.74 50.1655 57.6828 50.2314 57.6145 50.2843L54.9105 52.3903C54.8212 52.464 54.7139 52.5124 54.5997 52.5307C54.4854 52.549 54.3683 52.5364 54.2605 52.4943Z" fill="#E0E0E0"/>
<path d="M76.7006 127.452L73.2556 129.35C73.0319 129.49 72.8445 129.68 72.7089 129.906C72.5733 130.132 72.4933 130.387 72.4756 130.65C72.3911 133.725 72.1051 145.815 72.5991 151.593C72.634 151.858 72.7267 152.111 72.8705 152.336C73.0142 152.561 73.2056 152.751 73.4311 152.893C75.3811 153.992 80.6721 156.891 83.0966 157.56C83.6504 157.655 84.2196 157.594 84.7411 157.385L87.1851 156.403C87.4128 156.297 87.6074 156.131 87.7482 155.922C87.889 155.714 87.9707 155.471 87.9846 155.22C87.9846 149.084 89.1026 140.797 90.1166 134.115C90.144 133.869 90.0967 133.62 89.9808 133.401C89.8649 133.181 89.6857 133.002 89.4666 132.886L78.2151 127.4C77.9731 127.303 77.7132 127.257 77.4523 127.266C77.1914 127.275 76.9353 127.338 76.7006 127.452Z" fill="#455A64"/>
<path d="M72.5991 151.567C72.1051 145.788 72.3911 133.698 72.4756 130.624C72.4633 130.526 72.4798 130.427 72.5232 130.338C72.5666 130.249 72.635 130.175 72.7199 130.125C72.8048 130.074 72.9025 130.05 73.0012 130.054C73.0998 130.059 73.195 130.092 73.2751 130.149L83.7531 135.349C83.972 135.472 84.1527 135.653 84.2754 135.872C84.3981 136.091 84.458 136.34 84.4486 136.591C84.2276 139.314 83.5581 149.558 83.8961 156.793C83.9097 156.898 83.8976 157.004 83.8607 157.103C83.8239 157.202 83.7635 157.291 83.6848 157.361C83.6061 157.432 83.5113 157.482 83.4088 157.507C83.3064 157.533 83.1992 157.533 83.0966 157.508C80.6721 156.858 75.3876 153.939 73.4311 152.841C73.2087 152.701 73.0192 152.515 72.8756 152.295C72.7319 152.075 72.6376 151.827 72.5991 151.567Z" fill="#37474F"/>
<path d="M83.1992 157.54C83.7135 157.597 84.2338 157.526 84.7137 157.332L87.1642 156.351C87.3878 156.24 87.5783 156.073 87.7164 155.865C87.8545 155.657 87.9353 155.417 87.9507 155.168C88.4317 148.869 89.0687 140.751 90.0892 134.069C90.1185 133.845 90.0752 133.617 89.9657 133.419L84.2977 136.019C84.3913 136.206 84.4339 136.415 84.4212 136.623C84.1937 139.36 83.5307 149.623 83.8687 156.832C83.8771 156.924 83.8658 157.016 83.8356 157.103C83.8055 157.191 83.7571 157.27 83.6938 157.337C83.6305 157.404 83.5537 157.457 83.4684 157.492C83.3831 157.527 83.2914 157.544 83.1992 157.54Z" fill="#263238"/>
<path d="M73.9384 132.601L83.1164 136.884L82.6744 144.684L73.6914 140.83C73.6914 140.83 73.7759 135.253 73.9384 132.601Z" fill="#263238"/>
<path d="M82.7037 144.209L74.0977 140.523C74.0977 140.523 74.1757 135.427 74.3187 132.795L83.0937 136.883L82.7037 144.209Z" fill="#1A1D1F"/>
<path opacity="0.4" d="M82.7037 144.209L74.0977 140.523C74.0977 140.523 74.1757 135.427 74.3187 132.795L83.0937 136.883L82.7037 144.209Z" fill="black"/>
<path d="M78.8654 135.597L76.9414 138.379L78.1504 138.795L77.2079 141.252L79.3594 138.353L78.1504 137.898L78.8654 135.597Z" fill="#FAFAFA"/>
<path d="M82.0928 146.471L82.0343 147.244C82.0357 147.295 82.0237 147.346 81.9995 147.391C81.9753 147.436 81.9397 147.474 81.8963 147.501C81.8529 147.528 81.8032 147.543 81.7522 147.545C81.7011 147.546 81.6505 147.535 81.6053 147.511L80.2143 146.939C80.1017 146.885 80.0069 146.8 79.9412 146.694C79.8755 146.588 79.8417 146.466 79.8438 146.341L79.8893 145.554C79.8866 145.503 79.8975 145.453 79.9209 145.408C79.9443 145.362 79.9793 145.324 80.0223 145.297C80.0654 145.27 80.115 145.255 80.1658 145.253C80.2167 145.251 80.2671 145.263 80.3118 145.288L81.7223 145.873C81.835 145.926 81.9298 146.011 81.9955 146.117C82.0612 146.223 82.095 146.346 82.0928 146.471Z" fill="#263238"/>
<path d="M82.1025 148.986L82.0635 149.76C82.0654 149.811 82.0541 149.861 82.0307 149.906C82.0073 149.951 81.9726 149.989 81.9299 150.017C81.8873 150.044 81.8383 150.06 81.7876 150.063C81.7369 150.066 81.6864 150.056 81.641 150.033L80.237 149.48C80.1252 149.429 80.0303 149.346 79.9636 149.243C79.8968 149.139 79.8609 149.019 79.86 148.895V148.102C79.8567 148.052 79.8669 148.002 79.8894 147.956C79.912 147.911 79.9462 147.872 79.9885 147.845C80.0307 147.817 80.0796 147.801 80.1302 147.798C80.1807 147.796 80.231 147.806 80.276 147.829L81.693 148.395C81.8119 148.442 81.9142 148.524 81.987 148.629C82.0599 148.734 82.1 148.858 82.1025 148.986Z" fill="#263238"/>
<path d="M82.1142 151.502V152.275C82.1173 152.327 82.1069 152.378 82.084 152.424C82.0611 152.47 82.0265 152.509 81.9836 152.537C81.9408 152.565 81.8913 152.582 81.8401 152.585C81.7888 152.588 81.7377 152.578 81.6917 152.555L80.2877 152.028C80.1722 151.979 80.0734 151.898 80.003 151.794C79.9327 151.691 79.8938 151.569 79.8912 151.443V150.65C79.8879 150.6 79.8981 150.549 79.9207 150.504C79.9432 150.459 79.9774 150.42 80.0197 150.393C80.062 150.365 80.1109 150.349 80.1614 150.346C80.2119 150.343 80.2622 150.354 80.3072 150.377L81.7307 150.917C81.8438 150.968 81.9399 151.05 82.0079 151.153C82.0758 151.257 82.1127 151.378 82.1142 151.502Z" fill="#263238"/>
<path d="M82.1281 154.05V154.824C82.1318 154.874 82.1221 154.925 82.1 154.971C82.0779 155.017 82.0441 155.057 82.002 155.086C81.96 155.115 81.9111 155.132 81.8602 155.136C81.8094 155.14 81.7583 155.131 81.7121 155.11L80.2951 154.603C80.1803 154.556 80.0814 154.477 80.01 154.375C79.9386 154.274 79.8977 154.154 79.8921 154.031V153.238C79.887 153.187 79.8955 153.136 79.9167 153.09C79.9379 153.043 79.9711 153.004 80.0129 152.974C80.0546 152.945 80.1034 152.928 80.1541 152.924C80.2049 152.92 80.2558 152.929 80.3016 152.952L81.7381 153.472C81.8513 153.521 81.9482 153.602 82.0173 153.704C82.0863 153.807 82.1248 153.927 82.1281 154.05Z" fill="#263238"/>
<path d="M78.974 145.047L78.935 145.853C78.9377 145.904 78.9268 145.955 78.9034 146C78.8801 146.045 78.845 146.083 78.802 146.111C78.7589 146.138 78.7094 146.153 78.6585 146.155C78.6076 146.156 78.5572 146.144 78.5125 146.12L77.1345 145.548C77.0194 145.496 76.9219 145.412 76.8538 145.306C76.7857 145.2 76.75 145.076 76.751 144.95V144.131C76.7468 144.08 76.7564 144.029 76.7789 143.984C76.8015 143.938 76.836 143.9 76.8787 143.872C76.9215 143.845 76.9709 143.83 77.0217 143.828C77.0725 143.827 77.1227 143.839 77.167 143.864L78.571 144.449C78.6897 144.498 78.7913 144.581 78.863 144.687C78.9347 144.794 78.9733 144.919 78.974 145.047Z" fill="#263238"/>
<path d="M78.9687 147.551L78.9297 148.357C78.9325 148.407 78.9216 148.458 78.8982 148.503C78.8748 148.548 78.8398 148.587 78.7967 148.614C78.7537 148.641 78.7041 148.656 78.6532 148.658C78.6023 148.659 78.5519 148.647 78.5072 148.623L77.1292 148.058C77.013 148.007 76.9141 147.923 76.8448 147.817C76.7755 147.711 76.7388 147.586 76.7392 147.46V146.641C76.735 146.59 76.7447 146.539 76.7672 146.494C76.7897 146.448 76.8242 146.409 76.867 146.382C76.9098 146.355 76.9592 146.339 77.01 146.338C77.0608 146.337 77.111 146.349 77.1552 146.374L78.5592 146.953C78.6792 147 78.7821 147.083 78.8551 147.189C78.928 147.296 78.9676 147.421 78.9687 147.551Z" fill="#263238"/>
<path d="M78.9535 150.046V150.852C78.9567 150.903 78.9466 150.953 78.924 150.999C78.9014 151.044 78.8673 151.082 78.825 151.11C78.7827 151.138 78.7338 151.154 78.6833 151.157C78.6328 151.159 78.5825 151.149 78.5375 151.125L77.1465 150.566C77.0314 150.515 76.9339 150.431 76.8658 150.324C76.7977 150.218 76.762 150.095 76.763 149.968V149.149C76.7582 149.099 76.7672 149.049 76.7889 149.003C76.8106 148.958 76.8442 148.919 76.8862 148.891C76.9282 148.863 76.977 148.847 77.0274 148.844C77.0778 148.842 77.1279 148.853 77.1725 148.876L78.5765 149.455C78.6893 149.507 78.7848 149.591 78.8516 149.696C78.9184 149.8 78.9538 149.922 78.9535 150.046Z" fill="#263238"/>
<path d="M78.9437 152.549V153.355C78.9458 153.405 78.9347 153.454 78.9117 153.498C78.8886 153.543 78.8543 153.58 78.8122 153.607C78.7701 153.634 78.7217 153.65 78.6718 153.652C78.6219 153.655 78.5722 153.644 78.5277 153.621L77.1367 153.069C77.0224 153.019 76.9249 152.937 76.8558 152.833C76.7866 152.73 76.7488 152.608 76.7467 152.484V151.658C76.7434 151.608 76.7536 151.557 76.7761 151.512C76.7987 151.467 76.8329 151.428 76.8752 151.4C76.9175 151.373 76.9664 151.357 77.0169 151.354C77.0674 151.351 77.1177 151.362 77.1627 151.385L78.5667 151.957C78.6795 152.009 78.775 152.093 78.8418 152.198C78.9087 152.302 78.944 152.424 78.9437 152.549Z" fill="#263238"/>
<path d="M75.8593 143.651V144.489C75.8622 144.539 75.8516 144.589 75.8286 144.634C75.8055 144.678 75.7709 144.716 75.7284 144.742C75.6858 144.769 75.6369 144.784 75.5867 144.785C75.5366 144.786 75.487 144.774 75.4433 144.749L74.0718 144.177C73.9567 144.125 73.8592 144.041 73.7911 143.935C73.723 143.829 73.6873 143.705 73.6883 143.579V142.721C73.6846 142.672 73.6942 142.623 73.7161 142.579C73.7379 142.535 73.7712 142.498 73.8125 142.471C73.8537 142.445 73.9014 142.43 73.9505 142.428C73.9995 142.426 74.0482 142.438 74.0913 142.461L75.4823 143.053C75.5961 143.105 75.6923 143.19 75.7592 143.296C75.8261 143.402 75.8608 143.525 75.8593 143.651Z" fill="#263238"/>
<path d="M75.8752 146.062V146.9C75.8796 146.95 75.8703 147 75.8481 147.045C75.826 147.09 75.7919 147.128 75.7496 147.155C75.7073 147.182 75.6585 147.196 75.6084 147.197C75.5583 147.198 75.509 147.185 75.4657 147.16L74.0942 146.588C73.9779 146.537 73.879 146.454 73.8097 146.347C73.7404 146.241 73.7038 146.117 73.7042 145.99V145.132C73.6998 145.082 73.7091 145.032 73.7313 144.987C73.7534 144.942 73.7875 144.904 73.8298 144.877C73.8721 144.851 73.9209 144.836 73.971 144.835C74.0211 144.834 74.0704 144.847 74.1137 144.872L75.5047 145.464C75.6173 145.517 75.7121 145.602 75.7778 145.708C75.8435 145.814 75.8773 145.937 75.8752 146.062Z" fill="#263238"/>
<path d="M75.8817 148.492V149.331C75.8846 149.381 75.874 149.431 75.851 149.475C75.828 149.52 75.7934 149.558 75.7508 149.584C75.7083 149.611 75.6593 149.625 75.6092 149.627C75.559 149.628 75.5094 149.615 75.4657 149.591L74.0942 149.019C73.9808 148.964 73.8845 148.88 73.8157 148.774C73.747 148.669 73.7084 148.547 73.7042 148.421V147.563C73.6998 147.513 73.7091 147.463 73.7313 147.418C73.7534 147.373 73.7875 147.335 73.8298 147.308C73.8721 147.281 73.9209 147.267 73.971 147.266C74.0211 147.265 74.0704 147.278 74.1137 147.303L75.5047 147.894C75.6185 147.947 75.7147 148.031 75.7816 148.138C75.8485 148.244 75.8833 148.367 75.8817 148.492Z" fill="#263238"/>
<path d="M75.8866 150.924V151.763C75.891 151.812 75.8817 151.863 75.8595 151.907C75.8374 151.952 75.8033 151.99 75.761 152.017C75.7187 152.044 75.6699 152.059 75.6198 152.06C75.5697 152.061 75.5204 152.048 75.4771 152.023L74.0991 151.451C73.984 151.399 73.8865 151.315 73.8184 151.209C73.7503 151.102 73.7146 150.979 73.7156 150.853V149.995C73.7119 149.946 73.7215 149.897 73.7434 149.853C73.7653 149.809 73.7986 149.771 73.8398 149.745C73.8811 149.718 73.9288 149.703 73.9778 149.701C74.0269 149.7 74.0755 149.711 74.1186 149.735L75.5096 150.32C75.6216 150.376 75.7159 150.463 75.7823 150.569C75.8487 150.676 75.8848 150.798 75.8866 150.924Z" fill="#263238"/>
<path d="M232.848 253.175L226.848 251.134C226.335 245.388 227.076 231.465 236.416 223.294C245.9 215 252.088 220.317 251.906 223.944C251.711 227.903 243.202 231.614 238.906 236.944C234.213 242.742 232.75 246.707 232.848 253.175Z" fill="#1A1D1F"/>
<path opacity="0.5" d="M232.848 253.175L226.848 251.134C226.335 245.388 227.076 231.465 236.416 223.294C245.9 215 252.088 220.317 251.906 223.944C251.711 227.903 243.202 231.614 238.906 236.944C234.213 242.742 232.75 246.707 232.848 253.175Z" fill="white"/>
<path d="M228.799 252.115C228.714 252.114 228.633 252.079 228.573 252.018C228.514 251.957 228.48 251.875 228.48 251.79C228.565 236.333 240.044 222.807 245.764 221.929C245.807 221.923 245.85 221.925 245.892 221.936C245.934 221.946 245.973 221.964 246.008 221.99C246.043 222.016 246.072 222.048 246.094 222.085C246.117 222.122 246.131 222.163 246.138 222.206C246.144 222.248 246.142 222.292 246.132 222.334C246.121 222.376 246.103 222.415 246.077 222.45C246.051 222.484 246.019 222.514 245.982 222.536C245.945 222.558 245.904 222.573 245.861 222.579C240.258 223.437 229.208 237.198 229.13 251.797C229.13 251.84 229.12 251.882 229.103 251.921C229.086 251.96 229.061 251.995 229.031 252.025C229 252.054 228.964 252.078 228.924 252.093C228.884 252.109 228.842 252.116 228.799 252.115Z" fill="white"/>
<path d="M247.103 239.317C241.903 237.607 230.593 243.295 228.402 251.667L232.848 253.168C236.439 250.234 240.785 248.375 245.387 247.806C252.712 247.071 252.283 241.026 247.103 239.317Z" fill="#1A1D1F"/>
<path opacity="0.65" d="M247.103 239.317C241.903 237.607 230.593 243.295 228.402 251.667L232.848 253.168C236.439 250.234 240.785 248.375 245.387 247.806C252.712 247.071 252.283 241.026 247.103 239.317Z" fill="white"/>
<path d="M230.432 252.798C230.38 252.8 230.329 252.789 230.282 252.766C230.206 252.724 230.15 252.655 230.124 252.573C230.099 252.49 230.106 252.401 230.146 252.324C234.598 243.724 244.264 241.183 248.196 242.236C248.238 242.246 248.276 242.265 248.31 242.291C248.344 242.317 248.373 242.349 248.394 242.386C248.415 242.423 248.429 242.464 248.434 242.506C248.439 242.548 248.435 242.591 248.424 242.632C248.401 242.715 248.347 242.786 248.273 242.829C248.199 242.873 248.111 242.886 248.027 242.866C244.27 241.859 235.027 244.329 230.724 252.616C230.698 252.672 230.657 252.718 230.605 252.75C230.553 252.783 230.493 252.799 230.432 252.798Z" fill="white"/>
<path d="M225.414 156.832V252.954C225.443 253.274 225.557 253.58 225.744 253.841C225.932 254.101 226.186 254.307 226.48 254.436C227.276 254.843 228.157 255.055 229.051 255.055C229.945 255.055 230.826 254.843 231.622 254.436C231.915 254.306 232.168 254.1 232.355 253.84C232.543 253.579 232.657 253.273 232.688 252.954V156.832H225.414Z" fill="#455A64"/>
<path d="M225.414 174.85L232.688 170.651V156.832H225.414V174.85Z" fill="#37474F"/>
<path d="M215.254 173.303L265.421 144.339V54.5547L215.254 83.5187V173.303Z" fill="#1A1D1F"/>
<path d="M265.421 54.554L242.847 41.5215L192.68 70.4855L215.254 83.518L265.421 54.554Z" fill="#1A1D1F"/>
<path opacity="0.2" d="M265.421 54.554L242.847 41.5215L192.68 70.4855L215.254 83.518L265.421 54.554Z" fill="white"/>
<path d="M192.68 70.4863V160.271L215.254 173.303V83.5188L192.68 70.4863Z" fill="#1A1D1F"/>
<path opacity="0.2" d="M192.68 70.4863V160.271L215.254 173.303V83.5188L192.68 70.4863Z" fill="black"/>
<path d="M247.24 77.8955L228.637 126.288L240.337 116.824L231.237 151.04L252.037 99.014L240.337 108.14L247.24 77.8955Z" fill="#FAFAFA"/>
<path d="M219.051 84.2402C219.74 83.8437 220.306 84.1687 220.306 84.9682C220.282 85.4032 220.156 85.8263 219.938 86.2035C219.72 86.5806 219.416 86.9012 219.051 87.1392C218.356 87.5422 217.797 87.2172 217.797 86.4177C217.82 85.9818 217.946 85.5575 218.164 85.1793C218.382 84.801 218.686 84.4793 219.051 84.2402Z" fill="#37474F"/>
<path d="M219.051 165.347C219.74 164.944 220.306 165.269 220.306 166.068C220.282 166.503 220.156 166.927 219.938 167.304C219.72 167.681 219.416 168.001 219.051 168.239C218.356 168.642 217.797 168.317 217.797 167.518C217.819 167.083 217.945 166.659 218.163 166.282C218.381 165.904 218.685 165.584 219.051 165.347Z" fill="#37474F"/>
<path d="M261.658 59.6243C262.354 59.2213 262.913 59.5463 262.913 60.3458C262.89 60.7811 262.765 61.2048 262.547 61.5822C262.329 61.9596 262.024 62.2799 261.658 62.5168C260.969 62.9198 260.41 62.5948 260.41 61.7953C260.433 61.3608 260.558 60.9378 260.775 60.5607C260.992 60.1835 261.294 59.8627 261.658 59.6243Z" fill="#37474F"/>
<path d="M261.658 140.725C262.354 140.322 262.913 140.647 262.913 141.446C262.89 141.882 262.765 142.305 262.547 142.683C262.329 143.06 262.024 143.38 261.658 143.617C260.969 144.02 260.41 143.695 260.41 142.896C260.433 142.461 260.558 142.038 260.775 141.661C260.992 141.284 261.294 140.963 261.658 140.725Z" fill="#37474F"/>
<path d="M265.422 54.5541V118.274L293.015 102.342V12.5576L242.848 41.5216L265.422 54.5541Z" fill="#1A1D1F"/>
<path d="M293.012 12.5579L242.845 41.5219L240.336 40.0724L290.503 11.1084L293.012 12.5579Z" fill="#1A1D1F"/>
<path opacity="0.2" d="M293.012 12.5579L242.845 41.5219L240.336 40.0724L290.503 11.1084L293.012 12.5579Z" fill="white"/>
<path d="M240.336 42.9713V40.0723L242.845 41.5218L240.336 42.9713Z" fill="#1A1D1F"/>
<path opacity="0.2" d="M240.336 42.9713V40.0723L242.845 41.5218L240.336 42.9713Z" fill="black"/>
<path opacity="0.2" d="M242.848 41.5215L275.153 50.3875V112.657L265.422 118.273V54.554L242.848 41.5215Z" fill="black"/>
</svg>
