<svg width="325" height="325" viewBox="0 0 325 325" fill="none" xmlns="http://www.w3.org/2000/svg">
<path d="M81.6513 211.353L88.7038 212.848L81.6513 214.909C81.2107 215.036 80.8132 215.282 80.5017 215.618C80.1902 215.955 79.9764 216.37 79.8833 216.82L78.1218 225.27L76.1718 216.982C76.0632 216.52 75.8272 216.098 75.4905 215.764C75.1538 215.429 74.73 215.196 74.2673 215.091L67.2148 213.485L74.4623 211.444C74.9137 211.318 75.3211 211.069 75.639 210.724C75.957 210.38 76.1729 209.954 76.2628 209.494L77.8813 201.369L79.7078 209.442C79.8147 209.913 80.0547 210.344 80.3992 210.683C80.7437 211.022 81.1784 211.254 81.6513 211.353Z" fill="#E0E0E0"/>
<path d="M49.0087 271.92L52.7072 272.7L49.0022 273.786C48.7745 273.854 48.5698 273.984 48.4105 274.16C48.2512 274.336 48.1434 274.553 48.0987 274.787L47.1692 279.22L46.1487 274.865C46.0942 274.621 45.9709 274.399 45.7934 274.224C45.6159 274.049 45.3918 273.928 45.1477 273.877L41.4492 273.032L45.2517 271.959C45.4887 271.893 45.7028 271.763 45.8703 271.583C46.0378 271.403 46.1521 271.18 46.2007 270.939L47.0457 266.675L48.0012 270.913C48.0566 271.159 48.1807 271.384 48.359 271.563C48.5373 271.741 48.7627 271.865 49.0087 271.92Z" fill="#E0E0E0"/>
<path d="M101.158 204.256L103.303 204.711L101.158 205.361C101.024 205.398 100.902 205.472 100.807 205.574C100.711 205.676 100.646 205.802 100.619 205.939L100.079 208.539L99.4878 206.011C99.4535 205.87 99.3805 205.742 99.2771 205.641C99.1737 205.54 99.044 205.47 98.9028 205.439L96.7578 204.951L98.9678 204.301C99.104 204.262 99.2268 204.186 99.323 204.082C99.4192 203.977 99.4852 203.849 99.5138 203.71L100.008 201.233L100.56 203.69C100.598 203.831 100.674 203.958 100.779 204.058C100.885 204.157 101.016 204.226 101.158 204.256Z" fill="#E0E0E0"/>
<path d="M111.761 247.734L113.913 248.182L111.761 248.832C111.627 248.872 111.505 248.947 111.41 249.05C111.315 249.153 111.25 249.28 111.222 249.417L110.689 251.985L110.097 249.463C110.062 249.322 109.989 249.194 109.886 249.092C109.782 248.99 109.653 248.918 109.512 248.884L107.367 248.397L109.577 247.747C109.714 247.708 109.838 247.633 109.934 247.528C110.03 247.424 110.096 247.295 110.123 247.155L110.617 244.679L111.17 247.136C111.2 247.282 111.272 247.416 111.377 247.522C111.482 247.628 111.615 247.702 111.761 247.734Z" fill="#E0E0E0"/>
<path d="M59.3952 262.054L61.1632 262.424L59.3952 262.944C59.2865 262.978 59.1884 263.039 59.1109 263.123C59.0333 263.206 58.9789 263.308 58.9532 263.419L58.4983 265.538L58.0108 263.458C57.9823 263.343 57.9231 263.238 57.8395 263.155C57.7559 263.071 57.651 263.012 57.5362 262.983L55.7812 262.6L57.5948 262.086C57.7076 262.054 57.8094 261.991 57.8895 261.906C57.9696 261.82 58.025 261.714 58.0497 261.599L58.4528 259.564L58.9077 261.586C58.9383 261.701 58.9999 261.806 59.0859 261.888C59.1719 261.971 59.2789 262.028 59.3952 262.054Z" fill="#E0E0E0"/>
<path d="M176.911 282.132L178.679 282.503L176.911 283.016C176.801 283.05 176.703 283.113 176.625 283.197C176.547 283.282 176.494 283.385 176.469 283.497L176.027 285.61L175.539 283.536C175.511 283.422 175.452 283.317 175.368 283.233C175.284 283.15 175.18 283.09 175.065 283.062L173.297 282.659L175.11 282.152C175.222 282.118 175.322 282.055 175.401 281.97C175.48 281.884 175.535 281.778 175.559 281.664L175.968 279.63L176.423 281.651C176.452 281.769 176.513 281.876 176.599 281.961C176.685 282.046 176.793 282.106 176.911 282.132Z" fill="#E0E0E0"/>
<path d="M129.903 159.548L131.671 159.925L129.903 160.439C129.793 160.473 129.695 160.535 129.617 160.62C129.54 160.704 129.486 160.808 129.461 160.92L129.019 163.032L128.532 160.959C128.503 160.844 128.444 160.739 128.36 160.656C128.277 160.572 128.172 160.513 128.057 160.484L126.289 160.081L128.103 159.568C128.215 159.535 128.317 159.473 128.397 159.387C128.477 159.301 128.533 159.195 128.558 159.08L128.961 157.046L129.416 159.067C129.444 159.185 129.505 159.292 129.591 159.377C129.677 159.462 129.785 159.522 129.903 159.548Z" fill="#E0E0E0"/>
<path d="M293.618 217.405L295.386 217.782L293.618 218.295C293.508 218.329 293.41 218.392 293.332 218.476C293.254 218.561 293.201 218.664 293.176 218.776L292.734 220.889L292.246 218.815C292.217 218.7 292.157 218.594 292.072 218.511C291.988 218.427 291.881 218.368 291.765 218.341L290.004 217.938L291.817 217.424C291.93 217.395 292.032 217.335 292.112 217.249C292.191 217.164 292.245 217.058 292.266 216.943L292.675 214.902L293.13 216.924C293.159 217.041 293.22 217.149 293.306 217.234C293.392 217.319 293.5 217.378 293.618 217.405Z" fill="#E0E0E0"/>
<path d="M264.329 166.601L266.097 166.972L264.329 167.492C264.22 167.525 264.122 167.587 264.044 167.67C263.967 167.753 263.913 167.855 263.887 167.966L263.445 170.085L262.957 168.005C262.928 167.89 262.868 167.784 262.783 167.7C262.699 167.617 262.592 167.558 262.476 167.531L260.715 167.134L262.528 166.621C262.64 166.587 262.74 166.524 262.819 166.438C262.898 166.353 262.953 166.247 262.977 166.133L263.386 164.099L263.841 166.12C263.87 166.238 263.93 166.345 264.017 166.43C264.103 166.515 264.211 166.574 264.329 166.601Z" fill="#E0E0E0"/>
<path d="M203.449 68.9712L205.21 69.3483L203.449 69.8618C203.339 69.8958 203.24 69.9582 203.163 70.0427C203.085 70.1272 203.031 70.2307 203.007 70.3427L202.565 72.4552L202.077 70.3817C202.048 70.2662 201.988 70.1608 201.903 70.0771C201.818 69.9934 201.712 69.9347 201.596 69.9073L199.828 69.5042L201.648 68.9907C201.76 68.9572 201.86 68.8942 201.939 68.8084C202.018 68.7227 202.072 68.6173 202.097 68.5032L202.5 66.4688L202.961 68.4903C202.99 68.6079 203.05 68.7152 203.136 68.8002C203.223 68.8851 203.331 68.9444 203.449 68.9712Z" fill="#E0E0E0"/>
<path d="M129.947 255.15L133.522 255.911L129.947 256.951C129.723 257.018 129.522 257.144 129.365 257.316C129.207 257.487 129.098 257.698 129.05 257.926L128.153 262.203L127.165 258.004C127.109 257.77 126.989 257.557 126.819 257.387C126.65 257.217 126.436 257.098 126.203 257.042L122.621 256.229L126.3 255.189C126.528 255.125 126.733 254.999 126.895 254.826C127.056 254.653 127.168 254.439 127.217 254.208L128.036 250.087L128.959 254.182C129.015 254.42 129.138 254.637 129.313 254.809C129.488 254.98 129.707 255.098 129.947 255.15Z" fill="#E0E0E0"/>
<path d="M137.507 177.294L141.082 178.048L137.507 179.094C137.284 179.161 137.084 179.286 136.926 179.456C136.768 179.626 136.659 179.836 136.61 180.063L135.719 184.346L134.731 180.141C134.674 179.907 134.553 179.695 134.382 179.526C134.211 179.357 133.996 179.239 133.763 179.185L130.188 178.373L133.867 177.333C134.094 177.266 134.299 177.139 134.459 176.965C134.619 176.791 134.729 176.577 134.777 176.345L135.596 172.224L136.519 176.319C136.574 176.558 136.697 176.776 136.871 176.949C137.046 177.122 137.267 177.241 137.507 177.294Z" fill="#E0E0E0"/>
<path d="M187.406 47.3457L190.981 48.0997L187.406 49.1462C187.182 49.2124 186.979 49.3379 186.82 49.5095C186.661 49.6811 186.552 49.8924 186.503 50.1212L185.612 54.3982L184.598 50.1927C184.541 49.9595 184.42 49.7468 184.249 49.5782C184.078 49.4095 183.864 49.2915 183.63 49.2372L180.055 48.4247L183.734 47.3847C183.96 47.319 184.164 47.193 184.325 47.0201C184.485 46.8472 184.595 46.634 184.644 46.4032L185.463 42.2822L186.392 46.3707C186.45 46.6134 186.576 46.8343 186.756 47.0072C186.936 47.1801 187.161 47.2976 187.406 47.3457Z" fill="#E0E0E0"/>
<path d="M289.748 135.485L295.891 136.785L289.748 138.579C289.363 138.691 289.015 138.906 288.743 139.2C288.47 139.494 288.283 139.857 288.201 140.25L286.648 147.601L284.971 140.399C284.874 139.997 284.667 139.63 284.373 139.34C284.079 139.049 283.71 138.847 283.307 138.755L277.164 137.357L283.482 135.576C283.874 135.465 284.227 135.248 284.504 134.948C284.78 134.649 284.969 134.279 285.049 133.88L286.459 126.795L288.052 133.828C288.148 134.237 288.358 134.61 288.659 134.904C288.959 135.197 289.337 135.399 289.748 135.485Z" fill="#E0E0E0"/>
<path d="M103.908 32.4736H46.4023V92.4231H103.908V32.4736Z" fill="#E0E0E0"/>
<path d="M100.009 32.4736H42.5039V92.4231H100.009V32.4736Z" fill="#FAFAFA"/>
<path d="M100.026 92.4361H42.4883V32.4541H100.026V92.4361ZM42.5208 92.4036H99.9938V32.4996H42.5208V92.4036Z" fill="#E0E0E0"/>
<path d="M92.2868 40.5332H50.2383V84.3627H92.2868V40.5332Z" fill="#FAFAFA"/>
<path d="M50.239 84.6553C49.9377 85.0932 49.5889 85.4965 49.199 85.8578C48.549 86.5663 47.587 87.5283 46.5275 88.5683C45.468 89.6083 44.4995 90.5183 43.778 91.2008C43.4164 91.586 43.0081 91.9244 42.5625 92.2083C42.8635 91.77 43.2099 91.3648 43.596 90.9993C44.246 90.2908 45.2145 89.3353 46.274 88.2888C47.3335 87.2423 48.3085 86.3388 49.03 85.6563C49.3901 85.2739 49.7962 84.9377 50.239 84.6553Z" fill="#E0E0E0"/>
<path d="M92.2969 84.5449C92.7398 84.8423 93.1457 85.1914 93.5059 85.5849C94.2144 86.2349 95.1764 87.1969 96.2164 88.2564C97.2564 89.3159 98.1664 90.2844 98.8164 90.9994C99.2009 91.3634 99.5413 91.7713 99.8304 92.2149C99.3884 91.924 98.9844 91.579 98.6279 91.1879C97.9194 90.5379 96.9574 89.5694 95.9174 88.5099C94.8774 87.4504 93.9674 86.4689 93.2784 85.7539C92.9053 85.3905 92.5759 84.9847 92.2969 84.5449Z" fill="#E0E0E0"/>
<path d="M92.168 40.6507C92.4641 40.2087 92.8109 39.8029 93.2015 39.4417C93.8515 38.7332 94.82 37.7777 95.8795 36.7312C96.939 35.6847 97.9075 34.7812 98.6225 34.1312C98.983 33.743 99.3914 33.4023 99.838 33.1172C99.542 33.5514 99.1926 33.9467 98.798 34.2937C98.148 35.0022 97.1795 35.9642 96.12 37.0107C95.0605 38.0572 94.0855 38.9607 93.3705 39.6432C93.0105 40.025 92.6069 40.3631 92.168 40.6507Z" fill="#E0E0E0"/>
<path d="M50.1208 40.755C49.6788 40.4589 49.273 40.112 48.9118 39.7215C48.2033 39.0715 47.2477 38.103 46.2077 37.0435C45.1677 35.984 44.2577 35.0155 43.6077 34.3005C43.2262 33.9337 42.8861 33.5261 42.5938 33.085C43.0367 33.3772 43.4408 33.7244 43.7962 34.1185C44.5047 34.7685 45.4667 35.737 46.5132 36.7965C47.5597 37.856 48.4632 38.831 49.1132 39.546C49.4954 39.908 49.8336 40.3138 50.1208 40.755Z" fill="#E0E0E0"/>
<path d="M92.1669 84.3627C92.162 84.2913 92.162 84.2196 92.1669 84.1482C92.1669 83.9987 92.1669 83.7972 92.1669 83.5372C92.1669 82.9847 92.1669 82.1982 92.1669 81.1712C92.1669 79.0912 92.1669 76.0752 92.1214 72.2402C92.1214 64.5637 92.0759 53.6242 92.0434 40.5332L92.2059 40.6957H50.2744L50.4564 40.5137C50.4564 56.6012 50.4564 71.6487 50.4564 84.3432L50.3004 84.1807L80.6619 84.2652L89.1899 84.3042H91.4454H92.0239H92.2319H92.0434H91.4779H89.2549L80.7594 84.3497L50.2354 84.4992H50.0469V84.3432C50.0469 71.6487 50.0469 56.6012 50.0469 40.5137V40.3252H50.2354H92.1669H92.3294V40.4877C92.2904 53.6242 92.2644 64.5962 92.2449 72.2987C92.2449 76.1142 92.2449 79.1237 92.1994 81.1907C92.1994 82.2047 92.1994 82.9847 92.1994 83.5242C92.1994 83.7777 92.1994 83.9792 92.1994 84.1222C92.1994 84.2652 92.1669 84.3627 92.1669 84.3627Z" fill="#E0E0E0"/>
<path d="M78.2731 55.4316H64.2461V69.4586H78.2731V55.4316Z" fill="#EBEBEB"/>
<path d="M103.857 107.347H46.3516V167.296H103.857V107.347Z" fill="#E0E0E0"/>
<path d="M99.9547 107.347H42.4492V167.296H99.9547V107.347Z" fill="#FAFAFA"/>
<path d="M99.982 167.316H42.4375V107.334H99.982V167.316ZM42.47 167.277H99.943V107.366H42.47V167.277Z" fill="#E0E0E0"/>
<path d="M92.2321 115.407H50.1836V159.237H92.2321V115.407Z" fill="#FAFAFA"/>
<path d="M50.1843 159.529C49.8844 159.97 49.5355 160.376 49.1443 160.738C48.4943 161.447 47.5323 162.402 46.4728 163.449C45.4133 164.495 44.4448 165.399 43.7233 166.049C43.3582 166.432 42.9504 166.772 42.5078 167.063C42.8088 166.633 43.1577 166.238 43.5478 165.886C44.1978 165.178 45.1663 164.216 46.2258 163.169C47.2853 162.123 48.2603 161.219 48.9818 160.537C49.3418 160.155 49.7454 159.817 50.1843 159.529Z" fill="#E0E0E0"/>
<path d="M92.2266 159.425C92.6704 159.719 93.0764 160.066 93.4356 160.458C94.1441 161.108 95.1061 162.077 96.1461 163.13C97.1861 164.183 98.0961 165.164 98.7461 165.879C99.1342 166.24 99.475 166.648 99.7601 167.095C99.3206 166.798 98.917 166.451 98.5576 166.061C97.8491 165.411 96.8871 164.443 95.8471 163.383C94.8071 162.324 93.8971 161.349 93.2081 160.634C92.8368 160.269 92.5076 159.863 92.2266 159.425Z" fill="#E0E0E0"/>
<path d="M92.1172 115.524C92.4146 115.085 92.7613 114.681 93.1507 114.321C93.8007 113.613 94.7692 112.651 95.8287 111.611C96.8882 110.571 97.8567 109.661 98.5717 108.978C98.9349 108.595 99.343 108.257 99.7872 107.971C99.4917 108.409 99.1447 108.811 98.7537 109.167C98.1037 109.875 97.1352 110.837 96.0757 111.884C95.0162 112.93 94.0412 113.834 93.3262 114.516C92.9665 114.901 92.5604 115.239 92.1172 115.524Z" fill="#E0E0E0"/>
<path d="M50.0492 115.635C49.6082 115.335 49.2026 114.986 48.8402 114.595C48.1317 113.945 47.1762 112.983 46.1362 111.923C45.0962 110.864 44.1992 109.895 43.5492 109.2C43.1658 108.835 42.8256 108.427 42.5352 107.984C42.9742 108.282 43.3776 108.629 43.7377 109.018C44.4462 109.668 45.4082 110.636 46.4547 111.696C47.5012 112.755 48.4047 113.73 49.0547 114.452C49.433 114.804 49.767 115.202 50.0492 115.635Z" fill="#E0E0E0"/>
<path d="M92.1149 159.25C92.1093 159.181 92.1093 159.111 92.1149 159.042C92.1149 158.892 92.1149 158.691 92.1149 158.424C92.1149 157.878 92.1149 157.085 92.1149 156.058C92.1149 153.985 92.1149 150.962 92.0694 147.127C92.0694 139.451 92.0239 128.518 91.9914 115.42L92.1539 115.583H50.2224L50.4044 115.394C50.4044 131.482 50.4044 146.536 50.4044 159.224L50.2484 159.068L80.6099 159.146L89.1379 159.191H91.3934H92.1799C92.1172 159.197 92.0541 159.197 91.9914 159.191H91.4259H89.2029L80.7074 159.23L50.2484 159.315H50.0469V159.25C50.0469 146.562 50.0469 131.508 50.0469 115.42V115.238H50.2354H92.1669H92.2969V115.401C92.2579 128.537 92.2319 139.509 92.2124 147.212C92.2124 151.034 92.1799 154.043 92.1669 156.11C92.1669 157.124 92.1669 157.904 92.1669 158.444C92.1669 158.697 92.1669 158.892 92.1669 159.035C92.1538 159.108 92.1364 159.179 92.1149 159.25Z" fill="#E0E0E0"/>
<path d="M78.2249 130.312H64.1914V144.339H78.2249V130.312Z" fill="#EBEBEB"/>
<path d="M252.803 113.405C245.915 113.745 239.098 111.872 233.349 108.062L219.049 111.546L225.276 100.496C220.914 94.6968 218.619 87.6045 218.756 80.3493C218.893 73.0941 221.454 66.0933 226.031 60.4624C230.608 54.8315 236.938 50.8943 244.012 49.2782C251.086 47.6621 258.498 48.46 265.066 51.5448C271.634 54.6296 276.981 59.8238 280.255 66.2999C283.528 72.776 284.541 80.1615 283.13 87.2796C281.719 94.3977 277.967 100.839 272.471 105.577C266.975 110.315 260.052 113.078 252.803 113.425V113.405Z" fill="white"/>
<path d="M252.805 113.405C252.805 113.405 253 113.373 253.37 113.334L255.028 113.152C255.392 113.106 255.802 113.08 256.25 113.009L257.699 112.703C258.226 112.593 258.792 112.489 259.389 112.346L261.268 111.754C264.489 110.72 267.52 109.17 270.245 107.165C270.658 106.88 271.053 106.57 271.427 106.236L272.63 105.241C273.038 104.897 273.427 104.531 273.793 104.143L274.957 102.966C275.718 102.147 276.413 101.231 277.174 100.327L278.174 98.8388C278.533 98.3411 278.86 97.8223 279.156 97.2853C279.797 96.187 280.368 95.0494 280.866 93.8793C281.117 93.2813 281.37 92.6768 281.626 92.0658L282.224 90.1483C282.322 89.8233 282.426 89.4983 282.53 89.1733C282.633 88.8483 282.672 88.5233 282.744 88.1658C282.88 87.5158 283.024 86.8073 283.16 86.1118C283.297 85.4163 283.316 84.7078 283.394 83.9993C283.433 83.6418 283.472 83.2843 283.505 82.9268C283.537 82.5693 283.505 82.1988 283.505 81.8348V79.6313C283.472 78.8903 283.368 78.1493 283.303 77.3953C283.264 77.0248 283.231 76.6478 283.192 76.2708C283.153 75.8938 283.05 75.5233 282.978 75.1463C282.822 74.3988 282.666 73.6383 282.51 72.8778C281.666 69.7955 280.409 66.8415 278.773 64.0963C276.996 61.2506 274.805 58.6853 272.273 56.4848C271.623 55.9518 270.972 55.3603 270.251 54.8663L268.087 53.4038C267.333 52.9683 266.546 52.5653 265.773 52.1038C265.578 52.0063 265.389 51.8893 265.188 51.7983L264.577 51.5383L263.348 51.0183C256.468 48.2035 248.822 47.8794 241.729 50.1018L240.702 50.4203L240.188 50.5763L239.688 50.7843L237.738 51.6163L237.25 51.8308L236.782 52.0843L235.84 52.5913C235.206 52.9215 234.592 53.2882 234 53.6898L232.252 54.8663C231.667 55.2563 231.16 55.7438 230.607 56.1663C226.992 59.1342 224.074 62.8621 222.062 67.085C220.05 71.3079 218.993 75.9221 218.966 80.5998V82.4718C219.005 83.1218 219.031 83.7133 219.102 84.3243C219.221 85.5375 219.415 86.7422 219.681 87.9318C220.67 92.4457 222.616 96.6948 225.388 100.392L225.446 100.464L225.401 100.548L219.161 111.598L219.018 111.416L233.318 107.958H233.35H233.389C235.797 109.563 238.407 110.842 241.151 111.761C243.191 112.433 245.291 112.905 247.423 113.171C248.75 113.324 250.085 113.406 251.42 113.418H252.448H252.799H252.454L251.42 113.457C250.081 113.471 248.742 113.406 247.41 113.262C242.36 112.688 237.516 110.931 233.273 108.134H233.35L219.05 111.644L218.771 111.709L218.914 111.462C220.864 108.023 222.905 104.312 225.128 100.412V100.561C222.322 96.8369 220.351 92.5515 219.349 87.9968C219.079 86.7965 218.882 85.5809 218.758 84.3568C218.686 83.7393 218.654 83.1153 218.615 82.4913C218.576 81.8673 218.615 81.2303 218.615 80.5933C218.641 72.4931 221.735 64.7035 227.273 58.7923C228.243 57.7626 229.279 56.7964 230.374 55.8998C230.926 55.4643 231.439 54.9703 232.031 54.5998L233.799 53.4038C234.396 53.0124 235.015 52.6543 235.652 52.3313L236.601 51.8178L237.075 51.5578L237.569 51.3498L239.564 50.5048L240.071 50.2968L240.592 50.1343L241.631 49.8158C245.244 48.7025 249.021 48.2166 252.799 48.3793C256.462 48.5768 260.068 49.3762 263.471 50.7453L264.713 51.2718L265.331 51.5318C265.539 51.6293 265.727 51.7463 265.922 51.8503C266.708 52.2793 267.495 52.6888 268.262 53.1503L270.446 54.5998C271.168 55.1003 271.804 55.6983 272.487 56.2378C275.054 58.4559 277.271 61.0481 279.065 63.9273C280.715 66.7009 281.981 69.6857 282.828 72.7998L283.297 75.0878C283.368 75.4648 283.466 75.8418 283.511 76.2188C283.557 76.5958 283.582 76.9793 283.621 77.3563C283.687 78.1168 283.791 78.8643 283.817 79.6118C283.843 80.3593 283.817 81.1003 283.817 81.8348C283.817 82.2053 283.817 82.5693 283.817 82.9333L283.699 84.0188C283.615 84.7338 283.569 85.4488 283.459 86.1508C283.348 86.8528 283.173 87.5353 283.03 88.2178C282.958 88.5558 282.9 88.9003 282.809 89.2318C282.718 89.5633 282.607 89.8818 282.503 90.2133C282.302 90.8633 282.094 91.5133 281.899 92.1633L281.125 93.9898C280.62 95.1673 280.041 96.3115 279.39 97.4153C279.09 97.9546 278.758 98.4756 278.395 98.9753C278.051 99.4758 277.745 99.9763 277.381 100.47C276.614 101.374 275.912 102.303 275.145 103.122L273.963 104.299C273.594 104.692 273.201 105.061 272.786 105.404L271.577 106.398C271.199 106.734 270.8 107.044 270.381 107.328C267.632 109.325 264.576 110.862 261.333 111.878L259.448 112.45C258.843 112.593 258.271 112.69 257.745 112.801L256.289 113.087C255.841 113.158 255.431 113.171 255.06 113.21L253.396 113.36C253 113.399 252.805 113.405 252.805 113.405Z" fill="#263238"/>
<path d="M253.883 65.5136C254.182 64.1811 254.169 62.7251 254.923 61.6136C255.296 61.0526 255.831 60.6182 256.457 60.3679C257.083 60.1176 257.77 60.0632 258.427 60.2119C259.085 60.3605 259.681 60.7053 260.138 61.2005C260.596 61.6957 260.892 62.318 260.987 62.9851C261.195 64.5191 260.337 66.0531 260.571 67.5806C260.726 68.2648 261.043 68.9018 261.496 69.438C261.948 69.9741 262.523 70.3938 263.171 70.6616C264.026 71.1747 264.966 71.5292 265.947 71.7081C266.031 71.7081 266.122 71.7081 266.207 71.7471C267.188 71.9009 268.089 72.3829 268.761 73.1144C269.434 73.8458 269.838 74.7836 269.909 75.7746C269.98 76.7656 269.713 77.7515 269.152 78.5712C268.59 79.3909 267.768 79.9961 266.818 80.2881C265.245 80.7821 263.093 80.6456 262.482 82.1731C261.949 83.5121 263.204 84.8381 264.289 85.7806C265.375 86.7231 266.532 88.2051 265.804 89.4531C265.258 90.3891 263.958 90.5321 262.879 90.3826C261.8 90.2331 260.675 89.9146 259.668 90.3111C258.303 90.8506 257.718 92.4756 257.627 93.9381C257.536 95.4006 257.731 96.9086 257.23 98.2866C256.73 99.6646 255.137 100.822 253.824 100.172C251.621 99.0796 253.057 94.8871 250.867 93.7626C249.768 93.1906 248.41 93.8471 247.526 94.7181C246.642 95.5891 245.966 96.6681 244.926 97.3181C244.297 97.6971 243.571 97.8842 242.838 97.8565C242.104 97.8289 241.395 97.5877 240.796 97.1625C240.198 96.7373 239.737 96.1466 239.469 95.463C239.201 94.7794 239.139 94.0325 239.29 93.3141C239.557 92.0141 240.454 91.0066 241.065 89.8561C241.676 88.7056 241.936 87.1586 241.065 86.2096C239.797 84.8576 237.542 85.8586 235.696 85.5986C233.421 85.2736 231.893 82.6736 232.368 80.3986C232.842 78.1236 234.929 76.4531 237.191 76.0306C238.432 75.7966 239.726 75.8941 240.961 75.6146C242.196 75.3351 243.45 74.5356 243.691 73.2941C243.996 71.6691 242.488 70.2846 242.118 68.6726C241.957 67.9724 242.017 67.2395 242.29 66.575C242.564 65.9105 243.036 65.3472 243.643 64.9628C244.25 64.5783 244.962 64.3917 245.679 64.4287C246.397 64.4656 247.085 64.7244 247.649 65.1691C248.949 66.1831 249.697 68.1851 251.348 68.2241C252.654 68.2501 253.584 66.8396 253.883 65.5136Z" fill="#1A1D1F"/>
<path d="M236.381 83.7137C236.381 83.7527 235.991 83.7137 235.458 83.4407C234.757 83.0519 234.23 82.4117 233.983 81.6492C233.735 80.8868 233.786 80.0589 234.126 79.3327C234.379 78.7867 234.678 78.5462 234.704 78.5722C234.73 78.5982 234.529 78.8907 234.347 79.4237C234.098 80.1061 234.086 80.8519 234.311 81.5423C234.536 82.2326 234.985 82.8278 235.588 83.2327C236.05 83.5577 236.394 83.6617 236.381 83.7137Z" fill="white"/>
<path d="M241.922 96.3822C241.89 96.3822 241.688 96.2197 241.474 95.8232C241.214 95.2982 241.091 94.7162 241.116 94.1312C241.141 93.5461 241.314 92.9767 241.617 92.4757C241.857 92.0987 242.078 91.9297 242.104 91.9557C241.759 92.6415 241.539 93.3832 241.454 94.1462C241.478 94.9132 241.636 95.6701 241.922 96.3822Z" fill="white"/>
<path d="M242.735 87.6519C242.638 87.6519 242.644 87.1319 242.501 86.5404C242.358 85.9489 242.137 85.4939 242.215 85.4419C242.293 85.3899 242.677 85.7994 242.826 86.4624C242.976 87.1254 242.826 87.6649 242.735 87.6519Z" fill="white"/>
<path d="M254.333 98.4292C254.242 98.4292 254.054 98.0067 253.911 97.4282C253.768 96.8497 253.735 96.3687 253.82 96.3492C253.904 96.3297 254.099 96.7783 254.242 97.3503C254.385 97.9223 254.424 98.4097 254.333 98.4292Z" fill="white"/>
<path d="M244.538 71.0322C244.538 71.0322 244.272 70.8632 244.005 70.4472C243.675 69.8972 243.471 69.2807 243.408 68.6422C243.345 68.0036 243.424 67.3591 243.641 66.7552C243.823 66.2937 244.012 66.0597 244.044 66.1052C243.815 66.9278 243.712 67.7803 243.739 68.6337C243.881 69.4694 244.151 70.2782 244.538 71.0322Z" fill="white"/>
<path d="M226.317 59.4167L225.496 60.4414L276.153 101.025L276.974 100.001L226.317 59.4167Z" fill="#263238"/>
<path d="M139.709 234.54L130.297 251.193L143.446 264.427L157.22 249.484L139.709 234.54Z" fill="#FFBE9D"/>
<path d="M58.4997 286.859L76.3162 286.436C76.3162 286.436 85.6437 280.781 86.3782 280.359C87.1127 279.936 91.3573 279.059 91.3573 279.059L119.6 287.905V290.505H53.4688V288.536L56.5108 288.217L58.4997 286.859Z" fill="#E0E0E0"/>
<path d="M131.333 248.833C130.8 248.749 115.811 272.11 115.811 272.11L97.9032 275.392L78.0522 286.442C78.0522 286.442 77.6037 288.685 79.8462 288.834C82.0887 288.984 94.1462 283.634 94.1462 283.634C94.1462 283.634 90.0187 285.643 90.8052 288.23C91.7282 291.265 99.5152 288.88 99.5152 288.88L116.149 287.801C116.912 287.751 117.657 287.541 118.335 287.185C119.012 286.829 119.607 286.335 120.081 285.734L122.2 283.056L145.483 264.55C145.483 264.55 143.423 250.621 131.333 248.833Z" fill="#1A1D1F"/>
<path d="M104.778 280.306C104.668 280.466 104.534 280.609 104.381 280.729C103.99 281.08 103.575 281.403 103.14 281.697C102.492 282.14 101.796 282.508 101.066 282.796C100.164 283.134 99.2145 283.329 98.2519 283.374C97.3125 283.396 96.375 283.469 95.4439 283.595C94.7069 283.774 93.9982 284.054 93.3379 284.427C92.1874 285.077 91.5959 285.63 91.5569 285.584C91.5179 285.539 91.6674 285.409 91.9469 285.155C92.3413 284.807 92.7654 284.494 93.2144 284.219C93.8854 283.803 94.615 283.49 95.3789 283.29C96.3213 283.143 97.2723 283.058 98.2259 283.036C99.9273 282.947 101.576 282.416 103.01 281.496C104.121 280.8 104.739 280.261 104.778 280.306Z" fill="#263238"/>
<path d="M118.188 277.55C118.097 277.55 117.876 276.25 117.141 274.768C116.648 273.899 116.203 273.003 115.809 272.084C116.493 272.834 117.046 273.693 117.447 274.625C117.957 275.514 118.214 276.526 118.188 277.55Z" fill="#263238"/>
<path d="M122.699 278.954C122.301 278.772 121.937 278.526 121.62 278.226C120.001 276.875 118.716 275.169 117.863 273.241C117.659 272.852 117.521 272.432 117.453 271.999C118.134 273.291 118.892 274.541 119.722 275.743C120.647 276.873 121.642 277.945 122.699 278.954Z" fill="#263238"/>
<path d="M128.185 274.138C128.126 273.948 128.096 273.751 128.094 273.553C128.094 273.176 128.029 272.63 128.023 271.954C127.998 270.19 128.118 268.427 128.38 266.682C128.646 264.935 129.048 263.212 129.583 261.528C129.791 260.878 129.979 260.371 130.129 260.02C130.185 259.832 130.271 259.654 130.382 259.493C130.232 260.205 130.043 260.908 129.817 261.599C128.871 264.973 128.35 268.451 128.263 271.954C128.276 272.683 128.25 273.412 128.185 274.138Z" fill="#263238"/>
<g opacity="0.3">
<path d="M129.766 261.645C128.492 265.217 127.976 269.016 128.252 272.799C129.483 269.216 129.998 265.426 129.766 261.645Z" fill="black"/>
</g>
<path d="M205.477 298.961L207.349 284.05L278.283 244.602C278.283 244.602 288.683 261.417 292.661 298.974L242.819 298.74L205.477 298.961Z" fill="#263238"/>
<path d="M167.914 153.147L158.866 163.209L157.371 183.242L174.778 218.934L194.74 260.95C196.384 264.557 198.042 272.871 196.872 277.596C196.872 277.596 193.622 289.036 210.119 289.797C219.115 290.213 229.463 287.847 237.009 285.591L237.204 285.533C250.109 281.715 261.003 272.99 267.546 261.229L279.123 245.246C276.562 235.281 272.623 237.998 271.069 234.235C263.581 216.158 257.419 203.1 257.419 203.1L232.615 145.952C228.904 137.56 224.224 134.486 218.77 133.14C214.727 132.169 210.509 132.183 206.472 133.179L194.285 136.111L167.914 153.147Z" fill="#455A64"/>
<path d="M158.275 256.64C163.358 250.79 171.6 210.457 171.6 210.457L158.867 163.209C158.867 163.209 152.978 169.91 151.151 176.319L140.478 232.785C140.478 232.785 136.578 233.597 136.617 239.584C136.624 243.614 158.275 256.64 158.275 256.64Z" fill="#455A64"/>
<path d="M181.058 231.94C180.966 231.813 180.886 231.678 180.817 231.537L180.167 230.354L177.899 225.967C176.001 222.216 173.401 217.101 170.534 211.446L163.28 196.879L161.109 192.446C160.869 191.946 160.68 191.543 160.537 191.237C160.461 191.099 160.4 190.953 160.355 190.802C160.448 190.928 160.529 191.063 160.596 191.205L161.246 192.388L163.514 196.775C165.412 200.519 168.012 205.641 170.879 211.303L178.159 225.869L180.33 230.302C180.564 230.803 180.752 231.206 180.902 231.511C180.97 231.648 181.022 231.792 181.058 231.94Z" fill="#263238"/>
<path d="M270.822 238.16C270.788 238.346 270.738 238.529 270.672 238.706L270.178 240.253L269.814 241.371C269.671 241.781 269.496 242.21 269.314 242.671C268.943 243.607 268.566 244.686 268.014 245.824C267.754 246.402 267.481 247.007 267.201 247.637C266.922 248.268 266.551 248.892 266.233 249.555C265.583 250.894 264.764 252.252 263.925 253.702C260.175 259.923 255.49 265.531 250.035 270.329C248.735 271.408 247.558 272.461 246.362 273.338C245.764 273.78 245.212 274.235 244.646 274.638C244.081 275.041 243.528 275.399 243.008 275.763C241.981 276.497 240.987 277.063 240.135 277.596C239.706 277.856 239.31 278.103 238.939 278.317L237.899 278.85L236.463 279.611C236.297 279.703 236.125 279.786 235.949 279.858C236.1 279.742 236.261 279.639 236.43 279.552L237.834 278.733L238.848 278.155C239.219 277.934 239.609 277.674 240.031 277.407C240.87 276.861 241.851 276.283 242.865 275.535L244.484 274.398C245.043 274.001 245.595 273.546 246.18 273.098C247.37 272.214 248.553 271.148 249.82 270.082C255.229 265.282 259.891 259.702 263.652 253.526C264.491 252.09 265.316 250.738 265.973 249.412C266.311 248.762 266.662 248.112 266.954 247.507L267.793 245.713C268.345 244.582 268.742 243.516 269.125 242.593C269.314 242.125 269.496 241.696 269.652 241.293L270.042 240.188L270.594 238.661C270.658 238.489 270.734 238.322 270.822 238.16Z" fill="#263238"/>
<g opacity="0.3">
<path d="M224.992 235.951C230.296 235.853 237.784 234.969 242.88 233.487C247.976 232.005 252.851 229.451 256.498 225.616C260.144 221.781 262.504 216.516 262.348 211.244C259.351 217.751 253.501 223.679 246.852 227.046C244.635 228.17 240.638 230.133 240.183 229.548L224.992 235.951Z" fill="black"/>
</g>
<path d="M201.914 227.637C202.837 226.617 225.516 209.658 225.516 209.658L244.112 229.347L212.847 242.555L201.914 227.637Z" fill="#FFBE9D"/>
<path d="M239.616 231.692C243.802 230.002 247.845 228.215 250.588 226.102C263.588 216.073 264.446 207.025 262.756 200.408C260.903 193.128 231.335 141.908 228.072 138.612C224.809 135.317 214.5 130.039 204.197 141.797C198.217 148.629 210.106 167.882 210.106 167.882L231.231 204.854C225.283 203.846 222.566 209.95 222.566 209.95L239.616 231.692Z" fill="#455A64"/>
<path d="M223.014 211.53C222.992 211.458 222.977 211.384 222.969 211.309C222.818 210.246 222.943 209.163 223.333 208.163C223.902 206.941 224.922 205.988 226.18 205.505C227.786 204.869 229.514 204.6 231.237 204.718L231.107 204.926C228.949 201.176 226.375 196.678 223.599 191.848L213.999 174.948L211.119 169.807C210.801 169.215 210.547 168.747 210.352 168.396C210.261 168.234 210.178 168.067 210.105 167.896C210.222 168.041 210.324 168.198 210.411 168.364C210.619 168.702 210.892 169.163 211.236 169.742L214.207 174.831C216.703 179.167 220.115 185.121 223.898 191.692L231.347 204.803L231.477 205.024H231.217C229.536 204.899 227.847 205.146 226.271 205.745C225.053 206.192 224.055 207.09 223.482 208.254C223.148 209.016 222.982 209.84 222.995 210.672C222.995 211.251 223.034 211.53 223.014 211.53Z" fill="#263238"/>
<path d="M261.832 197.919C261.91 198.053 261.976 198.195 262.027 198.341C262.138 198.621 262.339 199.03 262.515 199.583C263.045 201.138 263.356 202.759 263.438 204.399C263.495 205.535 263.444 206.673 263.288 207.799C263.092 209.088 262.779 210.356 262.352 211.588C261.862 212.937 261.257 214.242 260.545 215.488C259.775 216.821 258.905 218.094 257.945 219.297C254.476 223.468 250.195 226.89 245.361 229.353C243.91 230.11 242.407 230.761 240.863 231.303C240.317 231.511 239.882 231.628 239.596 231.719C239.448 231.772 239.296 231.812 239.141 231.836C239.278 231.764 239.422 231.703 239.57 231.654C239.856 231.543 240.285 231.407 240.818 231.179C242.334 230.586 243.814 229.905 245.251 229.138C250.012 226.628 254.236 223.21 257.685 219.076C258.642 217.889 259.511 216.633 260.285 215.319C260.989 214.085 261.591 212.796 262.086 211.465C262.513 210.252 262.831 209.004 263.035 207.734C263.203 206.629 263.266 205.51 263.223 204.393C263.164 202.768 262.893 201.157 262.417 199.602C262.261 199.05 262.079 198.634 261.995 198.341C261.923 198.208 261.869 198.066 261.832 197.919Z" fill="#263238"/>
<g opacity="0.3">
<path d="M231.066 204.854C233.418 205.12 235.687 205.875 237.729 207.071C239.771 208.266 241.54 209.876 242.922 211.796C243.269 212.231 243.513 212.737 243.637 213.278C243.692 213.551 243.667 213.833 243.567 214.092C243.467 214.351 243.295 214.576 243.072 214.741C242.842 214.858 242.586 214.914 242.329 214.903C242.071 214.891 241.821 214.813 241.603 214.676C241.174 214.393 240.792 214.045 240.472 213.642C237.488 210.262 234.953 207.396 231.229 204.854" fill="black"/>
</g>
<path d="M242.579 217.633C242.527 217.633 242.092 216.788 241.279 215.436C240.254 213.674 239.073 212.008 237.75 210.457C236.407 208.926 234.904 207.545 233.265 206.336C232.01 205.407 231.172 204.906 231.204 204.854C231.42 204.932 231.627 205.032 231.822 205.153C232.212 205.361 232.751 205.699 233.408 206.141C235.106 207.308 236.65 208.684 238.003 210.236C239.349 211.797 240.517 213.502 241.487 215.319C241.858 216.015 242.137 216.587 242.306 216.99C242.424 217.192 242.516 217.408 242.579 217.633Z" fill="#263238"/>
<path d="M219.05 133.159C217.307 133.225 215.58 133.522 213.915 134.043C212.119 134.634 210.436 135.524 208.936 136.676C207.082 138.062 205.564 139.847 204.494 141.9C203.424 143.952 202.83 146.219 202.754 148.532C202.662 150.418 202.893 152.307 203.437 154.115C203.959 155.781 204.704 157.369 205.654 158.834C205.654 158.834 205.562 158.743 205.419 158.555C205.205 158.277 205.005 157.989 204.821 157.69C204.133 156.598 203.591 155.42 203.21 154.187C202.626 152.356 202.367 150.438 202.443 148.519C202.504 146.156 203.104 143.838 204.196 141.741C205.289 139.645 206.845 137.826 208.747 136.422C210.284 135.268 212.008 134.389 213.843 133.822C215.075 133.442 216.351 133.224 217.639 133.172C218.094 133.133 218.446 133.172 218.686 133.172C218.806 133.154 218.929 133.15 219.05 133.159Z" fill="#263238"/>
<path d="M164.918 244.401L164.112 242.815L162.292 241.989C162.292 241.989 154.492 243.244 152.594 246.487C150.696 249.731 143.182 261.307 143.494 263.615C143.806 265.922 145.782 267.157 147.108 266.663C148.434 266.169 150.884 262.952 150.884 262.952L151.931 262.815L164.281 265.656L165.75 263.121L154.245 258.883L160.504 258.265L165.984 252.415L164.918 244.401Z" fill="#E0E0E0"/>
<path d="M176.632 263.972C176.267 265.042 176.17 266.185 176.349 267.301C176.528 268.417 176.978 269.472 177.659 270.374C179.687 273.046 182.71 277.238 185.557 280.969C187.78 283.875 202.743 291.571 210.829 295.594C212.345 296.352 214.086 296.527 215.722 296.084C217.358 295.642 218.774 294.614 219.701 293.196C222.578 288.818 224.864 284.08 226.5 279.104C227.02 277.503 226.939 275.768 226.271 274.224C225.603 272.679 224.395 271.43 222.873 270.712L188.066 254.293C187.186 253.878 186.229 253.653 185.256 253.633C184.284 253.613 183.318 253.799 182.422 254.178C181.526 254.558 180.72 255.122 180.058 255.834C179.395 256.546 178.89 257.39 178.576 258.31L176.632 263.972Z" fill="#E0E0E0"/>
<path d="M176.632 263.972C176.632 263.972 176.632 263.848 176.729 263.621L177.061 262.6C177.36 261.697 177.802 260.384 178.361 258.7C178.638 257.737 179.107 256.84 179.739 256.061C180.501 255.135 181.491 254.423 182.612 253.994C183.9 253.497 185.306 253.391 186.655 253.689C187.38 253.877 188.082 254.145 188.748 254.488L190.86 255.476L211.147 265.012L223.126 270.66C224.197 271.205 225.111 272.014 225.782 273.01C226.453 274.006 226.859 275.157 226.961 276.354C227.05 277.572 226.854 278.794 226.389 279.923C225.993 281.067 225.57 282.204 225.089 283.329C224.163 285.556 223.106 287.726 221.924 289.829C221.339 290.864 220.728 291.874 220.091 292.858C219.78 293.362 219.423 293.836 219.025 294.275C218.017 295.329 216.708 296.047 215.278 296.331C213.847 296.615 212.364 296.451 211.03 295.861C209.028 294.899 207.13 293.911 205.238 292.949C201.481 290.999 197.939 289.133 194.676 287.281C193.038 286.358 191.471 285.441 190.002 284.505C188.556 283.648 187.194 282.658 185.933 281.548C185.406 280.97 184.917 280.357 184.471 279.715C184.022 279.104 183.58 278.506 183.171 277.934C182.319 276.777 181.507 275.685 180.753 274.684C179.999 273.683 179.303 272.734 178.653 271.843C178.034 271.065 177.471 270.244 176.97 269.386C176.341 268.147 176.103 266.746 176.287 265.369C176.336 264.891 176.455 264.422 176.638 263.978C176.638 263.978 176.638 264.095 176.547 264.329C176.457 264.673 176.392 265.023 176.352 265.376C176.199 266.737 176.455 268.112 177.087 269.328C177.593 270.173 178.16 270.981 178.783 271.746L180.909 274.567L183.34 277.817L184.672 279.591C185.113 280.226 185.597 280.83 186.122 281.398C187.374 282.489 188.726 283.462 190.158 284.304C191.627 285.227 193.194 286.137 194.832 287.053C198.082 288.893 201.644 290.765 205.394 292.689C207.273 293.638 209.203 294.639 211.179 295.588C212.189 296.034 213.294 296.225 214.396 296.144C215.497 296.064 216.562 295.714 217.497 295.126C217.973 294.826 218.409 294.468 218.797 294.06C219.18 293.637 219.524 293.18 219.824 292.695C220.474 291.714 221.059 290.745 221.638 289.679C222.815 287.59 223.868 285.432 224.79 283.218C225.258 282.1 225.674 280.969 226.09 279.832C226.546 278.748 226.738 277.572 226.649 276.4C226.553 275.26 226.168 274.164 225.53 273.216C224.891 272.267 224.022 271.497 223.003 270.979L211.043 265.311L190.782 255.71L188.676 254.709C188.026 254.372 187.342 254.106 186.635 253.916C185.336 253.627 183.98 253.724 182.735 254.196C181.64 254.604 180.671 255.289 179.921 256.185C179.293 256.951 178.824 257.835 178.543 258.785C177.958 260.462 177.496 261.762 177.184 262.685C177.028 263.114 176.911 263.452 176.82 263.692C176.729 263.933 176.632 263.972 176.632 263.972Z" fill="#263238"/>
<path d="M162.924 250.198C162.924 250.198 163.724 244.465 165.68 243.887C167.637 243.308 179.818 239.655 179.818 239.655L213.202 216.749L226.234 241.755L195.684 254.105C195.684 254.105 194.488 255.671 193.156 255.067C193.156 255.067 191.134 257.524 190.062 257.667C188.989 257.81 189.373 258.388 189.373 258.388C189.373 258.388 180.422 273.338 178.271 273.631C176.119 273.923 173.409 273.52 173.487 271.778C173.487 271.778 169.457 273.241 168.157 271.694C168.157 271.694 165.03 274.073 162.996 271.525C162.463 270.604 161.98 269.655 161.546 268.684C161.546 268.684 158.842 272.032 156.398 270.868C154.071 269.757 154.591 266.156 155.865 263.952C157.139 261.749 162.924 250.198 162.924 250.198Z" fill="#1A1D1F"/>
<path d="M150.364 263.731C150.312 263.731 150.124 263.4 149.714 262.899C148.661 261.605 147.151 260.764 145.496 260.553C145.145 260.545 144.795 260.51 144.449 260.449C144.789 260.322 145.155 260.277 145.515 260.319C146.387 260.357 147.238 260.598 148.001 261.022C148.763 261.446 149.417 262.042 149.909 262.763C150.135 263.045 150.291 263.377 150.364 263.731Z" fill="#263238"/>
<path d="M160.831 254.111C160.32 254.587 159.772 255.022 159.193 255.411C158.166 256.185 156.736 257.231 155.247 258.499C153.971 259.575 152.79 260.761 151.718 262.041C150.905 263.029 150.476 263.692 150.418 263.666C150.475 263.485 150.561 263.314 150.671 263.159C150.931 262.72 151.218 262.296 151.529 261.892C152.557 260.553 153.727 259.33 155.02 258.245C156.306 257.162 157.651 256.15 159.05 255.216C159.611 254.797 160.207 254.428 160.831 254.111Z" fill="#263238"/>
<path d="M189.684 280.385L199.304 262.074L216.665 270.004L205.342 289.992L189.684 280.385Z" fill="white"/>
<path d="M178.197 264.453C178.088 264.88 177.919 265.289 177.697 265.669C177.219 266.617 176.682 267.535 176.091 268.418C175.495 269.299 174.844 270.142 174.141 270.94C173.875 271.294 173.558 271.605 173.199 271.863C173.121 271.798 174.427 270.277 175.799 268.23C177.17 266.182 178.1 264.408 178.197 264.453Z" fill="#263238"/>
<path d="M171.819 264.707C171.529 266.027 171.036 267.295 170.357 268.464C169.763 269.678 168.987 270.793 168.056 271.772C167.971 271.707 169.018 270.245 170.058 268.301C171.098 266.358 171.722 264.674 171.819 264.707Z" fill="#263238"/>
<path d="M164.698 263.452C164.376 264.434 163.94 265.374 163.398 266.253C162.95 267.193 162.31 268.027 161.519 268.704C161.454 268.639 162.299 267.573 163.105 266.104C163.911 264.635 164.6 263.4 164.698 263.452Z" fill="#263238"/>
<path d="M188.812 253.955C188.812 254.046 185.257 253.175 180.921 252.005C176.586 250.835 173.121 249.808 173.121 249.723C173.121 249.639 176.677 250.503 181.012 251.673C185.348 252.843 188.838 253.864 188.812 253.955Z" fill="#263238"/>
<path d="M187.33 250.901C186.899 250.866 186.475 250.765 186.075 250.602C185.085 250.289 184.117 249.911 183.176 249.471C182.234 249.035 181.32 248.54 180.44 247.989C180.059 247.786 179.711 247.528 179.406 247.222C179.458 247.137 181.135 248.158 183.306 249.172C185.477 250.186 187.356 250.771 187.33 250.901Z" fill="#263238"/>
<g opacity="0.3">
<path d="M193.148 253.176C192.999 252.89 192.901 252.597 192.758 252.305C191.223 249.187 189.04 246.432 186.356 244.225C186.109 244.024 185.777 243.816 185.498 243.972C185.394 244.04 185.317 244.141 185.278 244.259C185.239 244.377 185.241 244.505 185.283 244.622C185.363 244.852 185.494 245.061 185.667 245.233C188.091 248.08 190.041 250.803 192.466 253.65C192.648 253.891 193.311 253.501 193.148 253.176Z" fill="black"/>
</g>
<path d="M135.637 277.654C135.952 277.138 136.313 276.65 136.716 276.198C137.411 275.327 138.393 274.138 139.498 272.838C140.603 271.538 141.61 270.374 142.351 269.542C142.728 269.069 143.15 268.633 143.612 268.242C143.3 268.761 142.938 269.248 142.533 269.698C141.838 270.569 140.856 271.759 139.758 273.059C138.659 274.359 137.645 275.522 136.898 276.348C136.517 276.82 136.095 277.257 135.637 277.654Z" fill="#263238"/>
<path d="M138.289 286.91C138.204 286.91 139.634 283.01 141.48 278.239C143.326 273.468 144.893 269.653 144.977 269.692C145.062 269.731 143.638 273.592 141.792 278.363C139.946 283.134 138.38 286.949 138.289 286.91Z" fill="#263238"/>
<path d="M146.607 281.788C146.454 279.751 146.415 277.707 146.49 275.665C146.455 273.621 146.531 271.577 146.717 269.542C146.87 271.579 146.909 273.623 146.834 275.665C146.869 277.709 146.793 279.753 146.607 281.788Z" fill="#263238"/>
<path d="M125.729 113.393C125.729 110.084 126.782 108.966 126.008 108.349C123.239 106.132 120.769 100.308 120.542 97.7214C120.015 91.6374 125.157 86.2879 125.157 86.2879C126.112 83.0379 127.432 78.7284 131.293 75.7384C135.479 72.4884 142.037 68.6274 147.283 69.3034C152.528 69.9794 156.318 70.3044 159.672 74.3929L152.346 139.341C148.277 139.217 144.657 136.65 141.894 133.653C139.132 130.657 136.948 127.153 134.094 124.274C131.949 122.122 131.494 123.006 127.802 118.125C125.501 115.089 125.696 116.428 125.729 113.393Z" fill="#263238"/>
<path d="M177.665 93.5615C173.076 80.4055 161.59 72.1115 148.571 77.0645L147.394 77.5975C141.683 80.1615 137.147 84.7821 134.688 90.5396C132.23 96.297 132.03 102.769 134.128 108.667C138.164 120.042 142.773 132.548 145.49 138.405C151.112 150.527 164.158 146.952 164.158 146.952L169.696 157.482C175.45 158.623 181.423 157.651 186.519 154.744C191.615 151.837 195.491 147.189 197.438 141.655L177.665 93.5615Z" fill="#FFBE9D"/>
<path d="M142.894 117.871C143.101 118.322 143.471 118.676 143.93 118.864C144.389 119.051 144.901 119.056 145.364 118.879C145.594 118.796 145.804 118.669 145.984 118.504C146.163 118.339 146.308 118.14 146.41 117.919C146.511 117.697 146.568 117.458 146.576 117.214C146.584 116.97 146.543 116.728 146.456 116.5C146.249 116.05 145.879 115.695 145.42 115.508C144.962 115.321 144.449 115.315 143.986 115.492C143.757 115.575 143.546 115.702 143.367 115.867C143.187 116.032 143.042 116.231 142.941 116.453C142.839 116.674 142.782 116.914 142.774 117.157C142.766 117.401 142.807 117.644 142.894 117.871Z" fill="#263238"/>
<path d="M139.1 113.549C139.418 113.679 140.302 112.112 142.174 111.274C144.046 110.435 145.847 110.76 145.944 110.442C146.003 110.292 145.6 109.98 144.8 109.792C143.739 109.593 142.643 109.727 141.661 110.175C140.684 110.61 139.871 111.346 139.34 112.275C138.937 112.996 138.924 113.497 139.1 113.549Z" fill="#263238"/>
<path d="M159.97 110.695C160.171 111.15 160.54 111.508 160.999 111.695C161.459 111.882 161.974 111.882 162.434 111.696C162.663 111.615 162.875 111.489 163.055 111.325C163.234 111.161 163.38 110.962 163.481 110.741C163.583 110.52 163.64 110.28 163.647 110.037C163.655 109.794 163.614 109.551 163.526 109.324C163.328 108.868 162.96 108.507 162.499 108.318C162.039 108.13 161.523 108.129 161.062 108.316C160.832 108.398 160.621 108.525 160.441 108.69C160.261 108.855 160.116 109.054 160.014 109.275C159.912 109.497 159.856 109.737 159.849 109.981C159.841 110.225 159.882 110.468 159.97 110.695Z" fill="#263238"/>
<path d="M156.512 105.379C156.824 105.515 157.747 103.975 159.645 103.188C161.543 102.402 163.324 102.766 163.434 102.447C163.493 102.304 163.103 101.986 162.31 101.797C161.253 101.569 160.151 101.675 159.157 102.103C157.662 102.811 156.707 103.76 156.778 104.131C156.382 104.82 156.362 105.301 156.512 105.379Z" fill="#263238"/>
<path d="M157.428 122.48C157.389 122.37 156.128 122.688 154.139 123.293C153.639 123.462 153.145 123.566 152.917 123.293C152.656 122.814 152.545 122.269 152.599 121.726C152.534 120.368 152.456 118.944 152.378 117.449C152.02 111.378 151.526 106.477 151.279 106.49C151.032 106.503 151.136 111.443 151.494 117.54C151.598 119.029 151.689 120.452 151.786 121.811C151.744 122.523 151.953 123.227 152.378 123.8C152.522 123.94 152.697 124.044 152.889 124.105C153.081 124.166 153.284 124.182 153.483 124.151C153.778 124.102 154.066 124.017 154.341 123.897C156.291 123.111 157.474 122.591 157.428 122.48Z" fill="#263238"/>
<path d="M154.512 103.519C155.071 103.714 156.176 101.966 157.937 100.269C159.699 98.5726 161.447 97.5196 161.265 96.9541C161.168 96.6941 160.55 96.6161 159.634 96.8761C158.448 97.2469 157.369 97.898 156.488 98.7742C155.585 99.6271 154.898 100.683 154.486 101.855C154.2 102.791 154.252 103.415 154.512 103.519Z" fill="#263238"/>
<path d="M137.721 108.44C138.157 108.882 139.723 108.297 141.621 108.154C143.519 108.011 145.19 108.245 145.521 107.738C145.671 107.491 145.385 107.036 144.644 106.64C143.633 106.156 142.508 105.962 141.394 106.081C140.282 106.157 139.216 106.55 138.319 107.212C137.721 107.732 137.526 108.226 137.721 108.44Z" fill="#263238"/>
<path d="M159.671 74.3926C159.255 74.2301 158.826 74.0676 158.371 73.9181C154.744 72.6181 150.668 71.9031 147.548 74.0026C145.754 75.2051 144.61 77.1811 142.888 78.4941C140.561 80.2686 137.467 80.6456 134.906 82.0626C133.374 82.927 132.07 84.1448 131.104 85.6145C130.137 87.0842 129.535 88.7635 129.348 90.5126C129.082 93.2296 129.803 96.1676 128.529 98.5726C127.938 99.6906 125.929 100.471 125.234 101.517C125.234 101.517 123.992 110.357 130.772 109.967L131.623 109.246L138.273 100.451C140.489 99.7036 142.771 99.1511 143.739 97.1166C144.389 95.7711 144.207 94.1461 144.298 92.6381L147.854 88.4131C148.978 88.1336 150.22 88.0296 151.338 87.7631C152.662 87.4635 153.912 86.8999 155.013 86.1061C156.114 85.3122 157.044 84.3044 157.746 83.143C158.449 81.9815 158.91 80.6903 159.102 79.3465C159.295 78.0027 159.214 76.6339 158.865 75.3221L159.671 74.3926Z" fill="#263238"/>
<path d="M148.531 84.5331C150.026 83.3111 153.042 80.7176 153.322 78.8456C153.933 74.7831 156.494 71.0911 160.16 69.7456C162.074 69.0988 164.146 69.0886 166.066 69.7166C167.986 70.3445 169.651 71.5769 170.813 73.2296C175.155 71.4096 180.563 72.3196 184.372 75.5176C186.292 77.1714 187.78 79.2679 188.707 81.6258C189.635 83.9837 189.974 86.5321 189.696 89.0506C189.533 90.3506 189.208 91.7026 189.696 92.9506C190.346 94.4716 191.951 95.1866 193.277 96.1031C196.898 98.5926 198.744 103.351 198.666 107.803C198.588 112.256 197.977 114.043 195.929 115.798C191.912 119.243 200.557 127.29 192.842 130.599L178.841 103.377L178.808 103.429C178.531 103.946 178.113 104.374 177.602 104.662C177.091 104.951 176.508 105.089 175.922 105.06C168.122 104.56 168.623 96.3761 170.176 94.8356C167.848 94.1697 165.614 93.2109 163.527 91.9821C161.466 90.6821 157.969 88.1211 157.254 85.7161C155.668 86.4506 147.875 85.0661 148.531 84.5331Z" fill="#263238"/>
<path d="M178.859 103.305C179.028 103.123 186.126 97.0712 189.604 105.528C193.081 113.984 183.871 115.726 183.754 115.492C183.637 115.258 178.859 103.305 178.859 103.305Z" fill="#FFBE9D"/>
<path d="M185.023 111.229C185.023 111.183 185.212 111.268 185.511 111.281C185.923 111.286 186.32 111.132 186.622 110.852C187.376 110.156 187.545 108.427 186.96 106.887C186.681 106.146 186.236 105.479 185.66 104.937C185.469 104.71 185.227 104.533 184.953 104.42C184.679 104.306 184.382 104.261 184.087 104.287C183.899 104.311 183.725 104.4 183.596 104.539C183.466 104.678 183.389 104.858 183.379 105.047C183.379 105.327 183.489 105.476 183.45 105.509C183.411 105.541 183.21 105.444 183.132 105.067C183.1 104.843 183.141 104.615 183.249 104.417C183.41 104.145 183.671 103.947 183.977 103.864C184.349 103.787 184.735 103.806 185.098 103.919C185.461 104.033 185.789 104.238 186.05 104.514C186.712 105.097 187.221 105.834 187.532 106.659C188.182 108.388 187.961 110.338 186.882 111.209C186.682 111.367 186.45 111.479 186.201 111.536C185.953 111.594 185.695 111.595 185.446 111.541C185.121 111.424 184.997 111.255 185.023 111.229Z" fill="#EB996E"/>
<path d="M156.558 130.046C156.642 130.222 158.144 129.695 159.918 128.876C161.693 128.057 163.064 127.251 162.986 127.076C162.908 126.9 161.407 127.427 159.632 128.252C157.858 129.078 156.48 129.877 156.558 130.046Z" fill="#263238"/>
<path d="M164.156 146.952C164.156 146.952 174.615 140.452 179.002 132.652C179.002 132.652 180.374 144.502 166.243 150.898L164.156 146.952Z" fill="#EB996E"/>
<path d="M153.808 104.69C153.808 104.722 153.633 104.865 153.256 104.911C153.011 104.935 152.763 104.909 152.528 104.834C152.294 104.759 152.077 104.637 151.891 104.475C151.709 104.31 151.562 104.109 151.459 103.886C151.357 103.663 151.3 103.421 151.293 103.175C151.293 102.798 151.41 102.59 151.449 102.603C151.488 102.616 151.449 102.831 151.533 103.149C151.592 103.566 151.797 103.948 152.111 104.228C152.425 104.508 152.829 104.667 153.249 104.677C153.574 104.69 153.789 104.651 153.808 104.69Z" fill="#EB996E"/>
<path d="M148.711 107.608C148.711 107.569 148.809 107.387 148.932 107.062C149.103 106.651 149.162 106.203 149.101 105.762C149.032 105.323 148.85 104.909 148.575 104.56C148.36 104.287 148.178 104.15 148.211 104.105C148.243 104.059 148.458 104.144 148.75 104.397C149.124 104.744 149.367 105.21 149.439 105.715C149.512 106.22 149.408 106.734 149.147 107.173C148.945 107.498 148.744 107.634 148.711 107.608Z" fill="#EB996E"/>
<path d="M184.104 186.2L187.673 186.96L184.098 188.007C183.875 188.074 183.675 188.198 183.517 188.369C183.359 188.539 183.25 188.749 183.201 188.975L182.31 193.252L181.348 189.053C181.292 188.819 181.171 188.605 181 188.435C180.829 188.265 180.614 188.146 180.38 188.091L176.805 187.279L180.484 186.245C180.703 186.172 180.899 186.041 181.051 185.866C181.203 185.691 181.306 185.479 181.348 185.251L182.167 181.13L183.097 185.225C183.154 185.467 183.279 185.687 183.458 185.86C183.636 186.033 183.861 186.151 184.104 186.2Z" fill="white"/>
<path d="M175.986 196.983L177.578 197.321L175.986 197.783C175.886 197.813 175.796 197.869 175.725 197.945C175.654 198.022 175.605 198.116 175.583 198.218L175.186 200.123L174.744 198.251C174.721 198.146 174.668 198.05 174.592 197.974C174.516 197.898 174.42 197.845 174.315 197.822L172.723 197.464L174.361 197.003C174.462 196.972 174.554 196.915 174.626 196.838C174.698 196.76 174.748 196.664 174.77 196.561L175.134 194.728L175.544 196.548C175.568 196.655 175.622 196.753 175.7 196.83C175.779 196.908 175.878 196.961 175.986 196.983Z" fill="white"/>
<path d="M223.716 144.638L225.309 144.976L223.716 145.438C223.616 145.468 223.526 145.524 223.455 145.601C223.384 145.677 223.335 145.771 223.313 145.873L222.917 147.778L222.475 145.906C222.451 145.801 222.399 145.705 222.323 145.629C222.247 145.553 222.15 145.5 222.046 145.477L220.453 145.119L222.091 144.658C222.193 144.629 222.286 144.572 222.358 144.494C222.43 144.416 222.48 144.32 222.501 144.216L222.865 142.383L223.274 144.203C223.298 144.31 223.353 144.408 223.431 144.486C223.509 144.563 223.608 144.616 223.716 144.638Z" fill="white"/>
<path d="M307.488 298.467C307.488 298.558 242.573 298.636 162.538 298.636C82.504 298.636 17.543 298.558 17.543 298.467C17.543 298.376 82.4455 298.298 162.538 298.298C242.631 298.298 307.488 298.35 307.488 298.467Z" fill="#263238"/>
<path d="M212.841 289.322H35.625V298.487H212.841V289.322Z" fill="#455A64"/>
<path d="M211.588 289.322H161.59V298.487H211.588V289.322Z" fill="#263238"/>
<path d="M47.0656 298.494C46.9876 298.364 46.9181 298.229 46.8576 298.091C46.7276 297.831 46.5391 297.441 46.2921 296.992C45.0177 294.594 43.33 292.44 41.3066 290.629C40.9166 290.278 40.5981 289.979 40.3771 289.816C40.2531 289.728 40.1397 289.625 40.0391 289.511C40.1681 289.592 40.2918 289.681 40.4096 289.777C40.6436 289.946 40.9751 290.213 41.3651 290.557C43.4375 292.339 45.1402 294.51 46.3766 296.947C46.6106 297.415 46.7926 297.798 46.9031 298.071C46.9667 298.208 47.021 298.349 47.0656 298.494Z" fill="#263238"/>
<path d="M60.4867 298.656C59.6128 298.664 58.7408 298.574 57.8867 298.39C56.9847 298.197 56.1015 297.926 55.2477 297.577C54.1893 297.133 53.1769 296.587 52.2252 295.946C50.5044 294.764 49.004 293.29 47.7922 291.591C47.2964 290.89 46.8615 290.149 46.4922 289.374C46.4922 289.374 46.5312 289.426 46.5897 289.524C46.6482 289.621 46.7587 289.803 46.8562 289.966C47.1736 290.505 47.5186 291.028 47.8897 291.532C49.1158 293.203 50.6144 294.655 52.3227 295.829C53.2647 296.467 54.266 297.013 55.3127 297.46C56.1702 297.816 57.0577 298.094 57.9647 298.292C58.3121 298.375 58.6636 298.44 59.0177 298.487C59.284 298.537 59.5532 298.569 59.8237 298.585L60.3307 298.63L60.4867 298.656Z" fill="#263238"/>
<path d="M72.8825 293.989C72.8825 293.989 72.083 294.08 70.627 294.093C69.899 294.093 69.0085 294.093 67.975 294.008C67.4615 293.969 66.909 293.917 66.324 293.846L65.427 293.722C65.1081 293.69 64.7953 293.613 64.4975 293.495C64.3365 293.442 64.1878 293.357 64.0605 293.246C63.9331 293.134 63.8297 292.998 63.7565 292.845C63.696 292.669 63.6924 292.478 63.746 292.3C63.7996 292.121 63.9079 291.964 64.0555 291.85C64.3548 291.632 64.699 291.484 65.063 291.415C65.4205 291.317 65.7845 291.22 66.1615 291.142C69.5216 290.375 72.9991 290.271 76.399 290.836C77.3455 290.983 78.2798 291.2 79.194 291.486C79.6768 291.64 80.0893 291.96 80.3575 292.39C80.4733 292.619 80.5396 292.87 80.5519 293.127C80.5642 293.383 80.5223 293.639 80.429 293.878C80.2646 294.364 79.9448 294.782 79.519 295.068C79.1029 295.338 78.6399 295.528 78.154 295.627C77.205 295.835 76.269 295.997 75.346 296.153C73.5667 296.457 71.7682 296.635 69.964 296.686C66.8993 296.821 63.8461 296.231 61.0525 294.964C59.1746 294.098 57.4986 292.85 56.132 291.298C55.7617 290.889 55.4207 290.455 55.1115 289.998C54.897 289.673 54.793 289.504 54.793 289.504C54.793 289.504 54.9165 289.666 55.131 289.978C55.449 290.434 55.7964 290.868 56.171 291.278C57.5526 292.788 59.2296 293.998 61.098 294.834C63.883 296.082 66.922 296.658 69.9705 296.517C71.766 296.46 73.5555 296.28 75.3265 295.978C76.2495 295.822 77.192 295.653 78.128 295.451C78.5904 295.352 79.0309 295.169 79.428 294.912C79.8275 294.639 80.1283 294.245 80.286 293.787C80.3713 293.566 80.409 293.328 80.3966 293.091C80.3843 292.853 80.3223 292.621 80.2145 292.409C79.9657 292.004 79.5773 291.703 79.1225 291.564C78.2163 291.282 77.2909 291.064 76.3535 290.914C72.9713 290.356 69.5135 290.453 66.168 291.2C65.791 291.278 65.427 291.376 65.076 291.467C64.7236 291.53 64.3901 291.672 64.101 291.883C63.9715 291.984 63.8759 292.122 63.8272 292.279C63.7784 292.436 63.7786 292.604 63.828 292.76C63.9506 293.054 64.1842 293.288 64.478 293.41C64.7698 293.525 65.076 293.599 65.388 293.631L66.285 293.761C66.8635 293.833 67.416 293.891 67.9295 293.93C68.9565 294.015 69.8795 294.041 70.575 294.041C71.2705 294.041 71.875 294.041 72.2455 294.008L72.8825 293.989Z" fill="#263238"/>
<path d="M104.259 289.946H104.012C103.849 289.946 103.615 289.894 103.31 289.9C102.449 289.877 101.59 289.973 100.755 290.186C99.5177 290.509 98.3238 290.98 97.1999 291.59C95.8244 292.343 94.492 293.172 93.2089 294.073C91.8309 295.016 90.5049 295.9 89.2374 296.608C88.1211 297.253 86.9347 297.768 85.7014 298.142C84.8705 298.395 84.0088 298.533 83.1404 298.552C82.8237 298.563 82.5066 298.552 82.1914 298.519H82.4384C82.6723 298.531 82.9066 298.531 83.1404 298.519C84.0013 298.48 84.8534 298.33 85.6754 298.071C86.8942 297.685 88.0669 297.166 89.1724 296.524C90.4334 295.809 91.7724 294.925 93.1309 293.982C94.418 293.077 95.7572 292.248 97.1414 291.499C98.2742 290.888 99.4798 290.423 100.729 290.115C101.58 289.909 102.455 289.826 103.329 289.868C103.641 289.874 103.951 289.9 104.259 289.946Z" fill="#263238"/>
<path d="M116.348 294.002L115.86 293.898C115.393 293.801 114.92 293.742 114.443 293.722C113.691 293.682 112.937 293.743 112.201 293.904C111.74 294.002 111.288 294.137 110.849 294.307C110.347 294.45 109.907 294.754 109.594 295.172C109.456 295.419 109.402 295.704 109.441 295.984C109.48 296.265 109.609 296.525 109.809 296.725C110.236 297.183 110.773 297.523 111.369 297.713C112.69 298.14 114.107 298.169 115.444 297.798C116.173 297.624 116.886 297.389 117.576 297.096C118.31 296.829 118.994 296.445 119.604 295.958C119.913 295.707 120.164 295.391 120.339 295.033C120.514 294.675 120.61 294.283 120.618 293.885C120.591 293.056 120.263 292.266 119.695 291.662C119.136 291.044 118.416 290.594 117.615 290.362C116.838 290.144 116.027 290.069 115.223 290.141C113.698 290.315 112.203 290.691 110.777 291.259C108.329 292.143 105.959 293.23 103.692 294.509C102.165 295.371 100.685 296.315 99.2592 297.336C98.7522 297.7 98.3687 297.986 98.1087 298.181C97.8487 298.376 97.6992 298.48 97.6992 298.48C97.6992 298.48 98.2257 298.032 99.2267 297.291C100.646 296.255 102.122 295.298 103.647 294.424C105.91 293.128 108.28 292.03 110.732 291.142C112.168 290.568 113.674 290.188 115.21 290.011C116.032 289.939 116.859 290.014 117.654 290.232C118.473 290.464 119.214 290.913 119.799 291.532C120.389 292.161 120.729 292.984 120.755 293.846C120.745 294.263 120.645 294.674 120.461 295.049C120.277 295.423 120.013 295.754 119.689 296.017C119.069 296.513 118.373 296.906 117.628 297.18C116.93 297.47 116.211 297.704 115.477 297.882C114.114 298.253 112.673 298.219 111.33 297.785C110.718 297.584 110.167 297.231 109.731 296.758C109.527 296.524 109.392 296.238 109.341 295.932C109.295 295.636 109.358 295.334 109.516 295.081C109.84 294.648 110.297 294.333 110.816 294.184C111.26 294.017 111.717 293.885 112.181 293.787C112.923 293.638 113.681 293.583 114.437 293.625C114.916 293.652 115.393 293.722 115.86 293.833C116.211 293.95 116.348 294.002 116.348 294.002Z" fill="#263238"/>
<path d="M130.902 298.435C130.902 298.435 130.902 298.266 130.902 297.96C130.929 297.527 130.929 297.093 130.902 296.66C130.808 295.235 130.379 293.851 129.647 292.624C128.903 291.404 127.825 290.422 126.54 289.796C126.003 289.551 125.44 289.364 124.863 289.237C125.458 289.29 126.04 289.449 126.579 289.705C127.898 290.32 129.006 291.31 129.764 292.552C130.508 293.797 130.932 295.206 130.999 296.654C131.045 297.249 131.012 297.848 130.902 298.435Z" fill="#263238"/>
<path d="M149.845 298.35C148.923 298.225 148.011 298.036 147.115 297.785C146.138 297.522 145.177 297.205 144.235 296.836C143.089 296.369 141.971 295.835 140.888 295.237C138.929 294.129 137.102 292.803 135.441 291.285C134.791 290.7 134.31 290.206 133.985 289.848L133.608 289.439C133.523 289.348 133.484 289.296 133.484 289.296C133.484 289.296 133.536 289.335 133.627 289.426L134.024 289.816C134.355 290.16 134.862 290.641 135.499 291.213C138.093 293.546 141.071 295.413 144.3 296.732C145.234 297.107 146.186 297.432 147.154 297.707C147.979 297.941 148.662 298.103 149.104 298.201L149.65 298.311C149.716 298.316 149.782 298.329 149.845 298.35Z" fill="#263238"/>
<path d="M163.148 295.79L162.966 295.705C162.849 295.647 162.693 295.543 162.466 295.439C161.838 295.132 161.186 294.878 160.516 294.678C159.524 294.383 158.512 294.166 157.487 294.028C156.336 293.859 155.056 293.749 153.717 293.573C151.039 293.242 148.647 292.442 147.217 291.383C146.64 290.984 146.116 290.514 145.657 289.985C145.345 289.602 145.195 289.374 145.195 289.374C145.195 289.374 145.247 289.42 145.332 289.517C145.416 289.615 145.527 289.771 145.696 289.953C146.168 290.463 146.698 290.917 147.275 291.305C148.712 292.332 151.078 293.105 153.775 293.437C155.108 293.612 156.375 293.729 157.545 293.905C158.573 294.038 159.588 294.256 160.581 294.555C161.254 294.762 161.907 295.032 162.531 295.361C162.901 295.634 163.148 295.79 163.148 295.79Z" fill="#263238"/>
</svg>
