<svg width="16" height="16" viewBox="0 0 16 16" fill="none" xmlns="http://www.w3.org/2000/svg">
<g id="Hicon / Linear / Calender 2">
<g id="Calender 2">
<path id="Vector" d="M3.37405 14.0301L3.72672 13.5447L3.37405 14.0301ZM2.63661 13.2927L3.12202 12.94L2.63661 13.2927ZM13.3634 13.2927L12.878 12.94L13.3634 13.2927ZM12.626 14.0301L12.9786 14.5155L12.626 14.0301ZM12.626 3.30332L12.9786 2.81791L12.626 3.30332ZM13.3634 4.04076L12.878 4.39343L13.3634 4.04076ZM3.37405 3.30332L3.72672 3.78873L3.37405 3.30332ZM2.63661 4.04076L3.12202 4.39343L2.63661 4.04076ZM12.8119 10.7077L12.718 10.1151L12.8119 10.7077ZM10.041 13.4786L9.44843 13.3847L10.041 13.4786ZM9.4 3.33337C9.4 3.66474 9.66863 3.93337 10 3.93337C10.3314 3.93337 10.6 3.66474 10.6 3.33337H9.4ZM10.6 1.33337C10.6 1.002 10.3314 0.733374 10 0.733374C9.66863 0.733374 9.4 1.002 9.4 1.33337H10.6ZM5.4 3.33337C5.4 3.66474 5.66863 3.93337 6 3.93337C6.33137 3.93337 6.6 3.66474 6.6 3.33337H5.4ZM6.6 1.33337C6.6 1.002 6.33137 0.733374 6 0.733374C5.66863 0.733374 5.4 1.002 5.4 1.33337H6.6ZM13.9807 10.6667L14.5804 10.6873L13.9807 10.6667ZM10 14.6474L10.0205 15.2471L10 14.6474ZM8 14.0667C6.73672 14.0667 5.83746 14.0659 5.1428 13.9906C4.45937 13.9166 4.0455 13.7763 3.72672 13.5447L3.02138 14.5155C3.57882 14.9205 4.22801 15.0985 5.01355 15.1836C5.78785 15.2675 6.76345 15.2667 8 15.2667V14.0667ZM1.4 8.66671C1.4 9.90325 1.39918 10.8789 1.48307 11.6532C1.56817 12.4387 1.7462 13.0879 2.1512 13.6453L3.12202 12.94C2.89041 12.6212 2.75013 12.2073 2.67609 11.5239C2.60082 10.8292 2.6 9.92998 2.6 8.66671H1.4ZM3.72672 13.5447C3.49467 13.3761 3.29061 13.172 3.12202 12.94L2.1512 13.6453C2.39381 13.9792 2.68746 14.2729 3.02138 14.5155L3.72672 13.5447ZM12.878 12.94C12.7094 13.172 12.5053 13.3761 12.2733 13.5447L12.9786 14.5155C13.3125 14.2729 13.6062 13.9792 13.8488 13.6453L12.878 12.94ZM14.6 8.66671C14.6 7.43016 14.6008 6.45456 14.5169 5.68025C14.4318 4.89472 14.2538 4.24552 13.8488 3.68809L12.878 4.39343C13.1096 4.71221 13.2499 5.12608 13.3239 5.80951C13.3992 6.50417 13.4 7.40343 13.4 8.66671H14.6ZM12.2733 3.78873C12.5053 3.95732 12.7094 4.16138 12.878 4.39343L13.8488 3.68809C13.6062 3.35417 13.3125 3.06051 12.9786 2.81791L12.2733 3.78873ZM2.6 8.66671C2.6 7.40343 2.60082 6.50417 2.67609 5.80951C2.75013 5.12608 2.89041 4.71221 3.12202 4.39343L2.1512 3.68809C1.7462 4.24552 1.56817 4.89472 1.48307 5.68025C1.39918 6.45456 1.4 7.43016 1.4 8.66671H2.6ZM3.02138 2.81791C2.68746 3.06051 2.39381 3.35417 2.1512 3.68809L3.12202 4.39343C3.29061 4.16138 3.49467 3.95732 3.72672 3.78873L3.02138 2.81791ZM12.718 10.1151C11.035 10.3817 9.71499 11.7017 9.44843 13.3847L10.6337 13.5725C10.8189 12.4029 11.7362 11.4856 12.9057 11.3004L12.718 10.1151ZM6.6 3.33337V2.68599H5.4V3.33337H6.6ZM6.6 2.68599V1.33337H5.4V2.68599H6.6ZM8 2.06671C7.22404 2.06671 6.55482 2.06663 5.97946 2.08634L6.02055 3.28564C6.57098 3.26678 7.2174 3.26671 8 3.26671V2.06671ZM5.97946 2.08634C4.72926 2.12918 3.78369 2.26405 3.02138 2.81791L3.72672 3.78873C4.17055 3.46627 4.78516 3.32797 6.02055 3.28564L5.97946 2.08634ZM10.6 3.33337V2.68599H9.4V3.33337H10.6ZM10.6 2.68599V1.33337H9.4V2.68599H10.6ZM8 3.26671C8.7826 3.26671 9.42902 3.26678 9.97946 3.28564L10.0205 2.08634C9.44518 2.06663 8.77596 2.06671 8 2.06671V3.26671ZM9.97946 3.28564C11.2148 3.32797 11.8295 3.46627 12.2733 3.78873L12.9786 2.81791C12.2163 2.26405 11.2707 2.12918 10.0205 2.08634L9.97946 3.28564ZM13.9807 10.0667C13.3962 10.0667 13.0326 10.0653 12.718 10.1151L12.9057 11.3004C13.104 11.269 13.3522 11.2667 13.9807 11.2667L13.9807 10.0667ZM13.4 8.66671C13.4 9.44931 13.3999 10.0957 13.3811 10.6462L14.5804 10.6873C14.6001 10.1119 14.6 9.44267 14.6 8.66671H13.4ZM13.3811 10.6462C13.3387 11.8815 13.2004 12.4962 12.878 12.94L13.8488 13.6453C14.4027 12.883 14.5375 11.9375 14.5804 10.6873L13.3811 10.6462ZM10.6 14.6474C10.6 14.0189 10.6023 13.7707 10.6337 13.5725L9.44843 13.3847C9.3986 13.6993 9.4 14.0629 9.4 14.6474L10.6 14.6474ZM8 15.2667C8.77597 15.2667 9.44518 15.2668 10.0205 15.2471L9.97946 14.0478C9.42902 14.0666 8.7826 14.0667 8 14.0667V15.2667ZM10.0205 15.2471C11.2707 15.2042 12.2163 15.0694 12.9786 14.5155L12.2733 13.5447C11.8295 13.8671 11.2148 14.0054 9.97946 14.0478L10.0205 15.2471Z" fill="#2D264B"/>
<g id="Vector_2">
<path d="M5.33333 6.00004C5.33333 6.36823 5.03486 6.66671 4.66667 6.66671C4.29848 6.66671 4 6.36823 4 6.00004C4 5.63185 4.29848 5.33337 4.66667 5.33337C5.03486 5.33337 5.33333 5.63185 5.33333 6.00004Z" fill="#2D264B"/>
<path d="M5.33333 8.66671C5.33333 9.0349 5.03486 9.33337 4.66667 9.33337C4.29848 9.33337 4 9.0349 4 8.66671C4 8.29852 4.29848 8.00004 4.66667 8.00004C5.03486 8.00004 5.33333 8.29852 5.33333 8.66671Z" fill="#2D264B"/>
<path d="M8.66667 6.00004C8.66667 6.36823 8.36819 6.66671 8 6.66671C7.63181 6.66671 7.33333 6.36823 7.33333 6.00004C7.33333 5.63185 7.63181 5.33337 8 5.33337C8.36819 5.33337 8.66667 5.63185 8.66667 6.00004Z" fill="#2D264B"/>
<path d="M8.66667 8.66671C8.66667 9.0349 8.36819 9.33337 8 9.33337C7.63181 9.33337 7.33333 9.0349 7.33333 8.66671C7.33333 8.29852 7.63181 8.00004 8 8.00004C8.36819 8.00004 8.66667 8.29852 8.66667 8.66671Z" fill="#2D264B"/>
<path d="M8.66667 11.3334C8.66667 11.7016 8.36819 12 8 12C7.63181 12 7.33333 11.7016 7.33333 11.3334C7.33333 10.9652 7.63181 10.6667 8 10.6667C8.36819 10.6667 8.66667 10.9652 8.66667 11.3334Z" fill="#2D264B"/>
<path d="M12 6.00004C12 6.36823 11.7015 6.66671 11.3333 6.66671C10.9651 6.66671 10.6667 6.36823 10.6667 6.00004C10.6667 5.63185 10.9651 5.33337 11.3333 5.33337C11.7015 5.33337 12 5.63185 12 6.00004Z" fill="#2D264B"/>
<path d="M12 8.66671C12 9.0349 11.7015 9.33337 11.3333 9.33337C10.9651 9.33337 10.6667 9.0349 10.6667 8.66671C10.6667 8.29852 10.9651 8.00004 11.3333 8.00004C11.7015 8.00004 12 8.29852 12 8.66671Z" fill="#2D264B"/>
<path d="M5.33333 11.3334C5.33333 11.7016 5.03486 12 4.66667 12C4.29848 12 4 11.7016 4 11.3334C4 10.9652 4.29848 10.6667 4.66667 10.6667C5.03486 10.6667 5.33333 10.9652 5.33333 11.3334Z" fill="#2D264B"/>
</g>
</g>
</g>
</svg>
