<svg width="25" height="24" viewBox="0 0 25 24" fill="none" xmlns="http://www.w3.org/2000/svg">
<g id="Icon- Outline">
<path id="Rectangle 159 (Stroke)" fill-rule="evenodd" clip-rule="evenodd" d="M8.8246 6.99838L7.31697 4.94252C7.21445 4.80271 7.0207 4.76708 6.87514 4.86126C4.90272 6.13754 4.36053 8.08714 5.15185 9.52434C6.01728 11.0961 7.35204 13.0237 9.3994 15.0711C11.4468 17.1184 13.3744 18.4532 14.9461 19.3186C16.3833 20.11 18.3329 19.5678 19.6092 17.5953C19.7034 17.4498 19.6678 17.256 19.528 17.1535L17.4721 15.6459C17.1698 15.4242 16.7688 15.3902 16.4335 15.5579L15.6141 15.9676C14.9171 16.3161 13.9617 16.4385 13.0572 15.9732C12.4526 15.6621 11.5206 15.071 10.4601 14.0104C9.39951 12.9499 8.80835 12.0179 8.49727 11.4132C8.03198 10.5088 8.15441 9.55339 8.5029 8.85641L8.91263 8.03696C9.08029 7.70164 9.04631 7.3007 8.8246 6.99838ZM5.78864 3.18212C3.24813 4.82598 1.94037 7.83826 3.39987 10.489C4.3524 12.219 5.79923 14.2993 7.98519 16.4853C10.1712 18.6712 12.2515 20.1181 13.9815 21.0706C16.6322 22.5301 19.6445 21.2223 21.2884 18.6818C21.9579 17.647 21.7046 16.2696 20.7107 15.5407L18.6548 14.0331C17.7479 13.368 16.5451 13.266 15.5391 13.769L14.7196 14.1787C14.4824 14.2973 14.208 14.3161 13.9722 14.1948C13.5425 13.9737 12.7811 13.503 11.8743 12.5962C10.9675 11.6894 10.4968 10.928 10.2757 10.4983C10.1544 10.2625 10.1731 9.98806 10.2918 9.75084L10.7015 8.93139C11.2045 7.92542 11.1025 6.72262 10.4374 5.81565L8.92978 3.75979C8.20089 2.76584 6.82346 2.51253 5.78864 3.18212Z" fill="white"/>
</g>
</svg>
