<svg xmlns="http://www.w3.org/2000/svg" width="58" height="58" viewBox="0 0 58 58" fill="none">
  <rect width="58" height="58" rx="29" fill="url(#paint0_linear_688_7347)"/>
  <path d="M19 41.5V38.6667C19 37.1638 19.597 35.7224 20.6597 34.6597C21.7224 33.597 23.1638 33 24.6667 33H29.625M34.5833 41.5L40.25 35.8333M21.8333 21.6667C21.8333 23.1696 22.4304 24.6109 23.4931 25.6736C24.5558 26.7363 25.9971 27.3333 27.5 27.3333C29.0029 27.3333 30.4442 26.7363 31.5069 25.6736C32.5696 24.6109 33.1667 23.1696 33.1667 21.6667C33.1667 20.1638 32.5696 18.7224 31.5069 17.6597C30.4442 16.597 29.0029 16 27.5 16C25.9971 16 24.5558 16.597 23.4931 17.6597C22.4304 18.7224 21.8333 20.1638 21.8333 21.6667ZM33.1667 38.6667C33.1667 39.7938 33.6144 40.8748 34.4115 41.6719C35.2085 42.4689 36.2895 42.9167 37.4167 42.9167C38.5438 42.9167 39.6248 42.4689 40.4219 41.6719C41.2189 40.8748 41.6667 39.7938 41.6667 38.6667C41.6667 37.5395 41.2189 36.4585 40.4219 35.6615C39.6248 34.8644 38.5438 34.4167 37.4167 34.4167C36.2895 34.4167 35.2085 34.8644 34.4115 35.6615C33.6144 36.4585 33.1667 37.5395 33.1667 38.6667Z" stroke="#FCFCFC" stroke-width="2" stroke-linecap="round" stroke-linejoin="round"/>
  <defs>
    <linearGradient id="paint0_linear_688_7347" x1="0" y1="0" x2="65.41" y2="12.7043" gradientUnits="userSpaceOnUse">
      <stop stop-color="#014868"/>
      <stop offset="0.460225" stop-color="#001E42"/>
      <stop offset="1" stop-color="#451338"/>
    </linearGradient>
  </defs>
</svg>