<svg width="22" height="22" viewBox="0 0 22 22" fill="none" xmlns="http://www.w3.org/2000/svg">
<path d="M4.00436 5.41686L0.761719 2.17422L2.17593 0.76001L5.41857 4.00265H20.6603C21.2126 4.00265 21.6603 4.45037 21.6603 5.00265C21.6603 5.09997 21.6461 5.19678 21.6182 5.29L19.2182 13.29C19.0913 13.713 18.7019 14.0027 18.2603 14.0027H6.00436V16.0027H17.0044V18.0027H5.00436C4.45207 18.0027 4.00436 17.5549 4.00436 17.0027V5.41686ZM6.00436 6.00265V12.0027H17.5163L19.3163 6.00265H6.00436ZM5.50436 22.0027C4.67593 22.0027 4.00436 21.3311 4.00436 20.5027C4.00436 19.6742 4.67593 19.0027 5.50436 19.0027C6.33279 19.0027 7.00436 19.6742 7.00436 20.5027C7.00436 21.3311 6.33279 22.0027 5.50436 22.0027ZM17.5044 22.0027C16.6759 22.0027 16.0044 21.3311 16.0044 20.5027C16.0044 19.6742 16.6759 19.0027 17.5044 19.0027C18.3328 19.0027 19.0044 19.6742 19.0044 20.5027C19.0044 21.3311 18.3328 22.0027 17.5044 22.0027Z" fill="white"/>
</svg>
