<svg xmlns="http://www.w3.org/2000/svg" width="14" height="14" viewBox="0 0 14 14" fill="none">
<g id="vuesax/bold/tag">
<g id="tag">
<path id="Vector" d="M11.5675 5.075L8.92503 2.4325C8.37086 1.87833 7.60669 1.58083 6.82503 1.62166L3.90836 1.76166C2.74169 1.81416 1.81419 2.74166 1.75586 3.9025L1.61586 6.81916C1.58086 7.60083 1.87253 8.365 2.42669 8.91916L5.06919 11.5617C6.15419 12.6467 7.91586 12.6467 9.00669 11.5617L11.5675 9.00083C12.6584 7.92166 12.6584 6.16 11.5675 5.075ZM5.54169 7.22166C4.61419 7.22166 3.86169 6.46916 3.86169 5.54166C3.86169 4.61416 4.61419 3.86166 5.54169 3.86166C6.46919 3.86166 7.22169 4.61416 7.22169 5.54166C7.22169 6.46916 6.46919 7.22166 5.54169 7.22166Z" fill="#1A5F00"/>
</g>
</g>
</svg>