<svg xmlns="http://www.w3.org/2000/svg" width="58" height="58" viewBox="0 0 58 58" fill="none">
  <rect width="58" height="58" rx="29" fill="url(#paint0_linear_688_7330)"/>
  <path d="M36.9112 40.9634C37.9856 40.9634 39.0159 40.5366 39.7756 39.7769M36.9112 40.9634C35.8368 40.9634 34.8064 40.5366 34.0467 39.7769M36.9112 40.9634V44.0013M39.7756 39.7769C40.5354 39.0172 40.9621 37.9868 40.9621 36.9124M39.7756 39.7769L41.9237 41.9249M40.9621 36.9124C40.9621 35.838 40.5354 34.8076 39.7756 34.0479M40.9621 36.9124H44.0001M39.7756 34.0479C39.0159 33.2882 37.9856 32.8614 36.9112 32.8614M39.7756 34.0479L41.9237 31.8999M36.9112 32.8614C35.8368 32.8614 34.8064 33.2882 34.0467 34.0479M36.9112 32.8614V29.8235M34.0467 34.0479C33.287 34.8076 32.8602 35.838 32.8602 36.9124M34.0467 34.0479L31.8987 31.8999M32.8602 36.9124C32.8602 37.9868 33.287 39.0172 34.0467 39.7769M32.8602 36.9124H29.8223M34.0467 39.7769L31.8987 41.9249M36.2358 29.8235H37.5865M41.4468 31.423L42.4006 32.3768M44.0001 36.237V37.5878M42.4006 41.448L41.4468 42.4018M37.5865 44.0013H36.2358M32.3756 42.4018L31.4218 41.448M29.8223 37.5878V36.237M31.4218 32.3768L32.3756 31.423" stroke="#FCFCFC" stroke-width="2" stroke-linecap="round" stroke-linejoin="round"/>
  <path d="M38.8445 24.6678V18.8807C38.8468 18.5304 38.748 18.187 38.5598 17.8916C38.3716 17.5962 38.1021 17.3614 37.7838 17.2154C34.3594 15.7214 30.6582 14.9668 26.9223 15.0011C23.1863 14.9668 19.4852 15.7214 16.0608 17.2154C15.7424 17.3614 15.4729 17.5962 15.2848 17.8916C15.0966 18.187 14.9977 18.5304 15 18.8807V28.1916C15 32.744 16.9927 38.9564 25.605 42.2689C26.4529 42.595 27.3916 42.595 28.2395 42.2689" stroke="#FCFCFC" stroke-width="2" stroke-linecap="round" stroke-linejoin="round"/>
  <path d="M29.3287 29.1609C28.4346 28.7985 27.4652 28.6612 26.5057 28.7611C25.5462 28.861 24.6259 29.195 23.8256 29.7337C23.0253 30.2724 22.3696 30.9994 21.916 31.8509C21.4624 32.7023 21.2248 33.6521 21.2241 34.6168M27.1118 26.9182C28.0658 26.9182 28.9808 26.5392 29.6554 25.8646C30.3301 25.19 30.7091 24.275 30.7091 23.3209C30.7091 22.3669 30.3301 21.4519 29.6554 20.7773C28.9808 20.1026 28.0658 19.7236 27.1118 19.7236C26.1577 19.7236 25.2427 20.1026 24.5681 20.7773C23.8935 21.4519 23.5145 22.3669 23.5145 23.3209C23.5145 24.275 23.8935 25.19 24.5681 25.8646C25.2427 26.5392 26.1577 26.9182 27.1118 26.9182Z" stroke="#FCFCFC" stroke-width="2" stroke-linecap="round" stroke-linejoin="round"/>
  <defs>
    <linearGradient id="paint0_linear_688_7330" x1="0" y1="0" x2="65.41" y2="12.7043" gradientUnits="userSpaceOnUse">
      <stop stop-color="#014868"/>
      <stop offset="0.460225" stop-color="#001E42"/>
      <stop offset="1" stop-color="#451338"/>
    </linearGradient>
  </defs>
</svg>