<svg width="16" height="20" viewBox="0 0 16 20" fill="none" xmlns="http://www.w3.org/2000/svg">
<path d="M13.4317 10.6495L14.1745 10.7529L13.4317 10.6495ZM13.213 12.2204L13.9559 12.3238L13.213 12.2204ZM2.78826 12.2204L3.53111 12.117L2.78826 12.2204ZM2.56965 10.6495L1.82681 10.7529L2.56965 10.6495ZM5.65369 18.114L5.3621 18.805L5.65369 18.114ZM3.39655 15.4669L4.10054 15.2082L3.39655 15.4669ZM12.6047 15.4669L13.3087 15.7255H13.3087L12.6047 15.4669ZM10.3476 18.114L10.056 17.423L10.3476 18.114ZM2.91396 7.42902C2.87478 7.01666 2.50873 6.71414 2.09638 6.75332C1.68402 6.7925 1.3815 7.15854 1.42068 7.5709L2.91396 7.42902ZM14.5806 7.5709C14.6198 7.15854 14.3173 6.7925 13.9049 6.75332C13.4926 6.71414 13.1265 7.01666 13.0873 7.42902L14.5806 7.5709ZM14.6673 6.58329C15.0815 6.58329 15.4173 6.24751 15.4173 5.83329C15.4173 5.41908 15.0815 5.08329 14.6673 5.08329V6.58329ZM1.33398 5.08329C0.919771 5.08329 0.583984 5.41908 0.583984 5.83329C0.583984 6.24751 0.919771 6.58329 1.33398 6.58329V5.08329ZM5.58398 15C5.58398 15.4142 5.91977 15.75 6.33398 15.75C6.7482 15.75 7.08398 15.4142 7.08398 15H5.58398ZM7.08398 8.33329C7.08398 7.91908 6.7482 7.58329 6.33398 7.58329C5.91977 7.58329 5.58398 7.91908 5.58398 8.33329H7.08398ZM8.91732 15C8.91732 15.4142 9.2531 15.75 9.66732 15.75C10.0815 15.75 10.4173 15.4142 10.4173 15H8.91732ZM10.4173 8.33329C10.4173 7.91908 10.0815 7.58329 9.66732 7.58329C9.2531 7.58329 8.91732 7.91908 8.91732 8.33329H10.4173ZM11.334 5.83329V6.58329H12.084V5.83329H11.334ZM4.66732 5.83329H3.91732V6.58329H4.66732V5.83329ZM12.6888 10.5462L12.4702 12.117L13.9559 12.3238L14.1745 10.7529L12.6888 10.5462ZM3.53111 12.117L3.31249 10.5462L1.82681 10.7529L2.04542 12.3238L3.53111 12.117ZM8.00065 17.5833C6.71512 17.5833 6.29154 17.5691 5.94528 17.423L5.3621 18.805C6.05525 19.0975 6.84986 19.0833 8.00065 19.0833V17.5833ZM2.04542 12.3238C2.27761 13.9922 2.40591 14.9453 2.69256 15.7255L4.10054 15.2082C3.88341 14.6173 3.77411 13.8632 3.53111 12.117L2.04542 12.3238ZM5.94528 17.423C5.21721 17.1158 4.52222 16.356 4.10054 15.2082L2.69256 15.7255C3.21297 17.142 4.14647 18.292 5.3621 18.805L5.94528 17.423ZM12.4702 12.117C12.2272 13.8632 12.1179 14.6173 11.9008 15.2082L13.3087 15.7255C13.5954 14.9453 13.7237 13.9922 13.9559 12.3238L12.4702 12.117ZM8.00065 19.0833C9.15144 19.0833 9.94606 19.0975 10.6392 18.805L10.056 17.423C9.70976 17.5691 9.28618 17.5833 8.00065 17.5833V19.0833ZM11.9008 15.2082C11.4791 16.356 10.7841 17.1158 10.056 17.423L10.6392 18.805C11.8548 18.292 12.7883 17.142 13.3087 15.7255L11.9008 15.2082ZM3.31249 10.5462C3.12724 9.21502 2.98949 8.22399 2.91396 7.42902L1.42068 7.5709C1.50002 8.40593 1.64334 9.43454 1.82681 10.7529L3.31249 10.5462ZM14.1745 10.7529C14.358 9.43454 14.5013 8.40592 14.5806 7.5709L13.0873 7.42902C13.0118 8.22398 12.8741 9.21502 12.6888 10.5462L14.1745 10.7529ZM14.6673 5.08329H1.33398V6.58329H14.6673V5.08329ZM7.08398 15V8.33329H5.58398V15H7.08398ZM10.4173 15V8.33329H8.91732V15H10.4173ZM10.584 4.99996V5.83329H12.084V4.99996H10.584ZM11.334 5.08329H4.66732V6.58329H11.334V5.08329ZM5.41732 5.83329V4.99996H3.91732V5.83329H5.41732ZM8.00065 2.41663C9.42739 2.41663 10.584 3.57322 10.584 4.99996H12.084C12.084 2.7448 10.2558 0.916626 8.00065 0.916626V2.41663ZM8.00065 0.916626C5.74549 0.916626 3.91732 2.7448 3.91732 4.99996H5.41732C5.41732 3.57322 6.57392 2.41663 8.00065 2.41663V0.916626Z" fill="#D3424A"/>
</svg>
