<svg width="24" height="24" viewBox="0 0 24 24" fill="none" xmlns="http://www.w3.org/2000/svg">
<g id="Icon- Outline">
<path id="Rectangle 159 (Stroke)" fill-rule="evenodd" clip-rule="evenodd" d="M8.3246 6.99841L6.81697 4.94255C6.71445 4.80274 6.5207 4.76711 6.37514 4.86129C4.40272 6.13757 3.86053 8.08717 4.65185 9.52437C5.51728 11.0961 6.85204 13.0237 8.8994 15.0711C10.9468 17.1185 12.8744 18.4532 14.4461 19.3187C15.8833 20.11 17.8329 19.5678 19.1092 17.5954C19.2034 17.4498 19.1678 17.2561 19.028 17.1535L16.9721 15.6459C16.6698 15.4242 16.2688 15.3902 15.9335 15.5579L15.1141 15.9676C14.4171 16.3161 13.4617 16.4385 12.5572 15.9732C11.9526 15.6622 11.0206 15.071 9.96006 14.0104C8.89951 12.9499 8.30835 12.0179 7.99727 11.4133C7.53198 10.5089 7.65441 9.55342 8.0029 8.85644L8.41263 8.03699C8.58029 7.70167 8.54631 7.30073 8.3246 6.99841ZM5.28864 3.18215C2.74813 4.82601 1.44037 7.83829 2.89987 10.489C3.8524 12.219 5.29923 14.2994 7.48519 16.4853C9.67115 18.6713 11.7515 20.1181 13.4815 21.0706C16.1322 22.5301 19.1445 21.2224 20.7884 18.6819C21.4579 17.647 21.2046 16.2696 20.2107 15.5407L18.1548 14.0331C17.2479 13.368 16.0451 13.266 15.0391 13.769L14.2196 14.1788C13.9824 14.2974 13.708 14.3161 13.4722 14.1948C13.0425 13.9737 12.2811 13.503 11.3743 12.5962C10.4675 11.6894 9.99677 10.928 9.77572 10.4983C9.65439 10.2625 9.67314 9.98809 9.79175 9.75087L10.2015 8.93142C10.7045 7.92545 10.6025 6.72265 9.93741 5.81569L8.42978 3.75982C7.70089 2.76588 6.32346 2.51256 5.28864 3.18215Z" fill="white"/>
</g>
</svg>
