<svg width="349" height="262" viewBox="0 0 349 262" fill="none" xmlns="http://www.w3.org/2000/svg">
<path d="M349 230.241H0V230.417H349V230.241Z" fill="#EBEBEB"/>
<path d="M314.031 241.557H298.898V241.732H314.031V241.557Z" fill="#EBEBEB"/>
<path d="M240.578 237.914H216.77V238.09H240.578V237.914Z" fill="#EBEBEB"/>
<path d="M307.902 235.031H276.82V235.207H307.902V235.031Z" fill="#EBEBEB"/>
<path d="M120.768 238.574H112.992V238.75H120.768V238.574Z" fill="#EBEBEB"/>
<path d="M106.773 238.574H79.9766V238.75H106.773V238.574Z" fill="#EBEBEB"/>
<path d="M65.6198 235.607H46.2852V235.783H65.6198V235.607Z" fill="#EBEBEB"/>
<path d="M165.427 198.877H30.6505C29.5946 198.875 28.5827 198.451 27.8368 197.698C27.0908 196.945 26.6719 195.925 26.6719 194.861V3.98035C26.6811 2.92269 27.1041 1.9114 27.849 1.16613C28.594 0.420861 29.6007 0.00181182 30.6505 0H165.427C166.484 0 167.498 0.423062 168.246 1.17612C168.993 1.92917 169.413 2.95053 169.413 4.01551V194.861C169.413 195.926 168.993 196.948 168.246 197.701C167.498 198.454 166.484 198.877 165.427 198.877ZM30.6505 0.140649C29.6409 0.142512 28.6734 0.547872 27.9601 1.26775C27.2469 1.98764 26.8464 2.96322 26.8464 3.98035V194.861C26.8464 195.879 27.2469 196.854 27.9601 197.574C28.6734 198.294 29.6409 198.699 30.6505 198.701H165.427C166.438 198.699 167.406 198.294 168.12 197.574C168.834 196.855 169.237 195.879 169.238 194.861V3.98035C169.237 2.96257 168.834 1.98701 168.12 1.26732C167.406 0.547643 166.438 0.142508 165.427 0.140649H30.6505Z" fill="#EBEBEB"/>
<path d="M316.41 198.877H181.626C180.57 198.875 179.557 198.451 178.81 197.699C178.063 196.946 177.642 195.926 177.641 194.861V3.98035C177.652 2.92205 178.076 1.91076 178.822 1.16569C179.568 0.420615 180.576 0.00179207 181.626 0H316.41C317.459 0.00366002 318.464 0.423527 319.207 1.1686C319.95 1.91367 320.372 2.92391 320.382 3.98035V194.861C320.382 195.924 319.964 196.943 319.219 197.696C318.475 198.449 317.465 198.873 316.41 198.877ZM181.626 0.140649C180.616 0.142508 179.648 0.547643 178.933 1.26732C178.219 1.98701 177.817 2.96257 177.815 3.98035V194.861C177.817 195.879 178.219 196.855 178.933 197.574C179.648 198.294 180.616 198.699 181.626 198.701H316.41C317.42 198.699 318.389 198.294 319.103 197.574C319.817 196.855 320.219 195.879 320.221 194.861V3.98035C320.219 2.96257 319.817 1.98701 319.103 1.26732C318.389 0.547643 317.42 0.142508 316.41 0.140649H181.626Z" fill="#EBEBEB"/>
<path d="M80.2704 84.1284C84.1413 84.1284 87.8536 82.5791 90.5908 79.8214C93.3279 77.0637 94.8656 73.3235 94.8656 69.4236C94.8656 65.5236 93.3279 61.7834 90.5908 59.0257C87.8536 56.268 84.1413 54.7188 80.2704 54.7188H78.4766V84.1284H80.2704Z" fill="#E0E0E0"/>
<path d="M78.4624 84.1284C86.5231 84.1284 93.0576 77.5448 93.0576 69.4236C93.0576 61.3023 86.5231 54.7188 78.4624 54.7188C70.4017 54.7188 63.8672 61.3023 63.8672 69.4236C63.8672 77.5448 70.4017 84.1284 78.4624 84.1284Z" fill="#F5F5F5"/>
<path d="M77.7901 71.2661C72.6067 71.2661 67.6356 69.1916 63.9704 65.4988C60.3052 61.8061 58.2461 56.7976 58.2461 51.5753V39.8241C58.2461 39.3336 58.4395 38.8632 58.7838 38.5163C59.128 38.1695 59.595 37.9746 60.0818 37.9746C60.5687 37.9746 61.0356 38.1695 61.3799 38.5163C61.7242 38.8632 61.9176 39.3336 61.9176 39.8241V51.5824C61.9213 55.8213 63.5938 59.8856 66.5681 62.8836C69.5425 65.8816 73.5758 67.5685 77.7831 67.5741C78.0332 67.5585 78.2839 67.5947 78.5196 67.6805C78.7553 67.7662 78.9711 67.8996 79.1537 68.0726C79.3363 68.2455 79.4818 68.4543 79.5812 68.6861C79.6807 68.9178 79.732 69.1676 79.732 69.4201C79.732 69.6726 79.6807 69.9224 79.5812 70.1541C79.4818 70.3859 79.3363 70.5947 79.1537 70.7676C78.9711 70.9406 78.7553 71.074 78.5196 71.1597C78.2839 71.2455 78.0332 71.2817 77.7831 71.2661H77.7901Z" fill="#E0E0E0"/>
<path d="M43.8552 50.1762H76.3261C76.8454 50.1763 77.3578 50.0562 77.8238 49.8253C78.2898 49.5945 78.697 49.2589 79.0139 48.8444C79.3308 48.43 79.5491 47.9477 79.6519 47.4349C79.7547 46.922 79.7392 46.3923 79.6067 45.8864L76.7798 35.162C76.589 34.4334 76.1646 33.7888 75.5726 33.3284C74.9805 32.868 74.2541 32.6176 73.5062 32.6162H46.6751C45.9263 32.6173 45.1989 32.8674 44.6057 33.3277C44.0125 33.788 43.5867 34.4328 43.3945 35.162L40.6025 45.8723C40.4666 46.3769 40.4477 46.9062 40.5472 47.4194C40.6467 47.9325 40.8619 48.4158 41.1763 48.8317C41.4907 49.2477 41.8958 49.5853 42.3603 49.8184C42.8248 50.0515 43.3363 50.1739 43.8552 50.1762Z" fill="#F5F5F5"/>
<path d="M286.376 84.1284C290.247 84.1284 293.959 82.5791 296.696 79.8214C299.433 77.0637 300.971 73.3235 300.971 69.4236C300.971 65.5236 299.433 61.7834 296.696 59.0257C293.959 56.268 290.247 54.7188 286.376 54.7188H284.582V84.1284H286.376Z" fill="#E0E0E0"/>
<path d="M284.583 84.1284C292.644 84.1284 299.179 77.5448 299.179 69.4236C299.179 61.3023 292.644 54.7188 284.583 54.7188C276.523 54.7188 269.988 61.3023 269.988 69.4236C269.988 77.5448 276.523 84.1284 284.583 84.1284Z" fill="#F5F5F5"/>
<path d="M283.911 71.2661C278.728 71.2661 273.757 69.1916 270.091 65.4988C266.426 61.8061 264.367 56.7976 264.367 51.5753V39.8241C264.367 39.3336 264.561 38.8632 264.905 38.5163C265.249 38.1695 265.716 37.9746 266.203 37.9746C266.69 37.9746 267.157 38.1695 267.501 38.5163C267.845 38.8632 268.039 39.3336 268.039 39.8241V51.5824C268.042 55.8213 269.715 59.8856 272.689 62.8836C275.664 65.8816 279.697 67.5685 283.904 67.5741C284.154 67.5585 284.405 67.5947 284.641 67.6805C284.876 67.7662 285.092 67.8996 285.275 68.0726C285.457 68.2455 285.603 68.4543 285.702 68.6861C285.802 68.9178 285.853 69.1676 285.853 69.4201C285.853 69.6726 285.802 69.9224 285.702 70.1541C285.603 70.3859 285.457 70.5947 285.275 70.7676C285.092 70.9406 284.876 71.074 284.641 71.1597C284.405 71.2455 284.154 71.2817 283.904 71.2661H283.911Z" fill="#E0E0E0"/>
<path d="M249.973 50.1768H282.443C282.963 50.1768 283.475 50.0568 283.941 49.8259C284.407 49.595 284.814 49.2594 285.131 48.845C285.448 48.4305 285.666 47.9483 285.769 47.4355C285.872 46.9226 285.857 46.3929 285.724 45.887L282.932 35.1766C282.741 34.448 282.317 33.8034 281.725 33.343C281.133 32.8827 280.406 32.6323 279.658 32.6309H252.792C252.044 32.6319 251.316 32.882 250.723 33.3424C250.13 33.8027 249.704 34.4475 249.512 35.1766L246.72 45.887C246.586 46.3907 246.569 46.9184 246.67 47.4298C246.771 47.9411 246.987 48.4224 247.301 48.8366C247.615 49.2509 248.019 49.587 248.482 49.8194C248.945 50.0517 249.455 50.1739 249.973 50.1768Z" fill="#F5F5F5"/>
<path d="M93.5201 183.447H104.137V142.005H93.5201V183.447Z" fill="#E6E6E6"/>
<path d="M64.7383 183.441H99.9663L105.285 134.938H70.057L64.7383 183.441Z" fill="#F0F0F0"/>
<path d="M60.9219 183.441H97.3156L102.634 134.938H66.2476L60.9219 183.441Z" fill="#F5F5F5"/>
<path d="M94.6838 179.622L99.165 138.764H68.8718L64.3906 179.622H94.6838Z" fill="white"/>
<path d="M88.4312 169.713L88.6476 168.075C89.7714 157.822 83.4196 148.687 75.1692 148.687L74.9807 150.353C73.857 160.599 80.2088 169.735 88.4661 169.735L88.4312 169.713Z" fill="#F5F5F5"/>
<path d="M41.2446 230.242H72.543V183.441H41.2446L41.2446 230.242Z" fill="#E6E6E6"/>
<path d="M44.3863 230.241H41.2383V221.219H47.6878L44.3863 230.241Z" fill="#F0F0F0"/>
<path d="M128.963 230.242H160.262V183.441H128.963V230.242Z" fill="#E6E6E6"/>
<path d="M41.2393 224.707H131.707V183.448H41.2393V224.707Z" fill="#F0F0F0"/>
<path d="M128.555 230.241H131.703V221.219H125.254L128.555 230.241Z" fill="#F0F0F0"/>
<path d="M43.6799 202.674H129.262V186.021H43.6799V202.674Z" fill="#E6E6E6"/>
<path d="M80.7647 196.909H92.177C94.6307 196.91 97.0588 196.406 99.3127 195.429C101.567 194.452 103.599 193.022 105.285 191.227H67.6562C69.3434 193.021 71.376 194.451 73.6297 195.428C75.8835 196.405 78.3112 196.909 80.7647 196.909Z" fill="#F0F0F0"/>
<path d="M43.6799 222.014H129.262V205.361H43.6799V222.014Z" fill="#E6E6E6"/>
<path d="M80.7647 216.219H92.177C94.6307 216.22 97.0588 215.717 99.3127 214.74C101.567 213.763 103.599 212.333 105.285 210.537H67.6562C69.3434 212.332 71.376 213.761 73.6297 214.738C75.8835 215.715 78.3112 216.219 80.7647 216.219Z" fill="#F0F0F0"/>
<path d="M125.976 181.536H126.786C126.786 179.855 126.786 175.6 126.869 165.846C127.016 148.16 127.295 147.084 127.295 147.084L125.369 155.249C124.147 164.285 125.725 173.371 125.976 181.536Z" fill="#E6E6E6"/>
<path d="M124.376 154.009C121.584 150.683 115.685 149.713 109.627 148.883C107.247 148.559 115.874 154.038 120.097 157.927C123.377 160.95 125.471 161.787 126.379 164.797C126.84 161.042 126.763 156.9 124.376 154.009Z" fill="#E6E6E6"/>
<path d="M128.054 159.973C130.846 156.647 136.745 155.683 142.803 154.854C145.183 154.53 136.521 160.008 132.333 163.897C129.053 166.921 126.959 167.758 126.051 170.768C125.591 167.013 125.639 162.842 128.054 159.973Z" fill="#E6E6E6"/>
<path d="M126.867 146.274C128.961 142.294 134.168 138.539 140.039 137.132C142.342 136.577 134.699 144.474 131.795 149.573C129.541 153.525 126.553 158.18 126.086 161.528C125.388 154.931 124.787 150.276 126.867 146.274Z" fill="#E6E6E6"/>
<path d="M126.617 183.441C124.147 183.441 122.101 182.196 121.955 180.593L121.543 177.864H131.699L131.28 180.593C131.14 182.196 129.13 183.441 126.617 183.441Z" fill="#F0F0F0"/>
<path d="M132.355 178.912H120.887L120.559 175.867H132.683L132.355 178.912Z" fill="#F0F0F0"/>
<path d="M118.337 120.761L230.164 120.761V17.9959L118.337 17.9959L118.337 120.761Z" fill="#E6E6E6"/>
<path d="M115.827 120.761L229.07 120.761V17.9959L115.827 17.9959L115.827 120.761Z" fill="#F5F5F5"/>
<path d="M224.547 116.161V22.6016L120.335 22.6016V116.161H224.547Z" fill="#FAFAFA"/>
<path d="M211.767 116.161L170.752 22.6016H156.82L197.835 116.161H211.767Z" fill="white"/>
<path d="M193.882 116.161L152.868 22.6016H143.277L184.292 116.161H193.882Z" fill="white"/>
<path d="M159.031 116.155V22.5957H153.643V116.155H159.031Z" fill="#E6E6E6"/>
<path d="M194.855 116.155V22.5957H189.467V116.155H194.855Z" fill="#E6E6E6"/>
<path d="M158.062 119.08V19.1777H151.25V119.08H158.062Z" fill="#F5F5F5"/>
<path d="M193.883 119.08V19.1777H187.07V119.08H193.883Z" fill="#F5F5F5"/>
<path d="M120.824 116.161V22.6016H120.343V116.161H120.824Z" fill="#E6E6E6"/>
<path d="M113.926 12.0742H235.071C235.226 12.076 235.374 12.1389 235.484 12.2493C235.593 12.3596 235.656 12.5088 235.657 12.6649C235.656 12.8204 235.593 12.9688 235.483 13.0781C235.373 13.1874 235.225 13.2486 235.071 13.2486H113.926C113.772 13.2486 113.624 13.1874 113.514 13.0781C113.404 12.9688 113.342 12.8204 113.34 12.6649C113.342 12.5088 113.404 12.3596 113.514 12.2493C113.623 12.1389 113.771 12.076 113.926 12.0742Z" fill="#E6E6E6"/>
<path d="M230.164 15.9494C230.372 15.9475 230.571 15.863 230.717 15.7142C230.863 15.5653 230.946 15.3643 230.946 15.1547V13.4529C230.946 13.3488 230.927 13.2457 230.888 13.1493C230.849 13.0529 230.792 12.9653 230.719 12.8914C230.646 12.8175 230.56 12.7588 230.465 12.7188C230.369 12.6788 230.267 12.6582 230.164 12.6582C229.956 12.6582 229.756 12.741 229.608 12.8885C229.461 13.036 229.377 13.2363 229.375 13.4458V15.1477C229.375 15.3591 229.458 15.562 229.606 15.7121C229.753 15.8622 229.954 15.9475 230.164 15.9494Z" fill="#E6E6E6"/>
<path d="M122.708 15.9494C122.916 15.9475 123.116 15.8632 123.263 15.7146C123.411 15.566 123.494 15.3649 123.496 15.1547V13.4529C123.496 13.2421 123.413 13.04 123.265 12.891C123.117 12.7419 122.917 12.6582 122.708 12.6582C122.5 12.6582 122.301 12.7412 122.155 12.8889C122.008 13.0366 121.926 13.2369 121.926 13.4458V15.1477C121.925 15.252 121.944 15.3556 121.983 15.4523C122.022 15.5491 122.079 15.6372 122.152 15.7117C122.224 15.7861 122.311 15.8454 122.406 15.8862C122.502 15.927 122.604 15.9485 122.708 15.9494Z" fill="#E6E6E6"/>
<path opacity="0.6" d="M114.111 93.1377L227.277 93.1377V12.6586L114.111 12.6586L114.111 93.1377Z" fill="#E0E0E0"/>
<path d="M237.521 144.144H218.005C215.931 144.144 214.25 145.837 214.25 147.927V157.027C214.25 159.116 215.931 160.81 218.005 160.81H237.521C239.595 160.81 241.277 159.116 241.277 157.027V147.927C241.277 145.837 239.595 144.144 237.521 144.144Z" fill="#FAFAFA"/>
<path d="M240.013 141.063H215.513C214.816 141.063 214.25 141.633 214.25 142.336V143.363C214.25 144.066 214.816 144.636 215.513 144.636H240.013C240.711 144.636 241.277 144.066 241.277 143.363V142.336C241.277 141.633 240.711 141.063 240.013 141.063Z" fill="#E6E6E6"/>
<path d="M214.648 179.326C214.648 179.326 215.004 191.049 228.56 191.049C242.115 191.049 242.471 179.326 242.471 179.326H214.648Z" fill="#F0F0F0"/>
<path d="M245.559 179.326C245.559 179.326 245.915 191.049 259.47 191.049C273.025 191.049 273.381 179.326 273.381 179.326H245.559Z" fill="#F0F0F0"/>
<path d="M266.664 136.598H239.861C237.008 136.598 234.695 138.928 234.695 141.802V155.613C234.695 158.487 237.008 160.817 239.861 160.817H266.664C269.516 160.817 271.829 158.487 271.829 155.613V141.802C271.829 138.928 269.516 136.598 266.664 136.598Z" fill="#F0F0F0"/>
<path d="M270.098 132.364H236.426C235.47 132.364 234.695 133.145 234.695 134.108V135.529C234.695 136.492 235.47 137.273 236.426 137.273H270.098C271.054 137.273 271.829 136.492 271.829 135.529V134.108C271.829 133.145 271.054 132.364 270.098 132.364Z" fill="#F5F5F5"/>
<path d="M204.439 230.242H207.957V172.126H204.439V230.242Z" fill="#E6E6E6"/>
<path d="M306.017 160.811H286.969V172.119H306.017V160.811Z" fill="#E6E6E6"/>
<path d="M192.26 172.125H286.965V160.817H192.26V172.125Z" fill="#F5F5F5"/>
<path d="M306.017 191.016H286.969V202.324H306.017V191.016Z" fill="#E6E6E6"/>
<path d="M192.26 202.323H286.965V191.015H192.26V202.323Z" fill="#F5F5F5"/>
<path d="M299.142 230.242H302.66V172.126H299.142V230.242Z" fill="#E6E6E6"/>
<path d="M283.451 230.242H286.969V172.126H283.451V230.242Z" fill="#F5F5F5"/>
<path d="M192.259 230.242H195.777V172.126H192.259V230.242Z" fill="#F5F5F5"/>
<path d="M174.499 262C249.243 262 309.835 258.435 309.835 254.039C309.835 249.642 249.243 246.078 174.499 246.078C99.7557 246.078 39.1641 249.642 39.1641 254.039C39.1641 258.435 99.7557 262 174.499 262Z" fill="#F5F5F5"/>
<path d="M181.768 218.357H92.724C91.2921 218.336 89.9208 217.771 88.8852 216.775C87.8496 215.778 87.2261 214.424 87.14 212.984L79.1549 57.1805C79.1106 56.4875 79.2089 55.7928 79.4436 55.1398C79.6783 54.4868 80.0443 53.8898 80.5188 53.386C80.9932 52.8822 81.5659 52.4826 82.2008 52.2123C82.8357 51.9419 83.5192 51.8066 84.2084 51.8148H173.252C174.684 51.8335 176.055 52.3971 177.091 53.3924C178.126 54.3877 178.75 55.741 178.836 57.1805L186.807 212.984C186.852 213.676 186.754 214.37 186.52 215.022C186.286 215.675 185.921 216.272 185.449 216.776C184.976 217.28 184.405 217.68 183.772 217.952C183.138 218.224 182.456 218.362 181.768 218.357Z" fill="url(#paint0_linear_456_7103)"/>
<path opacity="0.8" d="M181.768 218.357H92.724C91.2921 218.336 89.9208 217.771 88.8852 216.775C87.8496 215.778 87.2261 214.424 87.14 212.984L79.1549 57.1805C79.1106 56.4875 79.2089 55.7928 79.4436 55.1398C79.6783 54.4868 80.0443 53.8898 80.5188 53.386C80.9932 52.8822 81.5659 52.4826 82.2008 52.2123C82.8357 51.9419 83.5192 51.8066 84.2084 51.8148H173.252C174.684 51.8335 176.055 52.3971 177.091 53.3924C178.126 54.3877 178.75 55.741 178.836 57.1805L186.807 212.984C186.852 213.676 186.754 214.37 186.52 215.022C186.286 215.675 185.921 216.272 185.449 216.776C184.976 217.28 184.405 217.68 183.772 217.952C183.138 218.224 182.456 218.362 181.768 218.357Z" fill="white"/>
<path d="M164.466 46.7373H154.617V47.4405H164.466V46.7373Z" fill="url(#paint1_linear_456_7103)"/>
<path d="M151.202 46.7373H147.594V47.4405H151.202V46.7373Z" fill="url(#paint2_linear_456_7103)"/>
<path d="M185.598 208.469H100.442C99.0706 208.456 97.7552 207.92 96.7606 206.968C95.766 206.017 95.1659 204.722 95.0813 203.343L87.4591 54.3254C87.4167 53.6622 87.5109 52.9973 87.7355 52.3724C87.9602 51.7476 88.3106 51.1762 88.7648 50.6942C89.219 50.2122 89.7671 49.83 90.3748 49.5714C90.9825 49.3129 91.6366 49.1836 92.2962 49.1918H177.452C178.823 49.207 180.138 49.7451 181.131 50.6976C182.125 51.6501 182.723 52.9464 182.806 54.3254L190.428 203.343C190.47 204.005 190.376 204.669 190.152 205.293C189.928 205.917 189.578 206.487 189.124 206.969C188.671 207.45 188.124 207.832 187.517 208.09C186.91 208.348 186.257 208.477 185.598 208.469Z" fill="url(#paint3_linear_456_7103)"/>
<path d="M185.6 205.045H100.444C99.9441 205.027 99.4684 204.826 99.1068 204.478C98.7452 204.131 98.5229 203.662 98.4821 203.16L90.853 54.15C90.8357 53.9518 90.8604 53.7521 90.9254 53.5642C90.9903 53.3763 91.0941 53.2044 91.2299 53.0599C91.3661 52.9158 91.5311 52.8024 91.714 52.7272C91.8969 52.6521 92.0935 52.6169 92.2909 52.6239H177.447C177.945 52.6429 178.419 52.8452 178.779 53.1925C179.139 53.5398 179.361 54.008 179.401 54.5086L187.065 203.519C187.082 203.716 187.057 203.915 186.993 204.102C186.928 204.289 186.824 204.461 186.689 204.605C186.554 204.749 186.39 204.862 186.209 204.938C186.027 205.014 185.831 205.05 185.634 205.045H185.6ZM92.2909 52.7997C92.1174 52.7941 91.9446 52.8249 91.7835 52.8903C91.6225 52.9557 91.4767 53.0542 91.3556 53.1795C91.239 53.3094 91.1499 53.4617 91.0935 53.6273C91.0371 53.7929 91.0147 53.9683 91.0275 54.1429L98.6497 203.153C98.6885 203.609 98.8916 204.036 99.2207 204.352C99.5498 204.668 99.9822 204.852 100.437 204.869H185.593C185.765 204.876 185.937 204.845 186.097 204.78C186.257 204.714 186.402 204.615 186.521 204.489C186.64 204.361 186.731 204.209 186.788 204.043C186.844 203.877 186.865 203.701 186.849 203.526L179.234 54.5157C179.197 54.0599 178.995 53.6336 178.667 53.3175C178.339 53.0013 177.907 52.8171 177.454 52.7997H92.2909Z" fill="white"/>
<path opacity="0.3" d="M155.812 106.932C165.498 96.9183 164.867 80.4724 154.403 70.1991C143.94 59.9258 127.606 59.7154 117.92 69.729C108.234 79.7427 108.865 96.1885 119.329 106.462C129.792 116.735 146.126 116.946 155.812 106.932Z" fill="white"/>
<path d="M157.748 88.3334C157.944 91.7893 157.254 95.2377 155.745 98.3476C154.112 101.683 151.577 104.486 148.431 106.433C145.286 108.38 141.659 109.393 137.967 109.353C134.142 109.319 130.39 108.287 127.078 106.358C123.766 104.429 121.005 101.67 119.065 98.3476C117.258 95.3095 116.217 91.8709 116.036 88.3334C115.864 85.6205 116.249 82.901 117.168 80.345C118.087 77.7891 119.52 75.4518 121.377 73.4794C123.234 71.507 125.475 69.942 127.959 68.8822C130.444 67.8224 133.119 67.2908 135.817 67.3205C141.433 67.3795 146.817 69.5801 150.887 73.4791C154.956 77.3781 157.408 82.6859 157.748 88.3334Z" fill="white"/>
<path d="M155.727 98.3479C154.094 101.684 151.558 104.486 148.413 106.434C145.268 108.381 141.64 109.393 137.949 109.354C134.123 109.319 130.372 108.287 127.059 106.358C123.747 104.43 120.987 101.67 119.047 98.3479C124.351 94.6572 130.651 92.6937 137.097 92.722C143.716 92.7471 150.186 94.701 155.727 98.3479Z" fill="url(#paint4_linear_456_7103)"/>
<path d="M143.335 87.8452C146.824 84.2375 146.596 78.3112 142.824 74.6085C139.053 70.9058 133.167 70.8287 129.678 74.4364C126.188 78.0441 126.417 83.9704 130.188 87.6731C133.959 91.3759 139.845 91.4529 143.335 87.8452Z" fill="url(#paint5_linear_456_7103)"/>
<path d="M173.392 150.493H106.712C106.132 150.487 105.575 150.26 105.154 149.856C104.733 149.453 104.479 148.904 104.444 148.32L103.941 138.475C103.924 138.195 103.964 137.914 104.06 137.65C104.155 137.387 104.303 137.146 104.495 136.942C104.687 136.739 104.919 136.578 105.175 136.469C105.432 136.36 105.708 136.305 105.987 136.309H172.666C173.246 136.315 173.802 136.541 174.223 136.943C174.644 137.345 174.898 137.892 174.935 138.475L175.438 148.32C175.456 148.601 175.416 148.882 175.322 149.147C175.227 149.411 175.079 149.653 174.887 149.857C174.694 150.061 174.463 150.223 174.205 150.333C173.948 150.442 173.672 150.497 173.392 150.493Z" fill="white"/>
<path opacity="0.3" d="M152.977 130.873H125.127C124.544 130.869 123.984 130.641 123.561 130.236C123.139 129.831 122.885 129.28 122.851 128.693L122.747 126.583C122.728 126.303 122.768 126.021 122.863 125.757C122.957 125.492 123.105 125.25 123.298 125.046C123.49 124.842 123.721 124.68 123.979 124.571C124.236 124.461 124.513 124.407 124.792 124.41H152.635C153.216 124.416 153.773 124.644 154.194 125.047C154.614 125.45 154.868 125.999 154.903 126.583L155.015 128.693C155.032 128.973 154.992 129.254 154.898 129.518C154.803 129.782 154.655 130.023 154.464 130.228C154.273 130.432 154.043 130.595 153.787 130.706C153.531 130.817 153.255 130.874 152.977 130.873Z" fill="black"/>
<path opacity="0.3" d="M163.332 197.829H121.613C120.625 197.816 119.678 197.428 118.962 196.742C118.247 196.056 117.814 195.123 117.753 194.13L117.509 189.277C117.484 188.8 117.556 188.323 117.72 187.875C117.885 187.427 118.138 187.018 118.464 186.672C118.791 186.326 119.184 186.05 119.62 185.862C120.055 185.674 120.525 185.577 120.999 185.578H162.704C163.692 185.59 164.639 185.978 165.355 186.664C166.07 187.35 166.503 188.284 166.564 189.277L166.808 194.13C166.833 194.605 166.761 195.081 166.598 195.528C166.434 195.975 166.182 196.384 165.857 196.73C165.532 197.076 165.141 197.352 164.707 197.54C164.273 197.729 163.805 197.827 163.332 197.829Z" fill="black"/>
<path d="M174.614 174.306H107.927C107.347 174.298 106.791 174.07 106.37 173.667C105.95 173.264 105.696 172.716 105.659 172.133L105.156 162.287C105.139 162.007 105.179 161.726 105.274 161.462C105.37 161.198 105.518 160.956 105.71 160.753C105.901 160.549 106.133 160.387 106.39 160.277C106.646 160.167 106.923 160.112 107.201 160.114H173.881C174.462 160.12 175.019 160.348 175.44 160.751C175.861 161.154 176.115 161.703 176.15 162.287L176.659 172.133C176.676 172.413 176.635 172.693 176.539 172.957C176.443 173.221 176.295 173.462 176.104 173.665C175.912 173.869 175.681 174.031 175.425 174.141C175.169 174.251 174.893 174.307 174.614 174.306Z" fill="white"/>
<path d="M115.174 143.398C115.193 143.709 115.148 144.021 115.043 144.313C114.937 144.606 114.773 144.873 114.56 145.099C114.347 145.325 114.09 145.504 113.805 145.625C113.521 145.746 113.214 145.807 112.905 145.803C112.263 145.796 111.648 145.543 111.183 145.097C110.718 144.651 110.438 144.044 110.399 143.398C110.379 143.088 110.423 142.777 110.528 142.484C110.632 142.192 110.796 141.924 111.009 141.698C111.221 141.472 111.477 141.293 111.762 141.172C112.046 141.05 112.352 140.99 112.661 140.993C113.304 141.001 113.92 141.253 114.386 141.699C114.852 142.145 115.133 142.752 115.174 143.398Z" fill="#263238"/>
<path d="M122.522 143.398C122.542 143.709 122.499 144.02 122.394 144.313C122.289 144.605 122.125 144.873 121.913 145.099C121.701 145.325 121.444 145.504 121.16 145.625C120.876 145.746 120.569 145.807 120.261 145.803C119.618 145.797 119.002 145.546 118.537 145.099C118.071 144.653 117.792 144.045 117.755 143.398C117.735 143.088 117.778 142.777 117.883 142.484C117.988 142.192 118.152 141.924 118.364 141.698C118.576 141.472 118.833 141.293 119.117 141.172C119.401 141.05 119.708 140.99 120.016 140.993C120.659 140.999 121.275 141.251 121.74 141.698C122.206 142.144 122.485 142.752 122.522 143.398Z" fill="#263238"/>
<path d="M129.829 143.398C129.85 143.709 129.806 144.02 129.701 144.313C129.596 144.605 129.433 144.873 129.22 145.099C129.008 145.325 128.751 145.504 128.467 145.625C128.183 145.746 127.877 145.807 127.568 145.803C126.925 145.796 126.309 145.544 125.843 145.098C125.377 144.652 125.096 144.045 125.055 143.398C125.036 143.088 125.081 142.776 125.186 142.484C125.292 142.191 125.456 141.923 125.669 141.698C125.882 141.472 126.139 141.293 126.423 141.172C126.708 141.051 127.015 140.99 127.324 140.993C127.966 141.001 128.581 141.253 129.046 141.7C129.511 142.146 129.791 142.753 129.829 143.398Z" fill="#263238"/>
<path d="M137.193 143.398C137.212 143.709 137.167 144.019 137.062 144.311C136.957 144.604 136.793 144.871 136.581 145.096C136.369 145.322 136.113 145.501 135.829 145.623C135.545 145.744 135.24 145.806 134.931 145.803C134.288 145.796 133.672 145.544 133.206 145.098C132.74 144.652 132.459 144.045 132.418 143.398C132.399 143.088 132.444 142.777 132.549 142.485C132.654 142.193 132.818 141.926 133.03 141.7C133.242 141.475 133.498 141.295 133.782 141.174C134.066 141.052 134.371 140.991 134.68 140.993C135.323 141.001 135.939 141.253 136.405 141.699C136.871 142.145 137.152 142.752 137.193 143.398Z" fill="#263238"/>
<path d="M116.408 167.196C116.428 167.507 116.384 167.818 116.279 168.111C116.174 168.403 116.011 168.671 115.798 168.897C115.586 169.122 115.33 169.302 115.045 169.423C114.761 169.544 114.455 169.605 114.146 169.601C113.503 169.594 112.887 169.342 112.421 168.896C111.955 168.45 111.674 167.843 111.633 167.196C111.614 166.885 111.659 166.574 111.764 166.281C111.87 165.989 112.034 165.721 112.247 165.496C112.46 165.27 112.717 165.091 113.002 164.97C113.286 164.848 113.593 164.788 113.902 164.791C114.544 164.799 115.159 165.051 115.624 165.497C116.089 165.944 116.369 166.551 116.408 167.196Z" fill="#263238"/>
<path d="M123.744 167.196C123.763 167.506 123.719 167.817 123.614 168.109C123.508 168.402 123.345 168.669 123.132 168.894C122.92 169.12 122.664 169.299 122.38 169.421C122.097 169.542 121.791 169.604 121.482 169.601C120.84 169.594 120.224 169.342 119.758 168.896C119.292 168.45 119.01 167.843 118.97 167.196C118.949 166.886 118.993 166.575 119.098 166.282C119.203 165.989 119.367 165.722 119.579 165.496C119.791 165.27 120.048 165.091 120.332 164.97C120.616 164.848 120.922 164.788 121.231 164.791C121.874 164.799 122.49 165.051 122.956 165.497C123.422 165.943 123.704 166.55 123.744 167.196Z" fill="#263238"/>
<path d="M131.08 167.196C131.099 167.507 131.055 167.818 130.949 168.111C130.843 168.404 130.679 168.671 130.466 168.897C130.253 169.123 129.996 169.302 129.712 169.423C129.427 169.544 129.12 169.605 128.811 169.601C128.169 169.595 127.553 169.344 127.087 168.897C126.622 168.45 126.343 167.843 126.306 167.196C126.285 166.886 126.329 166.575 126.434 166.282C126.539 165.989 126.702 165.722 126.915 165.496C127.127 165.27 127.384 165.091 127.668 164.97C127.952 164.848 128.258 164.788 128.567 164.791C129.21 164.799 129.826 165.051 130.292 165.497C130.758 165.943 131.039 166.55 131.08 167.196Z" fill="#263238"/>
<path d="M138.408 167.196C138.428 167.507 138.384 167.818 138.279 168.111C138.174 168.403 138.011 168.671 137.798 168.897C137.586 169.122 137.33 169.302 137.045 169.423C136.761 169.544 136.455 169.605 136.146 169.601C135.503 169.594 134.887 169.342 134.421 168.896C133.955 168.45 133.674 167.843 133.633 167.196C133.614 166.885 133.659 166.574 133.764 166.281C133.87 165.989 134.034 165.721 134.247 165.496C134.46 165.27 134.717 165.091 135.002 164.97C135.286 164.848 135.593 164.788 135.902 164.791C136.544 164.797 137.161 165.049 137.626 165.496C138.091 165.942 138.37 166.55 138.408 167.196Z" fill="#263238"/>
<path d="M145.744 167.196C145.764 167.507 145.72 167.818 145.615 168.11C145.51 168.403 145.347 168.671 145.134 168.897C144.922 169.122 144.666 169.302 144.381 169.423C144.097 169.544 143.791 169.605 143.482 169.601C142.839 169.594 142.223 169.342 141.757 168.896C141.291 168.45 141.01 167.843 140.969 167.196C140.95 166.886 140.994 166.575 141.1 166.283C141.205 165.991 141.369 165.724 141.581 165.498C141.793 165.273 142.049 165.093 142.333 164.972C142.617 164.85 142.922 164.789 143.231 164.791C143.873 164.799 144.49 165.051 144.956 165.497C145.422 165.943 145.703 166.55 145.744 167.196Z" fill="#263238"/>
<path d="M153.08 167.196C153.099 167.507 153.055 167.818 152.949 168.111C152.843 168.404 152.679 168.671 152.466 168.897C152.253 169.123 151.996 169.302 151.712 169.423C151.427 169.544 151.12 169.605 150.811 169.601C150.169 169.594 149.554 169.341 149.089 168.895C148.624 168.449 148.344 167.842 148.306 167.196C148.285 166.886 148.329 166.575 148.434 166.282C148.539 165.989 148.702 165.722 148.915 165.496C149.127 165.27 149.384 165.091 149.668 164.97C149.952 164.848 150.258 164.788 150.567 164.791C151.21 164.799 151.826 165.051 152.292 165.497C152.758 165.943 153.039 166.55 153.08 167.196Z" fill="#263238"/>
<path d="M232.431 85.5283C232.606 85.7956 232.696 85.9362 232.808 86.1261L233.122 86.6465C233.325 86.9981 233.506 87.3497 233.681 87.6943C234.03 88.3976 234.379 89.1008 234.658 89.804C235.243 91.2007 235.746 92.6308 236.166 94.0868C237.011 96.963 237.567 99.9173 237.827 102.905L237.876 103.461C237.881 103.573 237.881 103.686 237.876 103.799V104.171C237.887 104.66 237.859 105.15 237.792 105.634C237.658 106.532 237.424 107.412 237.094 108.257C236.481 109.767 235.668 111.186 234.679 112.477C232.833 114.858 230.642 116.947 228.18 118.672L226.254 116.401C228.007 114.406 229.559 112.241 230.889 109.938C231.487 108.893 231.956 107.778 232.285 106.619C232.418 106.127 232.495 105.622 232.515 105.114C232.536 104.896 232.536 104.677 232.515 104.46V104.312C232.522 104.246 232.522 104.18 232.515 104.115L232.431 103.623C231.982 101.002 231.348 98.4167 230.533 95.8871C230.128 94.6283 229.632 93.4117 229.137 92.2232C228.892 91.6254 228.613 91.0417 228.334 90.4792L227.901 89.6493L227.685 89.2625L227.503 88.9531L232.431 85.5283Z" fill="#803E3C"/>
<path d="M225.941 118.687L228.468 124.066L230.471 119.516C230.471 119.516 228.692 115.578 226.283 115.944L225.941 118.687Z" fill="#7F3E3B"/>
<path d="M230.277 124.333L232.287 121.014L230.472 119.516L228.469 124.066L230.277 124.333Z" fill="#7F3E3B"/>
<path d="M218.914 248.399C219.436 248.386 219.956 248.316 220.463 248.188C220.489 248.181 220.512 248.166 220.53 248.146C220.549 248.127 220.562 248.102 220.568 248.076C220.572 248.049 220.568 248.021 220.557 247.996C220.546 247.971 220.528 247.95 220.505 247.935C220.303 247.802 218.53 246.648 217.846 246.958C217.77 246.993 217.705 247.049 217.657 247.118C217.609 247.187 217.58 247.268 217.573 247.352C217.552 247.479 217.562 247.609 217.602 247.732C217.642 247.854 217.712 247.965 217.804 248.055C218.12 248.301 218.514 248.423 218.914 248.399ZM220.065 247.985C219.053 248.195 218.285 248.16 217.971 247.886C217.907 247.822 217.86 247.743 217.834 247.655C217.809 247.568 217.805 247.476 217.825 247.387C217.825 247.267 217.894 247.232 217.943 247.211C218.32 247.042 219.346 247.541 220.065 247.985Z" fill="url(#paint6_linear_456_7103)"/>
<path d="M220.427 248.188H220.497C220.518 248.174 220.535 248.155 220.548 248.133C220.56 248.111 220.566 248.086 220.567 248.061C220.567 247.991 220.567 246.296 219.925 245.726C219.846 245.655 219.753 245.602 219.651 245.57C219.55 245.539 219.443 245.529 219.338 245.544C219.228 245.544 219.122 245.583 219.037 245.654C218.952 245.724 218.893 245.822 218.871 245.93C218.738 246.598 219.799 247.864 220.357 248.188H220.427ZM219.429 245.804C219.486 245.802 219.542 245.812 219.595 245.832C219.647 245.853 219.695 245.884 219.736 245.923C220.104 246.47 220.295 247.119 220.281 247.78C219.722 247.33 219.059 246.373 219.143 245.972C219.143 245.909 219.192 245.825 219.366 245.804H219.429Z" fill="url(#paint7_linear_456_7103)"/>
<path d="M212.321 245.53C212.338 245.509 212.348 245.484 212.352 245.458C212.356 245.432 212.352 245.405 212.342 245.381C212.332 245.357 212.316 245.335 212.295 245.319C212.274 245.304 212.25 245.294 212.224 245.291C211.937 245.291 209.432 245.171 208.859 245.79V245.832C208.812 245.893 208.781 245.965 208.77 246.042C208.759 246.118 208.768 246.196 208.796 246.268C208.834 246.389 208.9 246.499 208.988 246.588C209.077 246.677 209.186 246.744 209.306 246.781C210.116 247.035 211.547 246.113 212.328 245.544L212.321 245.53ZM209.069 245.973C209.383 245.635 210.765 245.544 211.798 245.558C210.716 246.303 209.815 246.655 209.362 246.514C209.283 246.49 209.211 246.447 209.152 246.388C209.094 246.329 209.051 246.256 209.027 246.177C209.013 246.149 209.005 246.119 209.005 246.089C209.005 246.058 209.013 246.028 209.027 246.001L209.069 245.973Z" fill="url(#paint8_linear_456_7103)"/>
<path d="M212.325 245.53C212.335 245.508 212.341 245.484 212.341 245.459C212.341 245.435 212.335 245.411 212.325 245.389C212.29 245.333 211.508 243.983 210.587 243.701C210.454 243.662 210.316 243.651 210.179 243.668C210.042 243.685 209.91 243.73 209.791 243.8C209.456 243.997 209.435 244.229 209.477 244.376C209.658 245.03 211.438 245.607 212.206 245.6C212.23 245.6 212.254 245.593 212.275 245.581C212.295 245.568 212.313 245.551 212.325 245.53ZM209.819 244.123C209.858 244.084 209.903 244.051 209.951 244.025C210.038 243.969 210.135 243.934 210.236 243.92C210.337 243.907 210.44 243.916 210.538 243.947C211.145 244.109 211.71 244.897 211.969 245.284C211.138 245.192 209.875 244.679 209.77 244.285C209.761 244.255 209.761 244.223 209.77 244.193C209.778 244.163 209.795 244.137 209.819 244.116V244.123Z" fill="url(#paint9_linear_456_7103)"/>
<path d="M220.009 64.9307C219.311 68.4469 217.804 76.0489 220.226 78.3837C220.226 78.3837 219.276 81.8999 212.834 81.8999C205.742 81.8999 209.449 78.3837 209.449 78.3837C213.315 77.4554 213.218 74.5581 212.541 71.8435L220.009 64.9307Z" fill="#7F3E3B"/>
<path d="M208.2 56.6877C208.239 56.6941 208.279 56.6941 208.318 56.6877C208.351 56.6712 208.381 56.6483 208.405 56.6202C208.43 56.5922 208.448 56.5596 208.46 56.5242C208.472 56.4889 208.476 56.4516 208.473 56.4145C208.471 56.3773 208.461 56.3411 208.444 56.3079C208.256 55.9068 207.976 55.5569 207.626 55.2876C207.276 55.0184 206.867 54.8377 206.434 54.7608C206.361 54.7546 206.289 54.7767 206.232 54.8225C206.175 54.8682 206.137 54.9342 206.127 55.0069C206.119 55.0805 206.14 55.1542 206.186 55.2122C206.231 55.2701 206.298 55.3075 206.371 55.3163C206.713 55.3825 207.035 55.53 207.309 55.7465C207.583 55.9629 207.803 56.2422 207.948 56.5611C207.975 56.6027 208.013 56.6363 208.057 56.6585C208.101 56.6808 208.15 56.6908 208.2 56.6877Z" fill="#263238"/>
<path d="M206.085 59.7754C205.536 60.8019 204.85 61.7483 204.047 62.5884C204.264 62.7888 204.522 62.9391 204.803 63.029C205.084 63.1188 205.381 63.1461 205.673 63.1088L206.085 59.7754Z" fill="#630F0F"/>
<path d="M206.607 58.9803C206.551 59.4515 206.251 59.8031 205.951 59.7679C205.651 59.7328 205.441 59.3179 205.497 58.8467C205.553 58.3755 205.853 58.0239 206.195 58.0591C206.537 58.0942 206.656 58.5091 206.607 58.9803Z" fill="#263238"/>
<path d="M206.286 58.102L205.211 57.666C205.211 57.666 205.665 58.5943 206.286 58.102Z" fill="#263238"/>
<path d="M218.486 244.194L212.79 245.53L209.328 232.337L215.024 231.001L218.486 244.194Z" fill="#7F3E3B"/>
<path d="M227.229 248.048H221.387L221.84 234.412H227.69L227.229 248.048Z" fill="#7F3E3B"/>
<path d="M220.915 247.365H227.483C227.597 247.364 227.707 247.405 227.794 247.48C227.88 247.555 227.936 247.659 227.951 247.773L228.698 253.005C228.713 253.138 228.699 253.272 228.659 253.398C228.619 253.525 228.552 253.642 228.464 253.741C228.375 253.84 228.267 253.919 228.146 253.973C228.025 254.027 227.895 254.054 227.762 254.053C225.473 254.018 224.37 253.877 221.48 253.877C219.701 253.877 217.104 254.067 214.654 254.067C212.204 254.067 212.064 251.62 213.091 251.402C217.669 250.403 218.395 249.039 219.938 247.731C220.21 247.496 220.557 247.367 220.915 247.365Z" fill="#263238"/>
<path d="M212.29 244.651L218.258 241.887C218.359 241.838 218.475 241.829 218.583 241.86C218.691 241.891 218.784 241.96 218.844 242.056L221.699 246.5C221.766 246.615 221.808 246.742 221.823 246.874C221.838 247.005 221.825 247.139 221.785 247.265C221.746 247.392 221.681 247.509 221.594 247.608C221.507 247.708 221.4 247.788 221.28 247.843C219.186 248.772 218.125 249.116 215.501 250.333C213.888 251.078 210.615 252.794 208.395 253.849C206.176 254.904 205.031 252.717 205.868 252.084C209.617 249.271 210.692 247.253 211.55 245.417C211.695 245.079 211.959 244.806 212.29 244.651Z" fill="#263238"/>
<path opacity="0.2" d="M209.328 232.337L211.185 239.412L216.811 237.801L215.031 231.001L209.328 232.337Z" fill="black"/>
<path opacity="0.2" d="M227.689 234.412H221.84L221.609 241.445H227.459L227.689 234.412Z" fill="black"/>
<path d="M230.338 79.7195C232.767 80.261 235.363 89.0586 235.363 89.0586L228.495 96.4215C228.495 96.4215 222.792 88.1514 223.958 85.1134C225.138 81.9418 227.441 79.0866 230.338 79.7195Z" fill="#263238"/>
<path opacity="0.4" d="M226.461 85.3248C225.232 84.1925 224.402 84.5301 223.836 85.4302C223.278 88.0463 226.586 93.5246 227.92 95.5991C228.534 93.1237 229.239 87.9057 226.461 85.3248Z" fill="black"/>
<path d="M199.565 79.8948C199.565 79.8948 196.773 80.8794 202.357 115.444H226.089C225.691 105.711 225.677 99.7052 230.277 79.719C226.952 79.0278 223.581 78.5812 220.191 78.3829C216.603 78.1224 213.002 78.1224 209.414 78.3829C204.814 78.8119 199.565 79.8948 199.565 79.8948Z" fill="#263238"/>
<path opacity="0.4" d="M199.348 93.1577C199.501 94.8385 199.704 96.7302 199.969 98.868C201.916 97.1029 203.508 92.0817 202.921 89.1562C201.53 90.2939 200.324 91.6441 199.348 93.1577Z" fill="black"/>
<path d="M201.886 87.9053C200.606 91.1526 199.164 94.3329 197.566 97.4342C195.986 100.647 194.117 103.708 191.982 106.576L191.535 107.132L191.312 107.406C191.235 107.498 191.172 107.582 191.054 107.709C190.634 108.17 190.166 108.585 189.658 108.946C188.76 109.572 187.777 110.065 186.74 110.409C184.931 110.991 183.053 111.327 181.156 111.408C177.603 111.55 174.046 111.231 170.574 110.458L170.958 107.505C172.564 107.505 174.246 107.505 175.844 107.371C177.45 107.291 179.049 107.113 180.632 106.837C182.103 106.605 183.542 106.199 184.918 105.627C185.474 105.388 185.993 105.071 186.461 104.685C186.639 104.534 186.801 104.364 186.942 104.178C186.942 104.178 187.026 104.066 187.082 103.988L187.242 103.756L187.571 103.292C189.322 100.566 190.882 97.7208 192.24 94.7759C193.636 91.7872 195.032 88.6859 196.309 85.6338L201.886 87.9053Z" fill="#803E3C"/>
<path d="M199.566 79.8953C196.656 80.5986 193.082 88.6437 193.082 88.6437L199.113 97.5748C199.113 97.5748 207.147 87.3849 206.19 84.2765C205.213 81.0346 203.119 79.0233 199.566 79.8953Z" fill="#263238"/>
<path d="M172.637 107.955L167.604 105.613L167.102 110.656C167.102 110.656 171.29 111.9 173.384 110.656L172.637 107.955Z" fill="#7F3E3B"/>
<path d="M164.595 105.106L164.113 108.946L167.101 110.655L167.603 105.613L164.595 105.106Z" fill="#7F3E3B"/>
<path d="M222.536 59.3248C221.468 65.0703 221.14 67.5317 217.873 70.1407C212.987 74.0648 206.182 71.4909 205.526 65.5415C204.925 60.1828 206.768 51.6876 212.68 50.0701C213.983 49.7082 215.355 49.6883 216.667 50.0126C217.979 50.3368 219.187 50.9942 220.175 51.9222C221.164 52.8503 221.9 54.0179 222.313 55.3137C222.726 56.6096 222.803 57.9905 222.536 59.3248Z" fill="#7F3E3B"/>
<path d="M210.006 60.5354C209.678 63.468 209.552 71.0841 215.946 71.3232C223.77 71.6115 226.116 64.8744 225.418 62.181C229.494 58.8406 230.08 53.0951 225.502 48.6999C220.923 44.3046 210.844 46.7589 208.052 51.0417C204.513 56.3511 210.006 60.5354 210.006 60.5354Z" fill="#263238"/>
<path d="M217.846 50.4087C217.469 47.3144 217.762 45.1836 220.638 45.1836C223.514 45.1836 227.437 46.2314 228.874 49.1921C230.312 52.1527 230.431 56.7871 226.417 56.3159C222.404 55.8448 218.3 54.1077 217.846 50.4087Z" fill="url(#paint10_linear_456_7103)"/>
<path d="M222.299 49.6629C221.601 45.9779 224.874 35.598 232.824 34.8948C236.51 34.5783 238.213 38.5727 236.314 39.2338C239.804 39.1916 242.038 43.84 238.785 44.5362C241.354 46.1959 240.719 49.5996 237.054 51.2733C234.325 52.5391 223.241 54.7684 222.299 49.6629Z" fill="#263238"/>
<path d="M230.795 53.623C228.233 53.623 225.56 53.2432 223.898 52.1251C223.434 51.843 223.043 51.4534 222.757 50.9887C222.472 50.524 222.301 49.9975 222.258 49.4528C222.256 49.4065 222.271 49.3612 222.301 49.326C222.331 49.2907 222.373 49.2682 222.419 49.2629C222.442 49.2599 222.465 49.2619 222.487 49.2686C222.51 49.2753 222.53 49.2866 222.548 49.3018C222.566 49.3171 222.58 49.3358 222.59 49.357C222.601 49.3781 222.606 49.4012 222.607 49.4246C222.649 49.9162 222.806 50.3908 223.064 50.8099C223.322 51.229 223.675 51.5808 224.094 51.8368C227.256 53.9465 234.564 53.2432 236.839 52.54C238.808 51.893 240.141 50.6342 240.406 49.1855C240.489 48.6539 240.424 48.1096 240.218 47.6131C240.012 47.1165 239.674 46.6871 239.24 46.3726C239.224 46.3568 239.21 46.3377 239.201 46.3165C239.192 46.2954 239.187 46.2726 239.187 46.2495C239.187 46.2264 239.192 46.2036 239.201 46.1824C239.21 46.1613 239.224 46.1422 239.24 46.1264C239.273 46.0942 239.317 46.0762 239.362 46.0762C239.408 46.0762 239.452 46.0942 239.485 46.1264C239.972 46.4846 240.351 46.9722 240.579 47.5348C240.807 48.0973 240.875 48.7127 240.776 49.3121C240.49 50.8944 239.073 52.2446 236.979 52.9338C234.958 53.447 232.878 53.6788 230.795 53.623Z" fill="#263238"/>
<path d="M208.227 59.7758C207.577 60.6944 207.309 61.8326 207.48 62.9475C207.71 64.4243 209.134 64.5227 210.167 63.5804C211.2 62.638 212.101 60.9362 211.34 59.7125C211.171 59.4482 210.938 59.2319 210.662 59.0842C210.387 58.9364 210.078 58.8622 209.766 58.8685C209.454 58.8749 209.149 58.9616 208.879 59.1204C208.61 59.2792 208.385 59.5049 208.227 59.7758Z" fill="#7F3E3B"/>
<path d="M208.625 115.444C208.625 115.444 212.017 155.874 215.542 178.659C218.383 197.063 220.631 240.08 220.631 240.08H228.602C228.602 240.08 231.436 198.35 229.998 180.15C226.347 134.087 234.493 130.332 226.11 115.451L208.625 115.444Z" fill="url(#paint11_linear_456_7103)"/>
<path opacity="0.4" d="M218.66 130.726C215.501 134.066 212.952 137.942 211.129 142.174C212.057 151.26 213.16 161.345 214.333 170.177C219.144 157.627 220.636 144.032 218.66 130.726Z" fill="black"/>
<path d="M203.05 115.191C203.05 115.191 195.686 159.348 194.527 179.25C197.417 197.654 209.241 236.557 209.241 236.557L216.493 233.906C216.493 233.906 212.48 191.486 208.117 179.876C217.938 146.563 225.156 138.138 223.055 115.445C218.022 115.445 203.05 115.191 203.05 115.191Z" fill="url(#paint12_linear_456_7103)"/>
<path d="M208.269 238.498L218.069 235.819L217.51 231.881L207.02 234.743L208.269 238.498Z" fill="#263238"/>
<path d="M219.536 240.241H229.692L230.223 236.655L219.48 236.289L219.536 240.241Z" fill="#263238"/>
<path d="M226.459 114.038L227.527 116.182C227.611 116.351 227.415 116.52 227.143 116.52H202.238C202.029 116.52 201.848 116.414 201.834 116.274L201.617 114.164C201.617 114.016 201.792 113.89 202.022 113.89H226.068C226.14 113.88 226.214 113.888 226.282 113.914C226.35 113.94 226.411 113.982 226.459 114.038Z" fill="url(#paint13_linear_456_7103)"/>
<path opacity="0.5" d="M226.459 114.038L227.527 116.182C227.611 116.351 227.415 116.52 227.143 116.52H202.238C202.029 116.52 201.848 116.414 201.834 116.274L201.617 114.164C201.617 114.016 201.792 113.89 202.022 113.89H226.068C226.14 113.88 226.214 113.888 226.282 113.914C226.35 113.94 226.411 113.982 226.459 114.038Z" fill="black"/>
<path d="M223.228 116.738H223.87C224.002 116.738 224.1 116.668 224.093 116.591L223.786 113.778C223.786 113.693 223.667 113.63 223.542 113.63H222.893C222.767 113.63 222.669 113.693 222.676 113.778L222.976 116.591C222.99 116.682 223.102 116.738 223.228 116.738Z" fill="url(#paint14_linear_456_7103)"/>
<path d="M214.584 96.2596C214.507 96.2585 214.433 96.2326 214.371 96.1858C214.31 96.139 214.265 96.0738 214.242 95.9994C211.967 87.5183 207.262 80.5281 204.98 79.4732C204.803 79.3635 204.59 79.3282 204.387 79.3748C204.345 79.3972 204.298 79.4106 204.251 79.4143C204.203 79.418 204.156 79.4118 204.111 79.3962C204.065 79.3806 204.024 79.3559 203.989 79.3235C203.954 79.2912 203.925 79.2519 203.906 79.2082C203.886 79.1644 203.876 79.1171 203.875 79.0691C203.874 79.0211 203.883 78.9734 203.902 78.9291C203.92 78.8847 203.947 78.8446 203.981 78.8112C204.015 78.7778 204.056 78.7518 204.101 78.7348C204.291 78.6643 204.495 78.6365 204.698 78.6535C204.9 78.6705 205.097 78.7319 205.273 78.8333C207.688 79.9866 212.463 86.8784 214.85 95.5494C216.56 95.5494 219.198 95.3173 219.84 95.261C220.636 94.3046 226.485 86.9346 224.301 78.8684C224.288 78.8241 224.284 78.7777 224.29 78.7319C224.295 78.6861 224.31 78.6419 224.333 78.6019C224.356 78.5619 224.386 78.5269 224.423 78.499C224.459 78.4711 224.501 78.4509 224.545 78.4395C224.634 78.4157 224.728 78.4283 224.808 78.4744C224.888 78.5205 224.946 78.5964 224.971 78.6856C227.407 87.659 220.343 95.7533 220.266 95.8307C220.239 95.8648 220.205 95.893 220.167 95.9135C220.128 95.9341 220.086 95.9466 220.043 95.9502C220.008 95.9502 216.525 96.2596 214.584 96.2596Z" fill="url(#paint15_linear_456_7103)"/>
<path d="M226.151 101.225C222.347 94.0447 220.791 93.5384 220.114 91.2318C220.627 89.9419 221.359 88.752 222.278 87.7156C221.817 87.5819 220.826 87.385 220.184 87.2655C220.253 86.949 220.33 86.6396 220.4 86.3372C219.701 86.2584 218.994 86.2917 218.306 86.4357V85.7324C217.419 85.5381 216.509 85.4788 215.605 85.5566C215.684 85.8895 215.761 86.227 215.835 86.5693C215.137 86.7029 214.076 86.9209 213.566 87.0686C214.557 88.1984 215.284 89.5366 215.695 90.9856C213.643 94.537 205.672 117.364 218.641 119.115C231.61 120.866 229.949 108.412 226.151 101.225Z" fill="url(#paint16_linear_456_7103)"/>
<path opacity="0.4" d="M226.151 101.225C222.347 94.0447 220.791 93.5384 220.114 91.2318C220.627 89.9419 221.359 88.752 222.278 87.7156C221.817 87.5819 220.826 87.385 220.184 87.2655C220.253 86.949 220.33 86.6396 220.4 86.3372C219.701 86.2584 218.994 86.2917 218.306 86.4357V85.7324C217.419 85.5381 216.509 85.4788 215.605 85.5566C215.684 85.8895 215.761 86.227 215.835 86.5693C215.137 86.7029 214.076 86.9209 213.566 87.0686C214.557 88.1984 215.284 89.5366 215.695 90.9856C213.643 94.537 205.672 117.364 218.641 119.115C231.61 120.866 229.949 108.412 226.151 101.225Z" fill="white"/>
<path d="M215.165 90.3027C215.085 90.6649 215.049 91.0358 215.061 91.4068C215.061 91.667 215.759 91.8428 216.533 91.9202C217.308 91.9976 220.561 92.1241 220.456 91.7584C220.351 91.3928 220.617 90.8935 220.631 90.584C220.645 90.2746 219.339 90.2605 218.244 90.3027C217.148 90.3449 215.382 89.9089 215.165 90.3027Z" fill="url(#paint17_linear_456_7103)"/>
<path d="M207.621 116.738H208.263C208.388 116.738 208.486 116.668 208.479 116.591L208.179 113.778C208.179 113.693 208.06 113.63 207.928 113.63H207.307C207.181 113.63 207.083 113.693 207.09 113.778L207.39 116.591C207.376 116.682 207.488 116.738 207.621 116.738Z" fill="url(#paint18_linear_456_7103)"/>
<defs>
<linearGradient id="paint0_linear_456_7103" x1="79.1445" y1="51.8145" x2="203.199" y2="67.392" gradientUnits="userSpaceOnUse">
<stop stop-color="#014868"/>
<stop offset="0.460225" stop-color="#001E42"/>
<stop offset="1" stop-color="#451338"/>
</linearGradient>
<linearGradient id="paint1_linear_456_7103" x1="154.617" y1="46.7373" x2="155.99" y2="50.4702" gradientUnits="userSpaceOnUse">
<stop stop-color="#014868"/>
<stop offset="0.460225" stop-color="#001E42"/>
<stop offset="1" stop-color="#451338"/>
</linearGradient>
<linearGradient id="paint2_linear_456_7103" x1="147.594" y1="46.7373" x2="149.712" y2="48.8489" gradientUnits="userSpaceOnUse">
<stop stop-color="#014868"/>
<stop offset="0.460225" stop-color="#001E42"/>
<stop offset="1" stop-color="#451338"/>
</linearGradient>
<linearGradient id="paint3_linear_456_7103" x1="87.4492" y1="49.1914" x2="206.106" y2="64.093" gradientUnits="userSpaceOnUse">
<stop stop-color="#014868"/>
<stop offset="0.460225" stop-color="#001E42"/>
<stop offset="1" stop-color="#451338"/>
</linearGradient>
<linearGradient id="paint4_linear_456_7103" x1="119.047" y1="92.7217" x2="155.319" y2="108.258" gradientUnits="userSpaceOnUse">
<stop stop-color="#014868"/>
<stop offset="0.460225" stop-color="#001E42"/>
<stop offset="1" stop-color="#451338"/>
</linearGradient>
<linearGradient id="paint5_linear_456_7103" x1="123.359" y1="80.9688" x2="140.453" y2="68.96" gradientUnits="userSpaceOnUse">
<stop stop-color="#014868"/>
<stop offset="0.460225" stop-color="#001E42"/>
<stop offset="1" stop-color="#451338"/>
</linearGradient>
<linearGradient id="paint6_linear_456_7103" x1="217.562" y1="246.905" x2="220.617" y2="248.097" gradientUnits="userSpaceOnUse">
<stop stop-color="#014868"/>
<stop offset="0.460225" stop-color="#001E42"/>
<stop offset="1" stop-color="#451338"/>
</linearGradient>
<linearGradient id="paint7_linear_456_7103" x1="218.859" y1="245.537" x2="220.827" y2="245.783" gradientUnits="userSpaceOnUse">
<stop stop-color="#014868"/>
<stop offset="0.460225" stop-color="#001E42"/>
<stop offset="1" stop-color="#451338"/>
</linearGradient>
<linearGradient id="paint8_linear_456_7103" x1="208.766" y1="245.281" x2="212.253" y2="246.856" gradientUnits="userSpaceOnUse">
<stop stop-color="#014868"/>
<stop offset="0.460225" stop-color="#001E42"/>
<stop offset="1" stop-color="#451338"/>
</linearGradient>
<linearGradient id="paint9_linear_456_7103" x1="209.461" y1="243.66" x2="212.572" y2="244.557" gradientUnits="userSpaceOnUse">
<stop stop-color="#014868"/>
<stop offset="0.460225" stop-color="#001E42"/>
<stop offset="1" stop-color="#451338"/>
</linearGradient>
<linearGradient id="paint10_linear_456_7103" x1="217.715" y1="45.1836" x2="231.247" y2="48.0256" gradientUnits="userSpaceOnUse">
<stop stop-color="#014868"/>
<stop offset="0.460225" stop-color="#001E42"/>
<stop offset="1" stop-color="#451338"/>
</linearGradient>
<linearGradient id="paint11_linear_456_7103" x1="208.625" y1="115.444" x2="234.085" y2="116.308" gradientUnits="userSpaceOnUse">
<stop stop-color="#014868"/>
<stop offset="0.460225" stop-color="#001E42"/>
<stop offset="1" stop-color="#451338"/>
</linearGradient>
<linearGradient id="paint12_linear_456_7103" x1="194.527" y1="115.191" x2="228.269" y2="116.752" gradientUnits="userSpaceOnUse">
<stop stop-color="#014868"/>
<stop offset="0.460225" stop-color="#001E42"/>
<stop offset="1" stop-color="#451338"/>
</linearGradient>
<linearGradient id="paint13_linear_456_7103" x1="201.617" y1="113.886" x2="208.136" y2="126.348" gradientUnits="userSpaceOnUse">
<stop stop-color="#014868"/>
<stop offset="0.460225" stop-color="#001E42"/>
<stop offset="1" stop-color="#451338"/>
</linearGradient>
<linearGradient id="paint14_linear_456_7103" x1="222.676" y1="113.63" x2="224.322" y2="113.776" gradientUnits="userSpaceOnUse">
<stop stop-color="#014868"/>
<stop offset="0.460225" stop-color="#001E42"/>
<stop offset="1" stop-color="#451338"/>
</linearGradient>
<linearGradient id="paint15_linear_456_7103" x1="203.875" y1="78.4277" x2="227.834" y2="84.0663" gradientUnits="userSpaceOnUse">
<stop stop-color="#014868"/>
<stop offset="0.460225" stop-color="#001E42"/>
<stop offset="1" stop-color="#451338"/>
</linearGradient>
<linearGradient id="paint16_linear_456_7103" x1="211.391" y1="85.5234" x2="231.658" y2="87.5632" gradientUnits="userSpaceOnUse">
<stop stop-color="#014868"/>
<stop offset="0.460225" stop-color="#001E42"/>
<stop offset="1" stop-color="#451338"/>
</linearGradient>
<linearGradient id="paint17_linear_456_7103" x1="215.059" y1="90.1367" x2="219.942" y2="92.9646" gradientUnits="userSpaceOnUse">
<stop stop-color="#014868"/>
<stop offset="0.460225" stop-color="#001E42"/>
<stop offset="1" stop-color="#451338"/>
</linearGradient>
<linearGradient id="paint18_linear_456_7103" x1="207.09" y1="113.63" x2="208.704" y2="113.77" gradientUnits="userSpaceOnUse">
<stop stop-color="#014868"/>
<stop offset="0.460225" stop-color="#001E42"/>
<stop offset="1" stop-color="#451338"/>
</linearGradient>
</defs>
</svg>
