<svg xmlns="http://www.w3.org/2000/svg" width="34" height="34" viewBox="0 0 34 34" fill="none">
  <path d="M17.0001 24.65C16.1453 24.6501 15.3218 24.3283 14.6937 23.7487C14.0655 23.169 13.6787 22.374 13.6103 21.522C11.3428 20.7193 9.43178 19.1415 8.21454 17.0669C6.99729 14.9923 6.55211 12.5543 6.95756 10.1834C7.36302 7.81248 8.59304 5.66103 10.4305 4.10882C12.268 2.55661 14.5948 1.70345 17.0001 1.69995C19.5584 1.69958 22.0235 2.6606 23.9065 4.39245C25.7895 6.12431 26.9529 8.50053 27.1661 11.05C27.1732 11.1605 27.1572 11.2714 27.1192 11.3755C27.0811 11.4795 27.0219 11.5746 26.9451 11.6545C26.8684 11.7344 26.7759 11.7975 26.6734 11.8398C26.571 11.8821 26.4609 11.9025 26.3501 11.9C26.1225 11.8939 25.9053 11.8036 25.7404 11.6466C25.5755 11.4896 25.4748 11.277 25.4576 11.05C25.3062 9.54687 24.7569 8.1113 23.8664 6.89102C22.9758 5.67075 21.7761 4.70987 20.3908 4.1073C19.0055 3.50473 17.4846 3.28225 15.9848 3.46276C14.4849 3.64327 13.0602 4.22024 11.8574 5.13429C10.6547 6.04834 9.7172 7.26642 9.14159 8.66315C8.56599 10.0599 8.37302 11.5848 8.58256 13.0809C8.7921 14.5769 9.39658 15.9902 10.3338 17.175C11.271 18.3598 12.507 19.2735 13.9146 19.822C14.1707 19.2685 14.571 18.7942 15.0734 18.4486C15.5759 18.103 16.1621 17.8989 16.7705 17.8577C17.3789 17.8165 17.9872 17.9397 18.5317 18.2144C19.0761 18.4891 19.5367 18.9052 19.8651 19.419C20.1935 19.9329 20.3776 20.5256 20.3982 21.1351C20.4188 21.7446 20.2751 22.3484 19.9822 22.8832C19.6893 23.4181 19.2579 23.8643 18.7332 24.1751C18.2085 24.486 17.6099 24.65 17.0001 24.65ZM8.5154 20.4H8.6701C9.3331 21.0477 10.0692 21.6189 10.8665 22.1H8.5154C7.5617 22.1 6.8001 22.8599 6.8001 23.8C6.8001 26.0253 7.8575 27.6828 9.6442 28.8201C11.4632 29.9812 14.0506 30.6 17.0001 30.6C19.9496 30.6 22.537 29.9812 24.356 28.8201C26.141 27.6811 27.2001 26.027 27.2001 23.8C27.2001 23.3491 27.021 22.9167 26.7022 22.5979C26.3834 22.2791 25.951 22.1 25.5001 22.1H22.0304C22.1249 21.5372 22.1249 20.9627 22.0304 20.4H25.5001C26.4018 20.4 27.2666 20.7582 27.9043 21.3958C28.5419 22.0334 28.9001 22.8982 28.9001 23.8C28.9001 26.6747 27.484 28.8422 25.2706 30.2549C23.0912 31.6438 20.1536 32.3 17.0001 32.3C13.8466 32.3 10.909 31.6438 8.7296 30.2549C6.5162 28.8439 5.1001 26.673 5.1001 23.8C5.1001 21.9079 6.6352 20.4 8.5154 20.4ZM23.8001 11.9C23.8009 13.0503 23.5097 14.1821 22.9537 15.1892C22.3977 16.1963 21.5951 17.0457 20.6211 17.6579C20.1671 17.2005 19.6306 16.833 19.0401 16.575C20.114 16.1063 20.9937 15.2822 21.5314 14.2411C22.0691 13.2001 22.2319 12.0057 21.9925 10.8587C21.7531 9.71179 21.1261 8.68223 20.2169 7.94319C19.3077 7.20416 18.1718 6.80072 17.0001 6.80072C15.8284 6.80072 14.6925 7.20416 13.7833 7.94319C12.8741 8.68223 12.2471 9.71179 12.0077 10.8587C11.7683 12.0057 11.9311 13.2001 12.4688 14.2411C13.0065 15.2822 13.8862 16.1063 14.9601 16.575C14.3651 16.8351 13.8296 17.204 13.3791 17.6579C12.0889 16.8446 11.1085 15.6224 10.5945 14.1865C10.3325 13.4527 10.199 12.6791 10.2001 11.9C10.2001 10.0965 10.9165 8.36687 12.1918 7.09163C13.467 5.81638 15.1966 5.09995 17.0001 5.09995C18.8036 5.09995 20.5332 5.81638 21.8084 7.09163C23.0837 8.36687 23.8001 10.0965 23.8001 11.9Z" fill="#FCFCFC"/>
</svg>